<?xml version="1.0" encoding="utf-8" standalone="no"?>
<!DOCTYPE svg PUBLIC "-//W3C//DTD SVG 1.1//EN"
  "http://www.w3.org/Graphics/SVG/1.1/DTD/svg11.dtd">
<!-- Created with matplotlib (https://matplotlib.org/) -->
<svg height="405.861562pt" version="1.1" viewBox="0 0 777.299437 405.861562" width="777.299437pt" xmlns="http://www.w3.org/2000/svg" xmlns:xlink="http://www.w3.org/1999/xlink">
 <defs>
  <style type="text/css">
*{stroke-linecap:butt;stroke-linejoin:round;}
  </style>
 </defs>
 <g id="figure_1">
  <g id="patch_1">
   <path d="M 0 405.861562 
L 777.299437 405.861562 
L 777.299437 0 
L 0 0 
z
" style="fill:#ffffff;"/>
  </g>
  <g id="axes_1">
   <g id="patch_2">
    <path d="M 59.90125 334.637812 
L 506.30125 334.637812 
L 506.30125 57.437813 
L 59.90125 57.437813 
z
" style="fill:#ffffff;"/>
   </g>
   <g id="matplotlib.axis_1">
    <g id="xtick_1">
     <g id="line2d_1">
      <path clip-path="url(#p8e027e803d)" d="M 59.90125 334.637812 
L 59.90125 57.437813 
" style="fill:none;stroke:#b0b0b0;stroke-linecap:square;stroke-width:0.8;"/>
     </g>
     <g id="line2d_2">
      <defs>
       <path d="M 0 0 
L 0 3.5 
" id="m913d29cb99" style="stroke:#000000;stroke-width:0.8;"/>
      </defs>
      <g>
       <use style="stroke:#000000;stroke-width:0.8;" x="59.90125" xlink:href="#m913d29cb99" y="334.637812"/>
      </g>
     </g>
     <g id="text_1">
      <!-- 0 -->
      <defs>
       <path d="M 31.78125 66.40625 
Q 24.171875 66.40625 20.328125 58.90625 
Q 16.5 51.421875 16.5 36.375 
Q 16.5 21.390625 20.328125 13.890625 
Q 24.171875 6.390625 31.78125 6.390625 
Q 39.453125 6.390625 43.28125 13.890625 
Q 47.125 21.390625 47.125 36.375 
Q 47.125 51.421875 43.28125 58.90625 
Q 39.453125 66.40625 31.78125 66.40625 
z
M 31.78125 74.21875 
Q 44.046875 74.21875 50.515625 64.515625 
Q 56.984375 54.828125 56.984375 36.375 
Q 56.984375 17.96875 50.515625 8.265625 
Q 44.046875 -1.421875 31.78125 -1.421875 
Q 19.53125 -1.421875 13.0625 8.265625 
Q 6.59375 17.96875 6.59375 36.375 
Q 6.59375 54.828125 13.0625 64.515625 
Q 19.53125 74.21875 31.78125 74.21875 
z
" id="DejaVuSans-48"/>
      </defs>
      <g transform="translate(56.72 349.23625)scale(0.1 -0.1)">
       <use xlink:href="#DejaVuSans-48"/>
      </g>
     </g>
    </g>
    <g id="xtick_2">
     <g id="line2d_3">
      <path clip-path="url(#p8e027e803d)" d="M 119.820713 334.637812 
L 119.820713 57.437813 
" style="fill:none;stroke:#b0b0b0;stroke-linecap:square;stroke-width:0.8;"/>
     </g>
     <g id="line2d_4">
      <g>
       <use style="stroke:#000000;stroke-width:0.8;" x="119.820713" xlink:href="#m913d29cb99" y="334.637812"/>
      </g>
     </g>
     <g id="text_2">
      <!-- 20 -->
      <defs>
       <path d="M 19.1875 8.296875 
L 53.609375 8.296875 
L 53.609375 0 
L 7.328125 0 
L 7.328125 8.296875 
Q 12.9375 14.109375 22.625 23.890625 
Q 32.328125 33.6875 34.8125 36.53125 
Q 39.546875 41.84375 41.421875 45.53125 
Q 43.3125 49.21875 43.3125 52.78125 
Q 43.3125 58.59375 39.234375 62.25 
Q 35.15625 65.921875 28.609375 65.921875 
Q 23.96875 65.921875 18.8125 64.3125 
Q 13.671875 62.703125 7.8125 59.421875 
L 7.8125 69.390625 
Q 13.765625 71.78125 18.9375 73 
Q 24.125 74.21875 28.421875 74.21875 
Q 39.75 74.21875 46.484375 68.546875 
Q 53.21875 62.890625 53.21875 53.421875 
Q 53.21875 48.921875 51.53125 44.890625 
Q 49.859375 40.875 45.40625 35.40625 
Q 44.1875 33.984375 37.640625 27.21875 
Q 31.109375 20.453125 19.1875 8.296875 
z
" id="DejaVuSans-50"/>
      </defs>
      <g transform="translate(113.458213 349.23625)scale(0.1 -0.1)">
       <use xlink:href="#DejaVuSans-50"/>
       <use x="63.623047" xlink:href="#DejaVuSans-48"/>
      </g>
     </g>
    </g>
    <g id="xtick_3">
     <g id="line2d_5">
      <path clip-path="url(#p8e027e803d)" d="M 179.740176 334.637812 
L 179.740176 57.437813 
" style="fill:none;stroke:#b0b0b0;stroke-linecap:square;stroke-width:0.8;"/>
     </g>
     <g id="line2d_6">
      <g>
       <use style="stroke:#000000;stroke-width:0.8;" x="179.740176" xlink:href="#m913d29cb99" y="334.637812"/>
      </g>
     </g>
     <g id="text_3">
      <!-- 40 -->
      <defs>
       <path d="M 37.796875 64.3125 
L 12.890625 25.390625 
L 37.796875 25.390625 
z
M 35.203125 72.90625 
L 47.609375 72.90625 
L 47.609375 25.390625 
L 58.015625 25.390625 
L 58.015625 17.1875 
L 47.609375 17.1875 
L 47.609375 0 
L 37.796875 0 
L 37.796875 17.1875 
L 4.890625 17.1875 
L 4.890625 26.703125 
z
" id="DejaVuSans-52"/>
      </defs>
      <g transform="translate(173.377676 349.23625)scale(0.1 -0.1)">
       <use xlink:href="#DejaVuSans-52"/>
       <use x="63.623047" xlink:href="#DejaVuSans-48"/>
      </g>
     </g>
    </g>
    <g id="xtick_4">
     <g id="line2d_7">
      <path clip-path="url(#p8e027e803d)" d="M 239.659639 334.637812 
L 239.659639 57.437813 
" style="fill:none;stroke:#b0b0b0;stroke-linecap:square;stroke-width:0.8;"/>
     </g>
     <g id="line2d_8">
      <g>
       <use style="stroke:#000000;stroke-width:0.8;" x="239.659639" xlink:href="#m913d29cb99" y="334.637812"/>
      </g>
     </g>
     <g id="text_4">
      <!-- 60 -->
      <defs>
       <path d="M 33.015625 40.375 
Q 26.375 40.375 22.484375 35.828125 
Q 18.609375 31.296875 18.609375 23.390625 
Q 18.609375 15.53125 22.484375 10.953125 
Q 26.375 6.390625 33.015625 6.390625 
Q 39.65625 6.390625 43.53125 10.953125 
Q 47.40625 15.53125 47.40625 23.390625 
Q 47.40625 31.296875 43.53125 35.828125 
Q 39.65625 40.375 33.015625 40.375 
z
M 52.59375 71.296875 
L 52.59375 62.3125 
Q 48.875 64.0625 45.09375 64.984375 
Q 41.3125 65.921875 37.59375 65.921875 
Q 27.828125 65.921875 22.671875 59.328125 
Q 17.53125 52.734375 16.796875 39.40625 
Q 19.671875 43.65625 24.015625 45.921875 
Q 28.375 48.1875 33.59375 48.1875 
Q 44.578125 48.1875 50.953125 41.515625 
Q 57.328125 34.859375 57.328125 23.390625 
Q 57.328125 12.15625 50.6875 5.359375 
Q 44.046875 -1.421875 33.015625 -1.421875 
Q 20.359375 -1.421875 13.671875 8.265625 
Q 6.984375 17.96875 6.984375 36.375 
Q 6.984375 53.65625 15.1875 63.9375 
Q 23.390625 74.21875 37.203125 74.21875 
Q 40.921875 74.21875 44.703125 73.484375 
Q 48.484375 72.75 52.59375 71.296875 
z
" id="DejaVuSans-54"/>
      </defs>
      <g transform="translate(233.297139 349.23625)scale(0.1 -0.1)">
       <use xlink:href="#DejaVuSans-54"/>
       <use x="63.623047" xlink:href="#DejaVuSans-48"/>
      </g>
     </g>
    </g>
    <g id="xtick_5">
     <g id="line2d_9">
      <path clip-path="url(#p8e027e803d)" d="M 299.579102 334.637812 
L 299.579102 57.437813 
" style="fill:none;stroke:#b0b0b0;stroke-linecap:square;stroke-width:0.8;"/>
     </g>
     <g id="line2d_10">
      <g>
       <use style="stroke:#000000;stroke-width:0.8;" x="299.579102" xlink:href="#m913d29cb99" y="334.637812"/>
      </g>
     </g>
     <g id="text_5">
      <!-- 80 -->
      <defs>
       <path d="M 31.78125 34.625 
Q 24.75 34.625 20.71875 30.859375 
Q 16.703125 27.09375 16.703125 20.515625 
Q 16.703125 13.921875 20.71875 10.15625 
Q 24.75 6.390625 31.78125 6.390625 
Q 38.8125 6.390625 42.859375 10.171875 
Q 46.921875 13.96875 46.921875 20.515625 
Q 46.921875 27.09375 42.890625 30.859375 
Q 38.875 34.625 31.78125 34.625 
z
M 21.921875 38.8125 
Q 15.578125 40.375 12.03125 44.71875 
Q 8.5 49.078125 8.5 55.328125 
Q 8.5 64.0625 14.71875 69.140625 
Q 20.953125 74.21875 31.78125 74.21875 
Q 42.671875 74.21875 48.875 69.140625 
Q 55.078125 64.0625 55.078125 55.328125 
Q 55.078125 49.078125 51.53125 44.71875 
Q 48 40.375 41.703125 38.8125 
Q 48.828125 37.15625 52.796875 32.3125 
Q 56.78125 27.484375 56.78125 20.515625 
Q 56.78125 9.90625 50.3125 4.234375 
Q 43.84375 -1.421875 31.78125 -1.421875 
Q 19.734375 -1.421875 13.25 4.234375 
Q 6.78125 9.90625 6.78125 20.515625 
Q 6.78125 27.484375 10.78125 32.3125 
Q 14.796875 37.15625 21.921875 38.8125 
z
M 18.3125 54.390625 
Q 18.3125 48.734375 21.84375 45.5625 
Q 25.390625 42.390625 31.78125 42.390625 
Q 38.140625 42.390625 41.71875 45.5625 
Q 45.3125 48.734375 45.3125 54.390625 
Q 45.3125 60.0625 41.71875 63.234375 
Q 38.140625 66.40625 31.78125 66.40625 
Q 25.390625 66.40625 21.84375 63.234375 
Q 18.3125 60.0625 18.3125 54.390625 
z
" id="DejaVuSans-56"/>
      </defs>
      <g transform="translate(293.216602 349.23625)scale(0.1 -0.1)">
       <use xlink:href="#DejaVuSans-56"/>
       <use x="63.623047" xlink:href="#DejaVuSans-48"/>
      </g>
     </g>
    </g>
    <g id="xtick_6">
     <g id="line2d_11">
      <path clip-path="url(#p8e027e803d)" d="M 359.498565 334.637812 
L 359.498565 57.437813 
" style="fill:none;stroke:#b0b0b0;stroke-linecap:square;stroke-width:0.8;"/>
     </g>
     <g id="line2d_12">
      <g>
       <use style="stroke:#000000;stroke-width:0.8;" x="359.498565" xlink:href="#m913d29cb99" y="334.637812"/>
      </g>
     </g>
     <g id="text_6">
      <!-- 100 -->
      <defs>
       <path d="M 12.40625 8.296875 
L 28.515625 8.296875 
L 28.515625 63.921875 
L 10.984375 60.40625 
L 10.984375 69.390625 
L 28.421875 72.90625 
L 38.28125 72.90625 
L 38.28125 8.296875 
L 54.390625 8.296875 
L 54.390625 0 
L 12.40625 0 
z
" id="DejaVuSans-49"/>
      </defs>
      <g transform="translate(349.954815 349.23625)scale(0.1 -0.1)">
       <use xlink:href="#DejaVuSans-49"/>
       <use x="63.623047" xlink:href="#DejaVuSans-48"/>
       <use x="127.246094" xlink:href="#DejaVuSans-48"/>
      </g>
     </g>
    </g>
    <g id="xtick_7">
     <g id="line2d_13">
      <path clip-path="url(#p8e027e803d)" d="M 419.418029 334.637812 
L 419.418029 57.437813 
" style="fill:none;stroke:#b0b0b0;stroke-linecap:square;stroke-width:0.8;"/>
     </g>
     <g id="line2d_14">
      <g>
       <use style="stroke:#000000;stroke-width:0.8;" x="419.418029" xlink:href="#m913d29cb99" y="334.637812"/>
      </g>
     </g>
     <g id="text_7">
      <!-- 120 -->
      <g transform="translate(409.874279 349.23625)scale(0.1 -0.1)">
       <use xlink:href="#DejaVuSans-49"/>
       <use x="63.623047" xlink:href="#DejaVuSans-50"/>
       <use x="127.246094" xlink:href="#DejaVuSans-48"/>
      </g>
     </g>
    </g>
    <g id="xtick_8">
     <g id="line2d_15">
      <path clip-path="url(#p8e027e803d)" d="M 479.337492 334.637812 
L 479.337492 57.437813 
" style="fill:none;stroke:#b0b0b0;stroke-linecap:square;stroke-width:0.8;"/>
     </g>
     <g id="line2d_16">
      <g>
       <use style="stroke:#000000;stroke-width:0.8;" x="479.337492" xlink:href="#m913d29cb99" y="334.637812"/>
      </g>
     </g>
     <g id="text_8">
      <!-- 140 -->
      <g transform="translate(469.793742 349.23625)scale(0.1 -0.1)">
       <use xlink:href="#DejaVuSans-49"/>
       <use x="63.623047" xlink:href="#DejaVuSans-52"/>
       <use x="127.246094" xlink:href="#DejaVuSans-48"/>
      </g>
     </g>
    </g>
    <g id="text_9">
     <!-- Length of shoreline surveyed -->
     <defs>
      <path d="M 9.8125 72.90625 
L 19.671875 72.90625 
L 19.671875 8.296875 
L 55.171875 8.296875 
L 55.171875 0 
L 9.8125 0 
z
" id="DejaVuSans-76"/>
      <path d="M 56.203125 29.59375 
L 56.203125 25.203125 
L 14.890625 25.203125 
Q 15.484375 15.921875 20.484375 11.0625 
Q 25.484375 6.203125 34.421875 6.203125 
Q 39.59375 6.203125 44.453125 7.46875 
Q 49.3125 8.734375 54.109375 11.28125 
L 54.109375 2.78125 
Q 49.265625 0.734375 44.1875 -0.34375 
Q 39.109375 -1.421875 33.890625 -1.421875 
Q 20.796875 -1.421875 13.15625 6.1875 
Q 5.515625 13.8125 5.515625 26.8125 
Q 5.515625 40.234375 12.765625 48.109375 
Q 20.015625 56 32.328125 56 
Q 43.359375 56 49.78125 48.890625 
Q 56.203125 41.796875 56.203125 29.59375 
z
M 47.21875 32.234375 
Q 47.125 39.59375 43.09375 43.984375 
Q 39.0625 48.390625 32.421875 48.390625 
Q 24.90625 48.390625 20.390625 44.140625 
Q 15.875 39.890625 15.1875 32.171875 
z
" id="DejaVuSans-101"/>
      <path d="M 54.890625 33.015625 
L 54.890625 0 
L 45.90625 0 
L 45.90625 32.71875 
Q 45.90625 40.484375 42.875 44.328125 
Q 39.84375 48.1875 33.796875 48.1875 
Q 26.515625 48.1875 22.3125 43.546875 
Q 18.109375 38.921875 18.109375 30.90625 
L 18.109375 0 
L 9.078125 0 
L 9.078125 54.6875 
L 18.109375 54.6875 
L 18.109375 46.1875 
Q 21.34375 51.125 25.703125 53.5625 
Q 30.078125 56 35.796875 56 
Q 45.21875 56 50.046875 50.171875 
Q 54.890625 44.34375 54.890625 33.015625 
z
" id="DejaVuSans-110"/>
      <path d="M 45.40625 27.984375 
Q 45.40625 37.75 41.375 43.109375 
Q 37.359375 48.484375 30.078125 48.484375 
Q 22.859375 48.484375 18.828125 43.109375 
Q 14.796875 37.75 14.796875 27.984375 
Q 14.796875 18.265625 18.828125 12.890625 
Q 22.859375 7.515625 30.078125 7.515625 
Q 37.359375 7.515625 41.375 12.890625 
Q 45.40625 18.265625 45.40625 27.984375 
z
M 54.390625 6.78125 
Q 54.390625 -7.171875 48.1875 -13.984375 
Q 42 -20.796875 29.203125 -20.796875 
Q 24.46875 -20.796875 20.265625 -20.09375 
Q 16.0625 -19.390625 12.109375 -17.921875 
L 12.109375 -9.1875 
Q 16.0625 -11.328125 19.921875 -12.34375 
Q 23.78125 -13.375 27.78125 -13.375 
Q 36.625 -13.375 41.015625 -8.765625 
Q 45.40625 -4.15625 45.40625 5.171875 
L 45.40625 9.625 
Q 42.625 4.78125 38.28125 2.390625 
Q 33.9375 0 27.875 0 
Q 17.828125 0 11.671875 7.65625 
Q 5.515625 15.328125 5.515625 27.984375 
Q 5.515625 40.671875 11.671875 48.328125 
Q 17.828125 56 27.875 56 
Q 33.9375 56 38.28125 53.609375 
Q 42.625 51.21875 45.40625 46.390625 
L 45.40625 54.6875 
L 54.390625 54.6875 
z
" id="DejaVuSans-103"/>
      <path d="M 18.3125 70.21875 
L 18.3125 54.6875 
L 36.8125 54.6875 
L 36.8125 47.703125 
L 18.3125 47.703125 
L 18.3125 18.015625 
Q 18.3125 11.328125 20.140625 9.421875 
Q 21.96875 7.515625 27.59375 7.515625 
L 36.8125 7.515625 
L 36.8125 0 
L 27.59375 0 
Q 17.1875 0 13.234375 3.875 
Q 9.28125 7.765625 9.28125 18.015625 
L 9.28125 47.703125 
L 2.6875 47.703125 
L 2.6875 54.6875 
L 9.28125 54.6875 
L 9.28125 70.21875 
z
" id="DejaVuSans-116"/>
      <path d="M 54.890625 33.015625 
L 54.890625 0 
L 45.90625 0 
L 45.90625 32.71875 
Q 45.90625 40.484375 42.875 44.328125 
Q 39.84375 48.1875 33.796875 48.1875 
Q 26.515625 48.1875 22.3125 43.546875 
Q 18.109375 38.921875 18.109375 30.90625 
L 18.109375 0 
L 9.078125 0 
L 9.078125 75.984375 
L 18.109375 75.984375 
L 18.109375 46.1875 
Q 21.34375 51.125 25.703125 53.5625 
Q 30.078125 56 35.796875 56 
Q 45.21875 56 50.046875 50.171875 
Q 54.890625 44.34375 54.890625 33.015625 
z
" id="DejaVuSans-104"/>
      <path id="DejaVuSans-32"/>
      <path d="M 30.609375 48.390625 
Q 23.390625 48.390625 19.1875 42.75 
Q 14.984375 37.109375 14.984375 27.296875 
Q 14.984375 17.484375 19.15625 11.84375 
Q 23.34375 6.203125 30.609375 6.203125 
Q 37.796875 6.203125 41.984375 11.859375 
Q 46.1875 17.53125 46.1875 27.296875 
Q 46.1875 37.015625 41.984375 42.703125 
Q 37.796875 48.390625 30.609375 48.390625 
z
M 30.609375 56 
Q 42.328125 56 49.015625 48.375 
Q 55.71875 40.765625 55.71875 27.296875 
Q 55.71875 13.875 49.015625 6.21875 
Q 42.328125 -1.421875 30.609375 -1.421875 
Q 18.84375 -1.421875 12.171875 6.21875 
Q 5.515625 13.875 5.515625 27.296875 
Q 5.515625 40.765625 12.171875 48.375 
Q 18.84375 56 30.609375 56 
z
" id="DejaVuSans-111"/>
      <path d="M 37.109375 75.984375 
L 37.109375 68.5 
L 28.515625 68.5 
Q 23.6875 68.5 21.796875 66.546875 
Q 19.921875 64.59375 19.921875 59.515625 
L 19.921875 54.6875 
L 34.71875 54.6875 
L 34.71875 47.703125 
L 19.921875 47.703125 
L 19.921875 0 
L 10.890625 0 
L 10.890625 47.703125 
L 2.296875 47.703125 
L 2.296875 54.6875 
L 10.890625 54.6875 
L 10.890625 58.5 
Q 10.890625 67.625 15.140625 71.796875 
Q 19.390625 75.984375 28.609375 75.984375 
z
" id="DejaVuSans-102"/>
      <path d="M 44.28125 53.078125 
L 44.28125 44.578125 
Q 40.484375 46.53125 36.375 47.5 
Q 32.28125 48.484375 27.875 48.484375 
Q 21.1875 48.484375 17.84375 46.4375 
Q 14.5 44.390625 14.5 40.28125 
Q 14.5 37.15625 16.890625 35.375 
Q 19.28125 33.59375 26.515625 31.984375 
L 29.59375 31.296875 
Q 39.15625 29.25 43.1875 25.515625 
Q 47.21875 21.78125 47.21875 15.09375 
Q 47.21875 7.46875 41.1875 3.015625 
Q 35.15625 -1.421875 24.609375 -1.421875 
Q 20.21875 -1.421875 15.453125 -0.5625 
Q 10.6875 0.296875 5.421875 2 
L 5.421875 11.28125 
Q 10.40625 8.6875 15.234375 7.390625 
Q 20.0625 6.109375 24.8125 6.109375 
Q 31.15625 6.109375 34.5625 8.28125 
Q 37.984375 10.453125 37.984375 14.40625 
Q 37.984375 18.0625 35.515625 20.015625 
Q 33.0625 21.96875 24.703125 23.78125 
L 21.578125 24.515625 
Q 13.234375 26.265625 9.515625 29.90625 
Q 5.8125 33.546875 5.8125 39.890625 
Q 5.8125 47.609375 11.28125 51.796875 
Q 16.75 56 26.8125 56 
Q 31.78125 56 36.171875 55.265625 
Q 40.578125 54.546875 44.28125 53.078125 
z
" id="DejaVuSans-115"/>
      <path d="M 41.109375 46.296875 
Q 39.59375 47.171875 37.8125 47.578125 
Q 36.03125 48 33.890625 48 
Q 26.265625 48 22.1875 43.046875 
Q 18.109375 38.09375 18.109375 28.8125 
L 18.109375 0 
L 9.078125 0 
L 9.078125 54.6875 
L 18.109375 54.6875 
L 18.109375 46.1875 
Q 20.953125 51.171875 25.484375 53.578125 
Q 30.03125 56 36.53125 56 
Q 37.453125 56 38.578125 55.875 
Q 39.703125 55.765625 41.0625 55.515625 
z
" id="DejaVuSans-114"/>
      <path d="M 9.421875 75.984375 
L 18.40625 75.984375 
L 18.40625 0 
L 9.421875 0 
z
" id="DejaVuSans-108"/>
      <path d="M 9.421875 54.6875 
L 18.40625 54.6875 
L 18.40625 0 
L 9.421875 0 
z
M 9.421875 75.984375 
L 18.40625 75.984375 
L 18.40625 64.59375 
L 9.421875 64.59375 
z
" id="DejaVuSans-105"/>
      <path d="M 8.5 21.578125 
L 8.5 54.6875 
L 17.484375 54.6875 
L 17.484375 21.921875 
Q 17.484375 14.15625 20.5 10.265625 
Q 23.53125 6.390625 29.59375 6.390625 
Q 36.859375 6.390625 41.078125 11.03125 
Q 45.3125 15.671875 45.3125 23.6875 
L 45.3125 54.6875 
L 54.296875 54.6875 
L 54.296875 0 
L 45.3125 0 
L 45.3125 8.40625 
Q 42.046875 3.421875 37.71875 1 
Q 33.40625 -1.421875 27.6875 -1.421875 
Q 18.265625 -1.421875 13.375 4.4375 
Q 8.5 10.296875 8.5 21.578125 
z
M 31.109375 56 
z
" id="DejaVuSans-117"/>
      <path d="M 2.984375 54.6875 
L 12.5 54.6875 
L 29.59375 8.796875 
L 46.6875 54.6875 
L 56.203125 54.6875 
L 35.6875 0 
L 23.484375 0 
z
" id="DejaVuSans-118"/>
      <path d="M 32.171875 -5.078125 
Q 28.375 -14.84375 24.75 -17.8125 
Q 21.140625 -20.796875 15.09375 -20.796875 
L 7.90625 -20.796875 
L 7.90625 -13.28125 
L 13.1875 -13.28125 
Q 16.890625 -13.28125 18.9375 -11.515625 
Q 21 -9.765625 23.484375 -3.21875 
L 25.09375 0.875 
L 2.984375 54.6875 
L 12.5 54.6875 
L 29.59375 11.921875 
L 46.6875 54.6875 
L 56.203125 54.6875 
z
" id="DejaVuSans-121"/>
      <path d="M 45.40625 46.390625 
L 45.40625 75.984375 
L 54.390625 75.984375 
L 54.390625 0 
L 45.40625 0 
L 45.40625 8.203125 
Q 42.578125 3.328125 38.25 0.953125 
Q 33.9375 -1.421875 27.875 -1.421875 
Q 17.96875 -1.421875 11.734375 6.484375 
Q 5.515625 14.40625 5.515625 27.296875 
Q 5.515625 40.1875 11.734375 48.09375 
Q 17.96875 56 27.875 56 
Q 33.9375 56 38.25 53.625 
Q 42.578125 51.265625 45.40625 46.390625 
z
M 14.796875 27.296875 
Q 14.796875 17.390625 18.875 11.75 
Q 22.953125 6.109375 30.078125 6.109375 
Q 37.203125 6.109375 41.296875 11.75 
Q 45.40625 17.390625 45.40625 27.296875 
Q 45.40625 37.203125 41.296875 42.84375 
Q 37.203125 48.484375 30.078125 48.484375 
Q 22.953125 48.484375 18.875 42.84375 
Q 14.796875 37.203125 14.796875 27.296875 
z
" id="DejaVuSans-100"/>
     </defs>
     <g transform="translate(59.90125 375.434062)scale(0.12 -0.12)">
      <use xlink:href="#DejaVuSans-76"/>
      <use x="55.697266" xlink:href="#DejaVuSans-101"/>
      <use x="117.220703" xlink:href="#DejaVuSans-110"/>
      <use x="180.599609" xlink:href="#DejaVuSans-103"/>
      <use x="244.076172" xlink:href="#DejaVuSans-116"/>
      <use x="283.285156" xlink:href="#DejaVuSans-104"/>
      <use x="346.664062" xlink:href="#DejaVuSans-32"/>
      <use x="378.451172" xlink:href="#DejaVuSans-111"/>
      <use x="439.632812" xlink:href="#DejaVuSans-102"/>
      <use x="474.837891" xlink:href="#DejaVuSans-32"/>
      <use x="506.625" xlink:href="#DejaVuSans-115"/>
      <use x="558.724609" xlink:href="#DejaVuSans-104"/>
      <use x="622.103516" xlink:href="#DejaVuSans-111"/>
      <use x="683.285156" xlink:href="#DejaVuSans-114"/>
      <use x="724.367188" xlink:href="#DejaVuSans-101"/>
      <use x="785.890625" xlink:href="#DejaVuSans-108"/>
      <use x="813.673828" xlink:href="#DejaVuSans-105"/>
      <use x="841.457031" xlink:href="#DejaVuSans-110"/>
      <use x="904.835938" xlink:href="#DejaVuSans-101"/>
      <use x="966.359375" xlink:href="#DejaVuSans-32"/>
      <use x="998.146484" xlink:href="#DejaVuSans-115"/>
      <use x="1050.246094" xlink:href="#DejaVuSans-117"/>
      <use x="1113.625" xlink:href="#DejaVuSans-114"/>
      <use x="1154.738281" xlink:href="#DejaVuSans-118"/>
      <use x="1213.917969" xlink:href="#DejaVuSans-101"/>
      <use x="1275.441406" xlink:href="#DejaVuSans-121"/>
      <use x="1334.621094" xlink:href="#DejaVuSans-101"/>
      <use x="1396.144531" xlink:href="#DejaVuSans-100"/>
     </g>
     <!-- *Time includes collection, sorting, counting, measuring and data entry. -->
     <defs>
      <path d="M 47.015625 60.890625 
L 29.5 51.421875 
L 47.015625 41.890625 
L 44.1875 37.109375 
L 27.78125 47.015625 
L 27.78125 28.609375 
L 22.21875 28.609375 
L 22.21875 47.015625 
L 5.8125 37.109375 
L 2.984375 41.890625 
L 20.515625 51.421875 
L 2.984375 60.890625 
L 5.8125 65.71875 
L 22.21875 55.8125 
L 22.21875 74.21875 
L 27.78125 74.21875 
L 27.78125 55.8125 
L 44.1875 65.71875 
z
" id="DejaVuSans-42"/>
      <path d="M -0.296875 72.90625 
L 61.375 72.90625 
L 61.375 64.59375 
L 35.5 64.59375 
L 35.5 0 
L 25.59375 0 
L 25.59375 64.59375 
L -0.296875 64.59375 
z
" id="DejaVuSans-84"/>
      <path d="M 52 44.1875 
Q 55.375 50.25 60.0625 53.125 
Q 64.75 56 71.09375 56 
Q 79.640625 56 84.28125 50.015625 
Q 88.921875 44.046875 88.921875 33.015625 
L 88.921875 0 
L 79.890625 0 
L 79.890625 32.71875 
Q 79.890625 40.578125 77.09375 44.375 
Q 74.3125 48.1875 68.609375 48.1875 
Q 61.625 48.1875 57.5625 43.546875 
Q 53.515625 38.921875 53.515625 30.90625 
L 53.515625 0 
L 44.484375 0 
L 44.484375 32.71875 
Q 44.484375 40.625 41.703125 44.40625 
Q 38.921875 48.1875 33.109375 48.1875 
Q 26.21875 48.1875 22.15625 43.53125 
Q 18.109375 38.875 18.109375 30.90625 
L 18.109375 0 
L 9.078125 0 
L 9.078125 54.6875 
L 18.109375 54.6875 
L 18.109375 46.1875 
Q 21.1875 51.21875 25.484375 53.609375 
Q 29.78125 56 35.6875 56 
Q 41.65625 56 45.828125 52.96875 
Q 50 49.953125 52 44.1875 
z
" id="DejaVuSans-109"/>
      <path d="M 48.78125 52.59375 
L 48.78125 44.1875 
Q 44.96875 46.296875 41.140625 47.34375 
Q 37.3125 48.390625 33.40625 48.390625 
Q 24.65625 48.390625 19.8125 42.84375 
Q 14.984375 37.3125 14.984375 27.296875 
Q 14.984375 17.28125 19.8125 11.734375 
Q 24.65625 6.203125 33.40625 6.203125 
Q 37.3125 6.203125 41.140625 7.25 
Q 44.96875 8.296875 48.78125 10.40625 
L 48.78125 2.09375 
Q 45.015625 0.34375 40.984375 -0.53125 
Q 36.96875 -1.421875 32.421875 -1.421875 
Q 20.0625 -1.421875 12.78125 6.34375 
Q 5.515625 14.109375 5.515625 27.296875 
Q 5.515625 40.671875 12.859375 48.328125 
Q 20.21875 56 33.015625 56 
Q 37.15625 56 41.109375 55.140625 
Q 45.0625 54.296875 48.78125 52.59375 
z
" id="DejaVuSans-99"/>
      <path d="M 11.71875 12.40625 
L 22.015625 12.40625 
L 22.015625 4 
L 14.015625 -11.625 
L 7.71875 -11.625 
L 11.71875 4 
z
" id="DejaVuSans-44"/>
      <path d="M 34.28125 27.484375 
Q 23.390625 27.484375 19.1875 25 
Q 14.984375 22.515625 14.984375 16.5 
Q 14.984375 11.71875 18.140625 8.90625 
Q 21.296875 6.109375 26.703125 6.109375 
Q 34.1875 6.109375 38.703125 11.40625 
Q 43.21875 16.703125 43.21875 25.484375 
L 43.21875 27.484375 
z
M 52.203125 31.203125 
L 52.203125 0 
L 43.21875 0 
L 43.21875 8.296875 
Q 40.140625 3.328125 35.546875 0.953125 
Q 30.953125 -1.421875 24.3125 -1.421875 
Q 15.921875 -1.421875 10.953125 3.296875 
Q 6 8.015625 6 15.921875 
Q 6 25.140625 12.171875 29.828125 
Q 18.359375 34.515625 30.609375 34.515625 
L 43.21875 34.515625 
L 43.21875 35.40625 
Q 43.21875 41.609375 39.140625 45 
Q 35.0625 48.390625 27.6875 48.390625 
Q 23 48.390625 18.546875 47.265625 
Q 14.109375 46.140625 10.015625 43.890625 
L 10.015625 52.203125 
Q 14.9375 54.109375 19.578125 55.046875 
Q 24.21875 56 28.609375 56 
Q 40.484375 56 46.34375 49.84375 
Q 52.203125 43.703125 52.203125 31.203125 
z
" id="DejaVuSans-97"/>
      <path d="M 10.6875 12.40625 
L 21 12.40625 
L 21 0 
L 10.6875 0 
z
" id="DejaVuSans-46"/>
     </defs>
     <g transform="translate(59.90125 396.165937)scale(0.12 -0.12)">
      <use xlink:href="#DejaVuSans-42"/>
      <use x="50" xlink:href="#DejaVuSans-84"/>
      <use x="111.037109" xlink:href="#DejaVuSans-105"/>
      <use x="138.820312" xlink:href="#DejaVuSans-109"/>
      <use x="236.232422" xlink:href="#DejaVuSans-101"/>
      <use x="297.755859" xlink:href="#DejaVuSans-32"/>
      <use x="329.542969" xlink:href="#DejaVuSans-105"/>
      <use x="357.326172" xlink:href="#DejaVuSans-110"/>
      <use x="420.705078" xlink:href="#DejaVuSans-99"/>
      <use x="475.685547" xlink:href="#DejaVuSans-108"/>
      <use x="503.46875" xlink:href="#DejaVuSans-117"/>
      <use x="566.847656" xlink:href="#DejaVuSans-100"/>
      <use x="630.324219" xlink:href="#DejaVuSans-101"/>
      <use x="691.847656" xlink:href="#DejaVuSans-115"/>
      <use x="743.947266" xlink:href="#DejaVuSans-32"/>
      <use x="775.734375" xlink:href="#DejaVuSans-99"/>
      <use x="830.714844" xlink:href="#DejaVuSans-111"/>
      <use x="891.896484" xlink:href="#DejaVuSans-108"/>
      <use x="919.679688" xlink:href="#DejaVuSans-108"/>
      <use x="947.462891" xlink:href="#DejaVuSans-101"/>
      <use x="1008.986328" xlink:href="#DejaVuSans-99"/>
      <use x="1063.966797" xlink:href="#DejaVuSans-116"/>
      <use x="1103.175781" xlink:href="#DejaVuSans-105"/>
      <use x="1130.958984" xlink:href="#DejaVuSans-111"/>
      <use x="1192.140625" xlink:href="#DejaVuSans-110"/>
      <use x="1255.519531" xlink:href="#DejaVuSans-44"/>
      <use x="1287.306641" xlink:href="#DejaVuSans-32"/>
      <use x="1319.09375" xlink:href="#DejaVuSans-115"/>
      <use x="1371.193359" xlink:href="#DejaVuSans-111"/>
      <use x="1432.375" xlink:href="#DejaVuSans-114"/>
      <use x="1473.488281" xlink:href="#DejaVuSans-116"/>
      <use x="1512.697266" xlink:href="#DejaVuSans-105"/>
      <use x="1540.480469" xlink:href="#DejaVuSans-110"/>
      <use x="1603.859375" xlink:href="#DejaVuSans-103"/>
      <use x="1667.335938" xlink:href="#DejaVuSans-44"/>
      <use x="1699.123047" xlink:href="#DejaVuSans-32"/>
      <use x="1730.910156" xlink:href="#DejaVuSans-99"/>
      <use x="1785.890625" xlink:href="#DejaVuSans-111"/>
      <use x="1847.072266" xlink:href="#DejaVuSans-117"/>
      <use x="1910.451172" xlink:href="#DejaVuSans-110"/>
      <use x="1973.830078" xlink:href="#DejaVuSans-116"/>
      <use x="2013.039062" xlink:href="#DejaVuSans-105"/>
      <use x="2040.822266" xlink:href="#DejaVuSans-110"/>
      <use x="2104.201172" xlink:href="#DejaVuSans-103"/>
      <use x="2167.677734" xlink:href="#DejaVuSans-44"/>
      <use x="2199.464844" xlink:href="#DejaVuSans-32"/>
      <use x="2231.251953" xlink:href="#DejaVuSans-109"/>
      <use x="2328.664062" xlink:href="#DejaVuSans-101"/>
      <use x="2390.1875" xlink:href="#DejaVuSans-97"/>
      <use x="2451.466797" xlink:href="#DejaVuSans-115"/>
      <use x="2503.566406" xlink:href="#DejaVuSans-117"/>
      <use x="2566.945312" xlink:href="#DejaVuSans-114"/>
      <use x="2608.058594" xlink:href="#DejaVuSans-105"/>
      <use x="2635.841797" xlink:href="#DejaVuSans-110"/>
      <use x="2699.220703" xlink:href="#DejaVuSans-103"/>
      <use x="2762.697266" xlink:href="#DejaVuSans-32"/>
      <use x="2794.484375" xlink:href="#DejaVuSans-97"/>
      <use x="2855.763672" xlink:href="#DejaVuSans-110"/>
      <use x="2919.142578" xlink:href="#DejaVuSans-100"/>
      <use x="2982.619141" xlink:href="#DejaVuSans-32"/>
      <use x="3014.40625" xlink:href="#DejaVuSans-100"/>
      <use x="3077.882812" xlink:href="#DejaVuSans-97"/>
      <use x="3139.162109" xlink:href="#DejaVuSans-116"/>
      <use x="3178.371094" xlink:href="#DejaVuSans-97"/>
      <use x="3239.650391" xlink:href="#DejaVuSans-32"/>
      <use x="3271.4375" xlink:href="#DejaVuSans-101"/>
      <use x="3332.960938" xlink:href="#DejaVuSans-110"/>
      <use x="3396.339844" xlink:href="#DejaVuSans-116"/>
      <use x="3435.548828" xlink:href="#DejaVuSans-114"/>
      <use x="3476.662109" xlink:href="#DejaVuSans-121"/>
      <use x="3535.623047" xlink:href="#DejaVuSans-46"/>
     </g>
    </g>
   </g>
   <g id="matplotlib.axis_2">
    <g id="ytick_1">
     <g id="line2d_17">
      <path clip-path="url(#p8e027e803d)" d="M 59.90125 317.886896 
L 506.30125 317.886896 
" style="fill:none;stroke:#b0b0b0;stroke-linecap:square;stroke-width:0.8;"/>
     </g>
     <g id="line2d_18">
      <defs>
       <path d="M 0 0 
L -3.5 0 
" id="m59c29ad00f" style="stroke:#000000;stroke-width:0.8;"/>
      </defs>
      <g>
       <use style="stroke:#000000;stroke-width:0.8;" x="59.90125" xlink:href="#m59c29ad00f" y="317.886896"/>
      </g>
     </g>
     <g id="text_10">
      <!-- 60 -->
      <g transform="translate(40.17625 321.686115)scale(0.1 -0.1)">
       <use xlink:href="#DejaVuSans-54"/>
       <use x="63.623047" xlink:href="#DejaVuSans-48"/>
      </g>
     </g>
    </g>
    <g id="ytick_2">
     <g id="line2d_19">
      <path clip-path="url(#p8e027e803d)" d="M 59.90125 285.279248 
L 506.30125 285.279248 
" style="fill:none;stroke:#b0b0b0;stroke-linecap:square;stroke-width:0.8;"/>
     </g>
     <g id="line2d_20">
      <g>
       <use style="stroke:#000000;stroke-width:0.8;" x="59.90125" xlink:href="#m59c29ad00f" y="285.279248"/>
      </g>
     </g>
     <g id="text_11">
      <!-- 80 -->
      <g transform="translate(40.17625 289.078467)scale(0.1 -0.1)">
       <use xlink:href="#DejaVuSans-56"/>
       <use x="63.623047" xlink:href="#DejaVuSans-48"/>
      </g>
     </g>
    </g>
    <g id="ytick_3">
     <g id="line2d_21">
      <path clip-path="url(#p8e027e803d)" d="M 59.90125 252.6716 
L 506.30125 252.6716 
" style="fill:none;stroke:#b0b0b0;stroke-linecap:square;stroke-width:0.8;"/>
     </g>
     <g id="line2d_22">
      <g>
       <use style="stroke:#000000;stroke-width:0.8;" x="59.90125" xlink:href="#m59c29ad00f" y="252.6716"/>
      </g>
     </g>
     <g id="text_12">
      <!-- 100 -->
      <g transform="translate(33.81375 256.470819)scale(0.1 -0.1)">
       <use xlink:href="#DejaVuSans-49"/>
       <use x="63.623047" xlink:href="#DejaVuSans-48"/>
       <use x="127.246094" xlink:href="#DejaVuSans-48"/>
      </g>
     </g>
    </g>
    <g id="ytick_4">
     <g id="line2d_23">
      <path clip-path="url(#p8e027e803d)" d="M 59.90125 220.063952 
L 506.30125 220.063952 
" style="fill:none;stroke:#b0b0b0;stroke-linecap:square;stroke-width:0.8;"/>
     </g>
     <g id="line2d_24">
      <g>
       <use style="stroke:#000000;stroke-width:0.8;" x="59.90125" xlink:href="#m59c29ad00f" y="220.063952"/>
      </g>
     </g>
     <g id="text_13">
      <!-- 120 -->
      <g transform="translate(33.81375 223.86317)scale(0.1 -0.1)">
       <use xlink:href="#DejaVuSans-49"/>
       <use x="63.623047" xlink:href="#DejaVuSans-50"/>
       <use x="127.246094" xlink:href="#DejaVuSans-48"/>
      </g>
     </g>
    </g>
    <g id="ytick_5">
     <g id="line2d_25">
      <path clip-path="url(#p8e027e803d)" d="M 59.90125 187.456303 
L 506.30125 187.456303 
" style="fill:none;stroke:#b0b0b0;stroke-linecap:square;stroke-width:0.8;"/>
     </g>
     <g id="line2d_26">
      <g>
       <use style="stroke:#000000;stroke-width:0.8;" x="59.90125" xlink:href="#m59c29ad00f" y="187.456303"/>
      </g>
     </g>
     <g id="text_14">
      <!-- 140 -->
      <g transform="translate(33.81375 191.255522)scale(0.1 -0.1)">
       <use xlink:href="#DejaVuSans-49"/>
       <use x="63.623047" xlink:href="#DejaVuSans-52"/>
       <use x="127.246094" xlink:href="#DejaVuSans-48"/>
      </g>
     </g>
    </g>
    <g id="ytick_6">
     <g id="line2d_27">
      <path clip-path="url(#p8e027e803d)" d="M 59.90125 154.848655 
L 506.30125 154.848655 
" style="fill:none;stroke:#b0b0b0;stroke-linecap:square;stroke-width:0.8;"/>
     </g>
     <g id="line2d_28">
      <g>
       <use style="stroke:#000000;stroke-width:0.8;" x="59.90125" xlink:href="#m59c29ad00f" y="154.848655"/>
      </g>
     </g>
     <g id="text_15">
      <!-- 160 -->
      <g transform="translate(33.81375 158.647874)scale(0.1 -0.1)">
       <use xlink:href="#DejaVuSans-49"/>
       <use x="63.623047" xlink:href="#DejaVuSans-54"/>
       <use x="127.246094" xlink:href="#DejaVuSans-48"/>
      </g>
     </g>
    </g>
    <g id="ytick_7">
     <g id="line2d_29">
      <path clip-path="url(#p8e027e803d)" d="M 59.90125 122.241007 
L 506.30125 122.241007 
" style="fill:none;stroke:#b0b0b0;stroke-linecap:square;stroke-width:0.8;"/>
     </g>
     <g id="line2d_30">
      <g>
       <use style="stroke:#000000;stroke-width:0.8;" x="59.90125" xlink:href="#m59c29ad00f" y="122.241007"/>
      </g>
     </g>
     <g id="text_16">
      <!-- 180 -->
      <g transform="translate(33.81375 126.040226)scale(0.1 -0.1)">
       <use xlink:href="#DejaVuSans-49"/>
       <use x="63.623047" xlink:href="#DejaVuSans-56"/>
       <use x="127.246094" xlink:href="#DejaVuSans-48"/>
      </g>
     </g>
    </g>
    <g id="ytick_8">
     <g id="line2d_31">
      <path clip-path="url(#p8e027e803d)" d="M 59.90125 89.633359 
L 506.30125 89.633359 
" style="fill:none;stroke:#b0b0b0;stroke-linecap:square;stroke-width:0.8;"/>
     </g>
     <g id="line2d_32">
      <g>
       <use style="stroke:#000000;stroke-width:0.8;" x="59.90125" xlink:href="#m59c29ad00f" y="89.633359"/>
      </g>
     </g>
     <g id="text_17">
      <!-- 200 -->
      <g transform="translate(33.81375 93.432578)scale(0.1 -0.1)">
       <use xlink:href="#DejaVuSans-50"/>
       <use x="63.623047" xlink:href="#DejaVuSans-48"/>
       <use x="127.246094" xlink:href="#DejaVuSans-48"/>
      </g>
     </g>
    </g>
    <g id="text_18">
     <!-- Time in minutes -->
     <g transform="translate(16.318125 244.471875)rotate(-90)scale(0.12 -0.12)">
      <use xlink:href="#DejaVuSans-84"/>
      <use x="61.037109" xlink:href="#DejaVuSans-105"/>
      <use x="88.820312" xlink:href="#DejaVuSans-109"/>
      <use x="186.232422" xlink:href="#DejaVuSans-101"/>
      <use x="247.755859" xlink:href="#DejaVuSans-32"/>
      <use x="279.542969" xlink:href="#DejaVuSans-105"/>
      <use x="307.326172" xlink:href="#DejaVuSans-110"/>
      <use x="370.705078" xlink:href="#DejaVuSans-32"/>
      <use x="402.492188" xlink:href="#DejaVuSans-109"/>
      <use x="499.904297" xlink:href="#DejaVuSans-105"/>
      <use x="527.6875" xlink:href="#DejaVuSans-110"/>
      <use x="591.066406" xlink:href="#DejaVuSans-117"/>
      <use x="654.445312" xlink:href="#DejaVuSans-116"/>
      <use x="693.654297" xlink:href="#DejaVuSans-101"/>
      <use x="755.177734" xlink:href="#DejaVuSans-115"/>
     </g>
    </g>
   </g>
   <g id="PathCollection_1">
    <defs>
     <path d="M 0 17.722867 
C 4.700159 17.722867 9.208445 15.855474 12.531959 12.531959 
C 15.855474 9.208445 17.722867 4.700159 17.722867 0 
C 17.722867 -4.700159 15.855474 -9.208445 12.531959 -12.531959 
C 9.208445 -15.855474 4.700159 -17.722867 0 -17.722867 
C -4.700159 -17.722867 -9.208445 -15.855474 -12.531959 -12.531959 
C -15.855474 -9.208445 -17.722867 -4.700159 -17.722867 0 
C -17.722867 4.700159 -15.855474 9.208445 -12.531959 12.531959 
C -9.208445 15.855474 -4.700159 17.722867 0 17.722867 
z
" id="mb0eb24e250" style="stroke:#ffffff;"/>
    </defs>
    <g clip-path="url(#p8e027e803d)">
     <use style="fill:#393b79;stroke:#ffffff;" x="95.852928" xlink:href="#mb0eb24e250" y="228.215864"/>
    </g>
   </g>
   <g id="PathCollection_2">
    <defs>
     <path d="M 0 5.282045 
C 1.400815 5.282045 2.744444 4.725495 3.73497 3.73497 
C 4.725495 2.744444 5.282045 1.400815 5.282045 0 
C 5.282045 -1.400815 4.725495 -2.744444 3.73497 -3.73497 
C 2.744444 -4.725495 1.400815 -5.282045 0 -5.282045 
C -1.400815 -5.282045 -2.744444 -4.725495 -3.73497 -3.73497 
C -4.725495 -2.744444 -5.282045 -1.400815 -5.282045 0 
C -5.282045 1.400815 -4.725495 2.744444 -3.73497 3.73497 
C -2.744444 4.725495 -1.400815 5.282045 0 5.282045 
z
" id="mfa75a528c2" style="stroke:#ffffff;"/>
    </defs>
    <g clip-path="url(#p8e027e803d)">
     <use style="fill:#5254a3;stroke:#ffffff;" x="173.74823" xlink:href="#mfa75a528c2" y="244.519688"/>
    </g>
   </g>
   <g id="PathCollection_3">
    <path clip-path="url(#p8e027e803d)" d="M 134.800579 106.674486 
C 139.319938 106.674486 143.654805 104.878925 146.850475 101.683255 
C 150.046145 98.487585 151.841706 94.152719 151.841706 89.633359 
C 151.841706 85.113999 150.046145 80.779132 146.850475 77.583463 
C 143.654805 74.387793 139.319938 72.592232 134.800579 72.592232 
C 130.281219 72.592232 125.946352 74.387793 122.750683 77.583463 
C 119.555013 80.779132 117.759452 85.113999 117.759452 89.633359 
C 117.759452 94.152719 119.555013 98.487585 122.750683 101.683255 
C 125.946352 104.878925 130.281219 106.674486 134.800579 106.674486 
z
" style="fill:#6b6ecf;stroke:#ffffff;"/>
    <path clip-path="url(#p8e027e803d)" d="M 152.776418 95.711696 
C 156.550324 95.711696 160.170169 94.212307 162.838724 91.543753 
C 165.507278 88.875198 167.006667 85.255353 167.006667 81.481447 
C 167.006667 77.707541 165.507278 74.087696 162.838724 71.419141 
C 160.170169 68.750586 156.550324 67.251197 152.776418 67.251197 
C 149.002512 67.251197 145.382667 68.750586 142.714112 71.419141 
C 140.045557 74.087696 138.546168 77.707541 138.546168 81.481447 
C 138.546168 85.255353 140.045557 88.875198 142.714112 91.543753 
C 145.382667 94.212307 149.002512 95.711696 152.776418 95.711696 
z
" style="fill:#6b6ecf;stroke:#ffffff;"/>
   </g>
   <g id="PathCollection_4">
    <path clip-path="url(#p8e027e803d)" d="M 356.502592 224.306592 
C 357.627754 224.306592 358.706983 223.859561 359.502592 223.063952 
C 360.298202 222.268342 360.745233 221.189113 360.745233 220.063952 
C 360.745233 218.93879 360.298202 217.859561 359.502592 217.063952 
C 358.706983 216.268342 357.627754 215.821311 356.502592 215.821311 
C 355.377431 215.821311 354.298202 216.268342 353.502592 217.063952 
C 352.706983 217.859561 352.259952 218.93879 352.259952 220.063952 
C 352.259952 221.189113 352.706983 222.268342 353.502592 223.063952 
C 354.298202 223.859561 355.377431 224.306592 356.502592 224.306592 
z
" style="fill:#9c9ede;stroke:#ffffff;"/>
    <path clip-path="url(#p8e027e803d)" d="M 317.554941 78.289374 
C 318.870306 78.289374 320.131974 77.766774 321.062077 76.83667 
C 321.99218 75.906567 322.51478 74.644899 322.51478 73.329535 
C 322.51478 72.01417 321.99218 70.752502 321.062077 69.822399 
C 320.131974 68.892296 318.870306 68.369696 317.554941 68.369696 
C 316.239577 68.369696 314.977909 68.892296 314.047806 69.822399 
C 313.117702 70.752502 312.595103 72.01417 312.595103 73.329535 
C 312.595103 74.644899 313.117702 75.906567 314.047806 76.83667 
C 314.977909 77.766774 316.239577 78.289374 317.554941 78.289374 
z
" style="fill:#9c9ede;stroke:#ffffff;"/>
   </g>
   <g id="PathCollection_5">
    <defs>
     <path d="M 0 14.429137 
C 3.826652 14.429137 7.497089 12.908792 10.202941 10.202941 
C 12.908792 7.497089 14.429137 3.826652 14.429137 0 
C 14.429137 -3.826652 12.908792 -7.497089 10.202941 -10.202941 
C 7.497089 -12.908792 3.826652 -14.429137 0 -14.429137 
C -3.826652 -14.429137 -7.497089 -12.908792 -10.202941 -10.202941 
C -12.908792 -7.497089 -14.429137 -3.826652 -14.429137 0 
C -14.429137 3.826652 -12.908792 7.497089 -10.202941 10.202941 
C -7.497089 12.908792 -3.826652 14.429137 0 14.429137 
z
" id="me593f637f0" style="stroke:#ffffff;"/>
    </defs>
    <g clip-path="url(#p8e027e803d)">
     <use style="fill:#637939;stroke:#ffffff;" x="191.724069" xlink:href="#me593f637f0" y="171.152479"/>
    </g>
   </g>
   <g id="PathCollection_6">
    <defs>
     <path d="M 0 6.708204 
C 1.779036 6.708204 3.485448 6.001385 4.743416 4.743416 
C 6.001385 3.485448 6.708204 1.779036 6.708204 0 
C 6.708204 -1.779036 6.001385 -3.485448 4.743416 -4.743416 
C 3.485448 -6.001385 1.779036 -6.708204 0 -6.708204 
C -1.779036 -6.708204 -3.485448 -6.001385 -4.743416 -4.743416 
C -6.001385 -3.485448 -6.708204 -1.779036 -6.708204 0 
C -6.708204 1.779036 -6.001385 3.485448 -4.743416 4.743416 
C -3.485448 6.001385 -1.779036 6.708204 0 6.708204 
z
" id="m06dfd5e55d" style="stroke:#ffffff;"/>
    </defs>
    <g clip-path="url(#p8e027e803d)">
     <use style="fill:#8ca252;stroke:#ffffff;" x="149.780445" xlink:href="#m06dfd5e55d" y="268.975424"/>
    </g>
   </g>
   <g id="PathCollection_7">
    <defs>
     <path d="M 0 7.489993 
C 1.986369 7.489993 3.89165 6.7008 5.296225 5.296225 
C 6.7008 3.89165 7.489993 1.986369 7.489993 0 
C 7.489993 -1.986369 6.7008 -3.89165 5.296225 -5.296225 
C 3.89165 -6.7008 1.986369 -7.489993 0 -7.489993 
C -1.986369 -7.489993 -3.89165 -6.7008 -5.296225 -5.296225 
C -6.7008 -3.89165 -7.489993 -1.986369 -7.489993 0 
C -7.489993 1.986369 -6.7008 3.89165 -5.296225 5.296225 
C -3.89165 6.7008 -1.986369 7.489993 0 7.489993 
z
" id="mc25beca60d" style="stroke:#ffffff;"/>
    </defs>
    <g clip-path="url(#p8e027e803d)">
     <use style="fill:#b5cf6b;stroke:#ffffff;" x="203.707961" xlink:href="#mc25beca60d" y="122.241007"/>
    </g>
   </g>
   <g id="PathCollection_8">
    <path clip-path="url(#p8e027e803d)" d="M 254.639505 224.679144 
C 255.863468 224.679144 257.037466 224.192858 257.902939 223.327385 
C 258.768412 222.461913 259.254697 221.287915 259.254697 220.063952 
C 259.254697 218.839988 258.768412 217.665991 257.902939 216.800518 
C 257.037466 215.935045 255.863468 215.448759 254.639505 215.448759 
C 253.415542 215.448759 252.241544 215.935045 251.376071 216.800518 
C 250.510599 217.665991 250.024313 218.839988 250.024313 220.063952 
C 250.024313 221.287915 250.510599 222.461913 251.376071 223.327385 
C 252.241544 224.192858 253.415542 224.679144 254.639505 224.679144 
z
" style="fill:#cedb9c;stroke:#ffffff;"/>
    <path clip-path="url(#p8e027e803d)" d="M 239.659639 127.320377 
C 241.006704 127.320377 242.298778 126.785183 243.251296 125.832664 
C 244.203815 124.880146 244.739009 123.588072 244.739009 122.241007 
C 244.739009 120.893942 244.203815 119.601869 243.251296 118.64935 
C 242.298778 117.696832 241.006704 117.161637 239.659639 117.161637 
C 238.312575 117.161637 237.020501 117.696832 236.067982 118.64935 
C 235.115464 119.601869 234.580269 120.893942 234.580269 122.241007 
C 234.580269 123.588072 235.115464 124.880146 236.067982 125.832664 
C 237.020501 126.785183 238.312575 127.320377 239.659639 127.320377 
z
" style="fill:#cedb9c;stroke:#ffffff;"/>
   </g>
   <g id="PathCollection_9">
    <path clip-path="url(#p8e027e803d)" d="M 218.687827 100.40833 
C 221.545383 100.40833 224.286285 99.273011 226.306882 97.252414 
C 228.327479 95.231817 229.462798 92.490915 229.462798 89.633359 
C 229.462798 86.775803 228.327479 84.034901 226.306882 82.014304 
C 224.286285 79.993707 221.545383 78.858388 218.687827 78.858388 
C 215.830271 78.858388 213.089369 79.993707 211.068772 82.014304 
C 209.048175 84.034901 207.912856 86.775803 207.912856 89.633359 
C 207.912856 92.490915 209.048175 95.231817 211.068772 97.252414 
C 213.089369 99.273011 215.830271 100.40833 218.687827 100.40833 
z
" style="fill:#8c6d31;stroke:#ffffff;"/>
    <path clip-path="url(#p8e027e803d)" d="M 221.6838 183.177453 
C 224.872861 183.177453 227.931735 181.910426 230.186741 179.65542 
C 232.441747 177.400414 233.708774 174.34154 233.708774 171.152479 
C 233.708774 167.963419 232.441747 164.904545 230.186741 162.649539 
C 227.931735 160.394532 224.872861 159.127505 221.6838 159.127505 
C 218.49474 159.127505 215.435866 160.394532 213.18086 162.649539 
C 210.925853 164.904545 209.658826 167.963419 209.658826 171.152479 
C 209.658826 174.34154 210.925853 177.400414 213.18086 179.65542 
C 215.435866 181.910426 218.49474 183.177453 221.6838 183.177453 
z
" style="fill:#8c6d31;stroke:#ffffff;"/>
   </g>
   <g id="PathCollection_10">
    <defs>
     <path d="M 0 8.01249 
C 2.124937 8.01249 4.163129 7.168244 5.665686 5.665686 
C 7.168244 4.163129 8.01249 2.124937 8.01249 0 
C 8.01249 -2.124937 7.168244 -4.163129 5.665686 -5.665686 
C 4.163129 -7.168244 2.124937 -8.01249 0 -8.01249 
C -2.124937 -8.01249 -4.163129 -7.168244 -5.665686 -5.665686 
C -7.168244 -4.163129 -8.01249 -2.124937 -8.01249 0 
C -8.01249 2.124937 -7.168244 4.163129 -5.665686 5.665686 
C -4.163129 7.168244 -2.124937 8.01249 0 8.01249 
z
" id="mfad670653a" style="stroke:#ffffff;"/>
    </defs>
    <g clip-path="url(#p8e027e803d)">
     <use style="fill:#bd9e39;stroke:#ffffff;" x="143.788498" xlink:href="#mfad670653a" y="268.975424"/>
    </g>
   </g>
   <g id="PathCollection_11">
    <path clip-path="url(#p8e027e803d)" d="M 119.820713 183.089816 
C 122.986532 183.089816 126.023113 181.832023 128.261685 179.593451 
C 130.500256 177.354879 131.758049 174.318298 131.758049 171.152479 
C 131.758049 167.986661 130.500256 164.95008 128.261685 162.711508 
C 126.023113 160.472936 122.986532 159.215143 119.820713 159.215143 
C 116.654894 159.215143 113.618313 160.472936 111.379742 162.711508 
C 109.14117 164.95008 107.883377 167.986661 107.883377 171.152479 
C 107.883377 174.318298 109.14117 177.354879 111.379742 179.593451 
C 113.618313 181.832023 116.654894 183.089816 119.820713 183.089816 
z
" style="fill:#e7ba52;stroke:#ffffff;"/>
    <path clip-path="url(#p8e027e803d)" d="M 149.780445 322.876886 
C 151.103805 322.876886 152.373143 322.351109 153.3089 321.415352 
C 154.244658 320.479595 154.770435 319.210257 154.770435 317.886896 
C 154.770435 316.563535 154.244658 315.294198 153.3089 314.35844 
C 152.373143 313.422683 151.103805 312.896906 149.780445 312.896906 
C 148.457084 312.896906 147.187746 313.422683 146.251989 314.35844 
C 145.316231 315.294198 144.790455 316.563535 144.790455 317.886896 
C 144.790455 319.210257 145.316231 320.479595 146.251989 321.415352 
C 147.187746 322.351109 148.457084 322.876886 149.780445 322.876886 
z
" style="fill:#e7ba52;stroke:#ffffff;"/>
   </g>
   <g id="PathCollection_12">
    <path clip-path="url(#p8e027e803d)" d="M 254.639505 177.586763 
C 256.345897 177.586763 257.982629 176.908806 259.18923 175.702205 
C 260.395832 174.495603 261.073788 172.858871 261.073788 171.152479 
C 261.073788 169.446088 260.395832 167.809355 259.18923 166.602754 
C 257.982629 165.396153 256.345897 164.718196 254.639505 164.718196 
C 252.933113 164.718196 251.296381 165.396153 250.08978 166.602754 
C 248.883179 167.809355 248.205222 169.446088 248.205222 171.152479 
C 248.205222 172.858871 248.883179 174.495603 250.08978 175.702205 
C 251.296381 176.908806 252.933113 177.586763 254.639505 177.586763 
z
" style="fill:#e7cb94;stroke:#ffffff;"/>
    <path clip-path="url(#p8e027e803d)" d="M 188.728096 205.527893 
C 191.358825 205.527893 193.88216 204.482693 195.742367 202.622487 
C 197.602573 200.76228 198.647773 198.238945 198.647773 195.608216 
C 198.647773 192.977486 197.602573 190.454151 195.742367 188.593944 
C 193.88216 186.733738 191.358825 185.688538 188.728096 185.688538 
C 186.097366 185.688538 183.574031 186.733738 181.713824 188.593944 
C 179.853618 190.454151 178.808418 192.977486 178.808418 195.608216 
C 178.808418 198.238945 179.853618 200.76228 181.713824 202.622487 
C 183.574031 204.482693 186.097366 205.527893 188.728096 205.527893 
z
" style="fill:#e7cb94;stroke:#ffffff;"/>
   </g>
   <g id="PathCollection_13"/>
   <g id="PathCollection_14"/>
   <g id="patch_3">
    <path d="M 59.90125 334.637812 
L 59.90125 57.437813 
" style="fill:none;stroke:#000000;stroke-linecap:square;stroke-linejoin:miter;stroke-width:0.8;"/>
   </g>
   <g id="patch_4">
    <path d="M 506.30125 334.637812 
L 506.30125 57.437813 
" style="fill:none;stroke:#000000;stroke-linecap:square;stroke-linejoin:miter;stroke-width:0.8;"/>
   </g>
   <g id="patch_5">
    <path d="M 59.90125 334.637812 
L 506.30125 334.637812 
" style="fill:none;stroke:#000000;stroke-linecap:square;stroke-linejoin:miter;stroke-width:0.8;"/>
   </g>
   <g id="patch_6">
    <path d="M 59.90125 57.437813 
L 506.30125 57.437813 
" style="fill:none;stroke:#000000;stroke-linecap:square;stroke-linejoin:miter;stroke-width:0.8;"/>
   </g>
   <g id="text_19">
    <!-- Length of shoreline and time to complete survey. -->
    <defs>
     <path d="M 18.109375 8.203125 
L 18.109375 -20.796875 
L 9.078125 -20.796875 
L 9.078125 54.6875 
L 18.109375 54.6875 
L 18.109375 46.390625 
Q 20.953125 51.265625 25.265625 53.625 
Q 29.59375 56 35.59375 56 
Q 45.5625 56 51.78125 48.09375 
Q 58.015625 40.1875 58.015625 27.296875 
Q 58.015625 14.40625 51.78125 6.484375 
Q 45.5625 -1.421875 35.59375 -1.421875 
Q 29.59375 -1.421875 25.265625 0.953125 
Q 20.953125 3.328125 18.109375 8.203125 
z
M 48.6875 27.296875 
Q 48.6875 37.203125 44.609375 42.84375 
Q 40.53125 48.484375 33.40625 48.484375 
Q 26.265625 48.484375 22.1875 42.84375 
Q 18.109375 37.203125 18.109375 27.296875 
Q 18.109375 17.390625 22.1875 11.75 
Q 26.265625 6.109375 33.40625 6.109375 
Q 40.53125 6.109375 44.609375 11.75 
Q 48.6875 17.390625 48.6875 27.296875 
z
" id="DejaVuSans-112"/>
    </defs>
    <g transform="translate(59.90125 42.437813)scale(0.12 -0.12)">
     <use xlink:href="#DejaVuSans-76"/>
     <use x="55.697266" xlink:href="#DejaVuSans-101"/>
     <use x="117.220703" xlink:href="#DejaVuSans-110"/>
     <use x="180.599609" xlink:href="#DejaVuSans-103"/>
     <use x="244.076172" xlink:href="#DejaVuSans-116"/>
     <use x="283.285156" xlink:href="#DejaVuSans-104"/>
     <use x="346.664062" xlink:href="#DejaVuSans-32"/>
     <use x="378.451172" xlink:href="#DejaVuSans-111"/>
     <use x="439.632812" xlink:href="#DejaVuSans-102"/>
     <use x="474.837891" xlink:href="#DejaVuSans-32"/>
     <use x="506.625" xlink:href="#DejaVuSans-115"/>
     <use x="558.724609" xlink:href="#DejaVuSans-104"/>
     <use x="622.103516" xlink:href="#DejaVuSans-111"/>
     <use x="683.285156" xlink:href="#DejaVuSans-114"/>
     <use x="724.367188" xlink:href="#DejaVuSans-101"/>
     <use x="785.890625" xlink:href="#DejaVuSans-108"/>
     <use x="813.673828" xlink:href="#DejaVuSans-105"/>
     <use x="841.457031" xlink:href="#DejaVuSans-110"/>
     <use x="904.835938" xlink:href="#DejaVuSans-101"/>
     <use x="966.359375" xlink:href="#DejaVuSans-32"/>
     <use x="998.146484" xlink:href="#DejaVuSans-97"/>
     <use x="1059.425781" xlink:href="#DejaVuSans-110"/>
     <use x="1122.804688" xlink:href="#DejaVuSans-100"/>
     <use x="1186.28125" xlink:href="#DejaVuSans-32"/>
     <use x="1218.068359" xlink:href="#DejaVuSans-116"/>
     <use x="1257.277344" xlink:href="#DejaVuSans-105"/>
     <use x="1285.060547" xlink:href="#DejaVuSans-109"/>
     <use x="1382.472656" xlink:href="#DejaVuSans-101"/>
     <use x="1443.996094" xlink:href="#DejaVuSans-32"/>
     <use x="1475.783203" xlink:href="#DejaVuSans-116"/>
     <use x="1514.992188" xlink:href="#DejaVuSans-111"/>
     <use x="1576.173828" xlink:href="#DejaVuSans-32"/>
     <use x="1607.960938" xlink:href="#DejaVuSans-99"/>
     <use x="1662.941406" xlink:href="#DejaVuSans-111"/>
     <use x="1724.123047" xlink:href="#DejaVuSans-109"/>
     <use x="1821.535156" xlink:href="#DejaVuSans-112"/>
     <use x="1885.011719" xlink:href="#DejaVuSans-108"/>
     <use x="1912.794922" xlink:href="#DejaVuSans-101"/>
     <use x="1974.318359" xlink:href="#DejaVuSans-116"/>
     <use x="2013.527344" xlink:href="#DejaVuSans-101"/>
     <use x="2075.050781" xlink:href="#DejaVuSans-32"/>
     <use x="2106.837891" xlink:href="#DejaVuSans-115"/>
     <use x="2158.9375" xlink:href="#DejaVuSans-117"/>
     <use x="2222.316406" xlink:href="#DejaVuSans-114"/>
     <use x="2263.429688" xlink:href="#DejaVuSans-118"/>
     <use x="2322.609375" xlink:href="#DejaVuSans-101"/>
     <use x="2384.132812" xlink:href="#DejaVuSans-121"/>
     <use x="2443.09375" xlink:href="#DejaVuSans-46"/>
    </g>
   </g>
   <g id="legend_1">
    <g id="patch_7">
     <path d="M 531.15725 257.922188 
L 768.099438 257.922188 
Q 770.099438 257.922188 770.099438 255.922188 
L 770.099438 64.437813 
Q 770.099438 62.437813 768.099438 62.437813 
L 531.15725 62.437813 
Q 529.15725 62.437813 529.15725 64.437813 
L 529.15725 255.922188 
Q 529.15725 257.922188 531.15725 257.922188 
z
" style="fill:#ffffff;opacity:0.8;stroke:#cccccc;stroke-linejoin:miter;"/>
    </g>
    <g id="text_20">
     <!-- Locations -->
     <g transform="translate(625.7885 74.03625)scale(0.1 -0.1)">
      <use xlink:href="#DejaVuSans-76"/>
      <use x="55.697266" xlink:href="#DejaVuSans-111"/>
      <use x="116.878906" xlink:href="#DejaVuSans-99"/>
      <use x="171.859375" xlink:href="#DejaVuSans-97"/>
      <use x="233.138672" xlink:href="#DejaVuSans-116"/>
      <use x="272.347656" xlink:href="#DejaVuSans-105"/>
      <use x="300.130859" xlink:href="#DejaVuSans-111"/>
      <use x="361.3125" xlink:href="#DejaVuSans-110"/>
      <use x="424.691406" xlink:href="#DejaVuSans-115"/>
     </g>
    </g>
    <g id="PathCollection_15">
     <defs>
      <path d="M 0 5 
C 1.326016 5 2.597899 4.473168 3.535534 3.535534 
C 4.473168 2.597899 5 1.326016 5 0 
C 5 -1.326016 4.473168 -2.597899 3.535534 -3.535534 
C 2.597899 -4.473168 1.326016 -5 0 -5 
C -1.326016 -5 -2.597899 -4.473168 -3.535534 -3.535534 
C -4.473168 -2.597899 -5 -1.326016 -5 0 
C -5 1.326016 -4.473168 2.597899 -3.535534 3.535534 
C -2.597899 4.473168 -1.326016 5 0 5 
z
" id="m40c34ed9c5" style="stroke:#ffffff;"/>
     </defs>
     <g>
      <use style="fill:#393b79;stroke:#ffffff;" x="543.15725" xlink:href="#m40c34ed9c5" y="86.089375"/>
     </g>
    </g>
    <g id="text_21">
     <!-- bielersee_vinelz_fankhausers -->
     <defs>
      <path d="M 48.6875 27.296875 
Q 48.6875 37.203125 44.609375 42.84375 
Q 40.53125 48.484375 33.40625 48.484375 
Q 26.265625 48.484375 22.1875 42.84375 
Q 18.109375 37.203125 18.109375 27.296875 
Q 18.109375 17.390625 22.1875 11.75 
Q 26.265625 6.109375 33.40625 6.109375 
Q 40.53125 6.109375 44.609375 11.75 
Q 48.6875 17.390625 48.6875 27.296875 
z
M 18.109375 46.390625 
Q 20.953125 51.265625 25.265625 53.625 
Q 29.59375 56 35.59375 56 
Q 45.5625 56 51.78125 48.09375 
Q 58.015625 40.1875 58.015625 27.296875 
Q 58.015625 14.40625 51.78125 6.484375 
Q 45.5625 -1.421875 35.59375 -1.421875 
Q 29.59375 -1.421875 25.265625 0.953125 
Q 20.953125 3.328125 18.109375 8.203125 
L 18.109375 0 
L 9.078125 0 
L 9.078125 75.984375 
L 18.109375 75.984375 
z
" id="DejaVuSans-98"/>
      <path d="M 50.984375 -16.609375 
L 50.984375 -23.578125 
L -0.984375 -23.578125 
L -0.984375 -16.609375 
z
" id="DejaVuSans-95"/>
      <path d="M 5.515625 54.6875 
L 48.1875 54.6875 
L 48.1875 46.484375 
L 14.40625 7.171875 
L 48.1875 7.171875 
L 48.1875 0 
L 4.296875 0 
L 4.296875 8.203125 
L 38.09375 47.515625 
L 5.515625 47.515625 
z
" id="DejaVuSans-122"/>
      <path d="M 9.078125 75.984375 
L 18.109375 75.984375 
L 18.109375 31.109375 
L 44.921875 54.6875 
L 56.390625 54.6875 
L 27.390625 29.109375 
L 57.625 0 
L 45.90625 0 
L 18.109375 26.703125 
L 18.109375 0 
L 9.078125 0 
z
" id="DejaVuSans-107"/>
     </defs>
     <g transform="translate(561.15725 88.714375)scale(0.1 -0.1)">
      <use xlink:href="#DejaVuSans-98"/>
      <use x="63.476562" xlink:href="#DejaVuSans-105"/>
      <use x="91.259766" xlink:href="#DejaVuSans-101"/>
      <use x="152.783203" xlink:href="#DejaVuSans-108"/>
      <use x="180.566406" xlink:href="#DejaVuSans-101"/>
      <use x="242.089844" xlink:href="#DejaVuSans-114"/>
      <use x="283.203125" xlink:href="#DejaVuSans-115"/>
      <use x="335.302734" xlink:href="#DejaVuSans-101"/>
      <use x="396.826172" xlink:href="#DejaVuSans-101"/>
      <use x="458.349609" xlink:href="#DejaVuSans-95"/>
      <use x="508.349609" xlink:href="#DejaVuSans-118"/>
      <use x="567.529297" xlink:href="#DejaVuSans-105"/>
      <use x="595.3125" xlink:href="#DejaVuSans-110"/>
      <use x="658.691406" xlink:href="#DejaVuSans-101"/>
      <use x="720.214844" xlink:href="#DejaVuSans-108"/>
      <use x="747.998047" xlink:href="#DejaVuSans-122"/>
      <use x="800.488281" xlink:href="#DejaVuSans-95"/>
      <use x="850.488281" xlink:href="#DejaVuSans-102"/>
      <use x="885.693359" xlink:href="#DejaVuSans-97"/>
      <use x="946.972656" xlink:href="#DejaVuSans-110"/>
      <use x="1010.351562" xlink:href="#DejaVuSans-107"/>
      <use x="1068.261719" xlink:href="#DejaVuSans-104"/>
      <use x="1131.640625" xlink:href="#DejaVuSans-97"/>
      <use x="1192.919922" xlink:href="#DejaVuSans-117"/>
      <use x="1256.298828" xlink:href="#DejaVuSans-115"/>
      <use x="1308.398438" xlink:href="#DejaVuSans-101"/>
      <use x="1369.921875" xlink:href="#DejaVuSans-114"/>
      <use x="1411.035156" xlink:href="#DejaVuSans-115"/>
     </g>
    </g>
    <g id="PathCollection_16">
     <defs>
      <path d="M 0 5 
C 1.326016 5 2.597899 4.473168 3.535534 3.535534 
C 4.473168 2.597899 5 1.326016 5 0 
C 5 -1.326016 4.473168 -2.597899 3.535534 -3.535534 
C 2.597899 -4.473168 1.326016 -5 0 -5 
C -1.326016 -5 -2.597899 -4.473168 -3.535534 -3.535534 
C -4.473168 -2.597899 -5 -1.326016 -5 0 
C -5 1.326016 -4.473168 2.597899 -3.535534 3.535534 
C -2.597899 4.473168 -1.326016 5 0 5 
z
" id="m99317d8066" style="stroke:#ffffff;"/>
     </defs>
     <g>
      <use style="fill:#5254a3;stroke:#ffffff;" x="543.15725" xlink:href="#m99317d8066" y="101.045625"/>
     </g>
    </g>
    <g id="text_22">
     <!-- gasi-strand -->
     <defs>
      <path d="M 4.890625 31.390625 
L 31.203125 31.390625 
L 31.203125 23.390625 
L 4.890625 23.390625 
z
" id="DejaVuSans-45"/>
     </defs>
     <g transform="translate(561.15725 103.670625)scale(0.1 -0.1)">
      <use xlink:href="#DejaVuSans-103"/>
      <use x="63.476562" xlink:href="#DejaVuSans-97"/>
      <use x="124.755859" xlink:href="#DejaVuSans-115"/>
      <use x="176.855469" xlink:href="#DejaVuSans-105"/>
      <use x="204.638672" xlink:href="#DejaVuSans-45"/>
      <use x="240.722656" xlink:href="#DejaVuSans-115"/>
      <use x="292.822266" xlink:href="#DejaVuSans-116"/>
      <use x="332.03125" xlink:href="#DejaVuSans-114"/>
      <use x="373.144531" xlink:href="#DejaVuSans-97"/>
      <use x="434.423828" xlink:href="#DejaVuSans-110"/>
      <use x="497.802734" xlink:href="#DejaVuSans-100"/>
     </g>
    </g>
    <g id="PathCollection_17">
     <defs>
      <path d="M 0 5 
C 1.326016 5 2.597899 4.473168 3.535534 3.535534 
C 4.473168 2.597899 5 1.326016 5 0 
C 5 -1.326016 4.473168 -2.597899 3.535534 -3.535534 
C 2.597899 -4.473168 1.326016 -5 0 -5 
C -1.326016 -5 -2.597899 -4.473168 -3.535534 -3.535534 
C -4.473168 -2.597899 -5 -1.326016 -5 0 
C -5 1.326016 -4.473168 2.597899 -3.535534 3.535534 
C -2.597899 4.473168 -1.326016 5 0 5 
z
" id="m938e4bf5f0" style="stroke:#ffffff;"/>
     </defs>
     <g>
      <use style="fill:#6b6ecf;stroke:#ffffff;" x="543.15725" xlink:href="#m938e4bf5f0" y="115.72375"/>
     </g>
    </g>
    <g id="text_23">
     <!-- mullermatte -->
     <g transform="translate(561.15725 118.34875)scale(0.1 -0.1)">
      <use xlink:href="#DejaVuSans-109"/>
      <use x="97.412109" xlink:href="#DejaVuSans-117"/>
      <use x="160.791016" xlink:href="#DejaVuSans-108"/>
      <use x="188.574219" xlink:href="#DejaVuSans-108"/>
      <use x="216.357422" xlink:href="#DejaVuSans-101"/>
      <use x="277.880859" xlink:href="#DejaVuSans-114"/>
      <use x="318.978516" xlink:href="#DejaVuSans-109"/>
      <use x="416.390625" xlink:href="#DejaVuSans-97"/>
      <use x="477.669922" xlink:href="#DejaVuSans-116"/>
      <use x="516.878906" xlink:href="#DejaVuSans-116"/>
      <use x="556.087891" xlink:href="#DejaVuSans-101"/>
     </g>
    </g>
    <g id="PathCollection_18">
     <defs>
      <path d="M 0 5 
C 1.326016 5 2.597899 4.473168 3.535534 3.535534 
C 4.473168 2.597899 5 1.326016 5 0 
C 5 -1.326016 4.473168 -2.597899 3.535534 -3.535534 
C 2.597899 -4.473168 1.326016 -5 0 -5 
C -1.326016 -5 -2.597899 -4.473168 -3.535534 -3.535534 
C -4.473168 -2.597899 -5 -1.326016 -5 0 
C -5 1.326016 -4.473168 2.597899 -3.535534 3.535534 
C -2.597899 4.473168 -1.326016 5 0 5 
z
" id="m2cf7332503" style="stroke:#ffffff;"/>
     </defs>
     <g>
      <use style="fill:#9c9ede;stroke:#ffffff;" x="543.15725" xlink:href="#m2cf7332503" y="130.401875"/>
     </g>
    </g>
    <g id="text_24">
     <!-- plage-de-cheyres -->
     <g transform="translate(561.15725 133.026875)scale(0.1 -0.1)">
      <use xlink:href="#DejaVuSans-112"/>
      <use x="63.476562" xlink:href="#DejaVuSans-108"/>
      <use x="91.259766" xlink:href="#DejaVuSans-97"/>
      <use x="152.539062" xlink:href="#DejaVuSans-103"/>
      <use x="216.015625" xlink:href="#DejaVuSans-101"/>
      <use x="277.539062" xlink:href="#DejaVuSans-45"/>
      <use x="313.623047" xlink:href="#DejaVuSans-100"/>
      <use x="377.099609" xlink:href="#DejaVuSans-101"/>
      <use x="438.623047" xlink:href="#DejaVuSans-45"/>
      <use x="474.707031" xlink:href="#DejaVuSans-99"/>
      <use x="529.6875" xlink:href="#DejaVuSans-104"/>
      <use x="593.066406" xlink:href="#DejaVuSans-101"/>
      <use x="654.589844" xlink:href="#DejaVuSans-121"/>
      <use x="713.769531" xlink:href="#DejaVuSans-114"/>
      <use x="754.851562" xlink:href="#DejaVuSans-101"/>
      <use x="816.375" xlink:href="#DejaVuSans-115"/>
     </g>
    </g>
    <g id="PathCollection_19">
     <defs>
      <path d="M 0 5 
C 1.326016 5 2.597899 4.473168 3.535534 3.535534 
C 4.473168 2.597899 5 1.326016 5 0 
C 5 -1.326016 4.473168 -2.597899 3.535534 -3.535534 
C 2.597899 -4.473168 1.326016 -5 0 -5 
C -1.326016 -5 -2.597899 -4.473168 -3.535534 -3.535534 
C -4.473168 -2.597899 -5 -1.326016 -5 0 
C -5 1.326016 -4.473168 2.597899 -3.535534 3.535534 
C -2.597899 4.473168 -1.326016 5 0 5 
z
" id="mf887a4d670" style="stroke:#ffffff;"/>
     </defs>
     <g>
      <use style="fill:#637939;stroke:#ffffff;" x="543.15725" xlink:href="#mf887a4d670" y="145.08"/>
     </g>
    </g>
    <g id="text_25">
     <!-- quai-maria-belgia -->
     <defs>
      <path d="M 14.796875 27.296875 
Q 14.796875 17.390625 18.875 11.75 
Q 22.953125 6.109375 30.078125 6.109375 
Q 37.203125 6.109375 41.296875 11.75 
Q 45.40625 17.390625 45.40625 27.296875 
Q 45.40625 37.203125 41.296875 42.84375 
Q 37.203125 48.484375 30.078125 48.484375 
Q 22.953125 48.484375 18.875 42.84375 
Q 14.796875 37.203125 14.796875 27.296875 
z
M 45.40625 8.203125 
Q 42.578125 3.328125 38.25 0.953125 
Q 33.9375 -1.421875 27.875 -1.421875 
Q 17.96875 -1.421875 11.734375 6.484375 
Q 5.515625 14.40625 5.515625 27.296875 
Q 5.515625 40.1875 11.734375 48.09375 
Q 17.96875 56 27.875 56 
Q 33.9375 56 38.25 53.625 
Q 42.578125 51.265625 45.40625 46.390625 
L 45.40625 54.6875 
L 54.390625 54.6875 
L 54.390625 -20.796875 
L 45.40625 -20.796875 
z
" id="DejaVuSans-113"/>
     </defs>
     <g transform="translate(561.15725 147.705)scale(0.1 -0.1)">
      <use xlink:href="#DejaVuSans-113"/>
      <use x="63.476562" xlink:href="#DejaVuSans-117"/>
      <use x="126.855469" xlink:href="#DejaVuSans-97"/>
      <use x="188.134766" xlink:href="#DejaVuSans-105"/>
      <use x="215.917969" xlink:href="#DejaVuSans-45"/>
      <use x="252.001953" xlink:href="#DejaVuSans-109"/>
      <use x="349.414062" xlink:href="#DejaVuSans-97"/>
      <use x="410.693359" xlink:href="#DejaVuSans-114"/>
      <use x="451.806641" xlink:href="#DejaVuSans-105"/>
      <use x="479.589844" xlink:href="#DejaVuSans-97"/>
      <use x="540.869141" xlink:href="#DejaVuSans-45"/>
      <use x="576.953125" xlink:href="#DejaVuSans-98"/>
      <use x="640.429688" xlink:href="#DejaVuSans-101"/>
      <use x="701.953125" xlink:href="#DejaVuSans-108"/>
      <use x="729.736328" xlink:href="#DejaVuSans-103"/>
      <use x="793.212891" xlink:href="#DejaVuSans-105"/>
      <use x="820.996094" xlink:href="#DejaVuSans-97"/>
     </g>
    </g>
    <g id="PathCollection_20">
     <defs>
      <path d="M 0 5 
C 1.326016 5 2.597899 4.473168 3.535534 3.535534 
C 4.473168 2.597899 5 1.326016 5 0 
C 5 -1.326016 4.473168 -2.597899 3.535534 -3.535534 
C 2.597899 -4.473168 1.326016 -5 0 -5 
C -1.326016 -5 -2.597899 -4.473168 -3.535534 -3.535534 
C -4.473168 -2.597899 -5 -1.326016 -5 0 
C -5 1.326016 -4.473168 2.597899 -3.535534 3.535534 
C -2.597899 4.473168 -1.326016 5 0 5 
z
" id="m7e9fd01f3c" style="stroke:#ffffff;"/>
     </defs>
     <g>
      <use style="fill:#8ca252;stroke:#ffffff;" x="543.15725" xlink:href="#m7e9fd01f3c" y="159.758125"/>
     </g>
    </g>
    <g id="text_26">
     <!-- rastplatz-stampf -->
     <g transform="translate(561.15725 162.383125)scale(0.1 -0.1)">
      <use xlink:href="#DejaVuSans-114"/>
      <use x="41.113281" xlink:href="#DejaVuSans-97"/>
      <use x="102.392578" xlink:href="#DejaVuSans-115"/>
      <use x="154.492188" xlink:href="#DejaVuSans-116"/>
      <use x="193.701172" xlink:href="#DejaVuSans-112"/>
      <use x="257.177734" xlink:href="#DejaVuSans-108"/>
      <use x="284.960938" xlink:href="#DejaVuSans-97"/>
      <use x="346.240234" xlink:href="#DejaVuSans-116"/>
      <use x="385.449219" xlink:href="#DejaVuSans-122"/>
      <use x="437.939453" xlink:href="#DejaVuSans-45"/>
      <use x="474.023438" xlink:href="#DejaVuSans-115"/>
      <use x="526.123047" xlink:href="#DejaVuSans-116"/>
      <use x="565.332031" xlink:href="#DejaVuSans-97"/>
      <use x="626.611328" xlink:href="#DejaVuSans-109"/>
      <use x="724.023438" xlink:href="#DejaVuSans-112"/>
      <use x="787.5" xlink:href="#DejaVuSans-102"/>
     </g>
    </g>
    <g id="PathCollection_21">
     <defs>
      <path d="M 0 5 
C 1.326016 5 2.597899 4.473168 3.535534 3.535534 
C 4.473168 2.597899 5 1.326016 5 0 
C 5 -1.326016 4.473168 -2.597899 3.535534 -3.535534 
C 2.597899 -4.473168 1.326016 -5 0 -5 
C -1.326016 -5 -2.597899 -4.473168 -3.535534 -3.535534 
C -4.473168 -2.597899 -5 -1.326016 -5 0 
C -5 1.326016 -4.473168 2.597899 -3.535534 3.535534 
C -2.597899 4.473168 -1.326016 5 0 5 
z
" id="m819a243775" style="stroke:#ffffff;"/>
     </defs>
     <g>
      <use style="fill:#b5cf6b;stroke:#ffffff;" x="543.15725" xlink:href="#m819a243775" y="174.43625"/>
     </g>
    </g>
    <g id="text_27">
     <!-- strandbeiz -->
     <g transform="translate(561.15725 177.06125)scale(0.1 -0.1)">
      <use xlink:href="#DejaVuSans-115"/>
      <use x="52.099609" xlink:href="#DejaVuSans-116"/>
      <use x="91.308594" xlink:href="#DejaVuSans-114"/>
      <use x="132.421875" xlink:href="#DejaVuSans-97"/>
      <use x="193.701172" xlink:href="#DejaVuSans-110"/>
      <use x="257.080078" xlink:href="#DejaVuSans-100"/>
      <use x="320.556641" xlink:href="#DejaVuSans-98"/>
      <use x="384.033203" xlink:href="#DejaVuSans-101"/>
      <use x="445.556641" xlink:href="#DejaVuSans-105"/>
      <use x="473.339844" xlink:href="#DejaVuSans-122"/>
     </g>
    </g>
    <g id="PathCollection_22">
     <defs>
      <path d="M 0 5 
C 1.326016 5 2.597899 4.473168 3.535534 3.535534 
C 4.473168 2.597899 5 1.326016 5 0 
C 5 -1.326016 4.473168 -2.597899 3.535534 -3.535534 
C 2.597899 -4.473168 1.326016 -5 0 -5 
C -1.326016 -5 -2.597899 -4.473168 -3.535534 -3.535534 
C -4.473168 -2.597899 -5 -1.326016 -5 0 
C -5 1.326016 -4.473168 2.597899 -3.535534 3.535534 
C -2.597899 4.473168 -1.326016 5 0 5 
z
" id="m573b74f2e2" style="stroke:#ffffff;"/>
     </defs>
     <g>
      <use style="fill:#cedb9c;stroke:#ffffff;" x="543.15725" xlink:href="#m573b74f2e2" y="189.114375"/>
     </g>
    </g>
    <g id="text_28">
     <!-- thunersee_spiez_meierd_1 -->
     <g transform="translate(561.15725 191.739375)scale(0.1 -0.1)">
      <use xlink:href="#DejaVuSans-116"/>
      <use x="39.208984" xlink:href="#DejaVuSans-104"/>
      <use x="102.587891" xlink:href="#DejaVuSans-117"/>
      <use x="165.966797" xlink:href="#DejaVuSans-110"/>
      <use x="229.345703" xlink:href="#DejaVuSans-101"/>
      <use x="290.869141" xlink:href="#DejaVuSans-114"/>
      <use x="331.982422" xlink:href="#DejaVuSans-115"/>
      <use x="384.082031" xlink:href="#DejaVuSans-101"/>
      <use x="445.605469" xlink:href="#DejaVuSans-101"/>
      <use x="507.128906" xlink:href="#DejaVuSans-95"/>
      <use x="557.128906" xlink:href="#DejaVuSans-115"/>
      <use x="609.228516" xlink:href="#DejaVuSans-112"/>
      <use x="672.705078" xlink:href="#DejaVuSans-105"/>
      <use x="700.488281" xlink:href="#DejaVuSans-101"/>
      <use x="762.011719" xlink:href="#DejaVuSans-122"/>
      <use x="814.501953" xlink:href="#DejaVuSans-95"/>
      <use x="864.501953" xlink:href="#DejaVuSans-109"/>
      <use x="961.914062" xlink:href="#DejaVuSans-101"/>
      <use x="1023.4375" xlink:href="#DejaVuSans-105"/>
      <use x="1051.220703" xlink:href="#DejaVuSans-101"/>
      <use x="1112.744141" xlink:href="#DejaVuSans-114"/>
      <use x="1153.841797" xlink:href="#DejaVuSans-100"/>
      <use x="1217.318359" xlink:href="#DejaVuSans-95"/>
      <use x="1267.318359" xlink:href="#DejaVuSans-49"/>
     </g>
    </g>
    <g id="PathCollection_23">
     <defs>
      <path d="M 0 5 
C 1.326016 5 2.597899 4.473168 3.535534 3.535534 
C 4.473168 2.597899 5 1.326016 5 0 
C 5 -1.326016 4.473168 -2.597899 3.535534 -3.535534 
C 2.597899 -4.473168 1.326016 -5 0 -5 
C -1.326016 -5 -2.597899 -4.473168 -3.535534 -3.535534 
C -4.473168 -2.597899 -5 -1.326016 -5 0 
C -5 1.326016 -4.473168 2.597899 -3.535534 3.535534 
C -2.597899 4.473168 -1.326016 5 0 5 
z
" id="mab74855ba1" style="stroke:#ffffff;"/>
     </defs>
     <g>
      <use style="fill:#8c6d31;stroke:#ffffff;" x="543.15725" xlink:href="#mab74855ba1" y="204.070625"/>
     </g>
    </g>
    <g id="text_29">
     <!-- walensee_walenstadt_wysse -->
     <defs>
      <path d="M 4.203125 54.6875 
L 13.1875 54.6875 
L 24.421875 12.015625 
L 35.59375 54.6875 
L 46.1875 54.6875 
L 57.421875 12.015625 
L 68.609375 54.6875 
L 77.59375 54.6875 
L 63.28125 0 
L 52.6875 0 
L 40.921875 44.828125 
L 29.109375 0 
L 18.5 0 
z
" id="DejaVuSans-119"/>
     </defs>
     <g transform="translate(561.15725 206.695625)scale(0.1 -0.1)">
      <use xlink:href="#DejaVuSans-119"/>
      <use x="81.787109" xlink:href="#DejaVuSans-97"/>
      <use x="143.066406" xlink:href="#DejaVuSans-108"/>
      <use x="170.849609" xlink:href="#DejaVuSans-101"/>
      <use x="232.373047" xlink:href="#DejaVuSans-110"/>
      <use x="295.751953" xlink:href="#DejaVuSans-115"/>
      <use x="347.851562" xlink:href="#DejaVuSans-101"/>
      <use x="409.375" xlink:href="#DejaVuSans-101"/>
      <use x="470.898438" xlink:href="#DejaVuSans-95"/>
      <use x="520.898438" xlink:href="#DejaVuSans-119"/>
      <use x="602.685547" xlink:href="#DejaVuSans-97"/>
      <use x="663.964844" xlink:href="#DejaVuSans-108"/>
      <use x="691.748047" xlink:href="#DejaVuSans-101"/>
      <use x="753.271484" xlink:href="#DejaVuSans-110"/>
      <use x="816.650391" xlink:href="#DejaVuSans-115"/>
      <use x="868.75" xlink:href="#DejaVuSans-116"/>
      <use x="907.958984" xlink:href="#DejaVuSans-97"/>
      <use x="969.238281" xlink:href="#DejaVuSans-100"/>
      <use x="1032.714844" xlink:href="#DejaVuSans-116"/>
      <use x="1071.923828" xlink:href="#DejaVuSans-95"/>
      <use x="1121.923828" xlink:href="#DejaVuSans-119"/>
      <use x="1203.710938" xlink:href="#DejaVuSans-121"/>
      <use x="1262.890625" xlink:href="#DejaVuSans-115"/>
      <use x="1314.990234" xlink:href="#DejaVuSans-115"/>
      <use x="1367.089844" xlink:href="#DejaVuSans-101"/>
     </g>
    </g>
    <g id="PathCollection_24">
     <defs>
      <path d="M 0 5 
C 1.326016 5 2.597899 4.473168 3.535534 3.535534 
C 4.473168 2.597899 5 1.326016 5 0 
C 5 -1.326016 4.473168 -2.597899 3.535534 -3.535534 
C 2.597899 -4.473168 1.326016 -5 0 -5 
C -1.326016 -5 -2.597899 -4.473168 -3.535534 -3.535534 
C -4.473168 -2.597899 -5 -1.326016 -5 0 
C -5 1.326016 -4.473168 2.597899 -3.535534 3.535534 
C -2.597899 4.473168 -1.326016 5 0 5 
z
" id="m6795989aa5" style="stroke:#ffffff;"/>
     </defs>
     <g>
      <use style="fill:#bd9e39;stroke:#ffffff;" x="543.15725" xlink:href="#m6795989aa5" y="219.026875"/>
     </g>
    </g>
    <g id="text_30">
     <!-- zuerichsee_richterswil_benkoem_2 -->
     <g transform="translate(561.15725 221.651875)scale(0.1 -0.1)">
      <use xlink:href="#DejaVuSans-122"/>
      <use x="52.490234" xlink:href="#DejaVuSans-117"/>
      <use x="115.869141" xlink:href="#DejaVuSans-101"/>
      <use x="177.392578" xlink:href="#DejaVuSans-114"/>
      <use x="218.505859" xlink:href="#DejaVuSans-105"/>
      <use x="246.289062" xlink:href="#DejaVuSans-99"/>
      <use x="301.269531" xlink:href="#DejaVuSans-104"/>
      <use x="364.648438" xlink:href="#DejaVuSans-115"/>
      <use x="416.748047" xlink:href="#DejaVuSans-101"/>
      <use x="478.271484" xlink:href="#DejaVuSans-101"/>
      <use x="539.794922" xlink:href="#DejaVuSans-95"/>
      <use x="589.794922" xlink:href="#DejaVuSans-114"/>
      <use x="630.908203" xlink:href="#DejaVuSans-105"/>
      <use x="658.691406" xlink:href="#DejaVuSans-99"/>
      <use x="713.671875" xlink:href="#DejaVuSans-104"/>
      <use x="777.050781" xlink:href="#DejaVuSans-116"/>
      <use x="816.259766" xlink:href="#DejaVuSans-101"/>
      <use x="877.783203" xlink:href="#DejaVuSans-114"/>
      <use x="918.896484" xlink:href="#DejaVuSans-115"/>
      <use x="970.996094" xlink:href="#DejaVuSans-119"/>
      <use x="1052.783203" xlink:href="#DejaVuSans-105"/>
      <use x="1080.566406" xlink:href="#DejaVuSans-108"/>
      <use x="1108.349609" xlink:href="#DejaVuSans-95"/>
      <use x="1158.349609" xlink:href="#DejaVuSans-98"/>
      <use x="1221.826172" xlink:href="#DejaVuSans-101"/>
      <use x="1283.349609" xlink:href="#DejaVuSans-110"/>
      <use x="1346.728516" xlink:href="#DejaVuSans-107"/>
      <use x="1404.591797" xlink:href="#DejaVuSans-111"/>
      <use x="1465.773438" xlink:href="#DejaVuSans-101"/>
      <use x="1527.296875" xlink:href="#DejaVuSans-109"/>
      <use x="1624.708984" xlink:href="#DejaVuSans-95"/>
      <use x="1674.708984" xlink:href="#DejaVuSans-50"/>
     </g>
    </g>
    <g id="PathCollection_25">
     <defs>
      <path d="M 0 5 
C 1.326016 5 2.597899 4.473168 3.535534 3.535534 
C 4.473168 2.597899 5 1.326016 5 0 
C 5 -1.326016 4.473168 -2.597899 3.535534 -3.535534 
C 2.597899 -4.473168 1.326016 -5 0 -5 
C -1.326016 -5 -2.597899 -4.473168 -3.535534 -3.535534 
C -4.473168 -2.597899 -5 -1.326016 -5 0 
C -5 1.326016 -4.473168 2.597899 -3.535534 3.535534 
C -2.597899 4.473168 -1.326016 5 0 5 
z
" id="mae9d754143" style="stroke:#ffffff;"/>
     </defs>
     <g>
      <use style="fill:#e7ba52;stroke:#ffffff;" x="543.15725" xlink:href="#mae9d754143" y="233.983125"/>
     </g>
    </g>
    <g id="text_31">
     <!-- zurichsee_kusnachterhorn_thirkell-whitej -->
     <defs>
      <path d="M 9.421875 54.6875 
L 18.40625 54.6875 
L 18.40625 -0.984375 
Q 18.40625 -11.421875 14.421875 -16.109375 
Q 10.453125 -20.796875 1.609375 -20.796875 
L -1.8125 -20.796875 
L -1.8125 -13.1875 
L 0.59375 -13.1875 
Q 5.71875 -13.1875 7.5625 -10.8125 
Q 9.421875 -8.453125 9.421875 -0.984375 
z
M 9.421875 75.984375 
L 18.40625 75.984375 
L 18.40625 64.59375 
L 9.421875 64.59375 
z
" id="DejaVuSans-106"/>
     </defs>
     <g transform="translate(561.15725 236.608125)scale(0.1 -0.1)">
      <use xlink:href="#DejaVuSans-122"/>
      <use x="52.490234" xlink:href="#DejaVuSans-117"/>
      <use x="115.869141" xlink:href="#DejaVuSans-114"/>
      <use x="156.982422" xlink:href="#DejaVuSans-105"/>
      <use x="184.765625" xlink:href="#DejaVuSans-99"/>
      <use x="239.746094" xlink:href="#DejaVuSans-104"/>
      <use x="303.125" xlink:href="#DejaVuSans-115"/>
      <use x="355.224609" xlink:href="#DejaVuSans-101"/>
      <use x="416.748047" xlink:href="#DejaVuSans-101"/>
      <use x="478.271484" xlink:href="#DejaVuSans-95"/>
      <use x="528.271484" xlink:href="#DejaVuSans-107"/>
      <use x="586.134766" xlink:href="#DejaVuSans-117"/>
      <use x="649.513672" xlink:href="#DejaVuSans-115"/>
      <use x="701.613281" xlink:href="#DejaVuSans-110"/>
      <use x="764.992188" xlink:href="#DejaVuSans-97"/>
      <use x="826.271484" xlink:href="#DejaVuSans-99"/>
      <use x="881.251953" xlink:href="#DejaVuSans-104"/>
      <use x="944.630859" xlink:href="#DejaVuSans-116"/>
      <use x="983.839844" xlink:href="#DejaVuSans-101"/>
      <use x="1045.363281" xlink:href="#DejaVuSans-114"/>
      <use x="1086.460938" xlink:href="#DejaVuSans-104"/>
      <use x="1149.839844" xlink:href="#DejaVuSans-111"/>
      <use x="1211.021484" xlink:href="#DejaVuSans-114"/>
      <use x="1252.119141" xlink:href="#DejaVuSans-110"/>
      <use x="1315.498047" xlink:href="#DejaVuSans-95"/>
      <use x="1365.498047" xlink:href="#DejaVuSans-116"/>
      <use x="1404.707031" xlink:href="#DejaVuSans-104"/>
      <use x="1468.085938" xlink:href="#DejaVuSans-105"/>
      <use x="1495.869141" xlink:href="#DejaVuSans-114"/>
      <use x="1536.982422" xlink:href="#DejaVuSans-107"/>
      <use x="1594.845703" xlink:href="#DejaVuSans-101"/>
      <use x="1656.369141" xlink:href="#DejaVuSans-108"/>
      <use x="1684.152344" xlink:href="#DejaVuSans-108"/>
      <use x="1711.935547" xlink:href="#DejaVuSans-45"/>
      <use x="1748.019531" xlink:href="#DejaVuSans-119"/>
      <use x="1829.806641" xlink:href="#DejaVuSans-104"/>
      <use x="1893.185547" xlink:href="#DejaVuSans-105"/>
      <use x="1920.96875" xlink:href="#DejaVuSans-116"/>
      <use x="1960.177734" xlink:href="#DejaVuSans-101"/>
      <use x="2021.701172" xlink:href="#DejaVuSans-106"/>
     </g>
    </g>
    <g id="PathCollection_26">
     <defs>
      <path d="M 0 5 
C 1.326016 5 2.597899 4.473168 3.535534 3.535534 
C 4.473168 2.597899 5 1.326016 5 0 
C 5 -1.326016 4.473168 -2.597899 3.535534 -3.535534 
C 2.597899 -4.473168 1.326016 -5 0 -5 
C -1.326016 -5 -2.597899 -4.473168 -3.535534 -3.535534 
C -4.473168 -2.597899 -5 -1.326016 -5 0 
C -5 1.326016 -4.473168 2.597899 -3.535534 3.535534 
C -2.597899 4.473168 -1.326016 5 0 5 
z
" id="m9b4c981f25" style="stroke:#ffffff;"/>
     </defs>
     <g>
      <use style="fill:#e7cb94;stroke:#ffffff;" x="543.15725" xlink:href="#m9b4c981f25" y="248.939375"/>
     </g>
    </g>
    <g id="text_32">
     <!-- zurichsee_wollishofen_langendorfm -->
     <g transform="translate(561.15725 251.564375)scale(0.1 -0.1)">
      <use xlink:href="#DejaVuSans-122"/>
      <use x="52.490234" xlink:href="#DejaVuSans-117"/>
      <use x="115.869141" xlink:href="#DejaVuSans-114"/>
      <use x="156.982422" xlink:href="#DejaVuSans-105"/>
      <use x="184.765625" xlink:href="#DejaVuSans-99"/>
      <use x="239.746094" xlink:href="#DejaVuSans-104"/>
      <use x="303.125" xlink:href="#DejaVuSans-115"/>
      <use x="355.224609" xlink:href="#DejaVuSans-101"/>
      <use x="416.748047" xlink:href="#DejaVuSans-101"/>
      <use x="478.271484" xlink:href="#DejaVuSans-95"/>
      <use x="528.271484" xlink:href="#DejaVuSans-119"/>
      <use x="610.058594" xlink:href="#DejaVuSans-111"/>
      <use x="671.240234" xlink:href="#DejaVuSans-108"/>
      <use x="699.023438" xlink:href="#DejaVuSans-108"/>
      <use x="726.806641" xlink:href="#DejaVuSans-105"/>
      <use x="754.589844" xlink:href="#DejaVuSans-115"/>
      <use x="806.689453" xlink:href="#DejaVuSans-104"/>
      <use x="870.068359" xlink:href="#DejaVuSans-111"/>
      <use x="931.25" xlink:href="#DejaVuSans-102"/>
      <use x="966.455078" xlink:href="#DejaVuSans-101"/>
      <use x="1027.978516" xlink:href="#DejaVuSans-110"/>
      <use x="1091.357422" xlink:href="#DejaVuSans-95"/>
      <use x="1141.357422" xlink:href="#DejaVuSans-108"/>
      <use x="1169.140625" xlink:href="#DejaVuSans-97"/>
      <use x="1230.419922" xlink:href="#DejaVuSans-110"/>
      <use x="1293.798828" xlink:href="#DejaVuSans-103"/>
      <use x="1357.275391" xlink:href="#DejaVuSans-101"/>
      <use x="1418.798828" xlink:href="#DejaVuSans-110"/>
      <use x="1482.177734" xlink:href="#DejaVuSans-100"/>
      <use x="1545.654297" xlink:href="#DejaVuSans-111"/>
      <use x="1606.835938" xlink:href="#DejaVuSans-114"/>
      <use x="1647.949219" xlink:href="#DejaVuSans-102"/>
      <use x="1683.154297" xlink:href="#DejaVuSans-109"/>
     </g>
    </g>
   </g>
   <g id="legend_2">
    <g id="patch_8">
     <path d="M 373.329375 329.637812 
L 499.30125 329.637812 
Q 501.30125 329.637812 501.30125 327.637812 
L 501.30125 212.603437 
Q 501.30125 210.603437 499.30125 210.603437 
L 373.329375 210.603437 
Q 371.329375 210.603437 371.329375 212.603437 
L 371.329375 327.637812 
Q 371.329375 329.637812 373.329375 329.637812 
z
" style="fill:#ffffff;opacity:0.8;stroke:#cccccc;stroke-linejoin:miter;"/>
    </g>
    <g id="text_33">
     <!-- Pieces per meter -->
     <defs>
      <path d="M 19.671875 64.796875 
L 19.671875 37.40625 
L 32.078125 37.40625 
Q 38.96875 37.40625 42.71875 40.96875 
Q 46.484375 44.53125 46.484375 51.125 
Q 46.484375 57.671875 42.71875 61.234375 
Q 38.96875 64.796875 32.078125 64.796875 
z
M 9.8125 72.90625 
L 32.078125 72.90625 
Q 44.34375 72.90625 50.609375 67.359375 
Q 56.890625 61.8125 56.890625 51.125 
Q 56.890625 40.328125 50.609375 34.8125 
Q 44.34375 29.296875 32.078125 29.296875 
L 19.671875 29.296875 
L 19.671875 0 
L 9.8125 0 
z
" id="DejaVuSans-80"/>
     </defs>
     <g transform="translate(393.8825 238.201875)scale(0.1 -0.1)">
      <use xlink:href="#DejaVuSans-80"/>
      <use x="60.271484" xlink:href="#DejaVuSans-105"/>
      <use x="88.054688" xlink:href="#DejaVuSans-101"/>
      <use x="149.578125" xlink:href="#DejaVuSans-99"/>
      <use x="204.558594" xlink:href="#DejaVuSans-101"/>
      <use x="266.082031" xlink:href="#DejaVuSans-115"/>
      <use x="318.181641" xlink:href="#DejaVuSans-32"/>
      <use x="349.96875" xlink:href="#DejaVuSans-112"/>
      <use x="413.445312" xlink:href="#DejaVuSans-101"/>
      <use x="474.96875" xlink:href="#DejaVuSans-114"/>
      <use x="516.082031" xlink:href="#DejaVuSans-32"/>
      <use x="547.869141" xlink:href="#DejaVuSans-109"/>
      <use x="645.28125" xlink:href="#DejaVuSans-101"/>
      <use x="706.804688" xlink:href="#DejaVuSans-116"/>
      <use x="746.013672" xlink:href="#DejaVuSans-101"/>
      <use x="807.537109" xlink:href="#DejaVuSans-114"/>
     </g>
    </g>
    <g id="PathCollection_27">
     <defs>
      <path d="M 0 4.242641 
C 1.125161 4.242641 2.204391 3.795609 3 3 
C 3.795609 2.204391 4.242641 1.125161 4.242641 0 
C 4.242641 -1.125161 3.795609 -2.204391 3 -3 
C 2.204391 -3.795609 1.125161 -4.242641 0 -4.242641 
C -1.125161 -4.242641 -2.204391 -3.795609 -3 -3 
C -3.795609 -2.204391 -4.242641 -1.125161 -4.242641 0 
C -4.242641 1.125161 -3.795609 2.204391 -3 3 
C -2.204391 3.795609 -1.125161 4.242641 0 4.242641 
z
" id="m1b7e96a938" style="stroke:#0000ff;stroke-opacity:0.6;"/>
     </defs>
     <g>
      <use style="fill:#0000ff;fill-opacity:0.6;stroke:#0000ff;stroke-opacity:0.6;" x="401.329375" xlink:href="#m1b7e96a938" y="270.255"/>
     </g>
    </g>
    <g id="text_34">
     <!--  0.6pcs/m -->
     <defs>
      <path d="M 25.390625 72.90625 
L 33.6875 72.90625 
L 8.296875 -9.28125 
L 0 -9.28125 
z
" id="DejaVuSans-47"/>
     </defs>
     <g transform="translate(419.329375 272.88)scale(0.1 -0.1)">
      <use xlink:href="#DejaVuSans-32"/>
      <use x="31.787109" xlink:href="#DejaVuSans-48"/>
      <use x="95.410156" xlink:href="#DejaVuSans-46"/>
      <use x="127.197266" xlink:href="#DejaVuSans-54"/>
      <use x="190.820312" xlink:href="#DejaVuSans-112"/>
      <use x="254.296875" xlink:href="#DejaVuSans-99"/>
      <use x="309.277344" xlink:href="#DejaVuSans-115"/>
      <use x="361.376953" xlink:href="#DejaVuSans-47"/>
      <use x="395.068359" xlink:href="#DejaVuSans-109"/>
     </g>
    </g>
    <g id="PathCollection_28">
     <defs>
      <path d="M 0 17.722867 
C 4.700159 17.722867 9.208445 15.855474 12.531959 12.531959 
C 15.855474 9.208445 17.722867 4.700159 17.722867 0 
C 17.722867 -4.700159 15.855474 -9.208445 12.531959 -12.531959 
C 9.208445 -15.855474 4.700159 -17.722867 0 -17.722867 
C -4.700159 -17.722867 -9.208445 -15.855474 -12.531959 -12.531959 
C -15.855474 -9.208445 -17.722867 -4.700159 -17.722867 0 
C -17.722867 4.700159 -15.855474 9.208445 -12.531959 12.531959 
C -9.208445 15.855474 -4.700159 17.722867 0 17.722867 
z
" id="m8430e5e2a5" style="stroke:#0000ff;stroke-opacity:0.6;"/>
     </defs>
     <g>
      <use style="fill:#0000ff;fill-opacity:0.6;stroke:#0000ff;stroke-opacity:0.6;" x="401.329375" xlink:href="#m8430e5e2a5" y="304.933125"/>
     </g>
    </g>
    <g id="text_35">
     <!--  10.47pcs/m -->
     <defs>
      <path d="M 8.203125 72.90625 
L 55.078125 72.90625 
L 55.078125 68.703125 
L 28.609375 0 
L 18.3125 0 
L 43.21875 64.59375 
L 8.203125 64.59375 
z
" id="DejaVuSans-55"/>
     </defs>
     <g transform="translate(419.329375 307.558125)scale(0.1 -0.1)">
      <use xlink:href="#DejaVuSans-32"/>
      <use x="31.787109" xlink:href="#DejaVuSans-49"/>
      <use x="95.410156" xlink:href="#DejaVuSans-48"/>
      <use x="159.033203" xlink:href="#DejaVuSans-46"/>
      <use x="190.820312" xlink:href="#DejaVuSans-52"/>
      <use x="254.443359" xlink:href="#DejaVuSans-55"/>
      <use x="318.066406" xlink:href="#DejaVuSans-112"/>
      <use x="381.542969" xlink:href="#DejaVuSans-99"/>
      <use x="436.523438" xlink:href="#DejaVuSans-115"/>
      <use x="488.623047" xlink:href="#DejaVuSans-47"/>
      <use x="522.314453" xlink:href="#DejaVuSans-109"/>
     </g>
    </g>
   </g>
  </g>
  <g id="text_36">
   <!-- All locations and all surveys Jan-2020 to Apr-2020 -->
   <defs>
    <path d="M 34.1875 63.1875 
L 20.796875 26.90625 
L 47.609375 26.90625 
z
M 28.609375 72.90625 
L 39.796875 72.90625 
L 67.578125 0 
L 57.328125 0 
L 50.6875 18.703125 
L 17.828125 18.703125 
L 11.1875 0 
L 0.78125 0 
z
" id="DejaVuSans-65"/>
    <path d="M 9.8125 72.90625 
L 19.671875 72.90625 
L 19.671875 5.078125 
Q 19.671875 -8.109375 14.671875 -14.0625 
Q 9.671875 -20.015625 -1.421875 -20.015625 
L -5.171875 -20.015625 
L -5.171875 -11.71875 
L -2.09375 -11.71875 
Q 4.4375 -11.71875 7.125 -8.046875 
Q 9.8125 -4.390625 9.8125 5.078125 
z
" id="DejaVuSans-74"/>
   </defs>
   <g transform="translate(62.78125 17.837812)scale(0.14 -0.14)">
    <use xlink:href="#DejaVuSans-65"/>
    <use x="68.408203" xlink:href="#DejaVuSans-108"/>
    <use x="96.191406" xlink:href="#DejaVuSans-108"/>
    <use x="123.974609" xlink:href="#DejaVuSans-32"/>
    <use x="155.761719" xlink:href="#DejaVuSans-108"/>
    <use x="183.544922" xlink:href="#DejaVuSans-111"/>
    <use x="244.726562" xlink:href="#DejaVuSans-99"/>
    <use x="299.707031" xlink:href="#DejaVuSans-97"/>
    <use x="360.986328" xlink:href="#DejaVuSans-116"/>
    <use x="400.195312" xlink:href="#DejaVuSans-105"/>
    <use x="427.978516" xlink:href="#DejaVuSans-111"/>
    <use x="489.160156" xlink:href="#DejaVuSans-110"/>
    <use x="552.539062" xlink:href="#DejaVuSans-115"/>
    <use x="604.638672" xlink:href="#DejaVuSans-32"/>
    <use x="636.425781" xlink:href="#DejaVuSans-97"/>
    <use x="697.705078" xlink:href="#DejaVuSans-110"/>
    <use x="761.083984" xlink:href="#DejaVuSans-100"/>
    <use x="824.560547" xlink:href="#DejaVuSans-32"/>
    <use x="856.347656" xlink:href="#DejaVuSans-97"/>
    <use x="917.626953" xlink:href="#DejaVuSans-108"/>
    <use x="945.410156" xlink:href="#DejaVuSans-108"/>
    <use x="973.193359" xlink:href="#DejaVuSans-32"/>
    <use x="1004.980469" xlink:href="#DejaVuSans-115"/>
    <use x="1057.080078" xlink:href="#DejaVuSans-117"/>
    <use x="1120.458984" xlink:href="#DejaVuSans-114"/>
    <use x="1161.572266" xlink:href="#DejaVuSans-118"/>
    <use x="1220.751953" xlink:href="#DejaVuSans-101"/>
    <use x="1282.275391" xlink:href="#DejaVuSans-121"/>
    <use x="1341.455078" xlink:href="#DejaVuSans-115"/>
    <use x="1393.554688" xlink:href="#DejaVuSans-32"/>
    <use x="1425.341797" xlink:href="#DejaVuSans-74"/>
    <use x="1454.833984" xlink:href="#DejaVuSans-97"/>
    <use x="1516.113281" xlink:href="#DejaVuSans-110"/>
    <use x="1579.492188" xlink:href="#DejaVuSans-45"/>
    <use x="1615.576172" xlink:href="#DejaVuSans-50"/>
    <use x="1679.199219" xlink:href="#DejaVuSans-48"/>
    <use x="1742.822266" xlink:href="#DejaVuSans-50"/>
    <use x="1806.445312" xlink:href="#DejaVuSans-48"/>
    <use x="1870.068359" xlink:href="#DejaVuSans-32"/>
    <use x="1901.855469" xlink:href="#DejaVuSans-116"/>
    <use x="1941.064453" xlink:href="#DejaVuSans-111"/>
    <use x="2002.246094" xlink:href="#DejaVuSans-32"/>
    <use x="2034.033203" xlink:href="#DejaVuSans-65"/>
    <use x="2102.441406" xlink:href="#DejaVuSans-112"/>
    <use x="2165.917969" xlink:href="#DejaVuSans-114"/>
    <use x="2206.9375" xlink:href="#DejaVuSans-45"/>
    <use x="2243.021484" xlink:href="#DejaVuSans-50"/>
    <use x="2306.644531" xlink:href="#DejaVuSans-48"/>
    <use x="2370.267578" xlink:href="#DejaVuSans-50"/>
    <use x="2433.890625" xlink:href="#DejaVuSans-48"/>
   </g>
  </g>
 </g>
 <defs>
  <clipPath id="p8e027e803d">
   <rect height="277.2" width="446.4" x="59.90125" y="57.437813"/>
  </clipPath>
 </defs>
</svg>
