<?xml version="1.0" encoding="utf-8" standalone="no"?>
<!DOCTYPE svg PUBLIC "-//W3C//DTD SVG 1.1//EN"
  "http://www.w3.org/Graphics/SVG/1.1/DTD/svg11.dtd">
<!-- Created with matplotlib (https://matplotlib.org/) -->
<svg height="385.129687pt" version="1.1" viewBox="0 0 770.936937 385.129687" width="770.936937pt" xmlns="http://www.w3.org/2000/svg" xmlns:xlink="http://www.w3.org/1999/xlink">
 <defs>
  <style type="text/css">
*{stroke-linecap:butt;stroke-linejoin:round;}
  </style>
 </defs>
 <g id="figure_1">
  <g id="patch_1">
   <path d="M 0 385.129687 
L 770.936937 385.129687 
L 770.936937 0 
L 0 0 
z
" style="fill:#ffffff;"/>
  </g>
  <g id="axes_1">
   <g id="patch_2">
    <path d="M 53.53875 334.637812 
L 499.93875 334.637812 
L 499.93875 57.437813 
L 53.53875 57.437813 
z
" style="fill:#ffffff;"/>
   </g>
   <g id="matplotlib.axis_1">
    <g id="xtick_1">
     <g id="line2d_1">
      <path clip-path="url(#p89c11359e5)" d="M 53.53875 334.637812 
L 53.53875 57.437813 
" style="fill:none;stroke:#b0b0b0;stroke-linecap:square;stroke-width:0.8;"/>
     </g>
     <g id="line2d_2">
      <defs>
       <path d="M 0 0 
L 0 3.5 
" id="m1aa04b6f3b" style="stroke:#000000;stroke-width:0.8;"/>
      </defs>
      <g>
       <use style="stroke:#000000;stroke-width:0.8;" x="53.53875" xlink:href="#m1aa04b6f3b" y="334.637812"/>
      </g>
     </g>
     <g id="text_1">
      <!-- 0 -->
      <defs>
       <path d="M 31.78125 66.40625 
Q 24.171875 66.40625 20.328125 58.90625 
Q 16.5 51.421875 16.5 36.375 
Q 16.5 21.390625 20.328125 13.890625 
Q 24.171875 6.390625 31.78125 6.390625 
Q 39.453125 6.390625 43.28125 13.890625 
Q 47.125 21.390625 47.125 36.375 
Q 47.125 51.421875 43.28125 58.90625 
Q 39.453125 66.40625 31.78125 66.40625 
z
M 31.78125 74.21875 
Q 44.046875 74.21875 50.515625 64.515625 
Q 56.984375 54.828125 56.984375 36.375 
Q 56.984375 17.96875 50.515625 8.265625 
Q 44.046875 -1.421875 31.78125 -1.421875 
Q 19.53125 -1.421875 13.0625 8.265625 
Q 6.59375 17.96875 6.59375 36.375 
Q 6.59375 54.828125 13.0625 64.515625 
Q 19.53125 74.21875 31.78125 74.21875 
z
" id="DejaVuSans-48"/>
      </defs>
      <g transform="translate(50.3575 349.23625)scale(0.1 -0.1)">
       <use xlink:href="#DejaVuSans-48"/>
      </g>
     </g>
    </g>
    <g id="xtick_2">
     <g id="line2d_3">
      <path clip-path="url(#p89c11359e5)" d="M 116.411989 334.637812 
L 116.411989 57.437813 
" style="fill:none;stroke:#b0b0b0;stroke-linecap:square;stroke-width:0.8;"/>
     </g>
     <g id="line2d_4">
      <g>
       <use style="stroke:#000000;stroke-width:0.8;" x="116.411989" xlink:href="#m1aa04b6f3b" y="334.637812"/>
      </g>
     </g>
     <g id="text_2">
      <!-- 50 -->
      <defs>
       <path d="M 10.796875 72.90625 
L 49.515625 72.90625 
L 49.515625 64.59375 
L 19.828125 64.59375 
L 19.828125 46.734375 
Q 21.96875 47.46875 24.109375 47.828125 
Q 26.265625 48.1875 28.421875 48.1875 
Q 40.625 48.1875 47.75 41.5 
Q 54.890625 34.8125 54.890625 23.390625 
Q 54.890625 11.625 47.5625 5.09375 
Q 40.234375 -1.421875 26.90625 -1.421875 
Q 22.3125 -1.421875 17.546875 -0.640625 
Q 12.796875 0.140625 7.71875 1.703125 
L 7.71875 11.625 
Q 12.109375 9.234375 16.796875 8.0625 
Q 21.484375 6.890625 26.703125 6.890625 
Q 35.15625 6.890625 40.078125 11.328125 
Q 45.015625 15.765625 45.015625 23.390625 
Q 45.015625 31 40.078125 35.4375 
Q 35.15625 39.890625 26.703125 39.890625 
Q 22.75 39.890625 18.8125 39.015625 
Q 14.890625 38.140625 10.796875 36.28125 
z
" id="DejaVuSans-53"/>
      </defs>
      <g transform="translate(110.049489 349.23625)scale(0.1 -0.1)">
       <use xlink:href="#DejaVuSans-53"/>
       <use x="63.623047" xlink:href="#DejaVuSans-48"/>
      </g>
     </g>
    </g>
    <g id="xtick_3">
     <g id="line2d_5">
      <path clip-path="url(#p89c11359e5)" d="M 179.285229 334.637812 
L 179.285229 57.437813 
" style="fill:none;stroke:#b0b0b0;stroke-linecap:square;stroke-width:0.8;"/>
     </g>
     <g id="line2d_6">
      <g>
       <use style="stroke:#000000;stroke-width:0.8;" x="179.285229" xlink:href="#m1aa04b6f3b" y="334.637812"/>
      </g>
     </g>
     <g id="text_3">
      <!-- 100 -->
      <defs>
       <path d="M 12.40625 8.296875 
L 28.515625 8.296875 
L 28.515625 63.921875 
L 10.984375 60.40625 
L 10.984375 69.390625 
L 28.421875 72.90625 
L 38.28125 72.90625 
L 38.28125 8.296875 
L 54.390625 8.296875 
L 54.390625 0 
L 12.40625 0 
z
" id="DejaVuSans-49"/>
      </defs>
      <g transform="translate(169.741479 349.23625)scale(0.1 -0.1)">
       <use xlink:href="#DejaVuSans-49"/>
       <use x="63.623047" xlink:href="#DejaVuSans-48"/>
       <use x="127.246094" xlink:href="#DejaVuSans-48"/>
      </g>
     </g>
    </g>
    <g id="xtick_4">
     <g id="line2d_7">
      <path clip-path="url(#p89c11359e5)" d="M 242.158468 334.637812 
L 242.158468 57.437813 
" style="fill:none;stroke:#b0b0b0;stroke-linecap:square;stroke-width:0.8;"/>
     </g>
     <g id="line2d_8">
      <g>
       <use style="stroke:#000000;stroke-width:0.8;" x="242.158468" xlink:href="#m1aa04b6f3b" y="334.637812"/>
      </g>
     </g>
     <g id="text_4">
      <!-- 150 -->
      <g transform="translate(232.614718 349.23625)scale(0.1 -0.1)">
       <use xlink:href="#DejaVuSans-49"/>
       <use x="63.623047" xlink:href="#DejaVuSans-53"/>
       <use x="127.246094" xlink:href="#DejaVuSans-48"/>
      </g>
     </g>
    </g>
    <g id="xtick_5">
     <g id="line2d_9">
      <path clip-path="url(#p89c11359e5)" d="M 305.031708 334.637812 
L 305.031708 57.437813 
" style="fill:none;stroke:#b0b0b0;stroke-linecap:square;stroke-width:0.8;"/>
     </g>
     <g id="line2d_10">
      <g>
       <use style="stroke:#000000;stroke-width:0.8;" x="305.031708" xlink:href="#m1aa04b6f3b" y="334.637812"/>
      </g>
     </g>
     <g id="text_5">
      <!-- 200 -->
      <defs>
       <path d="M 19.1875 8.296875 
L 53.609375 8.296875 
L 53.609375 0 
L 7.328125 0 
L 7.328125 8.296875 
Q 12.9375 14.109375 22.625 23.890625 
Q 32.328125 33.6875 34.8125 36.53125 
Q 39.546875 41.84375 41.421875 45.53125 
Q 43.3125 49.21875 43.3125 52.78125 
Q 43.3125 58.59375 39.234375 62.25 
Q 35.15625 65.921875 28.609375 65.921875 
Q 23.96875 65.921875 18.8125 64.3125 
Q 13.671875 62.703125 7.8125 59.421875 
L 7.8125 69.390625 
Q 13.765625 71.78125 18.9375 73 
Q 24.125 74.21875 28.421875 74.21875 
Q 39.75 74.21875 46.484375 68.546875 
Q 53.21875 62.890625 53.21875 53.421875 
Q 53.21875 48.921875 51.53125 44.890625 
Q 49.859375 40.875 45.40625 35.40625 
Q 44.1875 33.984375 37.640625 27.21875 
Q 31.109375 20.453125 19.1875 8.296875 
z
" id="DejaVuSans-50"/>
      </defs>
      <g transform="translate(295.487958 349.23625)scale(0.1 -0.1)">
       <use xlink:href="#DejaVuSans-50"/>
       <use x="63.623047" xlink:href="#DejaVuSans-48"/>
       <use x="127.246094" xlink:href="#DejaVuSans-48"/>
      </g>
     </g>
    </g>
    <g id="xtick_6">
     <g id="line2d_11">
      <path clip-path="url(#p89c11359e5)" d="M 367.904947 334.637812 
L 367.904947 57.437813 
" style="fill:none;stroke:#b0b0b0;stroke-linecap:square;stroke-width:0.8;"/>
     </g>
     <g id="line2d_12">
      <g>
       <use style="stroke:#000000;stroke-width:0.8;" x="367.904947" xlink:href="#m1aa04b6f3b" y="334.637812"/>
      </g>
     </g>
     <g id="text_6">
      <!-- 250 -->
      <g transform="translate(358.361197 349.23625)scale(0.1 -0.1)">
       <use xlink:href="#DejaVuSans-50"/>
       <use x="63.623047" xlink:href="#DejaVuSans-53"/>
       <use x="127.246094" xlink:href="#DejaVuSans-48"/>
      </g>
     </g>
    </g>
    <g id="xtick_7">
     <g id="line2d_13">
      <path clip-path="url(#p89c11359e5)" d="M 430.778187 334.637812 
L 430.778187 57.437813 
" style="fill:none;stroke:#b0b0b0;stroke-linecap:square;stroke-width:0.8;"/>
     </g>
     <g id="line2d_14">
      <g>
       <use style="stroke:#000000;stroke-width:0.8;" x="430.778187" xlink:href="#m1aa04b6f3b" y="334.637812"/>
      </g>
     </g>
     <g id="text_7">
      <!-- 300 -->
      <defs>
       <path d="M 40.578125 39.3125 
Q 47.65625 37.796875 51.625 33 
Q 55.609375 28.21875 55.609375 21.1875 
Q 55.609375 10.40625 48.1875 4.484375 
Q 40.765625 -1.421875 27.09375 -1.421875 
Q 22.515625 -1.421875 17.65625 -0.515625 
Q 12.796875 0.390625 7.625 2.203125 
L 7.625 11.71875 
Q 11.71875 9.328125 16.59375 8.109375 
Q 21.484375 6.890625 26.8125 6.890625 
Q 36.078125 6.890625 40.9375 10.546875 
Q 45.796875 14.203125 45.796875 21.1875 
Q 45.796875 27.640625 41.28125 31.265625 
Q 36.765625 34.90625 28.71875 34.90625 
L 20.21875 34.90625 
L 20.21875 43.015625 
L 29.109375 43.015625 
Q 36.375 43.015625 40.234375 45.921875 
Q 44.09375 48.828125 44.09375 54.296875 
Q 44.09375 59.90625 40.109375 62.90625 
Q 36.140625 65.921875 28.71875 65.921875 
Q 24.65625 65.921875 20.015625 65.03125 
Q 15.375 64.15625 9.8125 62.3125 
L 9.8125 71.09375 
Q 15.4375 72.65625 20.34375 73.4375 
Q 25.25 74.21875 29.59375 74.21875 
Q 40.828125 74.21875 47.359375 69.109375 
Q 53.90625 64.015625 53.90625 55.328125 
Q 53.90625 49.265625 50.4375 45.09375 
Q 46.96875 40.921875 40.578125 39.3125 
z
" id="DejaVuSans-51"/>
      </defs>
      <g transform="translate(421.234437 349.23625)scale(0.1 -0.1)">
       <use xlink:href="#DejaVuSans-51"/>
       <use x="63.623047" xlink:href="#DejaVuSans-48"/>
       <use x="127.246094" xlink:href="#DejaVuSans-48"/>
      </g>
     </g>
    </g>
    <g id="xtick_8">
     <g id="line2d_15">
      <path clip-path="url(#p89c11359e5)" d="M 493.651426 334.637812 
L 493.651426 57.437813 
" style="fill:none;stroke:#b0b0b0;stroke-linecap:square;stroke-width:0.8;"/>
     </g>
     <g id="line2d_16">
      <g>
       <use style="stroke:#000000;stroke-width:0.8;" x="493.651426" xlink:href="#m1aa04b6f3b" y="334.637812"/>
      </g>
     </g>
     <g id="text_8">
      <!-- 350 -->
      <g transform="translate(484.107676 349.23625)scale(0.1 -0.1)">
       <use xlink:href="#DejaVuSans-51"/>
       <use x="63.623047" xlink:href="#DejaVuSans-53"/>
       <use x="127.246094" xlink:href="#DejaVuSans-48"/>
      </g>
     </g>
    </g>
    <g id="text_9">
     <!-- Number of objects reported -->
     <defs>
      <path d="M 9.8125 72.90625 
L 23.09375 72.90625 
L 55.421875 11.921875 
L 55.421875 72.90625 
L 64.984375 72.90625 
L 64.984375 0 
L 51.703125 0 
L 19.390625 60.984375 
L 19.390625 0 
L 9.8125 0 
z
" id="DejaVuSans-78"/>
      <path d="M 8.5 21.578125 
L 8.5 54.6875 
L 17.484375 54.6875 
L 17.484375 21.921875 
Q 17.484375 14.15625 20.5 10.265625 
Q 23.53125 6.390625 29.59375 6.390625 
Q 36.859375 6.390625 41.078125 11.03125 
Q 45.3125 15.671875 45.3125 23.6875 
L 45.3125 54.6875 
L 54.296875 54.6875 
L 54.296875 0 
L 45.3125 0 
L 45.3125 8.40625 
Q 42.046875 3.421875 37.71875 1 
Q 33.40625 -1.421875 27.6875 -1.421875 
Q 18.265625 -1.421875 13.375 4.4375 
Q 8.5 10.296875 8.5 21.578125 
z
M 31.109375 56 
z
" id="DejaVuSans-117"/>
      <path d="M 52 44.1875 
Q 55.375 50.25 60.0625 53.125 
Q 64.75 56 71.09375 56 
Q 79.640625 56 84.28125 50.015625 
Q 88.921875 44.046875 88.921875 33.015625 
L 88.921875 0 
L 79.890625 0 
L 79.890625 32.71875 
Q 79.890625 40.578125 77.09375 44.375 
Q 74.3125 48.1875 68.609375 48.1875 
Q 61.625 48.1875 57.5625 43.546875 
Q 53.515625 38.921875 53.515625 30.90625 
L 53.515625 0 
L 44.484375 0 
L 44.484375 32.71875 
Q 44.484375 40.625 41.703125 44.40625 
Q 38.921875 48.1875 33.109375 48.1875 
Q 26.21875 48.1875 22.15625 43.53125 
Q 18.109375 38.875 18.109375 30.90625 
L 18.109375 0 
L 9.078125 0 
L 9.078125 54.6875 
L 18.109375 54.6875 
L 18.109375 46.1875 
Q 21.1875 51.21875 25.484375 53.609375 
Q 29.78125 56 35.6875 56 
Q 41.65625 56 45.828125 52.96875 
Q 50 49.953125 52 44.1875 
z
" id="DejaVuSans-109"/>
      <path d="M 48.6875 27.296875 
Q 48.6875 37.203125 44.609375 42.84375 
Q 40.53125 48.484375 33.40625 48.484375 
Q 26.265625 48.484375 22.1875 42.84375 
Q 18.109375 37.203125 18.109375 27.296875 
Q 18.109375 17.390625 22.1875 11.75 
Q 26.265625 6.109375 33.40625 6.109375 
Q 40.53125 6.109375 44.609375 11.75 
Q 48.6875 17.390625 48.6875 27.296875 
z
M 18.109375 46.390625 
Q 20.953125 51.265625 25.265625 53.625 
Q 29.59375 56 35.59375 56 
Q 45.5625 56 51.78125 48.09375 
Q 58.015625 40.1875 58.015625 27.296875 
Q 58.015625 14.40625 51.78125 6.484375 
Q 45.5625 -1.421875 35.59375 -1.421875 
Q 29.59375 -1.421875 25.265625 0.953125 
Q 20.953125 3.328125 18.109375 8.203125 
L 18.109375 0 
L 9.078125 0 
L 9.078125 75.984375 
L 18.109375 75.984375 
z
" id="DejaVuSans-98"/>
      <path d="M 56.203125 29.59375 
L 56.203125 25.203125 
L 14.890625 25.203125 
Q 15.484375 15.921875 20.484375 11.0625 
Q 25.484375 6.203125 34.421875 6.203125 
Q 39.59375 6.203125 44.453125 7.46875 
Q 49.3125 8.734375 54.109375 11.28125 
L 54.109375 2.78125 
Q 49.265625 0.734375 44.1875 -0.34375 
Q 39.109375 -1.421875 33.890625 -1.421875 
Q 20.796875 -1.421875 13.15625 6.1875 
Q 5.515625 13.8125 5.515625 26.8125 
Q 5.515625 40.234375 12.765625 48.109375 
Q 20.015625 56 32.328125 56 
Q 43.359375 56 49.78125 48.890625 
Q 56.203125 41.796875 56.203125 29.59375 
z
M 47.21875 32.234375 
Q 47.125 39.59375 43.09375 43.984375 
Q 39.0625 48.390625 32.421875 48.390625 
Q 24.90625 48.390625 20.390625 44.140625 
Q 15.875 39.890625 15.1875 32.171875 
z
" id="DejaVuSans-101"/>
      <path d="M 41.109375 46.296875 
Q 39.59375 47.171875 37.8125 47.578125 
Q 36.03125 48 33.890625 48 
Q 26.265625 48 22.1875 43.046875 
Q 18.109375 38.09375 18.109375 28.8125 
L 18.109375 0 
L 9.078125 0 
L 9.078125 54.6875 
L 18.109375 54.6875 
L 18.109375 46.1875 
Q 20.953125 51.171875 25.484375 53.578125 
Q 30.03125 56 36.53125 56 
Q 37.453125 56 38.578125 55.875 
Q 39.703125 55.765625 41.0625 55.515625 
z
" id="DejaVuSans-114"/>
      <path id="DejaVuSans-32"/>
      <path d="M 30.609375 48.390625 
Q 23.390625 48.390625 19.1875 42.75 
Q 14.984375 37.109375 14.984375 27.296875 
Q 14.984375 17.484375 19.15625 11.84375 
Q 23.34375 6.203125 30.609375 6.203125 
Q 37.796875 6.203125 41.984375 11.859375 
Q 46.1875 17.53125 46.1875 27.296875 
Q 46.1875 37.015625 41.984375 42.703125 
Q 37.796875 48.390625 30.609375 48.390625 
z
M 30.609375 56 
Q 42.328125 56 49.015625 48.375 
Q 55.71875 40.765625 55.71875 27.296875 
Q 55.71875 13.875 49.015625 6.21875 
Q 42.328125 -1.421875 30.609375 -1.421875 
Q 18.84375 -1.421875 12.171875 6.21875 
Q 5.515625 13.875 5.515625 27.296875 
Q 5.515625 40.765625 12.171875 48.375 
Q 18.84375 56 30.609375 56 
z
" id="DejaVuSans-111"/>
      <path d="M 37.109375 75.984375 
L 37.109375 68.5 
L 28.515625 68.5 
Q 23.6875 68.5 21.796875 66.546875 
Q 19.921875 64.59375 19.921875 59.515625 
L 19.921875 54.6875 
L 34.71875 54.6875 
L 34.71875 47.703125 
L 19.921875 47.703125 
L 19.921875 0 
L 10.890625 0 
L 10.890625 47.703125 
L 2.296875 47.703125 
L 2.296875 54.6875 
L 10.890625 54.6875 
L 10.890625 58.5 
Q 10.890625 67.625 15.140625 71.796875 
Q 19.390625 75.984375 28.609375 75.984375 
z
" id="DejaVuSans-102"/>
      <path d="M 9.421875 54.6875 
L 18.40625 54.6875 
L 18.40625 -0.984375 
Q 18.40625 -11.421875 14.421875 -16.109375 
Q 10.453125 -20.796875 1.609375 -20.796875 
L -1.8125 -20.796875 
L -1.8125 -13.1875 
L 0.59375 -13.1875 
Q 5.71875 -13.1875 7.5625 -10.8125 
Q 9.421875 -8.453125 9.421875 -0.984375 
z
M 9.421875 75.984375 
L 18.40625 75.984375 
L 18.40625 64.59375 
L 9.421875 64.59375 
z
" id="DejaVuSans-106"/>
      <path d="M 48.78125 52.59375 
L 48.78125 44.1875 
Q 44.96875 46.296875 41.140625 47.34375 
Q 37.3125 48.390625 33.40625 48.390625 
Q 24.65625 48.390625 19.8125 42.84375 
Q 14.984375 37.3125 14.984375 27.296875 
Q 14.984375 17.28125 19.8125 11.734375 
Q 24.65625 6.203125 33.40625 6.203125 
Q 37.3125 6.203125 41.140625 7.25 
Q 44.96875 8.296875 48.78125 10.40625 
L 48.78125 2.09375 
Q 45.015625 0.34375 40.984375 -0.53125 
Q 36.96875 -1.421875 32.421875 -1.421875 
Q 20.0625 -1.421875 12.78125 6.34375 
Q 5.515625 14.109375 5.515625 27.296875 
Q 5.515625 40.671875 12.859375 48.328125 
Q 20.21875 56 33.015625 56 
Q 37.15625 56 41.109375 55.140625 
Q 45.0625 54.296875 48.78125 52.59375 
z
" id="DejaVuSans-99"/>
      <path d="M 18.3125 70.21875 
L 18.3125 54.6875 
L 36.8125 54.6875 
L 36.8125 47.703125 
L 18.3125 47.703125 
L 18.3125 18.015625 
Q 18.3125 11.328125 20.140625 9.421875 
Q 21.96875 7.515625 27.59375 7.515625 
L 36.8125 7.515625 
L 36.8125 0 
L 27.59375 0 
Q 17.1875 0 13.234375 3.875 
Q 9.28125 7.765625 9.28125 18.015625 
L 9.28125 47.703125 
L 2.6875 47.703125 
L 2.6875 54.6875 
L 9.28125 54.6875 
L 9.28125 70.21875 
z
" id="DejaVuSans-116"/>
      <path d="M 44.28125 53.078125 
L 44.28125 44.578125 
Q 40.484375 46.53125 36.375 47.5 
Q 32.28125 48.484375 27.875 48.484375 
Q 21.1875 48.484375 17.84375 46.4375 
Q 14.5 44.390625 14.5 40.28125 
Q 14.5 37.15625 16.890625 35.375 
Q 19.28125 33.59375 26.515625 31.984375 
L 29.59375 31.296875 
Q 39.15625 29.25 43.1875 25.515625 
Q 47.21875 21.78125 47.21875 15.09375 
Q 47.21875 7.46875 41.1875 3.015625 
Q 35.15625 -1.421875 24.609375 -1.421875 
Q 20.21875 -1.421875 15.453125 -0.5625 
Q 10.6875 0.296875 5.421875 2 
L 5.421875 11.28125 
Q 10.40625 8.6875 15.234375 7.390625 
Q 20.0625 6.109375 24.8125 6.109375 
Q 31.15625 6.109375 34.5625 8.28125 
Q 37.984375 10.453125 37.984375 14.40625 
Q 37.984375 18.0625 35.515625 20.015625 
Q 33.0625 21.96875 24.703125 23.78125 
L 21.578125 24.515625 
Q 13.234375 26.265625 9.515625 29.90625 
Q 5.8125 33.546875 5.8125 39.890625 
Q 5.8125 47.609375 11.28125 51.796875 
Q 16.75 56 26.8125 56 
Q 31.78125 56 36.171875 55.265625 
Q 40.578125 54.546875 44.28125 53.078125 
z
" id="DejaVuSans-115"/>
      <path d="M 18.109375 8.203125 
L 18.109375 -20.796875 
L 9.078125 -20.796875 
L 9.078125 54.6875 
L 18.109375 54.6875 
L 18.109375 46.390625 
Q 20.953125 51.265625 25.265625 53.625 
Q 29.59375 56 35.59375 56 
Q 45.5625 56 51.78125 48.09375 
Q 58.015625 40.1875 58.015625 27.296875 
Q 58.015625 14.40625 51.78125 6.484375 
Q 45.5625 -1.421875 35.59375 -1.421875 
Q 29.59375 -1.421875 25.265625 0.953125 
Q 20.953125 3.328125 18.109375 8.203125 
z
M 48.6875 27.296875 
Q 48.6875 37.203125 44.609375 42.84375 
Q 40.53125 48.484375 33.40625 48.484375 
Q 26.265625 48.484375 22.1875 42.84375 
Q 18.109375 37.203125 18.109375 27.296875 
Q 18.109375 17.390625 22.1875 11.75 
Q 26.265625 6.109375 33.40625 6.109375 
Q 40.53125 6.109375 44.609375 11.75 
Q 48.6875 17.390625 48.6875 27.296875 
z
" id="DejaVuSans-112"/>
      <path d="M 45.40625 46.390625 
L 45.40625 75.984375 
L 54.390625 75.984375 
L 54.390625 0 
L 45.40625 0 
L 45.40625 8.203125 
Q 42.578125 3.328125 38.25 0.953125 
Q 33.9375 -1.421875 27.875 -1.421875 
Q 17.96875 -1.421875 11.734375 6.484375 
Q 5.515625 14.40625 5.515625 27.296875 
Q 5.515625 40.1875 11.734375 48.09375 
Q 17.96875 56 27.875 56 
Q 33.9375 56 38.25 53.625 
Q 42.578125 51.265625 45.40625 46.390625 
z
M 14.796875 27.296875 
Q 14.796875 17.390625 18.875 11.75 
Q 22.953125 6.109375 30.078125 6.109375 
Q 37.203125 6.109375 41.296875 11.75 
Q 45.40625 17.390625 45.40625 27.296875 
Q 45.40625 37.203125 41.296875 42.84375 
Q 37.203125 48.484375 30.078125 48.484375 
Q 22.953125 48.484375 18.875 42.84375 
Q 14.796875 37.203125 14.796875 27.296875 
z
" id="DejaVuSans-100"/>
     </defs>
     <g transform="translate(53.53875 375.434062)scale(0.12 -0.12)">
      <use xlink:href="#DejaVuSans-78"/>
      <use x="74.804688" xlink:href="#DejaVuSans-117"/>
      <use x="138.183594" xlink:href="#DejaVuSans-109"/>
      <use x="235.595703" xlink:href="#DejaVuSans-98"/>
      <use x="299.072266" xlink:href="#DejaVuSans-101"/>
      <use x="360.595703" xlink:href="#DejaVuSans-114"/>
      <use x="401.708984" xlink:href="#DejaVuSans-32"/>
      <use x="433.496094" xlink:href="#DejaVuSans-111"/>
      <use x="494.677734" xlink:href="#DejaVuSans-102"/>
      <use x="529.882812" xlink:href="#DejaVuSans-32"/>
      <use x="561.669922" xlink:href="#DejaVuSans-111"/>
      <use x="622.851562" xlink:href="#DejaVuSans-98"/>
      <use x="686.328125" xlink:href="#DejaVuSans-106"/>
      <use x="714.111328" xlink:href="#DejaVuSans-101"/>
      <use x="775.634766" xlink:href="#DejaVuSans-99"/>
      <use x="830.615234" xlink:href="#DejaVuSans-116"/>
      <use x="869.824219" xlink:href="#DejaVuSans-115"/>
      <use x="921.923828" xlink:href="#DejaVuSans-32"/>
      <use x="953.710938" xlink:href="#DejaVuSans-114"/>
      <use x="994.792969" xlink:href="#DejaVuSans-101"/>
      <use x="1056.316406" xlink:href="#DejaVuSans-112"/>
      <use x="1119.792969" xlink:href="#DejaVuSans-111"/>
      <use x="1180.974609" xlink:href="#DejaVuSans-114"/>
      <use x="1222.087891" xlink:href="#DejaVuSans-116"/>
      <use x="1261.296875" xlink:href="#DejaVuSans-101"/>
      <use x="1322.820312" xlink:href="#DejaVuSans-100"/>
     </g>
    </g>
   </g>
   <g id="matplotlib.axis_2">
    <g id="ytick_1">
     <g id="line2d_17">
      <path clip-path="url(#p89c11359e5)" d="M 53.53875 302.234853 
L 499.93875 302.234853 
" style="fill:none;stroke:#b0b0b0;stroke-linecap:square;stroke-width:0.8;"/>
     </g>
     <g id="line2d_18">
      <defs>
       <path d="M 0 0 
L -3.5 0 
" id="ma915169663" style="stroke:#000000;stroke-width:0.8;"/>
      </defs>
      <g>
       <use style="stroke:#000000;stroke-width:0.8;" x="53.53875" xlink:href="#ma915169663" y="302.234853"/>
      </g>
     </g>
     <g id="text_10">
      <!-- 10 -->
      <g transform="translate(33.81375 306.034072)scale(0.1 -0.1)">
       <use xlink:href="#DejaVuSans-49"/>
       <use x="63.623047" xlink:href="#DejaVuSans-48"/>
      </g>
     </g>
    </g>
    <g id="ytick_2">
     <g id="line2d_19">
      <path clip-path="url(#p89c11359e5)" d="M 53.53875 265.013363 
L 499.93875 265.013363 
" style="fill:none;stroke:#b0b0b0;stroke-linecap:square;stroke-width:0.8;"/>
     </g>
     <g id="line2d_20">
      <g>
       <use style="stroke:#000000;stroke-width:0.8;" x="53.53875" xlink:href="#ma915169663" y="265.013363"/>
      </g>
     </g>
     <g id="text_11">
      <!-- 15 -->
      <g transform="translate(33.81375 268.812582)scale(0.1 -0.1)">
       <use xlink:href="#DejaVuSans-49"/>
       <use x="63.623047" xlink:href="#DejaVuSans-53"/>
      </g>
     </g>
    </g>
    <g id="ytick_3">
     <g id="line2d_21">
      <path clip-path="url(#p89c11359e5)" d="M 53.53875 227.791874 
L 499.93875 227.791874 
" style="fill:none;stroke:#b0b0b0;stroke-linecap:square;stroke-width:0.8;"/>
     </g>
     <g id="line2d_22">
      <g>
       <use style="stroke:#000000;stroke-width:0.8;" x="53.53875" xlink:href="#ma915169663" y="227.791874"/>
      </g>
     </g>
     <g id="text_12">
      <!-- 20 -->
      <g transform="translate(33.81375 231.591092)scale(0.1 -0.1)">
       <use xlink:href="#DejaVuSans-50"/>
       <use x="63.623047" xlink:href="#DejaVuSans-48"/>
      </g>
     </g>
    </g>
    <g id="ytick_4">
     <g id="line2d_23">
      <path clip-path="url(#p89c11359e5)" d="M 53.53875 190.570384 
L 499.93875 190.570384 
" style="fill:none;stroke:#b0b0b0;stroke-linecap:square;stroke-width:0.8;"/>
     </g>
     <g id="line2d_24">
      <g>
       <use style="stroke:#000000;stroke-width:0.8;" x="53.53875" xlink:href="#ma915169663" y="190.570384"/>
      </g>
     </g>
     <g id="text_13">
      <!-- 25 -->
      <g transform="translate(33.81375 194.369603)scale(0.1 -0.1)">
       <use xlink:href="#DejaVuSans-50"/>
       <use x="63.623047" xlink:href="#DejaVuSans-53"/>
      </g>
     </g>
    </g>
    <g id="ytick_5">
     <g id="line2d_25">
      <path clip-path="url(#p89c11359e5)" d="M 53.53875 153.348894 
L 499.93875 153.348894 
" style="fill:none;stroke:#b0b0b0;stroke-linecap:square;stroke-width:0.8;"/>
     </g>
     <g id="line2d_26">
      <g>
       <use style="stroke:#000000;stroke-width:0.8;" x="53.53875" xlink:href="#ma915169663" y="153.348894"/>
      </g>
     </g>
     <g id="text_14">
      <!-- 30 -->
      <g transform="translate(33.81375 157.148113)scale(0.1 -0.1)">
       <use xlink:href="#DejaVuSans-51"/>
       <use x="63.623047" xlink:href="#DejaVuSans-48"/>
      </g>
     </g>
    </g>
    <g id="ytick_6">
     <g id="line2d_27">
      <path clip-path="url(#p89c11359e5)" d="M 53.53875 116.127405 
L 499.93875 116.127405 
" style="fill:none;stroke:#b0b0b0;stroke-linecap:square;stroke-width:0.8;"/>
     </g>
     <g id="line2d_28">
      <g>
       <use style="stroke:#000000;stroke-width:0.8;" x="53.53875" xlink:href="#ma915169663" y="116.127405"/>
      </g>
     </g>
     <g id="text_15">
      <!-- 35 -->
      <g transform="translate(33.81375 119.926624)scale(0.1 -0.1)">
       <use xlink:href="#DejaVuSans-51"/>
       <use x="63.623047" xlink:href="#DejaVuSans-53"/>
      </g>
     </g>
    </g>
    <g id="ytick_7">
     <g id="line2d_29">
      <path clip-path="url(#p89c11359e5)" d="M 53.53875 78.905915 
L 499.93875 78.905915 
" style="fill:none;stroke:#b0b0b0;stroke-linecap:square;stroke-width:0.8;"/>
     </g>
     <g id="line2d_30">
      <g>
       <use style="stroke:#000000;stroke-width:0.8;" x="53.53875" xlink:href="#ma915169663" y="78.905915"/>
      </g>
     </g>
     <g id="text_16">
      <!-- 40 -->
      <defs>
       <path d="M 37.796875 64.3125 
L 12.890625 25.390625 
L 37.796875 25.390625 
z
M 35.203125 72.90625 
L 47.609375 72.90625 
L 47.609375 25.390625 
L 58.015625 25.390625 
L 58.015625 17.1875 
L 47.609375 17.1875 
L 47.609375 0 
L 37.796875 0 
L 37.796875 17.1875 
L 4.890625 17.1875 
L 4.890625 26.703125 
z
" id="DejaVuSans-52"/>
      </defs>
      <g transform="translate(33.81375 82.705134)scale(0.1 -0.1)">
       <use xlink:href="#DejaVuSans-52"/>
       <use x="63.623047" xlink:href="#DejaVuSans-48"/>
      </g>
     </g>
    </g>
    <g id="text_17">
     <!-- Number of categories -->
     <defs>
      <path d="M 34.28125 27.484375 
Q 23.390625 27.484375 19.1875 25 
Q 14.984375 22.515625 14.984375 16.5 
Q 14.984375 11.71875 18.140625 8.90625 
Q 21.296875 6.109375 26.703125 6.109375 
Q 34.1875 6.109375 38.703125 11.40625 
Q 43.21875 16.703125 43.21875 25.484375 
L 43.21875 27.484375 
z
M 52.203125 31.203125 
L 52.203125 0 
L 43.21875 0 
L 43.21875 8.296875 
Q 40.140625 3.328125 35.546875 0.953125 
Q 30.953125 -1.421875 24.3125 -1.421875 
Q 15.921875 -1.421875 10.953125 3.296875 
Q 6 8.015625 6 15.921875 
Q 6 25.140625 12.171875 29.828125 
Q 18.359375 34.515625 30.609375 34.515625 
L 43.21875 34.515625 
L 43.21875 35.40625 
Q 43.21875 41.609375 39.140625 45 
Q 35.0625 48.390625 27.6875 48.390625 
Q 23 48.390625 18.546875 47.265625 
Q 14.109375 46.140625 10.015625 43.890625 
L 10.015625 52.203125 
Q 14.9375 54.109375 19.578125 55.046875 
Q 24.21875 56 28.609375 56 
Q 40.484375 56 46.34375 49.84375 
Q 52.203125 43.703125 52.203125 31.203125 
z
" id="DejaVuSans-97"/>
      <path d="M 45.40625 27.984375 
Q 45.40625 37.75 41.375 43.109375 
Q 37.359375 48.484375 30.078125 48.484375 
Q 22.859375 48.484375 18.828125 43.109375 
Q 14.796875 37.75 14.796875 27.984375 
Q 14.796875 18.265625 18.828125 12.890625 
Q 22.859375 7.515625 30.078125 7.515625 
Q 37.359375 7.515625 41.375 12.890625 
Q 45.40625 18.265625 45.40625 27.984375 
z
M 54.390625 6.78125 
Q 54.390625 -7.171875 48.1875 -13.984375 
Q 42 -20.796875 29.203125 -20.796875 
Q 24.46875 -20.796875 20.265625 -20.09375 
Q 16.0625 -19.390625 12.109375 -17.921875 
L 12.109375 -9.1875 
Q 16.0625 -11.328125 19.921875 -12.34375 
Q 23.78125 -13.375 27.78125 -13.375 
Q 36.625 -13.375 41.015625 -8.765625 
Q 45.40625 -4.15625 45.40625 5.171875 
L 45.40625 9.625 
Q 42.625 4.78125 38.28125 2.390625 
Q 33.9375 0 27.875 0 
Q 17.828125 0 11.671875 7.65625 
Q 5.515625 15.328125 5.515625 27.984375 
Q 5.515625 40.671875 11.671875 48.328125 
Q 17.828125 56 27.875 56 
Q 33.9375 56 38.28125 53.609375 
Q 42.625 51.21875 45.40625 46.390625 
L 45.40625 54.6875 
L 54.390625 54.6875 
z
" id="DejaVuSans-103"/>
      <path d="M 9.421875 54.6875 
L 18.40625 54.6875 
L 18.40625 0 
L 9.421875 0 
z
M 9.421875 75.984375 
L 18.40625 75.984375 
L 18.40625 64.59375 
L 9.421875 64.59375 
z
" id="DejaVuSans-105"/>
     </defs>
     <g transform="translate(16.318125 261.189375)rotate(-90)scale(0.12 -0.12)">
      <use xlink:href="#DejaVuSans-78"/>
      <use x="74.804688" xlink:href="#DejaVuSans-117"/>
      <use x="138.183594" xlink:href="#DejaVuSans-109"/>
      <use x="235.595703" xlink:href="#DejaVuSans-98"/>
      <use x="299.072266" xlink:href="#DejaVuSans-101"/>
      <use x="360.595703" xlink:href="#DejaVuSans-114"/>
      <use x="401.708984" xlink:href="#DejaVuSans-32"/>
      <use x="433.496094" xlink:href="#DejaVuSans-111"/>
      <use x="494.677734" xlink:href="#DejaVuSans-102"/>
      <use x="529.882812" xlink:href="#DejaVuSans-32"/>
      <use x="561.669922" xlink:href="#DejaVuSans-99"/>
      <use x="616.650391" xlink:href="#DejaVuSans-97"/>
      <use x="677.929688" xlink:href="#DejaVuSans-116"/>
      <use x="717.138672" xlink:href="#DejaVuSans-101"/>
      <use x="778.662109" xlink:href="#DejaVuSans-103"/>
      <use x="842.138672" xlink:href="#DejaVuSans-111"/>
      <use x="903.320312" xlink:href="#DejaVuSans-114"/>
      <use x="944.433594" xlink:href="#DejaVuSans-105"/>
      <use x="972.216797" xlink:href="#DejaVuSans-101"/>
      <use x="1033.740234" xlink:href="#DejaVuSans-115"/>
     </g>
    </g>
   </g>
   <g id="PathCollection_1">
    <defs>
     <path d="M 0 8.01249 
C 2.124937 8.01249 4.163129 7.168244 5.665686 5.665686 
C 7.168244 4.163129 8.01249 2.124937 8.01249 0 
C 8.01249 -2.124937 7.168244 -4.163129 5.665686 -5.665686 
C 4.163129 -7.168244 2.124937 -8.01249 0 -8.01249 
C -2.124937 -8.01249 -4.163129 -7.168244 -5.665686 -5.665686 
C -7.168244 -4.163129 -8.01249 -2.124937 -8.01249 0 
C -8.01249 2.124937 -7.168244 4.163129 -5.665686 5.665686 
C -4.163129 7.168244 -2.124937 8.01249 0 8.01249 
z
" id="m6f766b84a8" style="stroke:#ffffff;"/>
    </defs>
    <g clip-path="url(#p89c11359e5)">
     <use style="fill:#393b79;stroke:#ffffff;" x="335.210863" xlink:href="#m6f766b84a8" y="205.45898"/>
    </g>
   </g>
   <g id="PathCollection_2">
    <defs>
     <path d="M 0 17.722867 
C 4.700159 17.722867 9.208445 15.855474 12.531959 12.531959 
C 15.855474 9.208445 17.722867 4.700159 17.722867 0 
C 17.722867 -4.700159 15.855474 -9.208445 12.531959 -12.531959 
C 9.208445 -15.855474 4.700159 -17.722867 0 -17.722867 
C -4.700159 -17.722867 -9.208445 -15.855474 -12.531959 -12.531959 
C -15.855474 -9.208445 -17.722867 -4.700159 -17.722867 0 
C -17.722867 4.700159 -15.855474 9.208445 -12.531959 12.531959 
C -9.208445 15.855474 -4.700159 17.722867 0 17.722867 
z
" id="mc7522f308d" style="stroke:#ffffff;"/>
    </defs>
    <g clip-path="url(#p89c11359e5)">
     <use style="fill:#5254a3;stroke:#ffffff;" x="211.979313" xlink:href="#mc7522f308d" y="190.570384"/>
    </g>
   </g>
   <g id="PathCollection_3">
    <defs>
     <path d="M 0 9.502631 
C 2.520127 9.502631 4.937376 8.501374 6.719375 6.719375 
C 8.501374 4.937376 9.502631 2.520127 9.502631 0 
C 9.502631 -2.520127 8.501374 -4.937376 6.719375 -6.719375 
C 4.937376 -8.501374 2.520127 -9.502631 0 -9.502631 
C -2.520127 -9.502631 -4.937376 -8.501374 -6.719375 -6.719375 
C -8.501374 -4.937376 -9.502631 -2.520127 -9.502631 0 
C -9.502631 2.520127 -8.501374 4.937376 -6.719375 6.719375 
C -4.937376 8.501374 -2.520127 9.502631 0 9.502631 
z
" id="m204db726f5" style="stroke:#ffffff;"/>
    </defs>
    <g clip-path="url(#p89c11359e5)">
     <use style="fill:#6b6ecf;stroke:#ffffff;" x="286.169736" xlink:href="#m204db726f5" y="138.460299"/>
    </g>
   </g>
   <g id="PathCollection_4">
    <defs>
     <path d="M 0 5.282045 
C 1.400815 5.282045 2.744444 4.725495 3.73497 3.73497 
C 4.725495 2.744444 5.282045 1.400815 5.282045 0 
C 5.282045 -1.400815 4.725495 -2.744444 3.73497 -3.73497 
C 2.744444 -4.725495 1.400815 -5.282045 0 -5.282045 
C -1.400815 -5.282045 -2.744444 -4.725495 -3.73497 -3.73497 
C -4.725495 -2.744444 -5.282045 -1.400815 -5.282045 0 
C -5.282045 1.400815 -4.725495 2.744444 -3.73497 3.73497 
C -2.744444 4.725495 -1.400815 5.282045 0 5.282045 
z
" id="m8df9586979" style="stroke:#ffffff;"/>
    </defs>
    <g clip-path="url(#p89c11359e5)">
     <use style="fill:#9c9ede;stroke:#ffffff;" x="96.292553" xlink:href="#m8df9586979" y="265.013363"/>
    </g>
   </g>
   <g id="PathCollection_5">
    <path clip-path="url(#p89c11359e5)" d="M 357.845229 95.947042 
C 362.364589 95.947042 366.699455 94.151481 369.895125 90.955812 
C 373.090795 87.760142 374.886356 83.425275 374.886356 78.905915 
C 374.886356 74.386556 373.090795 70.051689 369.895125 66.856019 
C 366.699455 63.660349 362.364589 61.864789 357.845229 61.864789 
C 353.325869 61.864789 348.991002 63.660349 345.795333 66.856019 
C 342.599663 70.051689 340.804102 74.386556 340.804102 78.905915 
C 340.804102 83.425275 342.599663 87.760142 345.795333 90.955812 
C 348.991002 94.151481 353.325869 95.947042 357.845229 95.947042 
z
" style="fill:#637939;stroke:#ffffff;"/>
    <path clip-path="url(#p89c11359e5)" d="M 318.86382 130.357654 
C 322.637727 130.357654 326.257572 128.858265 328.926126 126.189711 
C 331.594681 123.521156 333.09407 119.901311 333.09407 116.127405 
C 333.09407 112.353499 331.594681 108.733654 328.926126 106.065099 
C 326.257572 103.396544 322.637727 101.897155 318.86382 101.897155 
C 315.089914 101.897155 311.470069 103.396544 308.801515 106.065099 
C 306.13296 108.733654 304.633571 112.353499 304.633571 116.127405 
C 304.633571 119.901311 306.13296 123.521156 308.801515 126.189711 
C 311.470069 128.858265 315.089914 130.357654 318.86382 130.357654 
z
" style="fill:#637939;stroke:#ffffff;"/>
   </g>
   <g id="PathCollection_6">
    <path clip-path="url(#p89c11359e5)" d="M 128.986637 269.256004 
C 130.111799 269.256004 131.191028 268.808972 131.986637 268.013363 
C 132.782247 267.217754 133.229278 266.138525 133.229278 265.013363 
C 133.229278 263.888202 132.782247 262.808972 131.986637 262.013363 
C 131.191028 261.217754 130.111799 260.770722 128.986637 260.770722 
C 127.861476 260.770722 126.782247 261.217754 125.986637 262.013363 
C 125.191028 262.808972 124.743997 263.888202 124.743997 265.013363 
C 124.743997 266.138525 125.191028 267.217754 125.986637 268.013363 
C 126.782247 268.808972 127.861476 269.256004 128.986637 269.256004 
z
" style="fill:#8ca252;stroke:#ffffff;"/>
    <path clip-path="url(#p89c11359e5)" d="M 145.33368 247.640308 
C 146.649044 247.640308 147.910712 247.117708 148.840815 246.187605 
C 149.770918 245.257502 150.293518 243.995834 150.293518 242.680469 
C 150.293518 241.365105 149.770918 240.103437 148.840815 239.173334 
C 147.910712 238.243231 146.649044 237.720631 145.33368 237.720631 
C 144.018315 237.720631 142.756647 238.243231 141.826544 239.173334 
C 140.896441 240.103437 140.373841 241.365105 140.373841 242.680469 
C 140.373841 243.995834 140.896441 245.257502 141.826544 246.187605 
C 142.756647 247.117708 144.018315 247.640308 145.33368 247.640308 
z
" style="fill:#8ca252;stroke:#ffffff;"/>
   </g>
   <g id="PathCollection_7">
    <defs>
     <path d="M 0 14.429137 
C 3.826652 14.429137 7.497089 12.908792 10.202941 10.202941 
C 12.908792 7.497089 14.429137 3.826652 14.429137 0 
C 14.429137 -3.826652 12.908792 -7.497089 10.202941 -10.202941 
C 7.497089 -12.908792 3.826652 -14.429137 0 -14.429137 
C -3.826652 -14.429137 -7.497089 -12.908792 -10.202941 -10.202941 
C -12.908792 -7.497089 -14.429137 -3.826652 -14.429137 0 
C -14.429137 3.826652 -12.908792 7.497089 -10.202941 10.202941 
C -7.497089 12.908792 -3.826652 14.429137 0 14.429137 
z
" id="m17b56c1bd8" style="stroke:#ffffff;"/>
    </defs>
    <g clip-path="url(#p89c11359e5)">
     <use style="fill:#b5cf6b;stroke:#ffffff;" x="437.065511" xlink:href="#m17b56c1bd8" y="93.794511"/>
    </g>
   </g>
   <g id="PathCollection_8">
    <defs>
     <path d="M 0 6.708204 
C 1.779036 6.708204 3.485448 6.001385 4.743416 4.743416 
C 6.001385 3.485448 6.708204 1.779036 6.708204 0 
C 6.708204 -1.779036 6.001385 -3.485448 4.743416 -4.743416 
C 3.485448 -6.001385 1.779036 -6.708204 0 -6.708204 
C -1.779036 -6.708204 -3.485448 -6.001385 -4.743416 -4.743416 
C -6.001385 -3.485448 -6.708204 -1.779036 -6.708204 0 
C -6.708204 1.779036 -6.001385 3.485448 -4.743416 4.743416 
C -3.485448 6.001385 -1.779036 6.708204 0 6.708204 
z
" id="ma00980ba96" style="stroke:#ffffff;"/>
    </defs>
    <g clip-path="url(#p89c11359e5)">
     <use style="fill:#cedb9c;stroke:#ffffff;" x="110.124665" xlink:href="#ma00980ba96" y="250.124767"/>
    </g>
   </g>
   <g id="PathCollection_9">
    <defs>
     <path d="M 0 7.489993 
C 1.986369 7.489993 3.89165 6.7008 5.296225 5.296225 
C 6.7008 3.89165 7.489993 1.986369 7.489993 0 
C 7.489993 -1.986369 6.7008 -3.89165 5.296225 -5.296225 
C 3.89165 -6.7008 1.986369 -7.489993 0 -7.489993 
C -1.986369 -7.489993 -3.89165 -6.7008 -5.296225 -5.296225 
C -6.7008 -3.89165 -7.489993 -1.986369 -7.489993 0 
C -7.489993 1.986369 -6.7008 3.89165 -5.296225 5.296225 
C -3.89165 6.7008 -1.986369 7.489993 0 7.489993 
z
" id="madafd19581" style="stroke:#ffffff;"/>
    </defs>
    <g clip-path="url(#p89c11359e5)">
     <use style="fill:#8c6d31;stroke:#ffffff;" x="167.968046" xlink:href="#madafd19581" y="190.570384"/>
    </g>
   </g>
   <g id="PathCollection_10">
    <path clip-path="url(#p89c11359e5)" d="M 110.124665 314.294343 
C 111.348629 314.294343 112.522627 313.808057 113.388099 312.942584 
C 114.253572 312.077112 114.739858 310.903114 114.739858 309.679151 
C 114.739858 308.455187 114.253572 307.28119 113.388099 306.415717 
C 112.522627 305.550244 111.348629 305.063958 110.124665 305.063958 
C 108.900702 305.063958 107.726704 305.550244 106.861232 306.415717 
C 105.995759 307.28119 105.509473 308.455187 105.509473 309.679151 
C 105.509473 310.903114 105.995759 312.077112 106.861232 312.942584 
C 107.726704 313.808057 108.900702 314.294343 110.124665 314.294343 
z
" style="fill:#bd9e39;stroke:#ffffff;"/>
    <path clip-path="url(#p89c11359e5)" d="M 116.411989 262.648435 
C 117.759054 262.648435 119.051128 262.113241 120.003646 261.160722 
C 120.956165 260.208204 121.491359 258.91613 121.491359 257.569065 
C 121.491359 256.222001 120.956165 254.929927 120.003646 253.977408 
C 119.051128 253.02489 117.759054 252.489695 116.411989 252.489695 
C 115.064925 252.489695 113.772851 253.02489 112.820332 253.977408 
C 111.867814 254.929927 111.332619 256.222001 111.332619 257.569065 
C 111.332619 258.91613 111.867814 260.208204 112.820332 261.160722 
C 113.772851 262.113241 115.064925 262.648435 116.411989 262.648435 
z
" style="fill:#bd9e39;stroke:#ffffff;"/>
   </g>
   <g id="PathCollection_11">
    <path clip-path="url(#p89c11359e5)" d="M 310.061567 141.790972 
C 312.919123 141.790972 315.660025 140.655653 317.680622 138.635056 
C 319.701219 136.614459 320.836538 133.873556 320.836538 131.016001 
C 320.836538 128.158445 319.701219 125.417543 317.680622 123.396946 
C 315.660025 121.376349 312.919123 120.24103 310.061567 120.24103 
C 307.204011 120.24103 304.463109 121.376349 302.442512 123.396946 
C 300.421915 125.417543 299.286596 128.158445 299.286596 131.016001 
C 299.286596 133.873556 300.421915 136.614459 302.442512 138.635056 
C 304.463109 140.655653 307.204011 141.790972 310.061567 141.790972 
z
" style="fill:#e7ba52;stroke:#ffffff;"/>
    <path clip-path="url(#p89c11359e5)" d="M 377.964665 157.929571 
C 381.153726 157.929571 384.2126 156.662543 386.467606 154.407537 
C 388.722612 152.152531 389.98964 149.093657 389.98964 145.904597 
C 389.98964 142.715536 388.722612 139.656662 386.467606 137.401656 
C 384.2126 135.14665 381.153726 133.879622 377.964665 133.879622 
C 374.775605 133.879622 371.716731 135.14665 369.461725 137.401656 
C 367.206719 139.656662 365.939691 142.715536 365.939691 145.904597 
C 365.939691 149.093657 367.206719 152.152531 369.461725 154.407537 
C 371.716731 156.662543 374.775605 157.929571 377.964665 157.929571 
z
" style="fill:#e7ba52;stroke:#ffffff;"/>
   </g>
   <g id="PathCollection_12">
    <defs>
     <path d="M 0 8.01249 
C 2.124937 8.01249 4.163129 7.168244 5.665686 5.665686 
C 7.168244 4.163129 8.01249 2.124937 8.01249 0 
C 8.01249 -2.124937 7.168244 -4.163129 5.665686 -5.665686 
C 4.163129 -7.168244 2.124937 -8.01249 0 -8.01249 
C -2.124937 -8.01249 -4.163129 -7.168244 -5.665686 -5.665686 
C -7.168244 -4.163129 -8.01249 -2.124937 -8.01249 0 
C -8.01249 2.124937 -7.168244 4.163129 -5.665686 5.665686 
C -4.163129 7.168244 -2.124937 8.01249 0 8.01249 
z
" id="m0ec48b1701" style="stroke:#ffffff;"/>
    </defs>
    <g clip-path="url(#p89c11359e5)">
     <use style="fill:#e7cb94;stroke:#ffffff;" x="127.729173" xlink:href="#m0ec48b1701" y="272.457661"/>
    </g>
   </g>
   <g id="PathCollection_13">
    <path clip-path="url(#p89c11359e5)" d="M 172.997905 217.396316 
C 176.163724 217.396316 179.200305 216.138523 181.438876 213.899951 
C 183.677448 211.66138 184.935241 208.624798 184.935241 205.45898 
C 184.935241 202.293161 183.677448 199.25658 181.438876 197.018008 
C 179.200305 194.779437 176.163724 193.521643 172.997905 193.521643 
C 169.832086 193.521643 166.795505 194.779437 164.556933 197.018008 
C 162.318362 199.25658 161.060569 202.293161 161.060569 205.45898 
C 161.060569 208.624798 162.318362 211.66138 164.556933 213.899951 
C 166.795505 216.138523 169.832086 217.396316 172.997905 217.396316 
z
" style="fill:#843c39;stroke:#ffffff;"/>
    <path clip-path="url(#p89c11359e5)" d="M 84.97537 322.113439 
C 86.298731 322.113439 87.568068 321.587662 88.503825 320.651904 
C 89.439583 319.716147 89.96536 318.446809 89.96536 317.123449 
C 89.96536 315.800088 89.439583 314.53075 88.503825 313.594993 
C 87.568068 312.659235 86.298731 312.133459 84.97537 312.133459 
C 83.652009 312.133459 82.382671 312.659235 81.446914 313.594993 
C 80.511157 314.53075 79.98538 315.800088 79.98538 317.123449 
C 79.98538 318.446809 80.511157 319.716147 81.446914 320.651904 
C 82.382671 321.587662 83.652009 322.113439 84.97537 322.113439 
z
" style="fill:#843c39;stroke:#ffffff;"/>
   </g>
   <g id="PathCollection_14">
    <path clip-path="url(#p89c11359e5)" d="M 160.423257 167.227476 
C 162.129649 167.227476 163.766381 166.549519 164.972982 165.342918 
C 166.179584 164.136316 166.85754 162.499584 166.85754 160.793192 
C 166.85754 159.0868 166.179584 157.450068 164.972982 156.243467 
C 163.766381 155.036866 162.129649 154.358909 160.423257 154.358909 
C 158.716865 154.358909 157.080133 155.036866 155.873532 156.243467 
C 154.666931 157.450068 153.988974 159.0868 153.988974 160.793192 
C 153.988974 162.499584 154.666931 164.136316 155.873532 165.342918 
C 157.080133 166.549519 158.716865 167.227476 160.423257 167.227476 
z
" style="fill:#ad494a;stroke:#ffffff;"/>
    <path clip-path="url(#p89c11359e5)" d="M 230.841285 185.601466 
C 233.472014 185.601466 235.99535 184.556266 237.855556 182.696059 
C 239.715763 180.835853 240.760963 178.312517 240.760963 175.681788 
C 240.760963 173.051059 239.715763 170.527723 237.855556 168.667517 
C 235.99535 166.807311 233.472014 165.762111 230.841285 165.762111 
C 228.210556 165.762111 225.687221 166.807311 223.827014 168.667517 
C 221.966808 170.527723 220.921608 173.051059 220.921608 175.681788 
C 220.921608 178.312517 221.966808 180.835853 223.827014 182.696059 
C 225.687221 184.556266 228.210556 185.601466 230.841285 185.601466 
z
" style="fill:#ad494a;stroke:#ffffff;"/>
   </g>
   <g id="PathCollection_15"/>
   <g id="PathCollection_16"/>
   <g id="patch_3">
    <path d="M 53.53875 334.637812 
L 53.53875 57.437813 
" style="fill:none;stroke:#000000;stroke-linecap:square;stroke-linejoin:miter;stroke-width:0.8;"/>
   </g>
   <g id="patch_4">
    <path d="M 499.93875 334.637812 
L 499.93875 57.437813 
" style="fill:none;stroke:#000000;stroke-linecap:square;stroke-linejoin:miter;stroke-width:0.8;"/>
   </g>
   <g id="patch_5">
    <path d="M 53.53875 334.637812 
L 499.93875 334.637812 
" style="fill:none;stroke:#000000;stroke-linecap:square;stroke-linejoin:miter;stroke-width:0.8;"/>
   </g>
   <g id="patch_6">
    <path d="M 53.53875 57.437813 
L 499.93875 57.437813 
" style="fill:none;stroke:#000000;stroke-linecap:square;stroke-linejoin:miter;stroke-width:0.8;"/>
   </g>
   <g id="text_18">
    <!-- Number of objects and categories per survey. -->
    <defs>
     <path d="M 54.890625 33.015625 
L 54.890625 0 
L 45.90625 0 
L 45.90625 32.71875 
Q 45.90625 40.484375 42.875 44.328125 
Q 39.84375 48.1875 33.796875 48.1875 
Q 26.515625 48.1875 22.3125 43.546875 
Q 18.109375 38.921875 18.109375 30.90625 
L 18.109375 0 
L 9.078125 0 
L 9.078125 54.6875 
L 18.109375 54.6875 
L 18.109375 46.1875 
Q 21.34375 51.125 25.703125 53.5625 
Q 30.078125 56 35.796875 56 
Q 45.21875 56 50.046875 50.171875 
Q 54.890625 44.34375 54.890625 33.015625 
z
" id="DejaVuSans-110"/>
     <path d="M 2.984375 54.6875 
L 12.5 54.6875 
L 29.59375 8.796875 
L 46.6875 54.6875 
L 56.203125 54.6875 
L 35.6875 0 
L 23.484375 0 
z
" id="DejaVuSans-118"/>
     <path d="M 32.171875 -5.078125 
Q 28.375 -14.84375 24.75 -17.8125 
Q 21.140625 -20.796875 15.09375 -20.796875 
L 7.90625 -20.796875 
L 7.90625 -13.28125 
L 13.1875 -13.28125 
Q 16.890625 -13.28125 18.9375 -11.515625 
Q 21 -9.765625 23.484375 -3.21875 
L 25.09375 0.875 
L 2.984375 54.6875 
L 12.5 54.6875 
L 29.59375 11.921875 
L 46.6875 54.6875 
L 56.203125 54.6875 
z
" id="DejaVuSans-121"/>
     <path d="M 10.6875 12.40625 
L 21 12.40625 
L 21 0 
L 10.6875 0 
z
" id="DejaVuSans-46"/>
    </defs>
    <g transform="translate(53.53875 42.437813)scale(0.12 -0.12)">
     <use xlink:href="#DejaVuSans-78"/>
     <use x="74.804688" xlink:href="#DejaVuSans-117"/>
     <use x="138.183594" xlink:href="#DejaVuSans-109"/>
     <use x="235.595703" xlink:href="#DejaVuSans-98"/>
     <use x="299.072266" xlink:href="#DejaVuSans-101"/>
     <use x="360.595703" xlink:href="#DejaVuSans-114"/>
     <use x="401.708984" xlink:href="#DejaVuSans-32"/>
     <use x="433.496094" xlink:href="#DejaVuSans-111"/>
     <use x="494.677734" xlink:href="#DejaVuSans-102"/>
     <use x="529.882812" xlink:href="#DejaVuSans-32"/>
     <use x="561.669922" xlink:href="#DejaVuSans-111"/>
     <use x="622.851562" xlink:href="#DejaVuSans-98"/>
     <use x="686.328125" xlink:href="#DejaVuSans-106"/>
     <use x="714.111328" xlink:href="#DejaVuSans-101"/>
     <use x="775.634766" xlink:href="#DejaVuSans-99"/>
     <use x="830.615234" xlink:href="#DejaVuSans-116"/>
     <use x="869.824219" xlink:href="#DejaVuSans-115"/>
     <use x="921.923828" xlink:href="#DejaVuSans-32"/>
     <use x="953.710938" xlink:href="#DejaVuSans-97"/>
     <use x="1014.990234" xlink:href="#DejaVuSans-110"/>
     <use x="1078.369141" xlink:href="#DejaVuSans-100"/>
     <use x="1141.845703" xlink:href="#DejaVuSans-32"/>
     <use x="1173.632812" xlink:href="#DejaVuSans-99"/>
     <use x="1228.613281" xlink:href="#DejaVuSans-97"/>
     <use x="1289.892578" xlink:href="#DejaVuSans-116"/>
     <use x="1329.101562" xlink:href="#DejaVuSans-101"/>
     <use x="1390.625" xlink:href="#DejaVuSans-103"/>
     <use x="1454.101562" xlink:href="#DejaVuSans-111"/>
     <use x="1515.283203" xlink:href="#DejaVuSans-114"/>
     <use x="1556.396484" xlink:href="#DejaVuSans-105"/>
     <use x="1584.179688" xlink:href="#DejaVuSans-101"/>
     <use x="1645.703125" xlink:href="#DejaVuSans-115"/>
     <use x="1697.802734" xlink:href="#DejaVuSans-32"/>
     <use x="1729.589844" xlink:href="#DejaVuSans-112"/>
     <use x="1793.066406" xlink:href="#DejaVuSans-101"/>
     <use x="1854.589844" xlink:href="#DejaVuSans-114"/>
     <use x="1895.703125" xlink:href="#DejaVuSans-32"/>
     <use x="1927.490234" xlink:href="#DejaVuSans-115"/>
     <use x="1979.589844" xlink:href="#DejaVuSans-117"/>
     <use x="2042.96875" xlink:href="#DejaVuSans-114"/>
     <use x="2084.082031" xlink:href="#DejaVuSans-118"/>
     <use x="2143.261719" xlink:href="#DejaVuSans-101"/>
     <use x="2204.785156" xlink:href="#DejaVuSans-121"/>
     <use x="2263.746094" xlink:href="#DejaVuSans-46"/>
    </g>
   </g>
   <g id="legend_1">
    <g id="patch_7">
     <path d="M 524.79475 287.278438 
L 761.736938 287.278438 
Q 763.736938 287.278438 763.736938 285.278438 
L 763.736938 64.437813 
Q 763.736938 62.437813 761.736938 62.437813 
L 524.79475 62.437813 
Q 522.79475 62.437813 522.79475 64.437813 
L 522.79475 285.278438 
Q 522.79475 287.278438 524.79475 287.278438 
z
" style="fill:#ffffff;opacity:0.8;stroke:#cccccc;stroke-linejoin:miter;"/>
    </g>
    <g id="text_19">
     <!-- Locations -->
     <defs>
      <path d="M 9.8125 72.90625 
L 19.671875 72.90625 
L 19.671875 8.296875 
L 55.171875 8.296875 
L 55.171875 0 
L 9.8125 0 
z
" id="DejaVuSans-76"/>
     </defs>
     <g transform="translate(619.426 74.03625)scale(0.1 -0.1)">
      <use xlink:href="#DejaVuSans-76"/>
      <use x="55.697266" xlink:href="#DejaVuSans-111"/>
      <use x="116.878906" xlink:href="#DejaVuSans-99"/>
      <use x="171.859375" xlink:href="#DejaVuSans-97"/>
      <use x="233.138672" xlink:href="#DejaVuSans-116"/>
      <use x="272.347656" xlink:href="#DejaVuSans-105"/>
      <use x="300.130859" xlink:href="#DejaVuSans-111"/>
      <use x="361.3125" xlink:href="#DejaVuSans-110"/>
      <use x="424.691406" xlink:href="#DejaVuSans-115"/>
     </g>
    </g>
    <g id="PathCollection_17">
     <defs>
      <path d="M 0 5 
C 1.326016 5 2.597899 4.473168 3.535534 3.535534 
C 4.473168 2.597899 5 1.326016 5 0 
C 5 -1.326016 4.473168 -2.597899 3.535534 -3.535534 
C 2.597899 -4.473168 1.326016 -5 0 -5 
C -1.326016 -5 -2.597899 -4.473168 -3.535534 -3.535534 
C -4.473168 -2.597899 -5 -1.326016 -5 0 
C -5 1.326016 -4.473168 2.597899 -3.535534 3.535534 
C -2.597899 4.473168 -1.326016 5 0 5 
z
" id="m05e52abbac" style="stroke:#ffffff;"/>
     </defs>
     <g>
      <use style="fill:#393b79;stroke:#ffffff;" x="536.79475" xlink:href="#m05e52abbac" y="86.089375"/>
     </g>
    </g>
    <g id="text_20">
     <!-- baby-plage-geneva -->
     <defs>
      <path d="M 4.890625 31.390625 
L 31.203125 31.390625 
L 31.203125 23.390625 
L 4.890625 23.390625 
z
" id="DejaVuSans-45"/>
      <path d="M 9.421875 75.984375 
L 18.40625 75.984375 
L 18.40625 0 
L 9.421875 0 
z
" id="DejaVuSans-108"/>
     </defs>
     <g transform="translate(554.79475 88.714375)scale(0.1 -0.1)">
      <use xlink:href="#DejaVuSans-98"/>
      <use x="63.476562" xlink:href="#DejaVuSans-97"/>
      <use x="124.755859" xlink:href="#DejaVuSans-98"/>
      <use x="188.232422" xlink:href="#DejaVuSans-121"/>
      <use x="247.396484" xlink:href="#DejaVuSans-45"/>
      <use x="283.480469" xlink:href="#DejaVuSans-112"/>
      <use x="346.957031" xlink:href="#DejaVuSans-108"/>
      <use x="374.740234" xlink:href="#DejaVuSans-97"/>
      <use x="436.019531" xlink:href="#DejaVuSans-103"/>
      <use x="499.496094" xlink:href="#DejaVuSans-101"/>
      <use x="561.019531" xlink:href="#DejaVuSans-45"/>
      <use x="597.103516" xlink:href="#DejaVuSans-103"/>
      <use x="660.580078" xlink:href="#DejaVuSans-101"/>
      <use x="722.103516" xlink:href="#DejaVuSans-110"/>
      <use x="785.482422" xlink:href="#DejaVuSans-101"/>
      <use x="847.005859" xlink:href="#DejaVuSans-118"/>
      <use x="906.185547" xlink:href="#DejaVuSans-97"/>
     </g>
    </g>
    <g id="PathCollection_18">
     <defs>
      <path d="M 0 5 
C 1.326016 5 2.597899 4.473168 3.535534 3.535534 
C 4.473168 2.597899 5 1.326016 5 0 
C 5 -1.326016 4.473168 -2.597899 3.535534 -3.535534 
C 2.597899 -4.473168 1.326016 -5 0 -5 
C -1.326016 -5 -2.597899 -4.473168 -3.535534 -3.535534 
C -4.473168 -2.597899 -5 -1.326016 -5 0 
C -5 1.326016 -4.473168 2.597899 -3.535534 3.535534 
C -2.597899 4.473168 -1.326016 5 0 5 
z
" id="m14fd78e4db" style="stroke:#ffffff;"/>
     </defs>
     <g>
      <use style="fill:#5254a3;stroke:#ffffff;" x="536.79475" xlink:href="#m14fd78e4db" y="100.7675"/>
     </g>
    </g>
    <g id="text_21">
     <!-- bielersee_vinelz_fankhausers -->
     <defs>
      <path d="M 50.984375 -16.609375 
L 50.984375 -23.578125 
L -0.984375 -23.578125 
L -0.984375 -16.609375 
z
" id="DejaVuSans-95"/>
      <path d="M 5.515625 54.6875 
L 48.1875 54.6875 
L 48.1875 46.484375 
L 14.40625 7.171875 
L 48.1875 7.171875 
L 48.1875 0 
L 4.296875 0 
L 4.296875 8.203125 
L 38.09375 47.515625 
L 5.515625 47.515625 
z
" id="DejaVuSans-122"/>
      <path d="M 9.078125 75.984375 
L 18.109375 75.984375 
L 18.109375 31.109375 
L 44.921875 54.6875 
L 56.390625 54.6875 
L 27.390625 29.109375 
L 57.625 0 
L 45.90625 0 
L 18.109375 26.703125 
L 18.109375 0 
L 9.078125 0 
z
" id="DejaVuSans-107"/>
      <path d="M 54.890625 33.015625 
L 54.890625 0 
L 45.90625 0 
L 45.90625 32.71875 
Q 45.90625 40.484375 42.875 44.328125 
Q 39.84375 48.1875 33.796875 48.1875 
Q 26.515625 48.1875 22.3125 43.546875 
Q 18.109375 38.921875 18.109375 30.90625 
L 18.109375 0 
L 9.078125 0 
L 9.078125 75.984375 
L 18.109375 75.984375 
L 18.109375 46.1875 
Q 21.34375 51.125 25.703125 53.5625 
Q 30.078125 56 35.796875 56 
Q 45.21875 56 50.046875 50.171875 
Q 54.890625 44.34375 54.890625 33.015625 
z
" id="DejaVuSans-104"/>
     </defs>
     <g transform="translate(554.79475 103.3925)scale(0.1 -0.1)">
      <use xlink:href="#DejaVuSans-98"/>
      <use x="63.476562" xlink:href="#DejaVuSans-105"/>
      <use x="91.259766" xlink:href="#DejaVuSans-101"/>
      <use x="152.783203" xlink:href="#DejaVuSans-108"/>
      <use x="180.566406" xlink:href="#DejaVuSans-101"/>
      <use x="242.089844" xlink:href="#DejaVuSans-114"/>
      <use x="283.203125" xlink:href="#DejaVuSans-115"/>
      <use x="335.302734" xlink:href="#DejaVuSans-101"/>
      <use x="396.826172" xlink:href="#DejaVuSans-101"/>
      <use x="458.349609" xlink:href="#DejaVuSans-95"/>
      <use x="508.349609" xlink:href="#DejaVuSans-118"/>
      <use x="567.529297" xlink:href="#DejaVuSans-105"/>
      <use x="595.3125" xlink:href="#DejaVuSans-110"/>
      <use x="658.691406" xlink:href="#DejaVuSans-101"/>
      <use x="720.214844" xlink:href="#DejaVuSans-108"/>
      <use x="747.998047" xlink:href="#DejaVuSans-122"/>
      <use x="800.488281" xlink:href="#DejaVuSans-95"/>
      <use x="850.488281" xlink:href="#DejaVuSans-102"/>
      <use x="885.693359" xlink:href="#DejaVuSans-97"/>
      <use x="946.972656" xlink:href="#DejaVuSans-110"/>
      <use x="1010.351562" xlink:href="#DejaVuSans-107"/>
      <use x="1068.261719" xlink:href="#DejaVuSans-104"/>
      <use x="1131.640625" xlink:href="#DejaVuSans-97"/>
      <use x="1192.919922" xlink:href="#DejaVuSans-117"/>
      <use x="1256.298828" xlink:href="#DejaVuSans-115"/>
      <use x="1308.398438" xlink:href="#DejaVuSans-101"/>
      <use x="1369.921875" xlink:href="#DejaVuSans-114"/>
      <use x="1411.035156" xlink:href="#DejaVuSans-115"/>
     </g>
    </g>
    <g id="PathCollection_19">
     <defs>
      <path d="M 0 5 
C 1.326016 5 2.597899 4.473168 3.535534 3.535534 
C 4.473168 2.597899 5 1.326016 5 0 
C 5 -1.326016 4.473168 -2.597899 3.535534 -3.535534 
C 2.597899 -4.473168 1.326016 -5 0 -5 
C -1.326016 -5 -2.597899 -4.473168 -3.535534 -3.535534 
C -4.473168 -2.597899 -5 -1.326016 -5 0 
C -5 1.326016 -4.473168 2.597899 -3.535534 3.535534 
C -2.597899 4.473168 -1.326016 5 0 5 
z
" id="me3b0ad8c51" style="stroke:#ffffff;"/>
     </defs>
     <g>
      <use style="fill:#6b6ecf;stroke:#ffffff;" x="536.79475" xlink:href="#me3b0ad8c51" y="115.72375"/>
     </g>
    </g>
    <g id="text_22">
     <!-- evole-plage -->
     <g transform="translate(554.79475 118.34875)scale(0.1 -0.1)">
      <use xlink:href="#DejaVuSans-101"/>
      <use x="61.523438" xlink:href="#DejaVuSans-118"/>
      <use x="120.703125" xlink:href="#DejaVuSans-111"/>
      <use x="181.884766" xlink:href="#DejaVuSans-108"/>
      <use x="209.667969" xlink:href="#DejaVuSans-101"/>
      <use x="271.191406" xlink:href="#DejaVuSans-45"/>
      <use x="307.275391" xlink:href="#DejaVuSans-112"/>
      <use x="370.751953" xlink:href="#DejaVuSans-108"/>
      <use x="398.535156" xlink:href="#DejaVuSans-97"/>
      <use x="459.814453" xlink:href="#DejaVuSans-103"/>
      <use x="523.291016" xlink:href="#DejaVuSans-101"/>
     </g>
    </g>
    <g id="PathCollection_20">
     <defs>
      <path d="M 0 5 
C 1.326016 5 2.597899 4.473168 3.535534 3.535534 
C 4.473168 2.597899 5 1.326016 5 0 
C 5 -1.326016 4.473168 -2.597899 3.535534 -3.535534 
C 2.597899 -4.473168 1.326016 -5 0 -5 
C -1.326016 -5 -2.597899 -4.473168 -3.535534 -3.535534 
C -4.473168 -2.597899 -5 -1.326016 -5 0 
C -5 1.326016 -4.473168 2.597899 -3.535534 3.535534 
C -2.597899 4.473168 -1.326016 5 0 5 
z
" id="meffb02349c" style="stroke:#ffffff;"/>
     </defs>
     <g>
      <use style="fill:#9c9ede;stroke:#ffffff;" x="536.79475" xlink:href="#meffb02349c" y="130.401875"/>
     </g>
    </g>
    <g id="text_23">
     <!-- gasi-strand -->
     <g transform="translate(554.79475 133.026875)scale(0.1 -0.1)">
      <use xlink:href="#DejaVuSans-103"/>
      <use x="63.476562" xlink:href="#DejaVuSans-97"/>
      <use x="124.755859" xlink:href="#DejaVuSans-115"/>
      <use x="176.855469" xlink:href="#DejaVuSans-105"/>
      <use x="204.638672" xlink:href="#DejaVuSans-45"/>
      <use x="240.722656" xlink:href="#DejaVuSans-115"/>
      <use x="292.822266" xlink:href="#DejaVuSans-116"/>
      <use x="332.03125" xlink:href="#DejaVuSans-114"/>
      <use x="373.144531" xlink:href="#DejaVuSans-97"/>
      <use x="434.423828" xlink:href="#DejaVuSans-110"/>
      <use x="497.802734" xlink:href="#DejaVuSans-100"/>
     </g>
    </g>
    <g id="PathCollection_21">
     <defs>
      <path d="M 0 5 
C 1.326016 5 2.597899 4.473168 3.535534 3.535534 
C 4.473168 2.597899 5 1.326016 5 0 
C 5 -1.326016 4.473168 -2.597899 3.535534 -3.535534 
C 2.597899 -4.473168 1.326016 -5 0 -5 
C -1.326016 -5 -2.597899 -4.473168 -3.535534 -3.535534 
C -4.473168 -2.597899 -5 -1.326016 -5 0 
C -5 1.326016 -4.473168 2.597899 -3.535534 3.535534 
C -2.597899 4.473168 -1.326016 5 0 5 
z
" id="mad56dd6ca1" style="stroke:#ffffff;"/>
     </defs>
     <g>
      <use style="fill:#637939;stroke:#ffffff;" x="536.79475" xlink:href="#mad56dd6ca1" y="145.08"/>
     </g>
    </g>
    <g id="text_24">
     <!-- mullermatte -->
     <g transform="translate(554.79475 147.705)scale(0.1 -0.1)">
      <use xlink:href="#DejaVuSans-109"/>
      <use x="97.412109" xlink:href="#DejaVuSans-117"/>
      <use x="160.791016" xlink:href="#DejaVuSans-108"/>
      <use x="188.574219" xlink:href="#DejaVuSans-108"/>
      <use x="216.357422" xlink:href="#DejaVuSans-101"/>
      <use x="277.880859" xlink:href="#DejaVuSans-114"/>
      <use x="318.978516" xlink:href="#DejaVuSans-109"/>
      <use x="416.390625" xlink:href="#DejaVuSans-97"/>
      <use x="477.669922" xlink:href="#DejaVuSans-116"/>
      <use x="516.878906" xlink:href="#DejaVuSans-116"/>
      <use x="556.087891" xlink:href="#DejaVuSans-101"/>
     </g>
    </g>
    <g id="PathCollection_22">
     <defs>
      <path d="M 0 5 
C 1.326016 5 2.597899 4.473168 3.535534 3.535534 
C 4.473168 2.597899 5 1.326016 5 0 
C 5 -1.326016 4.473168 -2.597899 3.535534 -3.535534 
C 2.597899 -4.473168 1.326016 -5 0 -5 
C -1.326016 -5 -2.597899 -4.473168 -3.535534 -3.535534 
C -4.473168 -2.597899 -5 -1.326016 -5 0 
C -5 1.326016 -4.473168 2.597899 -3.535534 3.535534 
C -2.597899 4.473168 -1.326016 5 0 5 
z
" id="m6f60b8c2db" style="stroke:#ffffff;"/>
     </defs>
     <g>
      <use style="fill:#8ca252;stroke:#ffffff;" x="536.79475" xlink:href="#m6f60b8c2db" y="159.758125"/>
     </g>
    </g>
    <g id="text_25">
     <!-- plage-de-cheyres -->
     <g transform="translate(554.79475 162.383125)scale(0.1 -0.1)">
      <use xlink:href="#DejaVuSans-112"/>
      <use x="63.476562" xlink:href="#DejaVuSans-108"/>
      <use x="91.259766" xlink:href="#DejaVuSans-97"/>
      <use x="152.539062" xlink:href="#DejaVuSans-103"/>
      <use x="216.015625" xlink:href="#DejaVuSans-101"/>
      <use x="277.539062" xlink:href="#DejaVuSans-45"/>
      <use x="313.623047" xlink:href="#DejaVuSans-100"/>
      <use x="377.099609" xlink:href="#DejaVuSans-101"/>
      <use x="438.623047" xlink:href="#DejaVuSans-45"/>
      <use x="474.707031" xlink:href="#DejaVuSans-99"/>
      <use x="529.6875" xlink:href="#DejaVuSans-104"/>
      <use x="593.066406" xlink:href="#DejaVuSans-101"/>
      <use x="654.589844" xlink:href="#DejaVuSans-121"/>
      <use x="713.769531" xlink:href="#DejaVuSans-114"/>
      <use x="754.851562" xlink:href="#DejaVuSans-101"/>
      <use x="816.375" xlink:href="#DejaVuSans-115"/>
     </g>
    </g>
    <g id="PathCollection_23">
     <defs>
      <path d="M 0 5 
C 1.326016 5 2.597899 4.473168 3.535534 3.535534 
C 4.473168 2.597899 5 1.326016 5 0 
C 5 -1.326016 4.473168 -2.597899 3.535534 -3.535534 
C 2.597899 -4.473168 1.326016 -5 0 -5 
C -1.326016 -5 -2.597899 -4.473168 -3.535534 -3.535534 
C -4.473168 -2.597899 -5 -1.326016 -5 0 
C -5 1.326016 -4.473168 2.597899 -3.535534 3.535534 
C -2.597899 4.473168 -1.326016 5 0 5 
z
" id="mff8d73bcbe" style="stroke:#ffffff;"/>
     </defs>
     <g>
      <use style="fill:#b5cf6b;stroke:#ffffff;" x="536.79475" xlink:href="#mff8d73bcbe" y="174.43625"/>
     </g>
    </g>
    <g id="text_26">
     <!-- quai-maria-belgia -->
     <defs>
      <path d="M 14.796875 27.296875 
Q 14.796875 17.390625 18.875 11.75 
Q 22.953125 6.109375 30.078125 6.109375 
Q 37.203125 6.109375 41.296875 11.75 
Q 45.40625 17.390625 45.40625 27.296875 
Q 45.40625 37.203125 41.296875 42.84375 
Q 37.203125 48.484375 30.078125 48.484375 
Q 22.953125 48.484375 18.875 42.84375 
Q 14.796875 37.203125 14.796875 27.296875 
z
M 45.40625 8.203125 
Q 42.578125 3.328125 38.25 0.953125 
Q 33.9375 -1.421875 27.875 -1.421875 
Q 17.96875 -1.421875 11.734375 6.484375 
Q 5.515625 14.40625 5.515625 27.296875 
Q 5.515625 40.1875 11.734375 48.09375 
Q 17.96875 56 27.875 56 
Q 33.9375 56 38.25 53.625 
Q 42.578125 51.265625 45.40625 46.390625 
L 45.40625 54.6875 
L 54.390625 54.6875 
L 54.390625 -20.796875 
L 45.40625 -20.796875 
z
" id="DejaVuSans-113"/>
     </defs>
     <g transform="translate(554.79475 177.06125)scale(0.1 -0.1)">
      <use xlink:href="#DejaVuSans-113"/>
      <use x="63.476562" xlink:href="#DejaVuSans-117"/>
      <use x="126.855469" xlink:href="#DejaVuSans-97"/>
      <use x="188.134766" xlink:href="#DejaVuSans-105"/>
      <use x="215.917969" xlink:href="#DejaVuSans-45"/>
      <use x="252.001953" xlink:href="#DejaVuSans-109"/>
      <use x="349.414062" xlink:href="#DejaVuSans-97"/>
      <use x="410.693359" xlink:href="#DejaVuSans-114"/>
      <use x="451.806641" xlink:href="#DejaVuSans-105"/>
      <use x="479.589844" xlink:href="#DejaVuSans-97"/>
      <use x="540.869141" xlink:href="#DejaVuSans-45"/>
      <use x="576.953125" xlink:href="#DejaVuSans-98"/>
      <use x="640.429688" xlink:href="#DejaVuSans-101"/>
      <use x="701.953125" xlink:href="#DejaVuSans-108"/>
      <use x="729.736328" xlink:href="#DejaVuSans-103"/>
      <use x="793.212891" xlink:href="#DejaVuSans-105"/>
      <use x="820.996094" xlink:href="#DejaVuSans-97"/>
     </g>
    </g>
    <g id="PathCollection_24">
     <defs>
      <path d="M 0 5 
C 1.326016 5 2.597899 4.473168 3.535534 3.535534 
C 4.473168 2.597899 5 1.326016 5 0 
C 5 -1.326016 4.473168 -2.597899 3.535534 -3.535534 
C 2.597899 -4.473168 1.326016 -5 0 -5 
C -1.326016 -5 -2.597899 -4.473168 -3.535534 -3.535534 
C -4.473168 -2.597899 -5 -1.326016 -5 0 
C -5 1.326016 -4.473168 2.597899 -3.535534 3.535534 
C -2.597899 4.473168 -1.326016 5 0 5 
z
" id="m97543587a7" style="stroke:#ffffff;"/>
     </defs>
     <g>
      <use style="fill:#cedb9c;stroke:#ffffff;" x="536.79475" xlink:href="#m97543587a7" y="189.114375"/>
     </g>
    </g>
    <g id="text_27">
     <!-- rastplatz-stampf -->
     <g transform="translate(554.79475 191.739375)scale(0.1 -0.1)">
      <use xlink:href="#DejaVuSans-114"/>
      <use x="41.113281" xlink:href="#DejaVuSans-97"/>
      <use x="102.392578" xlink:href="#DejaVuSans-115"/>
      <use x="154.492188" xlink:href="#DejaVuSans-116"/>
      <use x="193.701172" xlink:href="#DejaVuSans-112"/>
      <use x="257.177734" xlink:href="#DejaVuSans-108"/>
      <use x="284.960938" xlink:href="#DejaVuSans-97"/>
      <use x="346.240234" xlink:href="#DejaVuSans-116"/>
      <use x="385.449219" xlink:href="#DejaVuSans-122"/>
      <use x="437.939453" xlink:href="#DejaVuSans-45"/>
      <use x="474.023438" xlink:href="#DejaVuSans-115"/>
      <use x="526.123047" xlink:href="#DejaVuSans-116"/>
      <use x="565.332031" xlink:href="#DejaVuSans-97"/>
      <use x="626.611328" xlink:href="#DejaVuSans-109"/>
      <use x="724.023438" xlink:href="#DejaVuSans-112"/>
      <use x="787.5" xlink:href="#DejaVuSans-102"/>
     </g>
    </g>
    <g id="PathCollection_25">
     <defs>
      <path d="M 0 5 
C 1.326016 5 2.597899 4.473168 3.535534 3.535534 
C 4.473168 2.597899 5 1.326016 5 0 
C 5 -1.326016 4.473168 -2.597899 3.535534 -3.535534 
C 2.597899 -4.473168 1.326016 -5 0 -5 
C -1.326016 -5 -2.597899 -4.473168 -3.535534 -3.535534 
C -4.473168 -2.597899 -5 -1.326016 -5 0 
C -5 1.326016 -4.473168 2.597899 -3.535534 3.535534 
C -2.597899 4.473168 -1.326016 5 0 5 
z
" id="me960898b3f" style="stroke:#ffffff;"/>
     </defs>
     <g>
      <use style="fill:#8c6d31;stroke:#ffffff;" x="536.79475" xlink:href="#me960898b3f" y="203.7925"/>
     </g>
    </g>
    <g id="text_28">
     <!-- strandbeiz -->
     <g transform="translate(554.79475 206.4175)scale(0.1 -0.1)">
      <use xlink:href="#DejaVuSans-115"/>
      <use x="52.099609" xlink:href="#DejaVuSans-116"/>
      <use x="91.308594" xlink:href="#DejaVuSans-114"/>
      <use x="132.421875" xlink:href="#DejaVuSans-97"/>
      <use x="193.701172" xlink:href="#DejaVuSans-110"/>
      <use x="257.080078" xlink:href="#DejaVuSans-100"/>
      <use x="320.556641" xlink:href="#DejaVuSans-98"/>
      <use x="384.033203" xlink:href="#DejaVuSans-101"/>
      <use x="445.556641" xlink:href="#DejaVuSans-105"/>
      <use x="473.339844" xlink:href="#DejaVuSans-122"/>
     </g>
    </g>
    <g id="PathCollection_26">
     <defs>
      <path d="M 0 5 
C 1.326016 5 2.597899 4.473168 3.535534 3.535534 
C 4.473168 2.597899 5 1.326016 5 0 
C 5 -1.326016 4.473168 -2.597899 3.535534 -3.535534 
C 2.597899 -4.473168 1.326016 -5 0 -5 
C -1.326016 -5 -2.597899 -4.473168 -3.535534 -3.535534 
C -4.473168 -2.597899 -5 -1.326016 -5 0 
C -5 1.326016 -4.473168 2.597899 -3.535534 3.535534 
C -2.597899 4.473168 -1.326016 5 0 5 
z
" id="m7c79d790e0" style="stroke:#ffffff;"/>
     </defs>
     <g>
      <use style="fill:#bd9e39;stroke:#ffffff;" x="536.79475" xlink:href="#m7c79d790e0" y="218.470625"/>
     </g>
    </g>
    <g id="text_29">
     <!-- thunersee_spiez_meierd_1 -->
     <g transform="translate(554.79475 221.095625)scale(0.1 -0.1)">
      <use xlink:href="#DejaVuSans-116"/>
      <use x="39.208984" xlink:href="#DejaVuSans-104"/>
      <use x="102.587891" xlink:href="#DejaVuSans-117"/>
      <use x="165.966797" xlink:href="#DejaVuSans-110"/>
      <use x="229.345703" xlink:href="#DejaVuSans-101"/>
      <use x="290.869141" xlink:href="#DejaVuSans-114"/>
      <use x="331.982422" xlink:href="#DejaVuSans-115"/>
      <use x="384.082031" xlink:href="#DejaVuSans-101"/>
      <use x="445.605469" xlink:href="#DejaVuSans-101"/>
      <use x="507.128906" xlink:href="#DejaVuSans-95"/>
      <use x="557.128906" xlink:href="#DejaVuSans-115"/>
      <use x="609.228516" xlink:href="#DejaVuSans-112"/>
      <use x="672.705078" xlink:href="#DejaVuSans-105"/>
      <use x="700.488281" xlink:href="#DejaVuSans-101"/>
      <use x="762.011719" xlink:href="#DejaVuSans-122"/>
      <use x="814.501953" xlink:href="#DejaVuSans-95"/>
      <use x="864.501953" xlink:href="#DejaVuSans-109"/>
      <use x="961.914062" xlink:href="#DejaVuSans-101"/>
      <use x="1023.4375" xlink:href="#DejaVuSans-105"/>
      <use x="1051.220703" xlink:href="#DejaVuSans-101"/>
      <use x="1112.744141" xlink:href="#DejaVuSans-114"/>
      <use x="1153.841797" xlink:href="#DejaVuSans-100"/>
      <use x="1217.318359" xlink:href="#DejaVuSans-95"/>
      <use x="1267.318359" xlink:href="#DejaVuSans-49"/>
     </g>
    </g>
    <g id="PathCollection_27">
     <defs>
      <path d="M 0 5 
C 1.326016 5 2.597899 4.473168 3.535534 3.535534 
C 4.473168 2.597899 5 1.326016 5 0 
C 5 -1.326016 4.473168 -2.597899 3.535534 -3.535534 
C 2.597899 -4.473168 1.326016 -5 0 -5 
C -1.326016 -5 -2.597899 -4.473168 -3.535534 -3.535534 
C -4.473168 -2.597899 -5 -1.326016 -5 0 
C -5 1.326016 -4.473168 2.597899 -3.535534 3.535534 
C -2.597899 4.473168 -1.326016 5 0 5 
z
" id="ma001b94c22" style="stroke:#ffffff;"/>
     </defs>
     <g>
      <use style="fill:#e7ba52;stroke:#ffffff;" x="536.79475" xlink:href="#ma001b94c22" y="233.426875"/>
     </g>
    </g>
    <g id="text_30">
     <!-- walensee_walenstadt_wysse -->
     <defs>
      <path d="M 4.203125 54.6875 
L 13.1875 54.6875 
L 24.421875 12.015625 
L 35.59375 54.6875 
L 46.1875 54.6875 
L 57.421875 12.015625 
L 68.609375 54.6875 
L 77.59375 54.6875 
L 63.28125 0 
L 52.6875 0 
L 40.921875 44.828125 
L 29.109375 0 
L 18.5 0 
z
" id="DejaVuSans-119"/>
     </defs>
     <g transform="translate(554.79475 236.051875)scale(0.1 -0.1)">
      <use xlink:href="#DejaVuSans-119"/>
      <use x="81.787109" xlink:href="#DejaVuSans-97"/>
      <use x="143.066406" xlink:href="#DejaVuSans-108"/>
      <use x="170.849609" xlink:href="#DejaVuSans-101"/>
      <use x="232.373047" xlink:href="#DejaVuSans-110"/>
      <use x="295.751953" xlink:href="#DejaVuSans-115"/>
      <use x="347.851562" xlink:href="#DejaVuSans-101"/>
      <use x="409.375" xlink:href="#DejaVuSans-101"/>
      <use x="470.898438" xlink:href="#DejaVuSans-95"/>
      <use x="520.898438" xlink:href="#DejaVuSans-119"/>
      <use x="602.685547" xlink:href="#DejaVuSans-97"/>
      <use x="663.964844" xlink:href="#DejaVuSans-108"/>
      <use x="691.748047" xlink:href="#DejaVuSans-101"/>
      <use x="753.271484" xlink:href="#DejaVuSans-110"/>
      <use x="816.650391" xlink:href="#DejaVuSans-115"/>
      <use x="868.75" xlink:href="#DejaVuSans-116"/>
      <use x="907.958984" xlink:href="#DejaVuSans-97"/>
      <use x="969.238281" xlink:href="#DejaVuSans-100"/>
      <use x="1032.714844" xlink:href="#DejaVuSans-116"/>
      <use x="1071.923828" xlink:href="#DejaVuSans-95"/>
      <use x="1121.923828" xlink:href="#DejaVuSans-119"/>
      <use x="1203.710938" xlink:href="#DejaVuSans-121"/>
      <use x="1262.890625" xlink:href="#DejaVuSans-115"/>
      <use x="1314.990234" xlink:href="#DejaVuSans-115"/>
      <use x="1367.089844" xlink:href="#DejaVuSans-101"/>
     </g>
    </g>
    <g id="PathCollection_28">
     <defs>
      <path d="M 0 5 
C 1.326016 5 2.597899 4.473168 3.535534 3.535534 
C 4.473168 2.597899 5 1.326016 5 0 
C 5 -1.326016 4.473168 -2.597899 3.535534 -3.535534 
C 2.597899 -4.473168 1.326016 -5 0 -5 
C -1.326016 -5 -2.597899 -4.473168 -3.535534 -3.535534 
C -4.473168 -2.597899 -5 -1.326016 -5 0 
C -5 1.326016 -4.473168 2.597899 -3.535534 3.535534 
C -2.597899 4.473168 -1.326016 5 0 5 
z
" id="m318dcb1b44" style="stroke:#ffffff;"/>
     </defs>
     <g>
      <use style="fill:#e7cb94;stroke:#ffffff;" x="536.79475" xlink:href="#m318dcb1b44" y="248.383125"/>
     </g>
    </g>
    <g id="text_31">
     <!-- zuerichsee_richterswil_benkoem_2 -->
     <g transform="translate(554.79475 251.008125)scale(0.1 -0.1)">
      <use xlink:href="#DejaVuSans-122"/>
      <use x="52.490234" xlink:href="#DejaVuSans-117"/>
      <use x="115.869141" xlink:href="#DejaVuSans-101"/>
      <use x="177.392578" xlink:href="#DejaVuSans-114"/>
      <use x="218.505859" xlink:href="#DejaVuSans-105"/>
      <use x="246.289062" xlink:href="#DejaVuSans-99"/>
      <use x="301.269531" xlink:href="#DejaVuSans-104"/>
      <use x="364.648438" xlink:href="#DejaVuSans-115"/>
      <use x="416.748047" xlink:href="#DejaVuSans-101"/>
      <use x="478.271484" xlink:href="#DejaVuSans-101"/>
      <use x="539.794922" xlink:href="#DejaVuSans-95"/>
      <use x="589.794922" xlink:href="#DejaVuSans-114"/>
      <use x="630.908203" xlink:href="#DejaVuSans-105"/>
      <use x="658.691406" xlink:href="#DejaVuSans-99"/>
      <use x="713.671875" xlink:href="#DejaVuSans-104"/>
      <use x="777.050781" xlink:href="#DejaVuSans-116"/>
      <use x="816.259766" xlink:href="#DejaVuSans-101"/>
      <use x="877.783203" xlink:href="#DejaVuSans-114"/>
      <use x="918.896484" xlink:href="#DejaVuSans-115"/>
      <use x="970.996094" xlink:href="#DejaVuSans-119"/>
      <use x="1052.783203" xlink:href="#DejaVuSans-105"/>
      <use x="1080.566406" xlink:href="#DejaVuSans-108"/>
      <use x="1108.349609" xlink:href="#DejaVuSans-95"/>
      <use x="1158.349609" xlink:href="#DejaVuSans-98"/>
      <use x="1221.826172" xlink:href="#DejaVuSans-101"/>
      <use x="1283.349609" xlink:href="#DejaVuSans-110"/>
      <use x="1346.728516" xlink:href="#DejaVuSans-107"/>
      <use x="1404.591797" xlink:href="#DejaVuSans-111"/>
      <use x="1465.773438" xlink:href="#DejaVuSans-101"/>
      <use x="1527.296875" xlink:href="#DejaVuSans-109"/>
      <use x="1624.708984" xlink:href="#DejaVuSans-95"/>
      <use x="1674.708984" xlink:href="#DejaVuSans-50"/>
     </g>
    </g>
    <g id="PathCollection_29">
     <defs>
      <path d="M 0 5 
C 1.326016 5 2.597899 4.473168 3.535534 3.535534 
C 4.473168 2.597899 5 1.326016 5 0 
C 5 -1.326016 4.473168 -2.597899 3.535534 -3.535534 
C 2.597899 -4.473168 1.326016 -5 0 -5 
C -1.326016 -5 -2.597899 -4.473168 -3.535534 -3.535534 
C -4.473168 -2.597899 -5 -1.326016 -5 0 
C -5 1.326016 -4.473168 2.597899 -3.535534 3.535534 
C -2.597899 4.473168 -1.326016 5 0 5 
z
" id="m5394792c7c" style="stroke:#ffffff;"/>
     </defs>
     <g>
      <use style="fill:#843c39;stroke:#ffffff;" x="536.79475" xlink:href="#m5394792c7c" y="263.339375"/>
     </g>
    </g>
    <g id="text_32">
     <!-- zurichsee_kusnachterhorn_thirkell-whitej -->
     <g transform="translate(554.79475 265.964375)scale(0.1 -0.1)">
      <use xlink:href="#DejaVuSans-122"/>
      <use x="52.490234" xlink:href="#DejaVuSans-117"/>
      <use x="115.869141" xlink:href="#DejaVuSans-114"/>
      <use x="156.982422" xlink:href="#DejaVuSans-105"/>
      <use x="184.765625" xlink:href="#DejaVuSans-99"/>
      <use x="239.746094" xlink:href="#DejaVuSans-104"/>
      <use x="303.125" xlink:href="#DejaVuSans-115"/>
      <use x="355.224609" xlink:href="#DejaVuSans-101"/>
      <use x="416.748047" xlink:href="#DejaVuSans-101"/>
      <use x="478.271484" xlink:href="#DejaVuSans-95"/>
      <use x="528.271484" xlink:href="#DejaVuSans-107"/>
      <use x="586.134766" xlink:href="#DejaVuSans-117"/>
      <use x="649.513672" xlink:href="#DejaVuSans-115"/>
      <use x="701.613281" xlink:href="#DejaVuSans-110"/>
      <use x="764.992188" xlink:href="#DejaVuSans-97"/>
      <use x="826.271484" xlink:href="#DejaVuSans-99"/>
      <use x="881.251953" xlink:href="#DejaVuSans-104"/>
      <use x="944.630859" xlink:href="#DejaVuSans-116"/>
      <use x="983.839844" xlink:href="#DejaVuSans-101"/>
      <use x="1045.363281" xlink:href="#DejaVuSans-114"/>
      <use x="1086.460938" xlink:href="#DejaVuSans-104"/>
      <use x="1149.839844" xlink:href="#DejaVuSans-111"/>
      <use x="1211.021484" xlink:href="#DejaVuSans-114"/>
      <use x="1252.119141" xlink:href="#DejaVuSans-110"/>
      <use x="1315.498047" xlink:href="#DejaVuSans-95"/>
      <use x="1365.498047" xlink:href="#DejaVuSans-116"/>
      <use x="1404.707031" xlink:href="#DejaVuSans-104"/>
      <use x="1468.085938" xlink:href="#DejaVuSans-105"/>
      <use x="1495.869141" xlink:href="#DejaVuSans-114"/>
      <use x="1536.982422" xlink:href="#DejaVuSans-107"/>
      <use x="1594.845703" xlink:href="#DejaVuSans-101"/>
      <use x="1656.369141" xlink:href="#DejaVuSans-108"/>
      <use x="1684.152344" xlink:href="#DejaVuSans-108"/>
      <use x="1711.935547" xlink:href="#DejaVuSans-45"/>
      <use x="1748.019531" xlink:href="#DejaVuSans-119"/>
      <use x="1829.806641" xlink:href="#DejaVuSans-104"/>
      <use x="1893.185547" xlink:href="#DejaVuSans-105"/>
      <use x="1920.96875" xlink:href="#DejaVuSans-116"/>
      <use x="1960.177734" xlink:href="#DejaVuSans-101"/>
      <use x="2021.701172" xlink:href="#DejaVuSans-106"/>
     </g>
    </g>
    <g id="PathCollection_30">
     <defs>
      <path d="M 0 5 
C 1.326016 5 2.597899 4.473168 3.535534 3.535534 
C 4.473168 2.597899 5 1.326016 5 0 
C 5 -1.326016 4.473168 -2.597899 3.535534 -3.535534 
C 2.597899 -4.473168 1.326016 -5 0 -5 
C -1.326016 -5 -2.597899 -4.473168 -3.535534 -3.535534 
C -4.473168 -2.597899 -5 -1.326016 -5 0 
C -5 1.326016 -4.473168 2.597899 -3.535534 3.535534 
C -2.597899 4.473168 -1.326016 5 0 5 
z
" id="mcc5def358e" style="stroke:#ffffff;"/>
     </defs>
     <g>
      <use style="fill:#ad494a;stroke:#ffffff;" x="536.79475" xlink:href="#mcc5def358e" y="278.295625"/>
     </g>
    </g>
    <g id="text_33">
     <!-- zurichsee_wollishofen_langendorfm -->
     <g transform="translate(554.79475 280.920625)scale(0.1 -0.1)">
      <use xlink:href="#DejaVuSans-122"/>
      <use x="52.490234" xlink:href="#DejaVuSans-117"/>
      <use x="115.869141" xlink:href="#DejaVuSans-114"/>
      <use x="156.982422" xlink:href="#DejaVuSans-105"/>
      <use x="184.765625" xlink:href="#DejaVuSans-99"/>
      <use x="239.746094" xlink:href="#DejaVuSans-104"/>
      <use x="303.125" xlink:href="#DejaVuSans-115"/>
      <use x="355.224609" xlink:href="#DejaVuSans-101"/>
      <use x="416.748047" xlink:href="#DejaVuSans-101"/>
      <use x="478.271484" xlink:href="#DejaVuSans-95"/>
      <use x="528.271484" xlink:href="#DejaVuSans-119"/>
      <use x="610.058594" xlink:href="#DejaVuSans-111"/>
      <use x="671.240234" xlink:href="#DejaVuSans-108"/>
      <use x="699.023438" xlink:href="#DejaVuSans-108"/>
      <use x="726.806641" xlink:href="#DejaVuSans-105"/>
      <use x="754.589844" xlink:href="#DejaVuSans-115"/>
      <use x="806.689453" xlink:href="#DejaVuSans-104"/>
      <use x="870.068359" xlink:href="#DejaVuSans-111"/>
      <use x="931.25" xlink:href="#DejaVuSans-102"/>
      <use x="966.455078" xlink:href="#DejaVuSans-101"/>
      <use x="1027.978516" xlink:href="#DejaVuSans-110"/>
      <use x="1091.357422" xlink:href="#DejaVuSans-95"/>
      <use x="1141.357422" xlink:href="#DejaVuSans-108"/>
      <use x="1169.140625" xlink:href="#DejaVuSans-97"/>
      <use x="1230.419922" xlink:href="#DejaVuSans-110"/>
      <use x="1293.798828" xlink:href="#DejaVuSans-103"/>
      <use x="1357.275391" xlink:href="#DejaVuSans-101"/>
      <use x="1418.798828" xlink:href="#DejaVuSans-110"/>
      <use x="1482.177734" xlink:href="#DejaVuSans-100"/>
      <use x="1545.654297" xlink:href="#DejaVuSans-111"/>
      <use x="1606.835938" xlink:href="#DejaVuSans-114"/>
      <use x="1647.949219" xlink:href="#DejaVuSans-102"/>
      <use x="1683.154297" xlink:href="#DejaVuSans-109"/>
     </g>
    </g>
   </g>
   <g id="legend_2">
    <g id="patch_8">
     <path d="M 366.966875 329.637812 
L 492.93875 329.637812 
Q 494.93875 329.637812 494.93875 327.637812 
L 494.93875 212.603437 
Q 494.93875 210.603437 492.93875 210.603437 
L 366.966875 210.603437 
Q 364.966875 210.603437 364.966875 212.603437 
L 364.966875 327.637812 
Q 364.966875 329.637812 366.966875 329.637812 
z
" style="fill:#ffffff;opacity:0.8;stroke:#cccccc;stroke-linejoin:miter;"/>
    </g>
    <g id="text_34">
     <!-- Pieces per meter -->
     <defs>
      <path d="M 19.671875 64.796875 
L 19.671875 37.40625 
L 32.078125 37.40625 
Q 38.96875 37.40625 42.71875 40.96875 
Q 46.484375 44.53125 46.484375 51.125 
Q 46.484375 57.671875 42.71875 61.234375 
Q 38.96875 64.796875 32.078125 64.796875 
z
M 9.8125 72.90625 
L 32.078125 72.90625 
Q 44.34375 72.90625 50.609375 67.359375 
Q 56.890625 61.8125 56.890625 51.125 
Q 56.890625 40.328125 50.609375 34.8125 
Q 44.34375 29.296875 32.078125 29.296875 
L 19.671875 29.296875 
L 19.671875 0 
L 9.8125 0 
z
" id="DejaVuSans-80"/>
     </defs>
     <g transform="translate(387.52 238.201875)scale(0.1 -0.1)">
      <use xlink:href="#DejaVuSans-80"/>
      <use x="60.271484" xlink:href="#DejaVuSans-105"/>
      <use x="88.054688" xlink:href="#DejaVuSans-101"/>
      <use x="149.578125" xlink:href="#DejaVuSans-99"/>
      <use x="204.558594" xlink:href="#DejaVuSans-101"/>
      <use x="266.082031" xlink:href="#DejaVuSans-115"/>
      <use x="318.181641" xlink:href="#DejaVuSans-32"/>
      <use x="349.96875" xlink:href="#DejaVuSans-112"/>
      <use x="413.445312" xlink:href="#DejaVuSans-101"/>
      <use x="474.96875" xlink:href="#DejaVuSans-114"/>
      <use x="516.082031" xlink:href="#DejaVuSans-32"/>
      <use x="547.869141" xlink:href="#DejaVuSans-109"/>
      <use x="645.28125" xlink:href="#DejaVuSans-101"/>
      <use x="706.804688" xlink:href="#DejaVuSans-116"/>
      <use x="746.013672" xlink:href="#DejaVuSans-101"/>
      <use x="807.537109" xlink:href="#DejaVuSans-114"/>
     </g>
    </g>
    <g id="PathCollection_31">
     <defs>
      <path d="M 0 4.242641 
C 1.125161 4.242641 2.204391 3.795609 3 3 
C 3.795609 2.204391 4.242641 1.125161 4.242641 0 
C 4.242641 -1.125161 3.795609 -2.204391 3 -3 
C 2.204391 -3.795609 1.125161 -4.242641 0 -4.242641 
C -1.125161 -4.242641 -2.204391 -3.795609 -3 -3 
C -3.795609 -2.204391 -4.242641 -1.125161 -4.242641 0 
C -4.242641 1.125161 -3.795609 2.204391 -3 3 
C -2.204391 3.795609 -1.125161 4.242641 0 4.242641 
z
" id="m19aa9db3c7" style="stroke:#0000ff;stroke-opacity:0.6;"/>
     </defs>
     <g>
      <use style="fill:#0000ff;fill-opacity:0.6;stroke:#0000ff;stroke-opacity:0.6;" x="394.966875" xlink:href="#m19aa9db3c7" y="270.255"/>
     </g>
    </g>
    <g id="text_35">
     <!--  0.6pcs/m -->
     <defs>
      <path d="M 33.015625 40.375 
Q 26.375 40.375 22.484375 35.828125 
Q 18.609375 31.296875 18.609375 23.390625 
Q 18.609375 15.53125 22.484375 10.953125 
Q 26.375 6.390625 33.015625 6.390625 
Q 39.65625 6.390625 43.53125 10.953125 
Q 47.40625 15.53125 47.40625 23.390625 
Q 47.40625 31.296875 43.53125 35.828125 
Q 39.65625 40.375 33.015625 40.375 
z
M 52.59375 71.296875 
L 52.59375 62.3125 
Q 48.875 64.0625 45.09375 64.984375 
Q 41.3125 65.921875 37.59375 65.921875 
Q 27.828125 65.921875 22.671875 59.328125 
Q 17.53125 52.734375 16.796875 39.40625 
Q 19.671875 43.65625 24.015625 45.921875 
Q 28.375 48.1875 33.59375 48.1875 
Q 44.578125 48.1875 50.953125 41.515625 
Q 57.328125 34.859375 57.328125 23.390625 
Q 57.328125 12.15625 50.6875 5.359375 
Q 44.046875 -1.421875 33.015625 -1.421875 
Q 20.359375 -1.421875 13.671875 8.265625 
Q 6.984375 17.96875 6.984375 36.375 
Q 6.984375 53.65625 15.1875 63.9375 
Q 23.390625 74.21875 37.203125 74.21875 
Q 40.921875 74.21875 44.703125 73.484375 
Q 48.484375 72.75 52.59375 71.296875 
z
" id="DejaVuSans-54"/>
      <path d="M 25.390625 72.90625 
L 33.6875 72.90625 
L 8.296875 -9.28125 
L 0 -9.28125 
z
" id="DejaVuSans-47"/>
     </defs>
     <g transform="translate(412.966875 272.88)scale(0.1 -0.1)">
      <use xlink:href="#DejaVuSans-32"/>
      <use x="31.787109" xlink:href="#DejaVuSans-48"/>
      <use x="95.410156" xlink:href="#DejaVuSans-46"/>
      <use x="127.197266" xlink:href="#DejaVuSans-54"/>
      <use x="190.820312" xlink:href="#DejaVuSans-112"/>
      <use x="254.296875" xlink:href="#DejaVuSans-99"/>
      <use x="309.277344" xlink:href="#DejaVuSans-115"/>
      <use x="361.376953" xlink:href="#DejaVuSans-47"/>
      <use x="395.068359" xlink:href="#DejaVuSans-109"/>
     </g>
    </g>
    <g id="PathCollection_32">
     <defs>
      <path d="M 0 17.722867 
C 4.700159 17.722867 9.208445 15.855474 12.531959 12.531959 
C 15.855474 9.208445 17.722867 4.700159 17.722867 0 
C 17.722867 -4.700159 15.855474 -9.208445 12.531959 -12.531959 
C 9.208445 -15.855474 4.700159 -17.722867 0 -17.722867 
C -4.700159 -17.722867 -9.208445 -15.855474 -12.531959 -12.531959 
C -15.855474 -9.208445 -17.722867 -4.700159 -17.722867 0 
C -17.722867 4.700159 -15.855474 9.208445 -12.531959 12.531959 
C -9.208445 15.855474 -4.700159 17.722867 0 17.722867 
z
" id="mae91e55ffd" style="stroke:#0000ff;stroke-opacity:0.6;"/>
     </defs>
     <g>
      <use style="fill:#0000ff;fill-opacity:0.6;stroke:#0000ff;stroke-opacity:0.6;" x="394.966875" xlink:href="#mae91e55ffd" y="304.933125"/>
     </g>
    </g>
    <g id="text_36">
     <!--  10.47pcs/m -->
     <defs>
      <path d="M 8.203125 72.90625 
L 55.078125 72.90625 
L 55.078125 68.703125 
L 28.609375 0 
L 18.3125 0 
L 43.21875 64.59375 
L 8.203125 64.59375 
z
" id="DejaVuSans-55"/>
     </defs>
     <g transform="translate(412.966875 307.558125)scale(0.1 -0.1)">
      <use xlink:href="#DejaVuSans-32"/>
      <use x="31.787109" xlink:href="#DejaVuSans-49"/>
      <use x="95.410156" xlink:href="#DejaVuSans-48"/>
      <use x="159.033203" xlink:href="#DejaVuSans-46"/>
      <use x="190.820312" xlink:href="#DejaVuSans-52"/>
      <use x="254.443359" xlink:href="#DejaVuSans-55"/>
      <use x="318.066406" xlink:href="#DejaVuSans-112"/>
      <use x="381.542969" xlink:href="#DejaVuSans-99"/>
      <use x="436.523438" xlink:href="#DejaVuSans-115"/>
      <use x="488.623047" xlink:href="#DejaVuSans-47"/>
      <use x="522.314453" xlink:href="#DejaVuSans-109"/>
     </g>
    </g>
   </g>
  </g>
  <g id="text_37">
   <!-- All locations and all surveys Jan-2020 to May-2020 -->
   <defs>
    <path d="M 34.1875 63.1875 
L 20.796875 26.90625 
L 47.609375 26.90625 
z
M 28.609375 72.90625 
L 39.796875 72.90625 
L 67.578125 0 
L 57.328125 0 
L 50.6875 18.703125 
L 17.828125 18.703125 
L 11.1875 0 
L 0.78125 0 
z
" id="DejaVuSans-65"/>
    <path d="M 9.8125 72.90625 
L 19.671875 72.90625 
L 19.671875 5.078125 
Q 19.671875 -8.109375 14.671875 -14.0625 
Q 9.671875 -20.015625 -1.421875 -20.015625 
L -5.171875 -20.015625 
L -5.171875 -11.71875 
L -2.09375 -11.71875 
Q 4.4375 -11.71875 7.125 -8.046875 
Q 9.8125 -4.390625 9.8125 5.078125 
z
" id="DejaVuSans-74"/>
    <path d="M 9.8125 72.90625 
L 24.515625 72.90625 
L 43.109375 23.296875 
L 61.8125 72.90625 
L 76.515625 72.90625 
L 76.515625 0 
L 66.890625 0 
L 66.890625 64.015625 
L 48.09375 14.015625 
L 38.1875 14.015625 
L 19.390625 64.015625 
L 19.390625 0 
L 9.8125 0 
z
" id="DejaVuSans-77"/>
   </defs>
   <g transform="translate(56.41875 17.837812)scale(0.14 -0.14)">
    <use xlink:href="#DejaVuSans-65"/>
    <use x="68.408203" xlink:href="#DejaVuSans-108"/>
    <use x="96.191406" xlink:href="#DejaVuSans-108"/>
    <use x="123.974609" xlink:href="#DejaVuSans-32"/>
    <use x="155.761719" xlink:href="#DejaVuSans-108"/>
    <use x="183.544922" xlink:href="#DejaVuSans-111"/>
    <use x="244.726562" xlink:href="#DejaVuSans-99"/>
    <use x="299.707031" xlink:href="#DejaVuSans-97"/>
    <use x="360.986328" xlink:href="#DejaVuSans-116"/>
    <use x="400.195312" xlink:href="#DejaVuSans-105"/>
    <use x="427.978516" xlink:href="#DejaVuSans-111"/>
    <use x="489.160156" xlink:href="#DejaVuSans-110"/>
    <use x="552.539062" xlink:href="#DejaVuSans-115"/>
    <use x="604.638672" xlink:href="#DejaVuSans-32"/>
    <use x="636.425781" xlink:href="#DejaVuSans-97"/>
    <use x="697.705078" xlink:href="#DejaVuSans-110"/>
    <use x="761.083984" xlink:href="#DejaVuSans-100"/>
    <use x="824.560547" xlink:href="#DejaVuSans-32"/>
    <use x="856.347656" xlink:href="#DejaVuSans-97"/>
    <use x="917.626953" xlink:href="#DejaVuSans-108"/>
    <use x="945.410156" xlink:href="#DejaVuSans-108"/>
    <use x="973.193359" xlink:href="#DejaVuSans-32"/>
    <use x="1004.980469" xlink:href="#DejaVuSans-115"/>
    <use x="1057.080078" xlink:href="#DejaVuSans-117"/>
    <use x="1120.458984" xlink:href="#DejaVuSans-114"/>
    <use x="1161.572266" xlink:href="#DejaVuSans-118"/>
    <use x="1220.751953" xlink:href="#DejaVuSans-101"/>
    <use x="1282.275391" xlink:href="#DejaVuSans-121"/>
    <use x="1341.455078" xlink:href="#DejaVuSans-115"/>
    <use x="1393.554688" xlink:href="#DejaVuSans-32"/>
    <use x="1425.341797" xlink:href="#DejaVuSans-74"/>
    <use x="1454.833984" xlink:href="#DejaVuSans-97"/>
    <use x="1516.113281" xlink:href="#DejaVuSans-110"/>
    <use x="1579.492188" xlink:href="#DejaVuSans-45"/>
    <use x="1615.576172" xlink:href="#DejaVuSans-50"/>
    <use x="1679.199219" xlink:href="#DejaVuSans-48"/>
    <use x="1742.822266" xlink:href="#DejaVuSans-50"/>
    <use x="1806.445312" xlink:href="#DejaVuSans-48"/>
    <use x="1870.068359" xlink:href="#DejaVuSans-32"/>
    <use x="1901.855469" xlink:href="#DejaVuSans-116"/>
    <use x="1941.064453" xlink:href="#DejaVuSans-111"/>
    <use x="2002.246094" xlink:href="#DejaVuSans-32"/>
    <use x="2034.033203" xlink:href="#DejaVuSans-77"/>
    <use x="2120.3125" xlink:href="#DejaVuSans-97"/>
    <use x="2181.591797" xlink:href="#DejaVuSans-121"/>
    <use x="2240.755859" xlink:href="#DejaVuSans-45"/>
    <use x="2276.839844" xlink:href="#DejaVuSans-50"/>
    <use x="2340.462891" xlink:href="#DejaVuSans-48"/>
    <use x="2404.085938" xlink:href="#DejaVuSans-50"/>
    <use x="2467.708984" xlink:href="#DejaVuSans-48"/>
   </g>
  </g>
 </g>
 <defs>
  <clipPath id="p89c11359e5">
   <rect height="277.2" width="446.4" x="53.53875" y="57.437813"/>
  </clipPath>
 </defs>
</svg>
