<?xml version="1.0" encoding="utf-8" standalone="no"?>
<!DOCTYPE svg PUBLIC "-//W3C//DTD SVG 1.1//EN"
  "http://www.w3.org/Graphics/SVG/1.1/DTD/svg11.dtd">
<!-- Created with matplotlib (https://matplotlib.org/) -->
<svg height="405.861562pt" version="1.1" viewBox="0 0 777.299437 405.861562" width="777.299437pt" xmlns="http://www.w3.org/2000/svg" xmlns:xlink="http://www.w3.org/1999/xlink">
 <defs>
  <style type="text/css">
*{stroke-linecap:butt;stroke-linejoin:round;}
  </style>
 </defs>
 <g id="figure_1">
  <g id="patch_1">
   <path d="M 0 405.861562 
L 777.299437 405.861562 
L 777.299437 0 
L 0 0 
z
" style="fill:#ffffff;"/>
  </g>
  <g id="axes_1">
   <g id="patch_2">
    <path d="M 59.90125 334.637812 
L 506.30125 334.637812 
L 506.30125 57.437813 
L 59.90125 57.437813 
z
" style="fill:#ffffff;"/>
   </g>
   <g id="matplotlib.axis_1">
    <g id="xtick_1">
     <g id="line2d_1">
      <path clip-path="url(#pfc282d9e77)" d="M 59.90125 334.637812 
L 59.90125 57.437813 
" style="fill:none;stroke:#b0b0b0;stroke-linecap:square;stroke-width:0.8;"/>
     </g>
     <g id="line2d_2">
      <defs>
       <path d="M 0 0 
L 0 3.5 
" id="m6d5e1bad62" style="stroke:#000000;stroke-width:0.8;"/>
      </defs>
      <g>
       <use style="stroke:#000000;stroke-width:0.8;" x="59.90125" xlink:href="#m6d5e1bad62" y="334.637812"/>
      </g>
     </g>
     <g id="text_1">
      <!-- 0 -->
      <defs>
       <path d="M 31.78125 66.40625 
Q 24.171875 66.40625 20.328125 58.90625 
Q 16.5 51.421875 16.5 36.375 
Q 16.5 21.390625 20.328125 13.890625 
Q 24.171875 6.390625 31.78125 6.390625 
Q 39.453125 6.390625 43.28125 13.890625 
Q 47.125 21.390625 47.125 36.375 
Q 47.125 51.421875 43.28125 58.90625 
Q 39.453125 66.40625 31.78125 66.40625 
z
M 31.78125 74.21875 
Q 44.046875 74.21875 50.515625 64.515625 
Q 56.984375 54.828125 56.984375 36.375 
Q 56.984375 17.96875 50.515625 8.265625 
Q 44.046875 -1.421875 31.78125 -1.421875 
Q 19.53125 -1.421875 13.0625 8.265625 
Q 6.59375 17.96875 6.59375 36.375 
Q 6.59375 54.828125 13.0625 64.515625 
Q 19.53125 74.21875 31.78125 74.21875 
z
" id="DejaVuSans-48"/>
      </defs>
      <g transform="translate(56.72 349.23625)scale(0.1 -0.1)">
       <use xlink:href="#DejaVuSans-48"/>
      </g>
     </g>
    </g>
    <g id="xtick_2">
     <g id="line2d_3">
      <path clip-path="url(#pfc282d9e77)" d="M 122.774489 334.637812 
L 122.774489 57.437813 
" style="fill:none;stroke:#b0b0b0;stroke-linecap:square;stroke-width:0.8;"/>
     </g>
     <g id="line2d_4">
      <g>
       <use style="stroke:#000000;stroke-width:0.8;" x="122.774489" xlink:href="#m6d5e1bad62" y="334.637812"/>
      </g>
     </g>
     <g id="text_2">
      <!-- 50 -->
      <defs>
       <path d="M 10.796875 72.90625 
L 49.515625 72.90625 
L 49.515625 64.59375 
L 19.828125 64.59375 
L 19.828125 46.734375 
Q 21.96875 47.46875 24.109375 47.828125 
Q 26.265625 48.1875 28.421875 48.1875 
Q 40.625 48.1875 47.75 41.5 
Q 54.890625 34.8125 54.890625 23.390625 
Q 54.890625 11.625 47.5625 5.09375 
Q 40.234375 -1.421875 26.90625 -1.421875 
Q 22.3125 -1.421875 17.546875 -0.640625 
Q 12.796875 0.140625 7.71875 1.703125 
L 7.71875 11.625 
Q 12.109375 9.234375 16.796875 8.0625 
Q 21.484375 6.890625 26.703125 6.890625 
Q 35.15625 6.890625 40.078125 11.328125 
Q 45.015625 15.765625 45.015625 23.390625 
Q 45.015625 31 40.078125 35.4375 
Q 35.15625 39.890625 26.703125 39.890625 
Q 22.75 39.890625 18.8125 39.015625 
Q 14.890625 38.140625 10.796875 36.28125 
z
" id="DejaVuSans-53"/>
      </defs>
      <g transform="translate(116.411989 349.23625)scale(0.1 -0.1)">
       <use xlink:href="#DejaVuSans-53"/>
       <use x="63.623047" xlink:href="#DejaVuSans-48"/>
      </g>
     </g>
    </g>
    <g id="xtick_3">
     <g id="line2d_5">
      <path clip-path="url(#pfc282d9e77)" d="M 185.647729 334.637812 
L 185.647729 57.437813 
" style="fill:none;stroke:#b0b0b0;stroke-linecap:square;stroke-width:0.8;"/>
     </g>
     <g id="line2d_6">
      <g>
       <use style="stroke:#000000;stroke-width:0.8;" x="185.647729" xlink:href="#m6d5e1bad62" y="334.637812"/>
      </g>
     </g>
     <g id="text_3">
      <!-- 100 -->
      <defs>
       <path d="M 12.40625 8.296875 
L 28.515625 8.296875 
L 28.515625 63.921875 
L 10.984375 60.40625 
L 10.984375 69.390625 
L 28.421875 72.90625 
L 38.28125 72.90625 
L 38.28125 8.296875 
L 54.390625 8.296875 
L 54.390625 0 
L 12.40625 0 
z
" id="DejaVuSans-49"/>
      </defs>
      <g transform="translate(176.103979 349.23625)scale(0.1 -0.1)">
       <use xlink:href="#DejaVuSans-49"/>
       <use x="63.623047" xlink:href="#DejaVuSans-48"/>
       <use x="127.246094" xlink:href="#DejaVuSans-48"/>
      </g>
     </g>
    </g>
    <g id="xtick_4">
     <g id="line2d_7">
      <path clip-path="url(#pfc282d9e77)" d="M 248.520968 334.637812 
L 248.520968 57.437813 
" style="fill:none;stroke:#b0b0b0;stroke-linecap:square;stroke-width:0.8;"/>
     </g>
     <g id="line2d_8">
      <g>
       <use style="stroke:#000000;stroke-width:0.8;" x="248.520968" xlink:href="#m6d5e1bad62" y="334.637812"/>
      </g>
     </g>
     <g id="text_4">
      <!-- 150 -->
      <g transform="translate(238.977218 349.23625)scale(0.1 -0.1)">
       <use xlink:href="#DejaVuSans-49"/>
       <use x="63.623047" xlink:href="#DejaVuSans-53"/>
       <use x="127.246094" xlink:href="#DejaVuSans-48"/>
      </g>
     </g>
    </g>
    <g id="xtick_5">
     <g id="line2d_9">
      <path clip-path="url(#pfc282d9e77)" d="M 311.394208 334.637812 
L 311.394208 57.437813 
" style="fill:none;stroke:#b0b0b0;stroke-linecap:square;stroke-width:0.8;"/>
     </g>
     <g id="line2d_10">
      <g>
       <use style="stroke:#000000;stroke-width:0.8;" x="311.394208" xlink:href="#m6d5e1bad62" y="334.637812"/>
      </g>
     </g>
     <g id="text_5">
      <!-- 200 -->
      <defs>
       <path d="M 19.1875 8.296875 
L 53.609375 8.296875 
L 53.609375 0 
L 7.328125 0 
L 7.328125 8.296875 
Q 12.9375 14.109375 22.625 23.890625 
Q 32.328125 33.6875 34.8125 36.53125 
Q 39.546875 41.84375 41.421875 45.53125 
Q 43.3125 49.21875 43.3125 52.78125 
Q 43.3125 58.59375 39.234375 62.25 
Q 35.15625 65.921875 28.609375 65.921875 
Q 23.96875 65.921875 18.8125 64.3125 
Q 13.671875 62.703125 7.8125 59.421875 
L 7.8125 69.390625 
Q 13.765625 71.78125 18.9375 73 
Q 24.125 74.21875 28.421875 74.21875 
Q 39.75 74.21875 46.484375 68.546875 
Q 53.21875 62.890625 53.21875 53.421875 
Q 53.21875 48.921875 51.53125 44.890625 
Q 49.859375 40.875 45.40625 35.40625 
Q 44.1875 33.984375 37.640625 27.21875 
Q 31.109375 20.453125 19.1875 8.296875 
z
" id="DejaVuSans-50"/>
      </defs>
      <g transform="translate(301.850458 349.23625)scale(0.1 -0.1)">
       <use xlink:href="#DejaVuSans-50"/>
       <use x="63.623047" xlink:href="#DejaVuSans-48"/>
       <use x="127.246094" xlink:href="#DejaVuSans-48"/>
      </g>
     </g>
    </g>
    <g id="xtick_6">
     <g id="line2d_11">
      <path clip-path="url(#pfc282d9e77)" d="M 374.267447 334.637812 
L 374.267447 57.437813 
" style="fill:none;stroke:#b0b0b0;stroke-linecap:square;stroke-width:0.8;"/>
     </g>
     <g id="line2d_12">
      <g>
       <use style="stroke:#000000;stroke-width:0.8;" x="374.267447" xlink:href="#m6d5e1bad62" y="334.637812"/>
      </g>
     </g>
     <g id="text_6">
      <!-- 250 -->
      <g transform="translate(364.723697 349.23625)scale(0.1 -0.1)">
       <use xlink:href="#DejaVuSans-50"/>
       <use x="63.623047" xlink:href="#DejaVuSans-53"/>
       <use x="127.246094" xlink:href="#DejaVuSans-48"/>
      </g>
     </g>
    </g>
    <g id="xtick_7">
     <g id="line2d_13">
      <path clip-path="url(#pfc282d9e77)" d="M 437.140687 334.637812 
L 437.140687 57.437813 
" style="fill:none;stroke:#b0b0b0;stroke-linecap:square;stroke-width:0.8;"/>
     </g>
     <g id="line2d_14">
      <g>
       <use style="stroke:#000000;stroke-width:0.8;" x="437.140687" xlink:href="#m6d5e1bad62" y="334.637812"/>
      </g>
     </g>
     <g id="text_7">
      <!-- 300 -->
      <defs>
       <path d="M 40.578125 39.3125 
Q 47.65625 37.796875 51.625 33 
Q 55.609375 28.21875 55.609375 21.1875 
Q 55.609375 10.40625 48.1875 4.484375 
Q 40.765625 -1.421875 27.09375 -1.421875 
Q 22.515625 -1.421875 17.65625 -0.515625 
Q 12.796875 0.390625 7.625 2.203125 
L 7.625 11.71875 
Q 11.71875 9.328125 16.59375 8.109375 
Q 21.484375 6.890625 26.8125 6.890625 
Q 36.078125 6.890625 40.9375 10.546875 
Q 45.796875 14.203125 45.796875 21.1875 
Q 45.796875 27.640625 41.28125 31.265625 
Q 36.765625 34.90625 28.71875 34.90625 
L 20.21875 34.90625 
L 20.21875 43.015625 
L 29.109375 43.015625 
Q 36.375 43.015625 40.234375 45.921875 
Q 44.09375 48.828125 44.09375 54.296875 
Q 44.09375 59.90625 40.109375 62.90625 
Q 36.140625 65.921875 28.71875 65.921875 
Q 24.65625 65.921875 20.015625 65.03125 
Q 15.375 64.15625 9.8125 62.3125 
L 9.8125 71.09375 
Q 15.4375 72.65625 20.34375 73.4375 
Q 25.25 74.21875 29.59375 74.21875 
Q 40.828125 74.21875 47.359375 69.109375 
Q 53.90625 64.015625 53.90625 55.328125 
Q 53.90625 49.265625 50.4375 45.09375 
Q 46.96875 40.921875 40.578125 39.3125 
z
" id="DejaVuSans-51"/>
      </defs>
      <g transform="translate(427.596937 349.23625)scale(0.1 -0.1)">
       <use xlink:href="#DejaVuSans-51"/>
       <use x="63.623047" xlink:href="#DejaVuSans-48"/>
       <use x="127.246094" xlink:href="#DejaVuSans-48"/>
      </g>
     </g>
    </g>
    <g id="xtick_8">
     <g id="line2d_15">
      <path clip-path="url(#pfc282d9e77)" d="M 500.013926 334.637812 
L 500.013926 57.437813 
" style="fill:none;stroke:#b0b0b0;stroke-linecap:square;stroke-width:0.8;"/>
     </g>
     <g id="line2d_16">
      <g>
       <use style="stroke:#000000;stroke-width:0.8;" x="500.013926" xlink:href="#m6d5e1bad62" y="334.637812"/>
      </g>
     </g>
     <g id="text_8">
      <!-- 350 -->
      <g transform="translate(490.470176 349.23625)scale(0.1 -0.1)">
       <use xlink:href="#DejaVuSans-51"/>
       <use x="63.623047" xlink:href="#DejaVuSans-53"/>
       <use x="127.246094" xlink:href="#DejaVuSans-48"/>
      </g>
     </g>
    </g>
    <g id="text_9">
     <!-- Number of objects reported -->
     <defs>
      <path d="M 9.8125 72.90625 
L 23.09375 72.90625 
L 55.421875 11.921875 
L 55.421875 72.90625 
L 64.984375 72.90625 
L 64.984375 0 
L 51.703125 0 
L 19.390625 60.984375 
L 19.390625 0 
L 9.8125 0 
z
" id="DejaVuSans-78"/>
      <path d="M 8.5 21.578125 
L 8.5 54.6875 
L 17.484375 54.6875 
L 17.484375 21.921875 
Q 17.484375 14.15625 20.5 10.265625 
Q 23.53125 6.390625 29.59375 6.390625 
Q 36.859375 6.390625 41.078125 11.03125 
Q 45.3125 15.671875 45.3125 23.6875 
L 45.3125 54.6875 
L 54.296875 54.6875 
L 54.296875 0 
L 45.3125 0 
L 45.3125 8.40625 
Q 42.046875 3.421875 37.71875 1 
Q 33.40625 -1.421875 27.6875 -1.421875 
Q 18.265625 -1.421875 13.375 4.4375 
Q 8.5 10.296875 8.5 21.578125 
z
M 31.109375 56 
z
" id="DejaVuSans-117"/>
      <path d="M 52 44.1875 
Q 55.375 50.25 60.0625 53.125 
Q 64.75 56 71.09375 56 
Q 79.640625 56 84.28125 50.015625 
Q 88.921875 44.046875 88.921875 33.015625 
L 88.921875 0 
L 79.890625 0 
L 79.890625 32.71875 
Q 79.890625 40.578125 77.09375 44.375 
Q 74.3125 48.1875 68.609375 48.1875 
Q 61.625 48.1875 57.5625 43.546875 
Q 53.515625 38.921875 53.515625 30.90625 
L 53.515625 0 
L 44.484375 0 
L 44.484375 32.71875 
Q 44.484375 40.625 41.703125 44.40625 
Q 38.921875 48.1875 33.109375 48.1875 
Q 26.21875 48.1875 22.15625 43.53125 
Q 18.109375 38.875 18.109375 30.90625 
L 18.109375 0 
L 9.078125 0 
L 9.078125 54.6875 
L 18.109375 54.6875 
L 18.109375 46.1875 
Q 21.1875 51.21875 25.484375 53.609375 
Q 29.78125 56 35.6875 56 
Q 41.65625 56 45.828125 52.96875 
Q 50 49.953125 52 44.1875 
z
" id="DejaVuSans-109"/>
      <path d="M 48.6875 27.296875 
Q 48.6875 37.203125 44.609375 42.84375 
Q 40.53125 48.484375 33.40625 48.484375 
Q 26.265625 48.484375 22.1875 42.84375 
Q 18.109375 37.203125 18.109375 27.296875 
Q 18.109375 17.390625 22.1875 11.75 
Q 26.265625 6.109375 33.40625 6.109375 
Q 40.53125 6.109375 44.609375 11.75 
Q 48.6875 17.390625 48.6875 27.296875 
z
M 18.109375 46.390625 
Q 20.953125 51.265625 25.265625 53.625 
Q 29.59375 56 35.59375 56 
Q 45.5625 56 51.78125 48.09375 
Q 58.015625 40.1875 58.015625 27.296875 
Q 58.015625 14.40625 51.78125 6.484375 
Q 45.5625 -1.421875 35.59375 -1.421875 
Q 29.59375 -1.421875 25.265625 0.953125 
Q 20.953125 3.328125 18.109375 8.203125 
L 18.109375 0 
L 9.078125 0 
L 9.078125 75.984375 
L 18.109375 75.984375 
z
" id="DejaVuSans-98"/>
      <path d="M 56.203125 29.59375 
L 56.203125 25.203125 
L 14.890625 25.203125 
Q 15.484375 15.921875 20.484375 11.0625 
Q 25.484375 6.203125 34.421875 6.203125 
Q 39.59375 6.203125 44.453125 7.46875 
Q 49.3125 8.734375 54.109375 11.28125 
L 54.109375 2.78125 
Q 49.265625 0.734375 44.1875 -0.34375 
Q 39.109375 -1.421875 33.890625 -1.421875 
Q 20.796875 -1.421875 13.15625 6.1875 
Q 5.515625 13.8125 5.515625 26.8125 
Q 5.515625 40.234375 12.765625 48.109375 
Q 20.015625 56 32.328125 56 
Q 43.359375 56 49.78125 48.890625 
Q 56.203125 41.796875 56.203125 29.59375 
z
M 47.21875 32.234375 
Q 47.125 39.59375 43.09375 43.984375 
Q 39.0625 48.390625 32.421875 48.390625 
Q 24.90625 48.390625 20.390625 44.140625 
Q 15.875 39.890625 15.1875 32.171875 
z
" id="DejaVuSans-101"/>
      <path d="M 41.109375 46.296875 
Q 39.59375 47.171875 37.8125 47.578125 
Q 36.03125 48 33.890625 48 
Q 26.265625 48 22.1875 43.046875 
Q 18.109375 38.09375 18.109375 28.8125 
L 18.109375 0 
L 9.078125 0 
L 9.078125 54.6875 
L 18.109375 54.6875 
L 18.109375 46.1875 
Q 20.953125 51.171875 25.484375 53.578125 
Q 30.03125 56 36.53125 56 
Q 37.453125 56 38.578125 55.875 
Q 39.703125 55.765625 41.0625 55.515625 
z
" id="DejaVuSans-114"/>
      <path id="DejaVuSans-32"/>
      <path d="M 30.609375 48.390625 
Q 23.390625 48.390625 19.1875 42.75 
Q 14.984375 37.109375 14.984375 27.296875 
Q 14.984375 17.484375 19.15625 11.84375 
Q 23.34375 6.203125 30.609375 6.203125 
Q 37.796875 6.203125 41.984375 11.859375 
Q 46.1875 17.53125 46.1875 27.296875 
Q 46.1875 37.015625 41.984375 42.703125 
Q 37.796875 48.390625 30.609375 48.390625 
z
M 30.609375 56 
Q 42.328125 56 49.015625 48.375 
Q 55.71875 40.765625 55.71875 27.296875 
Q 55.71875 13.875 49.015625 6.21875 
Q 42.328125 -1.421875 30.609375 -1.421875 
Q 18.84375 -1.421875 12.171875 6.21875 
Q 5.515625 13.875 5.515625 27.296875 
Q 5.515625 40.765625 12.171875 48.375 
Q 18.84375 56 30.609375 56 
z
" id="DejaVuSans-111"/>
      <path d="M 37.109375 75.984375 
L 37.109375 68.5 
L 28.515625 68.5 
Q 23.6875 68.5 21.796875 66.546875 
Q 19.921875 64.59375 19.921875 59.515625 
L 19.921875 54.6875 
L 34.71875 54.6875 
L 34.71875 47.703125 
L 19.921875 47.703125 
L 19.921875 0 
L 10.890625 0 
L 10.890625 47.703125 
L 2.296875 47.703125 
L 2.296875 54.6875 
L 10.890625 54.6875 
L 10.890625 58.5 
Q 10.890625 67.625 15.140625 71.796875 
Q 19.390625 75.984375 28.609375 75.984375 
z
" id="DejaVuSans-102"/>
      <path d="M 9.421875 54.6875 
L 18.40625 54.6875 
L 18.40625 -0.984375 
Q 18.40625 -11.421875 14.421875 -16.109375 
Q 10.453125 -20.796875 1.609375 -20.796875 
L -1.8125 -20.796875 
L -1.8125 -13.1875 
L 0.59375 -13.1875 
Q 5.71875 -13.1875 7.5625 -10.8125 
Q 9.421875 -8.453125 9.421875 -0.984375 
z
M 9.421875 75.984375 
L 18.40625 75.984375 
L 18.40625 64.59375 
L 9.421875 64.59375 
z
" id="DejaVuSans-106"/>
      <path d="M 48.78125 52.59375 
L 48.78125 44.1875 
Q 44.96875 46.296875 41.140625 47.34375 
Q 37.3125 48.390625 33.40625 48.390625 
Q 24.65625 48.390625 19.8125 42.84375 
Q 14.984375 37.3125 14.984375 27.296875 
Q 14.984375 17.28125 19.8125 11.734375 
Q 24.65625 6.203125 33.40625 6.203125 
Q 37.3125 6.203125 41.140625 7.25 
Q 44.96875 8.296875 48.78125 10.40625 
L 48.78125 2.09375 
Q 45.015625 0.34375 40.984375 -0.53125 
Q 36.96875 -1.421875 32.421875 -1.421875 
Q 20.0625 -1.421875 12.78125 6.34375 
Q 5.515625 14.109375 5.515625 27.296875 
Q 5.515625 40.671875 12.859375 48.328125 
Q 20.21875 56 33.015625 56 
Q 37.15625 56 41.109375 55.140625 
Q 45.0625 54.296875 48.78125 52.59375 
z
" id="DejaVuSans-99"/>
      <path d="M 18.3125 70.21875 
L 18.3125 54.6875 
L 36.8125 54.6875 
L 36.8125 47.703125 
L 18.3125 47.703125 
L 18.3125 18.015625 
Q 18.3125 11.328125 20.140625 9.421875 
Q 21.96875 7.515625 27.59375 7.515625 
L 36.8125 7.515625 
L 36.8125 0 
L 27.59375 0 
Q 17.1875 0 13.234375 3.875 
Q 9.28125 7.765625 9.28125 18.015625 
L 9.28125 47.703125 
L 2.6875 47.703125 
L 2.6875 54.6875 
L 9.28125 54.6875 
L 9.28125 70.21875 
z
" id="DejaVuSans-116"/>
      <path d="M 44.28125 53.078125 
L 44.28125 44.578125 
Q 40.484375 46.53125 36.375 47.5 
Q 32.28125 48.484375 27.875 48.484375 
Q 21.1875 48.484375 17.84375 46.4375 
Q 14.5 44.390625 14.5 40.28125 
Q 14.5 37.15625 16.890625 35.375 
Q 19.28125 33.59375 26.515625 31.984375 
L 29.59375 31.296875 
Q 39.15625 29.25 43.1875 25.515625 
Q 47.21875 21.78125 47.21875 15.09375 
Q 47.21875 7.46875 41.1875 3.015625 
Q 35.15625 -1.421875 24.609375 -1.421875 
Q 20.21875 -1.421875 15.453125 -0.5625 
Q 10.6875 0.296875 5.421875 2 
L 5.421875 11.28125 
Q 10.40625 8.6875 15.234375 7.390625 
Q 20.0625 6.109375 24.8125 6.109375 
Q 31.15625 6.109375 34.5625 8.28125 
Q 37.984375 10.453125 37.984375 14.40625 
Q 37.984375 18.0625 35.515625 20.015625 
Q 33.0625 21.96875 24.703125 23.78125 
L 21.578125 24.515625 
Q 13.234375 26.265625 9.515625 29.90625 
Q 5.8125 33.546875 5.8125 39.890625 
Q 5.8125 47.609375 11.28125 51.796875 
Q 16.75 56 26.8125 56 
Q 31.78125 56 36.171875 55.265625 
Q 40.578125 54.546875 44.28125 53.078125 
z
" id="DejaVuSans-115"/>
      <path d="M 18.109375 8.203125 
L 18.109375 -20.796875 
L 9.078125 -20.796875 
L 9.078125 54.6875 
L 18.109375 54.6875 
L 18.109375 46.390625 
Q 20.953125 51.265625 25.265625 53.625 
Q 29.59375 56 35.59375 56 
Q 45.5625 56 51.78125 48.09375 
Q 58.015625 40.1875 58.015625 27.296875 
Q 58.015625 14.40625 51.78125 6.484375 
Q 45.5625 -1.421875 35.59375 -1.421875 
Q 29.59375 -1.421875 25.265625 0.953125 
Q 20.953125 3.328125 18.109375 8.203125 
z
M 48.6875 27.296875 
Q 48.6875 37.203125 44.609375 42.84375 
Q 40.53125 48.484375 33.40625 48.484375 
Q 26.265625 48.484375 22.1875 42.84375 
Q 18.109375 37.203125 18.109375 27.296875 
Q 18.109375 17.390625 22.1875 11.75 
Q 26.265625 6.109375 33.40625 6.109375 
Q 40.53125 6.109375 44.609375 11.75 
Q 48.6875 17.390625 48.6875 27.296875 
z
" id="DejaVuSans-112"/>
      <path d="M 45.40625 46.390625 
L 45.40625 75.984375 
L 54.390625 75.984375 
L 54.390625 0 
L 45.40625 0 
L 45.40625 8.203125 
Q 42.578125 3.328125 38.25 0.953125 
Q 33.9375 -1.421875 27.875 -1.421875 
Q 17.96875 -1.421875 11.734375 6.484375 
Q 5.515625 14.40625 5.515625 27.296875 
Q 5.515625 40.1875 11.734375 48.09375 
Q 17.96875 56 27.875 56 
Q 33.9375 56 38.25 53.625 
Q 42.578125 51.265625 45.40625 46.390625 
z
M 14.796875 27.296875 
Q 14.796875 17.390625 18.875 11.75 
Q 22.953125 6.109375 30.078125 6.109375 
Q 37.203125 6.109375 41.296875 11.75 
Q 45.40625 17.390625 45.40625 27.296875 
Q 45.40625 37.203125 41.296875 42.84375 
Q 37.203125 48.484375 30.078125 48.484375 
Q 22.953125 48.484375 18.875 42.84375 
Q 14.796875 37.203125 14.796875 27.296875 
z
" id="DejaVuSans-100"/>
     </defs>
     <g transform="translate(59.90125 375.434062)scale(0.12 -0.12)">
      <use xlink:href="#DejaVuSans-78"/>
      <use x="74.804688" xlink:href="#DejaVuSans-117"/>
      <use x="138.183594" xlink:href="#DejaVuSans-109"/>
      <use x="235.595703" xlink:href="#DejaVuSans-98"/>
      <use x="299.072266" xlink:href="#DejaVuSans-101"/>
      <use x="360.595703" xlink:href="#DejaVuSans-114"/>
      <use x="401.708984" xlink:href="#DejaVuSans-32"/>
      <use x="433.496094" xlink:href="#DejaVuSans-111"/>
      <use x="494.677734" xlink:href="#DejaVuSans-102"/>
      <use x="529.882812" xlink:href="#DejaVuSans-32"/>
      <use x="561.669922" xlink:href="#DejaVuSans-111"/>
      <use x="622.851562" xlink:href="#DejaVuSans-98"/>
      <use x="686.328125" xlink:href="#DejaVuSans-106"/>
      <use x="714.111328" xlink:href="#DejaVuSans-101"/>
      <use x="775.634766" xlink:href="#DejaVuSans-99"/>
      <use x="830.615234" xlink:href="#DejaVuSans-116"/>
      <use x="869.824219" xlink:href="#DejaVuSans-115"/>
      <use x="921.923828" xlink:href="#DejaVuSans-32"/>
      <use x="953.710938" xlink:href="#DejaVuSans-114"/>
      <use x="994.792969" xlink:href="#DejaVuSans-101"/>
      <use x="1056.316406" xlink:href="#DejaVuSans-112"/>
      <use x="1119.792969" xlink:href="#DejaVuSans-111"/>
      <use x="1180.974609" xlink:href="#DejaVuSans-114"/>
      <use x="1222.087891" xlink:href="#DejaVuSans-116"/>
      <use x="1261.296875" xlink:href="#DejaVuSans-101"/>
      <use x="1322.820312" xlink:href="#DejaVuSans-100"/>
     </g>
     <!-- *Time includes collection, sorting, counting, measuring and data entry -->
     <defs>
      <path d="M 47.015625 60.890625 
L 29.5 51.421875 
L 47.015625 41.890625 
L 44.1875 37.109375 
L 27.78125 47.015625 
L 27.78125 28.609375 
L 22.21875 28.609375 
L 22.21875 47.015625 
L 5.8125 37.109375 
L 2.984375 41.890625 
L 20.515625 51.421875 
L 2.984375 60.890625 
L 5.8125 65.71875 
L 22.21875 55.8125 
L 22.21875 74.21875 
L 27.78125 74.21875 
L 27.78125 55.8125 
L 44.1875 65.71875 
z
" id="DejaVuSans-42"/>
      <path d="M -0.296875 72.90625 
L 61.375 72.90625 
L 61.375 64.59375 
L 35.5 64.59375 
L 35.5 0 
L 25.59375 0 
L 25.59375 64.59375 
L -0.296875 64.59375 
z
" id="DejaVuSans-84"/>
      <path d="M 9.421875 54.6875 
L 18.40625 54.6875 
L 18.40625 0 
L 9.421875 0 
z
M 9.421875 75.984375 
L 18.40625 75.984375 
L 18.40625 64.59375 
L 9.421875 64.59375 
z
" id="DejaVuSans-105"/>
      <path d="M 54.890625 33.015625 
L 54.890625 0 
L 45.90625 0 
L 45.90625 32.71875 
Q 45.90625 40.484375 42.875 44.328125 
Q 39.84375 48.1875 33.796875 48.1875 
Q 26.515625 48.1875 22.3125 43.546875 
Q 18.109375 38.921875 18.109375 30.90625 
L 18.109375 0 
L 9.078125 0 
L 9.078125 54.6875 
L 18.109375 54.6875 
L 18.109375 46.1875 
Q 21.34375 51.125 25.703125 53.5625 
Q 30.078125 56 35.796875 56 
Q 45.21875 56 50.046875 50.171875 
Q 54.890625 44.34375 54.890625 33.015625 
z
" id="DejaVuSans-110"/>
      <path d="M 9.421875 75.984375 
L 18.40625 75.984375 
L 18.40625 0 
L 9.421875 0 
z
" id="DejaVuSans-108"/>
      <path d="M 11.71875 12.40625 
L 22.015625 12.40625 
L 22.015625 4 
L 14.015625 -11.625 
L 7.71875 -11.625 
L 11.71875 4 
z
" id="DejaVuSans-44"/>
      <path d="M 45.40625 27.984375 
Q 45.40625 37.75 41.375 43.109375 
Q 37.359375 48.484375 30.078125 48.484375 
Q 22.859375 48.484375 18.828125 43.109375 
Q 14.796875 37.75 14.796875 27.984375 
Q 14.796875 18.265625 18.828125 12.890625 
Q 22.859375 7.515625 30.078125 7.515625 
Q 37.359375 7.515625 41.375 12.890625 
Q 45.40625 18.265625 45.40625 27.984375 
z
M 54.390625 6.78125 
Q 54.390625 -7.171875 48.1875 -13.984375 
Q 42 -20.796875 29.203125 -20.796875 
Q 24.46875 -20.796875 20.265625 -20.09375 
Q 16.0625 -19.390625 12.109375 -17.921875 
L 12.109375 -9.1875 
Q 16.0625 -11.328125 19.921875 -12.34375 
Q 23.78125 -13.375 27.78125 -13.375 
Q 36.625 -13.375 41.015625 -8.765625 
Q 45.40625 -4.15625 45.40625 5.171875 
L 45.40625 9.625 
Q 42.625 4.78125 38.28125 2.390625 
Q 33.9375 0 27.875 0 
Q 17.828125 0 11.671875 7.65625 
Q 5.515625 15.328125 5.515625 27.984375 
Q 5.515625 40.671875 11.671875 48.328125 
Q 17.828125 56 27.875 56 
Q 33.9375 56 38.28125 53.609375 
Q 42.625 51.21875 45.40625 46.390625 
L 45.40625 54.6875 
L 54.390625 54.6875 
z
" id="DejaVuSans-103"/>
      <path d="M 34.28125 27.484375 
Q 23.390625 27.484375 19.1875 25 
Q 14.984375 22.515625 14.984375 16.5 
Q 14.984375 11.71875 18.140625 8.90625 
Q 21.296875 6.109375 26.703125 6.109375 
Q 34.1875 6.109375 38.703125 11.40625 
Q 43.21875 16.703125 43.21875 25.484375 
L 43.21875 27.484375 
z
M 52.203125 31.203125 
L 52.203125 0 
L 43.21875 0 
L 43.21875 8.296875 
Q 40.140625 3.328125 35.546875 0.953125 
Q 30.953125 -1.421875 24.3125 -1.421875 
Q 15.921875 -1.421875 10.953125 3.296875 
Q 6 8.015625 6 15.921875 
Q 6 25.140625 12.171875 29.828125 
Q 18.359375 34.515625 30.609375 34.515625 
L 43.21875 34.515625 
L 43.21875 35.40625 
Q 43.21875 41.609375 39.140625 45 
Q 35.0625 48.390625 27.6875 48.390625 
Q 23 48.390625 18.546875 47.265625 
Q 14.109375 46.140625 10.015625 43.890625 
L 10.015625 52.203125 
Q 14.9375 54.109375 19.578125 55.046875 
Q 24.21875 56 28.609375 56 
Q 40.484375 56 46.34375 49.84375 
Q 52.203125 43.703125 52.203125 31.203125 
z
" id="DejaVuSans-97"/>
      <path d="M 32.171875 -5.078125 
Q 28.375 -14.84375 24.75 -17.8125 
Q 21.140625 -20.796875 15.09375 -20.796875 
L 7.90625 -20.796875 
L 7.90625 -13.28125 
L 13.1875 -13.28125 
Q 16.890625 -13.28125 18.9375 -11.515625 
Q 21 -9.765625 23.484375 -3.21875 
L 25.09375 0.875 
L 2.984375 54.6875 
L 12.5 54.6875 
L 29.59375 11.921875 
L 46.6875 54.6875 
L 56.203125 54.6875 
z
" id="DejaVuSans-121"/>
     </defs>
     <g transform="translate(59.90125 396.165937)scale(0.12 -0.12)">
      <use xlink:href="#DejaVuSans-42"/>
      <use x="50" xlink:href="#DejaVuSans-84"/>
      <use x="111.037109" xlink:href="#DejaVuSans-105"/>
      <use x="138.820312" xlink:href="#DejaVuSans-109"/>
      <use x="236.232422" xlink:href="#DejaVuSans-101"/>
      <use x="297.755859" xlink:href="#DejaVuSans-32"/>
      <use x="329.542969" xlink:href="#DejaVuSans-105"/>
      <use x="357.326172" xlink:href="#DejaVuSans-110"/>
      <use x="420.705078" xlink:href="#DejaVuSans-99"/>
      <use x="475.685547" xlink:href="#DejaVuSans-108"/>
      <use x="503.46875" xlink:href="#DejaVuSans-117"/>
      <use x="566.847656" xlink:href="#DejaVuSans-100"/>
      <use x="630.324219" xlink:href="#DejaVuSans-101"/>
      <use x="691.847656" xlink:href="#DejaVuSans-115"/>
      <use x="743.947266" xlink:href="#DejaVuSans-32"/>
      <use x="775.734375" xlink:href="#DejaVuSans-99"/>
      <use x="830.714844" xlink:href="#DejaVuSans-111"/>
      <use x="891.896484" xlink:href="#DejaVuSans-108"/>
      <use x="919.679688" xlink:href="#DejaVuSans-108"/>
      <use x="947.462891" xlink:href="#DejaVuSans-101"/>
      <use x="1008.986328" xlink:href="#DejaVuSans-99"/>
      <use x="1063.966797" xlink:href="#DejaVuSans-116"/>
      <use x="1103.175781" xlink:href="#DejaVuSans-105"/>
      <use x="1130.958984" xlink:href="#DejaVuSans-111"/>
      <use x="1192.140625" xlink:href="#DejaVuSans-110"/>
      <use x="1255.519531" xlink:href="#DejaVuSans-44"/>
      <use x="1287.306641" xlink:href="#DejaVuSans-32"/>
      <use x="1319.09375" xlink:href="#DejaVuSans-115"/>
      <use x="1371.193359" xlink:href="#DejaVuSans-111"/>
      <use x="1432.375" xlink:href="#DejaVuSans-114"/>
      <use x="1473.488281" xlink:href="#DejaVuSans-116"/>
      <use x="1512.697266" xlink:href="#DejaVuSans-105"/>
      <use x="1540.480469" xlink:href="#DejaVuSans-110"/>
      <use x="1603.859375" xlink:href="#DejaVuSans-103"/>
      <use x="1667.335938" xlink:href="#DejaVuSans-44"/>
      <use x="1699.123047" xlink:href="#DejaVuSans-32"/>
      <use x="1730.910156" xlink:href="#DejaVuSans-99"/>
      <use x="1785.890625" xlink:href="#DejaVuSans-111"/>
      <use x="1847.072266" xlink:href="#DejaVuSans-117"/>
      <use x="1910.451172" xlink:href="#DejaVuSans-110"/>
      <use x="1973.830078" xlink:href="#DejaVuSans-116"/>
      <use x="2013.039062" xlink:href="#DejaVuSans-105"/>
      <use x="2040.822266" xlink:href="#DejaVuSans-110"/>
      <use x="2104.201172" xlink:href="#DejaVuSans-103"/>
      <use x="2167.677734" xlink:href="#DejaVuSans-44"/>
      <use x="2199.464844" xlink:href="#DejaVuSans-32"/>
      <use x="2231.251953" xlink:href="#DejaVuSans-109"/>
      <use x="2328.664062" xlink:href="#DejaVuSans-101"/>
      <use x="2390.1875" xlink:href="#DejaVuSans-97"/>
      <use x="2451.466797" xlink:href="#DejaVuSans-115"/>
      <use x="2503.566406" xlink:href="#DejaVuSans-117"/>
      <use x="2566.945312" xlink:href="#DejaVuSans-114"/>
      <use x="2608.058594" xlink:href="#DejaVuSans-105"/>
      <use x="2635.841797" xlink:href="#DejaVuSans-110"/>
      <use x="2699.220703" xlink:href="#DejaVuSans-103"/>
      <use x="2762.697266" xlink:href="#DejaVuSans-32"/>
      <use x="2794.484375" xlink:href="#DejaVuSans-97"/>
      <use x="2855.763672" xlink:href="#DejaVuSans-110"/>
      <use x="2919.142578" xlink:href="#DejaVuSans-100"/>
      <use x="2982.619141" xlink:href="#DejaVuSans-32"/>
      <use x="3014.40625" xlink:href="#DejaVuSans-100"/>
      <use x="3077.882812" xlink:href="#DejaVuSans-97"/>
      <use x="3139.162109" xlink:href="#DejaVuSans-116"/>
      <use x="3178.371094" xlink:href="#DejaVuSans-97"/>
      <use x="3239.650391" xlink:href="#DejaVuSans-32"/>
      <use x="3271.4375" xlink:href="#DejaVuSans-101"/>
      <use x="3332.960938" xlink:href="#DejaVuSans-110"/>
      <use x="3396.339844" xlink:href="#DejaVuSans-116"/>
      <use x="3435.548828" xlink:href="#DejaVuSans-114"/>
      <use x="3476.662109" xlink:href="#DejaVuSans-121"/>
     </g>
    </g>
   </g>
   <g id="matplotlib.axis_2">
    <g id="ytick_1">
     <g id="line2d_17">
      <path clip-path="url(#pfc282d9e77)" d="M 59.90125 317.886503 
L 506.30125 317.886503 
" style="fill:none;stroke:#b0b0b0;stroke-linecap:square;stroke-width:0.8;"/>
     </g>
     <g id="line2d_18">
      <defs>
       <path d="M 0 0 
L -3.5 0 
" id="mc932c00002" style="stroke:#000000;stroke-width:0.8;"/>
      </defs>
      <g>
       <use style="stroke:#000000;stroke-width:0.8;" x="59.90125" xlink:href="#mc932c00002" y="317.886503"/>
      </g>
     </g>
     <g id="text_10">
      <!-- 60 -->
      <defs>
       <path d="M 33.015625 40.375 
Q 26.375 40.375 22.484375 35.828125 
Q 18.609375 31.296875 18.609375 23.390625 
Q 18.609375 15.53125 22.484375 10.953125 
Q 26.375 6.390625 33.015625 6.390625 
Q 39.65625 6.390625 43.53125 10.953125 
Q 47.40625 15.53125 47.40625 23.390625 
Q 47.40625 31.296875 43.53125 35.828125 
Q 39.65625 40.375 33.015625 40.375 
z
M 52.59375 71.296875 
L 52.59375 62.3125 
Q 48.875 64.0625 45.09375 64.984375 
Q 41.3125 65.921875 37.59375 65.921875 
Q 27.828125 65.921875 22.671875 59.328125 
Q 17.53125 52.734375 16.796875 39.40625 
Q 19.671875 43.65625 24.015625 45.921875 
Q 28.375 48.1875 33.59375 48.1875 
Q 44.578125 48.1875 50.953125 41.515625 
Q 57.328125 34.859375 57.328125 23.390625 
Q 57.328125 12.15625 50.6875 5.359375 
Q 44.046875 -1.421875 33.015625 -1.421875 
Q 20.359375 -1.421875 13.671875 8.265625 
Q 6.984375 17.96875 6.984375 36.375 
Q 6.984375 53.65625 15.1875 63.9375 
Q 23.390625 74.21875 37.203125 74.21875 
Q 40.921875 74.21875 44.703125 73.484375 
Q 48.484375 72.75 52.59375 71.296875 
z
" id="DejaVuSans-54"/>
      </defs>
      <g transform="translate(40.17625 321.685722)scale(0.1 -0.1)">
       <use xlink:href="#DejaVuSans-54"/>
       <use x="63.623047" xlink:href="#DejaVuSans-48"/>
      </g>
     </g>
    </g>
    <g id="ytick_2">
     <g id="line2d_19">
      <path clip-path="url(#pfc282d9e77)" d="M 59.90125 285.29097 
L 506.30125 285.29097 
" style="fill:none;stroke:#b0b0b0;stroke-linecap:square;stroke-width:0.8;"/>
     </g>
     <g id="line2d_20">
      <g>
       <use style="stroke:#000000;stroke-width:0.8;" x="59.90125" xlink:href="#mc932c00002" y="285.29097"/>
      </g>
     </g>
     <g id="text_11">
      <!-- 80 -->
      <defs>
       <path d="M 31.78125 34.625 
Q 24.75 34.625 20.71875 30.859375 
Q 16.703125 27.09375 16.703125 20.515625 
Q 16.703125 13.921875 20.71875 10.15625 
Q 24.75 6.390625 31.78125 6.390625 
Q 38.8125 6.390625 42.859375 10.171875 
Q 46.921875 13.96875 46.921875 20.515625 
Q 46.921875 27.09375 42.890625 30.859375 
Q 38.875 34.625 31.78125 34.625 
z
M 21.921875 38.8125 
Q 15.578125 40.375 12.03125 44.71875 
Q 8.5 49.078125 8.5 55.328125 
Q 8.5 64.0625 14.71875 69.140625 
Q 20.953125 74.21875 31.78125 74.21875 
Q 42.671875 74.21875 48.875 69.140625 
Q 55.078125 64.0625 55.078125 55.328125 
Q 55.078125 49.078125 51.53125 44.71875 
Q 48 40.375 41.703125 38.8125 
Q 48.828125 37.15625 52.796875 32.3125 
Q 56.78125 27.484375 56.78125 20.515625 
Q 56.78125 9.90625 50.3125 4.234375 
Q 43.84375 -1.421875 31.78125 -1.421875 
Q 19.734375 -1.421875 13.25 4.234375 
Q 6.78125 9.90625 6.78125 20.515625 
Q 6.78125 27.484375 10.78125 32.3125 
Q 14.796875 37.15625 21.921875 38.8125 
z
M 18.3125 54.390625 
Q 18.3125 48.734375 21.84375 45.5625 
Q 25.390625 42.390625 31.78125 42.390625 
Q 38.140625 42.390625 41.71875 45.5625 
Q 45.3125 48.734375 45.3125 54.390625 
Q 45.3125 60.0625 41.71875 63.234375 
Q 38.140625 66.40625 31.78125 66.40625 
Q 25.390625 66.40625 21.84375 63.234375 
Q 18.3125 60.0625 18.3125 54.390625 
z
" id="DejaVuSans-56"/>
      </defs>
      <g transform="translate(40.17625 289.090189)scale(0.1 -0.1)">
       <use xlink:href="#DejaVuSans-56"/>
       <use x="63.623047" xlink:href="#DejaVuSans-48"/>
      </g>
     </g>
    </g>
    <g id="ytick_3">
     <g id="line2d_21">
      <path clip-path="url(#pfc282d9e77)" d="M 59.90125 252.695436 
L 506.30125 252.695436 
" style="fill:none;stroke:#b0b0b0;stroke-linecap:square;stroke-width:0.8;"/>
     </g>
     <g id="line2d_22">
      <g>
       <use style="stroke:#000000;stroke-width:0.8;" x="59.90125" xlink:href="#mc932c00002" y="252.695436"/>
      </g>
     </g>
     <g id="text_12">
      <!-- 100 -->
      <g transform="translate(33.81375 256.494655)scale(0.1 -0.1)">
       <use xlink:href="#DejaVuSans-49"/>
       <use x="63.623047" xlink:href="#DejaVuSans-48"/>
       <use x="127.246094" xlink:href="#DejaVuSans-48"/>
      </g>
     </g>
    </g>
    <g id="ytick_4">
     <g id="line2d_23">
      <path clip-path="url(#pfc282d9e77)" d="M 59.90125 220.099903 
L 506.30125 220.099903 
" style="fill:none;stroke:#b0b0b0;stroke-linecap:square;stroke-width:0.8;"/>
     </g>
     <g id="line2d_24">
      <g>
       <use style="stroke:#000000;stroke-width:0.8;" x="59.90125" xlink:href="#mc932c00002" y="220.099903"/>
      </g>
     </g>
     <g id="text_13">
      <!-- 120 -->
      <g transform="translate(33.81375 223.899121)scale(0.1 -0.1)">
       <use xlink:href="#DejaVuSans-49"/>
       <use x="63.623047" xlink:href="#DejaVuSans-50"/>
       <use x="127.246094" xlink:href="#DejaVuSans-48"/>
      </g>
     </g>
    </g>
    <g id="ytick_5">
     <g id="line2d_25">
      <path clip-path="url(#pfc282d9e77)" d="M 59.90125 187.504369 
L 506.30125 187.504369 
" style="fill:none;stroke:#b0b0b0;stroke-linecap:square;stroke-width:0.8;"/>
     </g>
     <g id="line2d_26">
      <g>
       <use style="stroke:#000000;stroke-width:0.8;" x="59.90125" xlink:href="#mc932c00002" y="187.504369"/>
      </g>
     </g>
     <g id="text_14">
      <!-- 140 -->
      <defs>
       <path d="M 37.796875 64.3125 
L 12.890625 25.390625 
L 37.796875 25.390625 
z
M 35.203125 72.90625 
L 47.609375 72.90625 
L 47.609375 25.390625 
L 58.015625 25.390625 
L 58.015625 17.1875 
L 47.609375 17.1875 
L 47.609375 0 
L 37.796875 0 
L 37.796875 17.1875 
L 4.890625 17.1875 
L 4.890625 26.703125 
z
" id="DejaVuSans-52"/>
      </defs>
      <g transform="translate(33.81375 191.303588)scale(0.1 -0.1)">
       <use xlink:href="#DejaVuSans-49"/>
       <use x="63.623047" xlink:href="#DejaVuSans-52"/>
       <use x="127.246094" xlink:href="#DejaVuSans-48"/>
      </g>
     </g>
    </g>
    <g id="ytick_6">
     <g id="line2d_27">
      <path clip-path="url(#pfc282d9e77)" d="M 59.90125 154.908835 
L 506.30125 154.908835 
" style="fill:none;stroke:#b0b0b0;stroke-linecap:square;stroke-width:0.8;"/>
     </g>
     <g id="line2d_28">
      <g>
       <use style="stroke:#000000;stroke-width:0.8;" x="59.90125" xlink:href="#mc932c00002" y="154.908835"/>
      </g>
     </g>
     <g id="text_15">
      <!-- 160 -->
      <g transform="translate(33.81375 158.708054)scale(0.1 -0.1)">
       <use xlink:href="#DejaVuSans-49"/>
       <use x="63.623047" xlink:href="#DejaVuSans-54"/>
       <use x="127.246094" xlink:href="#DejaVuSans-48"/>
      </g>
     </g>
    </g>
    <g id="ytick_7">
     <g id="line2d_29">
      <path clip-path="url(#pfc282d9e77)" d="M 59.90125 122.313302 
L 506.30125 122.313302 
" style="fill:none;stroke:#b0b0b0;stroke-linecap:square;stroke-width:0.8;"/>
     </g>
     <g id="line2d_30">
      <g>
       <use style="stroke:#000000;stroke-width:0.8;" x="59.90125" xlink:href="#mc932c00002" y="122.313302"/>
      </g>
     </g>
     <g id="text_16">
      <!-- 180 -->
      <g transform="translate(33.81375 126.112521)scale(0.1 -0.1)">
       <use xlink:href="#DejaVuSans-49"/>
       <use x="63.623047" xlink:href="#DejaVuSans-56"/>
       <use x="127.246094" xlink:href="#DejaVuSans-48"/>
      </g>
     </g>
    </g>
    <g id="ytick_8">
     <g id="line2d_31">
      <path clip-path="url(#pfc282d9e77)" d="M 59.90125 89.717768 
L 506.30125 89.717768 
" style="fill:none;stroke:#b0b0b0;stroke-linecap:square;stroke-width:0.8;"/>
     </g>
     <g id="line2d_32">
      <g>
       <use style="stroke:#000000;stroke-width:0.8;" x="59.90125" xlink:href="#mc932c00002" y="89.717768"/>
      </g>
     </g>
     <g id="text_17">
      <!-- 200 -->
      <g transform="translate(33.81375 93.516987)scale(0.1 -0.1)">
       <use xlink:href="#DejaVuSans-50"/>
       <use x="63.623047" xlink:href="#DejaVuSans-48"/>
       <use x="127.246094" xlink:href="#DejaVuSans-48"/>
      </g>
     </g>
    </g>
    <g id="text_18">
     <!-- Time to complete survey -->
     <defs>
      <path d="M 2.984375 54.6875 
L 12.5 54.6875 
L 29.59375 8.796875 
L 46.6875 54.6875 
L 56.203125 54.6875 
L 35.6875 0 
L 23.484375 0 
z
" id="DejaVuSans-118"/>
     </defs>
     <g transform="translate(16.318125 270.8625)rotate(-90)scale(0.12 -0.12)">
      <use xlink:href="#DejaVuSans-84"/>
      <use x="61.037109" xlink:href="#DejaVuSans-105"/>
      <use x="88.820312" xlink:href="#DejaVuSans-109"/>
      <use x="186.232422" xlink:href="#DejaVuSans-101"/>
      <use x="247.755859" xlink:href="#DejaVuSans-32"/>
      <use x="279.542969" xlink:href="#DejaVuSans-116"/>
      <use x="318.751953" xlink:href="#DejaVuSans-111"/>
      <use x="379.933594" xlink:href="#DejaVuSans-32"/>
      <use x="411.720703" xlink:href="#DejaVuSans-99"/>
      <use x="466.701172" xlink:href="#DejaVuSans-111"/>
      <use x="527.882812" xlink:href="#DejaVuSans-109"/>
      <use x="625.294922" xlink:href="#DejaVuSans-112"/>
      <use x="688.771484" xlink:href="#DejaVuSans-108"/>
      <use x="716.554688" xlink:href="#DejaVuSans-101"/>
      <use x="778.078125" xlink:href="#DejaVuSans-116"/>
      <use x="817.287109" xlink:href="#DejaVuSans-101"/>
      <use x="878.810547" xlink:href="#DejaVuSans-32"/>
      <use x="910.597656" xlink:href="#DejaVuSans-115"/>
      <use x="962.697266" xlink:href="#DejaVuSans-117"/>
      <use x="1026.076172" xlink:href="#DejaVuSans-114"/>
      <use x="1067.189453" xlink:href="#DejaVuSans-118"/>
      <use x="1126.369141" xlink:href="#DejaVuSans-101"/>
      <use x="1187.892578" xlink:href="#DejaVuSans-121"/>
     </g>
    </g>
   </g>
   <g id="PathCollection_1">
    <defs>
     <path d="M 0 8.01249 
C 2.124937 8.01249 4.163129 7.168244 5.665686 5.665686 
C 7.168244 4.163129 8.01249 2.124937 8.01249 0 
C 8.01249 -2.124937 7.168244 -4.163129 5.665686 -5.665686 
C 4.163129 -7.168244 2.124937 -8.01249 0 -8.01249 
C -2.124937 -8.01249 -4.163129 -7.168244 -5.665686 -5.665686 
C -7.168244 -4.163129 -8.01249 -2.124937 -8.01249 0 
C -8.01249 2.124937 -7.168244 4.163129 -5.665686 5.665686 
C -4.163129 7.168244 -2.124937 8.01249 0 8.01249 
z
" id="m8898fc6dbb" style="stroke:#ffffff;"/>
    </defs>
    <g clip-path="url(#pfc282d9e77)">
     <use style="fill:#393b79;stroke:#ffffff;" x="341.573363" xlink:href="#m8898fc6dbb" y="171.206602"/>
    </g>
   </g>
   <g id="PathCollection_2">
    <defs>
     <path d="M 0 17.722867 
C 4.700159 17.722867 9.208445 15.855474 12.531959 12.531959 
C 15.855474 9.208445 17.722867 4.700159 17.722867 0 
C 17.722867 -4.700159 15.855474 -9.208445 12.531959 -12.531959 
C 9.208445 -15.855474 4.700159 -17.722867 0 -17.722867 
C -4.700159 -17.722867 -9.208445 -15.855474 -12.531959 -12.531959 
C -15.855474 -9.208445 -17.722867 -4.700159 -17.722867 0 
C -17.722867 4.700159 -15.855474 9.208445 -12.531959 12.531959 
C -9.208445 15.855474 -4.700159 17.722867 0 17.722867 
z
" id="mcc78d2ec2e" style="stroke:#ffffff;"/>
    </defs>
    <g clip-path="url(#pfc282d9e77)">
     <use style="fill:#5254a3;stroke:#ffffff;" x="218.341813" xlink:href="#mcc78d2ec2e" y="228.248786"/>
    </g>
   </g>
   <g id="PathCollection_3">
    <defs>
     <path d="M 0 9.502631 
C 2.520127 9.502631 4.937376 8.501374 6.719375 6.719375 
C 8.501374 4.937376 9.502631 2.520127 9.502631 0 
C 9.502631 -2.520127 8.501374 -4.937376 6.719375 -6.719375 
C 4.937376 -8.501374 2.520127 -9.502631 0 -9.502631 
C -2.520127 -9.502631 -4.937376 -8.501374 -6.719375 -6.719375 
C -8.501374 -4.937376 -9.502631 -2.520127 -9.502631 0 
C -9.502631 2.520127 -8.501374 4.937376 -6.719375 6.719375 
C -4.937376 8.501374 -2.520127 9.502631 0 9.502631 
z
" id="mafe20164fb" style="stroke:#ffffff;"/>
    </defs>
    <g clip-path="url(#pfc282d9e77)">
     <use style="fill:#6b6ecf;stroke:#ffffff;" x="292.532236" xlink:href="#mafe20164fb" y="195.653252"/>
    </g>
   </g>
   <g id="PathCollection_4">
    <defs>
     <path d="M 0 5.282045 
C 1.400815 5.282045 2.744444 4.725495 3.73497 3.73497 
C 4.725495 2.744444 5.282045 1.400815 5.282045 0 
C 5.282045 -1.400815 4.725495 -2.744444 3.73497 -3.73497 
C 2.744444 -4.725495 1.400815 -5.282045 0 -5.282045 
C -1.400815 -5.282045 -2.744444 -4.725495 -3.73497 -3.73497 
C -4.725495 -2.744444 -5.282045 -1.400815 -5.282045 0 
C -5.282045 1.400815 -4.725495 2.744444 -3.73497 3.73497 
C -2.744444 4.725495 -1.400815 5.282045 0 5.282045 
z
" id="m78701e9545" style="stroke:#ffffff;"/>
    </defs>
    <g clip-path="url(#pfc282d9e77)">
     <use style="fill:#9c9ede;stroke:#ffffff;" x="102.655053" xlink:href="#m78701e9545" y="244.546553"/>
    </g>
   </g>
   <g id="PathCollection_5">
    <path clip-path="url(#pfc282d9e77)" d="M 364.207729 106.758895 
C 368.727089 106.758895 373.061955 104.963334 376.257625 101.767664 
C 379.453295 98.571995 381.248856 94.237128 381.248856 89.717768 
C 381.248856 85.198409 379.453295 80.863542 376.257625 77.667872 
C 373.061955 74.472202 368.727089 72.676641 364.207729 72.676641 
C 359.688369 72.676641 355.353502 74.472202 352.157833 77.667872 
C 348.962163 80.863542 347.166602 85.198409 347.166602 89.717768 
C 347.166602 94.237128 348.962163 98.571995 352.157833 101.767664 
C 355.353502 104.963334 359.688369 106.758895 364.207729 106.758895 
z
" style="fill:#637939;stroke:#ffffff;"/>
    <path clip-path="url(#pfc282d9e77)" d="M 325.22632 95.799134 
C 329.000227 95.799134 332.620072 94.299745 335.288626 91.631191 
C 337.957181 88.962636 339.45657 85.342791 339.45657 81.568885 
C 339.45657 77.794979 337.957181 74.175134 335.288626 71.506579 
C 332.620072 68.838024 329.000227 67.338635 325.22632 67.338635 
C 321.452414 67.338635 317.832569 68.838024 315.164015 71.506579 
C 312.49546 74.175134 310.996071 77.794979 310.996071 81.568885 
C 310.996071 85.342791 312.49546 88.962636 315.164015 91.631191 
C 317.832569 94.299745 321.452414 95.799134 325.22632 95.799134 
z
" style="fill:#637939;stroke:#ffffff;"/>
   </g>
   <g id="PathCollection_6">
    <path clip-path="url(#pfc282d9e77)" d="M 135.349137 224.342543 
C 136.474299 224.342543 137.553528 223.895512 138.349137 223.099903 
C 139.144747 222.304293 139.591778 221.225064 139.591778 220.099903 
C 139.591778 218.974741 139.144747 217.895512 138.349137 217.099903 
C 137.553528 216.304293 136.474299 215.857262 135.349137 215.857262 
C 134.223976 215.857262 133.144747 216.304293 132.349137 217.099903 
C 131.553528 217.895512 131.106497 218.974741 131.106497 220.099903 
C 131.106497 221.225064 131.553528 222.304293 132.349137 223.099903 
C 133.144747 223.895512 134.223976 224.342543 135.349137 224.342543 
z
" style="fill:#8ca252;stroke:#ffffff;"/>
    <path clip-path="url(#pfc282d9e77)" d="M 151.69618 78.37984 
C 153.011544 78.37984 154.273212 77.85724 155.203315 76.927137 
C 156.133418 75.997034 156.656018 74.735366 156.656018 73.420001 
C 156.656018 72.104637 156.133418 70.842969 155.203315 69.912866 
C 154.273212 68.982763 153.011544 68.460163 151.69618 68.460163 
C 150.380815 68.460163 149.119147 68.982763 148.189044 69.912866 
C 147.258941 70.842969 146.736341 72.104637 146.736341 73.420001 
C 146.736341 74.735366 147.258941 75.997034 148.189044 76.927137 
C 149.119147 77.85724 150.380815 78.37984 151.69618 78.37984 
z
" style="fill:#8ca252;stroke:#ffffff;"/>
   </g>
   <g id="PathCollection_7">
    <defs>
     <path d="M 0 14.429137 
C 3.826652 14.429137 7.497089 12.908792 10.202941 10.202941 
C 12.908792 7.497089 14.429137 3.826652 14.429137 0 
C 14.429137 -3.826652 12.908792 -7.497089 10.202941 -10.202941 
C 7.497089 -12.908792 3.826652 -14.429137 0 -14.429137 
C -3.826652 -14.429137 -7.497089 -12.908792 -10.202941 -10.202941 
C -12.908792 -7.497089 -14.429137 -3.826652 -14.429137 0 
C -14.429137 3.826652 -12.908792 7.497089 -10.202941 10.202941 
C -7.497089 12.908792 -3.826652 14.429137 0 14.429137 
z
" id="ma63762882d" style="stroke:#ffffff;"/>
    </defs>
    <g clip-path="url(#pfc282d9e77)">
     <use style="fill:#b5cf6b;stroke:#ffffff;" x="443.428011" xlink:href="#ma63762882d" y="171.206602"/>
    </g>
   </g>
   <g id="PathCollection_8">
    <defs>
     <path d="M 0 6.708204 
C 1.779036 6.708204 3.485448 6.001385 4.743416 4.743416 
C 6.001385 3.485448 6.708204 1.779036 6.708204 0 
C 6.708204 -1.779036 6.001385 -3.485448 4.743416 -4.743416 
C 3.485448 -6.001385 1.779036 -6.708204 0 -6.708204 
C -1.779036 -6.708204 -3.485448 -6.001385 -4.743416 -4.743416 
C -6.001385 -3.485448 -6.708204 -1.779036 -6.708204 0 
C -6.708204 1.779036 -6.001385 3.485448 -4.743416 4.743416 
C -3.485448 6.001385 -1.779036 6.708204 0 6.708204 
z
" id="mb1d69e3694" style="stroke:#ffffff;"/>
    </defs>
    <g clip-path="url(#pfc282d9e77)">
     <use style="fill:#cedb9c;stroke:#ffffff;" x="116.487165" xlink:href="#mb1d69e3694" y="268.993203"/>
    </g>
   </g>
   <g id="PathCollection_9">
    <defs>
     <path d="M 0 7.489993 
C 1.986369 7.489993 3.89165 6.7008 5.296225 5.296225 
C 6.7008 3.89165 7.489993 1.986369 7.489993 0 
C 7.489993 -1.986369 6.7008 -3.89165 5.296225 -5.296225 
C 3.89165 -6.7008 1.986369 -7.489993 0 -7.489993 
C -1.986369 -7.489993 -3.89165 -6.7008 -5.296225 -5.296225 
C -6.7008 -3.89165 -7.489993 -1.986369 -7.489993 0 
C -7.489993 1.986369 -6.7008 3.89165 -5.296225 5.296225 
C -3.89165 6.7008 -1.986369 7.489993 0 7.489993 
z
" id="m15b9e5e63f" style="stroke:#ffffff;"/>
    </defs>
    <g clip-path="url(#pfc282d9e77)">
     <use style="fill:#8c6d31;stroke:#ffffff;" x="174.330546" xlink:href="#m15b9e5e63f" y="122.313302"/>
    </g>
   </g>
   <g id="PathCollection_10">
    <path clip-path="url(#pfc282d9e77)" d="M 116.487165 224.715095 
C 117.711129 224.715095 118.885127 224.228809 119.750599 223.363336 
C 120.616072 222.497864 121.102358 221.323866 121.102358 220.099903 
C 121.102358 218.875939 120.616072 217.701942 119.750599 216.836469 
C 118.885127 215.970996 117.711129 215.48471 116.487165 215.48471 
C 115.263202 215.48471 114.089204 215.970996 113.223732 216.836469 
C 112.358259 217.701942 111.871973 218.875939 111.871973 220.099903 
C 111.871973 221.323866 112.358259 222.497864 113.223732 223.363336 
C 114.089204 224.228809 115.263202 224.715095 116.487165 224.715095 
z
" style="fill:#bd9e39;stroke:#ffffff;"/>
    <path clip-path="url(#pfc282d9e77)" d="M 122.774489 127.392672 
C 124.121554 127.392672 125.413628 126.857477 126.366146 125.904959 
C 127.318665 124.95244 127.853859 123.660366 127.853859 122.313302 
C 127.853859 120.966237 127.318665 119.674163 126.366146 118.721645 
C 125.413628 117.769126 124.121554 117.233932 122.774489 117.233932 
C 121.427425 117.233932 120.135351 117.769126 119.182832 118.721645 
C 118.230314 119.674163 117.695119 120.966237 117.695119 122.313302 
C 117.695119 123.660366 118.230314 124.95244 119.182832 125.904959 
C 120.135351 126.857477 121.427425 127.392672 122.774489 127.392672 
z
" style="fill:#bd9e39;stroke:#ffffff;"/>
   </g>
   <g id="PathCollection_11">
    <path clip-path="url(#pfc282d9e77)" d="M 316.424067 100.492739 
C 319.281623 100.492739 322.022525 99.35742 324.043122 97.336823 
C 326.063719 95.316226 327.199038 92.575324 327.199038 89.717768 
C 327.199038 86.860212 326.063719 84.11931 324.043122 82.098713 
C 322.022525 80.078116 319.281623 78.942797 316.424067 78.942797 
C 313.566511 78.942797 310.825609 80.078116 308.805012 82.098713 
C 306.784415 84.11931 305.649096 86.860212 305.649096 89.717768 
C 305.649096 92.575324 306.784415 95.316226 308.805012 97.336823 
C 310.825609 99.35742 313.566511 100.492739 316.424067 100.492739 
z
" style="fill:#e7ba52;stroke:#ffffff;"/>
    <path clip-path="url(#pfc282d9e77)" d="M 384.327165 183.231576 
C 387.516226 183.231576 390.5751 181.964549 392.830106 179.709543 
C 395.085112 177.454537 396.35214 174.395663 396.35214 171.206602 
C 396.35214 168.017542 395.085112 164.958668 392.830106 162.703662 
C 390.5751 160.448655 387.516226 159.181628 384.327165 159.181628 
C 381.138105 159.181628 378.079231 160.448655 375.824225 162.703662 
C 373.569219 164.958668 372.302191 168.017542 372.302191 171.206602 
C 372.302191 174.395663 373.569219 177.454537 375.824225 179.709543 
C 378.079231 181.964549 381.138105 183.231576 384.327165 183.231576 
z
" style="fill:#e7ba52;stroke:#ffffff;"/>
   </g>
   <g id="PathCollection_12">
    <defs>
     <path d="M 0 8.01249 
C 2.124937 8.01249 4.163129 7.168244 5.665686 5.665686 
C 7.168244 4.163129 8.01249 2.124937 8.01249 0 
C 8.01249 -2.124937 7.168244 -4.163129 5.665686 -5.665686 
C 4.163129 -7.168244 2.124937 -8.01249 0 -8.01249 
C -2.124937 -8.01249 -4.163129 -7.168244 -5.665686 -5.665686 
C -7.168244 -4.163129 -8.01249 -2.124937 -8.01249 0 
C -8.01249 2.124937 -7.168244 4.163129 -5.665686 5.665686 
C -4.163129 7.168244 -2.124937 8.01249 0 8.01249 
z
" id="mfc0f5767f6" style="stroke:#ffffff;"/>
    </defs>
    <g clip-path="url(#pfc282d9e77)">
     <use style="fill:#e7cb94;stroke:#ffffff;" x="134.091673" xlink:href="#mfc0f5767f6" y="268.993203"/>
    </g>
   </g>
   <g id="PathCollection_13">
    <path clip-path="url(#pfc282d9e77)" d="M 179.360405 183.143939 
C 182.526224 183.143939 185.562805 181.886146 187.801376 179.647574 
C 190.039948 177.409002 191.297741 174.372421 191.297741 171.206602 
C 191.297741 168.040784 190.039948 165.004203 187.801376 162.765631 
C 185.562805 160.527059 182.526224 159.269266 179.360405 159.269266 
C 176.194586 159.269266 173.158005 160.527059 170.919433 162.765631 
C 168.680862 165.004203 167.423069 168.040784 167.423069 171.206602 
C 167.423069 174.372421 168.680862 177.409002 170.919433 179.647574 
C 173.158005 181.886146 176.194586 183.143939 179.360405 183.143939 
z
" style="fill:#843c39;stroke:#ffffff;"/>
    <path clip-path="url(#pfc282d9e77)" d="M 91.33787 322.876493 
C 92.661231 322.876493 93.930568 322.350717 94.866325 321.414959 
C 95.802083 320.479202 96.32786 319.209864 96.32786 317.886503 
C 96.32786 316.563143 95.802083 315.293805 94.866325 314.358048 
C 93.930568 313.42229 92.661231 312.896513 91.33787 312.896513 
C 90.014509 312.896513 88.745171 313.42229 87.809414 314.358048 
C 86.873657 315.293805 86.34788 316.563143 86.34788 317.886503 
C 86.34788 319.209864 86.873657 320.479202 87.809414 321.414959 
C 88.745171 322.350717 90.014509 322.876493 91.33787 322.876493 
z
" style="fill:#843c39;stroke:#ffffff;"/>
   </g>
   <g id="PathCollection_14">
    <path clip-path="url(#pfc282d9e77)" d="M 166.785757 177.640885 
C 168.492149 177.640885 170.128881 176.962929 171.335482 175.756327 
C 172.542084 174.549726 173.22004 172.912994 173.22004 171.206602 
C 173.22004 169.50021 172.542084 167.863478 171.335482 166.656877 
C 170.128881 165.450276 168.492149 164.772319 166.785757 164.772319 
C 165.079365 164.772319 163.442633 165.450276 162.236032 166.656877 
C 161.029431 167.863478 160.351474 169.50021 160.351474 171.206602 
C 160.351474 172.912994 161.029431 174.549726 162.236032 175.756327 
C 163.442633 176.962929 165.079365 177.640885 166.785757 177.640885 
z
" style="fill:#ad494a;stroke:#ffffff;"/>
    <path clip-path="url(#pfc282d9e77)" d="M 237.203785 205.57293 
C 239.834514 205.57293 242.35785 204.52773 244.218056 202.667524 
C 246.078263 200.807317 247.123463 198.283982 247.123463 195.653252 
C 247.123463 193.022523 246.078263 190.499188 244.218056 188.638981 
C 242.35785 186.778775 239.834514 185.733575 237.203785 185.733575 
C 234.573056 185.733575 232.049721 186.778775 230.189514 188.638981 
C 228.329308 190.499188 227.284108 193.022523 227.284108 195.653252 
C 227.284108 198.283982 228.329308 200.807317 230.189514 202.667524 
C 232.049721 204.52773 234.573056 205.57293 237.203785 205.57293 
z
" style="fill:#ad494a;stroke:#ffffff;"/>
   </g>
   <g id="PathCollection_15"/>
   <g id="PathCollection_16"/>
   <g id="patch_3">
    <path d="M 59.90125 334.637812 
L 59.90125 57.437813 
" style="fill:none;stroke:#000000;stroke-linecap:square;stroke-linejoin:miter;stroke-width:0.8;"/>
   </g>
   <g id="patch_4">
    <path d="M 506.30125 334.637812 
L 506.30125 57.437813 
" style="fill:none;stroke:#000000;stroke-linecap:square;stroke-linejoin:miter;stroke-width:0.8;"/>
   </g>
   <g id="patch_5">
    <path d="M 59.90125 334.637812 
L 506.30125 334.637812 
" style="fill:none;stroke:#000000;stroke-linecap:square;stroke-linejoin:miter;stroke-width:0.8;"/>
   </g>
   <g id="patch_6">
    <path d="M 59.90125 57.437813 
L 506.30125 57.437813 
" style="fill:none;stroke:#000000;stroke-linecap:square;stroke-linejoin:miter;stroke-width:0.8;"/>
   </g>
   <g id="text_19">
    <!-- Number of objects and *time to complete the survey. -->
    <defs>
     <path d="M 54.890625 33.015625 
L 54.890625 0 
L 45.90625 0 
L 45.90625 32.71875 
Q 45.90625 40.484375 42.875 44.328125 
Q 39.84375 48.1875 33.796875 48.1875 
Q 26.515625 48.1875 22.3125 43.546875 
Q 18.109375 38.921875 18.109375 30.90625 
L 18.109375 0 
L 9.078125 0 
L 9.078125 75.984375 
L 18.109375 75.984375 
L 18.109375 46.1875 
Q 21.34375 51.125 25.703125 53.5625 
Q 30.078125 56 35.796875 56 
Q 45.21875 56 50.046875 50.171875 
Q 54.890625 44.34375 54.890625 33.015625 
z
" id="DejaVuSans-104"/>
     <path d="M 10.6875 12.40625 
L 21 12.40625 
L 21 0 
L 10.6875 0 
z
" id="DejaVuSans-46"/>
    </defs>
    <g transform="translate(59.90125 42.437813)scale(0.12 -0.12)">
     <use xlink:href="#DejaVuSans-78"/>
     <use x="74.804688" xlink:href="#DejaVuSans-117"/>
     <use x="138.183594" xlink:href="#DejaVuSans-109"/>
     <use x="235.595703" xlink:href="#DejaVuSans-98"/>
     <use x="299.072266" xlink:href="#DejaVuSans-101"/>
     <use x="360.595703" xlink:href="#DejaVuSans-114"/>
     <use x="401.708984" xlink:href="#DejaVuSans-32"/>
     <use x="433.496094" xlink:href="#DejaVuSans-111"/>
     <use x="494.677734" xlink:href="#DejaVuSans-102"/>
     <use x="529.882812" xlink:href="#DejaVuSans-32"/>
     <use x="561.669922" xlink:href="#DejaVuSans-111"/>
     <use x="622.851562" xlink:href="#DejaVuSans-98"/>
     <use x="686.328125" xlink:href="#DejaVuSans-106"/>
     <use x="714.111328" xlink:href="#DejaVuSans-101"/>
     <use x="775.634766" xlink:href="#DejaVuSans-99"/>
     <use x="830.615234" xlink:href="#DejaVuSans-116"/>
     <use x="869.824219" xlink:href="#DejaVuSans-115"/>
     <use x="921.923828" xlink:href="#DejaVuSans-32"/>
     <use x="953.710938" xlink:href="#DejaVuSans-97"/>
     <use x="1014.990234" xlink:href="#DejaVuSans-110"/>
     <use x="1078.369141" xlink:href="#DejaVuSans-100"/>
     <use x="1141.845703" xlink:href="#DejaVuSans-32"/>
     <use x="1173.632812" xlink:href="#DejaVuSans-42"/>
     <use x="1223.632812" xlink:href="#DejaVuSans-116"/>
     <use x="1262.841797" xlink:href="#DejaVuSans-105"/>
     <use x="1290.625" xlink:href="#DejaVuSans-109"/>
     <use x="1388.037109" xlink:href="#DejaVuSans-101"/>
     <use x="1449.560547" xlink:href="#DejaVuSans-32"/>
     <use x="1481.347656" xlink:href="#DejaVuSans-116"/>
     <use x="1520.556641" xlink:href="#DejaVuSans-111"/>
     <use x="1581.738281" xlink:href="#DejaVuSans-32"/>
     <use x="1613.525391" xlink:href="#DejaVuSans-99"/>
     <use x="1668.505859" xlink:href="#DejaVuSans-111"/>
     <use x="1729.6875" xlink:href="#DejaVuSans-109"/>
     <use x="1827.099609" xlink:href="#DejaVuSans-112"/>
     <use x="1890.576172" xlink:href="#DejaVuSans-108"/>
     <use x="1918.359375" xlink:href="#DejaVuSans-101"/>
     <use x="1979.882812" xlink:href="#DejaVuSans-116"/>
     <use x="2019.091797" xlink:href="#DejaVuSans-101"/>
     <use x="2080.615234" xlink:href="#DejaVuSans-32"/>
     <use x="2112.402344" xlink:href="#DejaVuSans-116"/>
     <use x="2151.611328" xlink:href="#DejaVuSans-104"/>
     <use x="2214.990234" xlink:href="#DejaVuSans-101"/>
     <use x="2276.513672" xlink:href="#DejaVuSans-32"/>
     <use x="2308.300781" xlink:href="#DejaVuSans-115"/>
     <use x="2360.400391" xlink:href="#DejaVuSans-117"/>
     <use x="2423.779297" xlink:href="#DejaVuSans-114"/>
     <use x="2464.892578" xlink:href="#DejaVuSans-118"/>
     <use x="2524.072266" xlink:href="#DejaVuSans-101"/>
     <use x="2585.595703" xlink:href="#DejaVuSans-121"/>
     <use x="2644.556641" xlink:href="#DejaVuSans-46"/>
    </g>
   </g>
   <g id="legend_1">
    <g id="patch_7">
     <path d="M 531.15725 287.278438 
L 768.099438 287.278438 
Q 770.099438 287.278438 770.099438 285.278438 
L 770.099438 64.437813 
Q 770.099438 62.437813 768.099438 62.437813 
L 531.15725 62.437813 
Q 529.15725 62.437813 529.15725 64.437813 
L 529.15725 285.278438 
Q 529.15725 287.278438 531.15725 287.278438 
z
" style="fill:#ffffff;opacity:0.8;stroke:#cccccc;stroke-linejoin:miter;"/>
    </g>
    <g id="text_20">
     <!-- Locations -->
     <defs>
      <path d="M 9.8125 72.90625 
L 19.671875 72.90625 
L 19.671875 8.296875 
L 55.171875 8.296875 
L 55.171875 0 
L 9.8125 0 
z
" id="DejaVuSans-76"/>
     </defs>
     <g transform="translate(625.7885 74.03625)scale(0.1 -0.1)">
      <use xlink:href="#DejaVuSans-76"/>
      <use x="55.697266" xlink:href="#DejaVuSans-111"/>
      <use x="116.878906" xlink:href="#DejaVuSans-99"/>
      <use x="171.859375" xlink:href="#DejaVuSans-97"/>
      <use x="233.138672" xlink:href="#DejaVuSans-116"/>
      <use x="272.347656" xlink:href="#DejaVuSans-105"/>
      <use x="300.130859" xlink:href="#DejaVuSans-111"/>
      <use x="361.3125" xlink:href="#DejaVuSans-110"/>
      <use x="424.691406" xlink:href="#DejaVuSans-115"/>
     </g>
    </g>
    <g id="PathCollection_17">
     <defs>
      <path d="M 0 5 
C 1.326016 5 2.597899 4.473168 3.535534 3.535534 
C 4.473168 2.597899 5 1.326016 5 0 
C 5 -1.326016 4.473168 -2.597899 3.535534 -3.535534 
C 2.597899 -4.473168 1.326016 -5 0 -5 
C -1.326016 -5 -2.597899 -4.473168 -3.535534 -3.535534 
C -4.473168 -2.597899 -5 -1.326016 -5 0 
C -5 1.326016 -4.473168 2.597899 -3.535534 3.535534 
C -2.597899 4.473168 -1.326016 5 0 5 
z
" id="m2d6e729551" style="stroke:#ffffff;"/>
     </defs>
     <g>
      <use style="fill:#393b79;stroke:#ffffff;" x="543.15725" xlink:href="#m2d6e729551" y="86.089375"/>
     </g>
    </g>
    <g id="text_21">
     <!-- baby-plage-geneva -->
     <defs>
      <path d="M 4.890625 31.390625 
L 31.203125 31.390625 
L 31.203125 23.390625 
L 4.890625 23.390625 
z
" id="DejaVuSans-45"/>
     </defs>
     <g transform="translate(561.15725 88.714375)scale(0.1 -0.1)">
      <use xlink:href="#DejaVuSans-98"/>
      <use x="63.476562" xlink:href="#DejaVuSans-97"/>
      <use x="124.755859" xlink:href="#DejaVuSans-98"/>
      <use x="188.232422" xlink:href="#DejaVuSans-121"/>
      <use x="247.396484" xlink:href="#DejaVuSans-45"/>
      <use x="283.480469" xlink:href="#DejaVuSans-112"/>
      <use x="346.957031" xlink:href="#DejaVuSans-108"/>
      <use x="374.740234" xlink:href="#DejaVuSans-97"/>
      <use x="436.019531" xlink:href="#DejaVuSans-103"/>
      <use x="499.496094" xlink:href="#DejaVuSans-101"/>
      <use x="561.019531" xlink:href="#DejaVuSans-45"/>
      <use x="597.103516" xlink:href="#DejaVuSans-103"/>
      <use x="660.580078" xlink:href="#DejaVuSans-101"/>
      <use x="722.103516" xlink:href="#DejaVuSans-110"/>
      <use x="785.482422" xlink:href="#DejaVuSans-101"/>
      <use x="847.005859" xlink:href="#DejaVuSans-118"/>
      <use x="906.185547" xlink:href="#DejaVuSans-97"/>
     </g>
    </g>
    <g id="PathCollection_18">
     <defs>
      <path d="M 0 5 
C 1.326016 5 2.597899 4.473168 3.535534 3.535534 
C 4.473168 2.597899 5 1.326016 5 0 
C 5 -1.326016 4.473168 -2.597899 3.535534 -3.535534 
C 2.597899 -4.473168 1.326016 -5 0 -5 
C -1.326016 -5 -2.597899 -4.473168 -3.535534 -3.535534 
C -4.473168 -2.597899 -5 -1.326016 -5 0 
C -5 1.326016 -4.473168 2.597899 -3.535534 3.535534 
C -2.597899 4.473168 -1.326016 5 0 5 
z
" id="m3f3c9aaa57" style="stroke:#ffffff;"/>
     </defs>
     <g>
      <use style="fill:#5254a3;stroke:#ffffff;" x="543.15725" xlink:href="#m3f3c9aaa57" y="100.7675"/>
     </g>
    </g>
    <g id="text_22">
     <!-- bielersee_vinelz_fankhausers -->
     <defs>
      <path d="M 50.984375 -16.609375 
L 50.984375 -23.578125 
L -0.984375 -23.578125 
L -0.984375 -16.609375 
z
" id="DejaVuSans-95"/>
      <path d="M 5.515625 54.6875 
L 48.1875 54.6875 
L 48.1875 46.484375 
L 14.40625 7.171875 
L 48.1875 7.171875 
L 48.1875 0 
L 4.296875 0 
L 4.296875 8.203125 
L 38.09375 47.515625 
L 5.515625 47.515625 
z
" id="DejaVuSans-122"/>
      <path d="M 9.078125 75.984375 
L 18.109375 75.984375 
L 18.109375 31.109375 
L 44.921875 54.6875 
L 56.390625 54.6875 
L 27.390625 29.109375 
L 57.625 0 
L 45.90625 0 
L 18.109375 26.703125 
L 18.109375 0 
L 9.078125 0 
z
" id="DejaVuSans-107"/>
     </defs>
     <g transform="translate(561.15725 103.3925)scale(0.1 -0.1)">
      <use xlink:href="#DejaVuSans-98"/>
      <use x="63.476562" xlink:href="#DejaVuSans-105"/>
      <use x="91.259766" xlink:href="#DejaVuSans-101"/>
      <use x="152.783203" xlink:href="#DejaVuSans-108"/>
      <use x="180.566406" xlink:href="#DejaVuSans-101"/>
      <use x="242.089844" xlink:href="#DejaVuSans-114"/>
      <use x="283.203125" xlink:href="#DejaVuSans-115"/>
      <use x="335.302734" xlink:href="#DejaVuSans-101"/>
      <use x="396.826172" xlink:href="#DejaVuSans-101"/>
      <use x="458.349609" xlink:href="#DejaVuSans-95"/>
      <use x="508.349609" xlink:href="#DejaVuSans-118"/>
      <use x="567.529297" xlink:href="#DejaVuSans-105"/>
      <use x="595.3125" xlink:href="#DejaVuSans-110"/>
      <use x="658.691406" xlink:href="#DejaVuSans-101"/>
      <use x="720.214844" xlink:href="#DejaVuSans-108"/>
      <use x="747.998047" xlink:href="#DejaVuSans-122"/>
      <use x="800.488281" xlink:href="#DejaVuSans-95"/>
      <use x="850.488281" xlink:href="#DejaVuSans-102"/>
      <use x="885.693359" xlink:href="#DejaVuSans-97"/>
      <use x="946.972656" xlink:href="#DejaVuSans-110"/>
      <use x="1010.351562" xlink:href="#DejaVuSans-107"/>
      <use x="1068.261719" xlink:href="#DejaVuSans-104"/>
      <use x="1131.640625" xlink:href="#DejaVuSans-97"/>
      <use x="1192.919922" xlink:href="#DejaVuSans-117"/>
      <use x="1256.298828" xlink:href="#DejaVuSans-115"/>
      <use x="1308.398438" xlink:href="#DejaVuSans-101"/>
      <use x="1369.921875" xlink:href="#DejaVuSans-114"/>
      <use x="1411.035156" xlink:href="#DejaVuSans-115"/>
     </g>
    </g>
    <g id="PathCollection_19">
     <defs>
      <path d="M 0 5 
C 1.326016 5 2.597899 4.473168 3.535534 3.535534 
C 4.473168 2.597899 5 1.326016 5 0 
C 5 -1.326016 4.473168 -2.597899 3.535534 -3.535534 
C 2.597899 -4.473168 1.326016 -5 0 -5 
C -1.326016 -5 -2.597899 -4.473168 -3.535534 -3.535534 
C -4.473168 -2.597899 -5 -1.326016 -5 0 
C -5 1.326016 -4.473168 2.597899 -3.535534 3.535534 
C -2.597899 4.473168 -1.326016 5 0 5 
z
" id="m8e12d1ed9e" style="stroke:#ffffff;"/>
     </defs>
     <g>
      <use style="fill:#6b6ecf;stroke:#ffffff;" x="543.15725" xlink:href="#m8e12d1ed9e" y="115.72375"/>
     </g>
    </g>
    <g id="text_23">
     <!-- evole-plage -->
     <g transform="translate(561.15725 118.34875)scale(0.1 -0.1)">
      <use xlink:href="#DejaVuSans-101"/>
      <use x="61.523438" xlink:href="#DejaVuSans-118"/>
      <use x="120.703125" xlink:href="#DejaVuSans-111"/>
      <use x="181.884766" xlink:href="#DejaVuSans-108"/>
      <use x="209.667969" xlink:href="#DejaVuSans-101"/>
      <use x="271.191406" xlink:href="#DejaVuSans-45"/>
      <use x="307.275391" xlink:href="#DejaVuSans-112"/>
      <use x="370.751953" xlink:href="#DejaVuSans-108"/>
      <use x="398.535156" xlink:href="#DejaVuSans-97"/>
      <use x="459.814453" xlink:href="#DejaVuSans-103"/>
      <use x="523.291016" xlink:href="#DejaVuSans-101"/>
     </g>
    </g>
    <g id="PathCollection_20">
     <defs>
      <path d="M 0 5 
C 1.326016 5 2.597899 4.473168 3.535534 3.535534 
C 4.473168 2.597899 5 1.326016 5 0 
C 5 -1.326016 4.473168 -2.597899 3.535534 -3.535534 
C 2.597899 -4.473168 1.326016 -5 0 -5 
C -1.326016 -5 -2.597899 -4.473168 -3.535534 -3.535534 
C -4.473168 -2.597899 -5 -1.326016 -5 0 
C -5 1.326016 -4.473168 2.597899 -3.535534 3.535534 
C -2.597899 4.473168 -1.326016 5 0 5 
z
" id="mf0ea5d46ba" style="stroke:#ffffff;"/>
     </defs>
     <g>
      <use style="fill:#9c9ede;stroke:#ffffff;" x="543.15725" xlink:href="#mf0ea5d46ba" y="130.401875"/>
     </g>
    </g>
    <g id="text_24">
     <!-- gasi-strand -->
     <g transform="translate(561.15725 133.026875)scale(0.1 -0.1)">
      <use xlink:href="#DejaVuSans-103"/>
      <use x="63.476562" xlink:href="#DejaVuSans-97"/>
      <use x="124.755859" xlink:href="#DejaVuSans-115"/>
      <use x="176.855469" xlink:href="#DejaVuSans-105"/>
      <use x="204.638672" xlink:href="#DejaVuSans-45"/>
      <use x="240.722656" xlink:href="#DejaVuSans-115"/>
      <use x="292.822266" xlink:href="#DejaVuSans-116"/>
      <use x="332.03125" xlink:href="#DejaVuSans-114"/>
      <use x="373.144531" xlink:href="#DejaVuSans-97"/>
      <use x="434.423828" xlink:href="#DejaVuSans-110"/>
      <use x="497.802734" xlink:href="#DejaVuSans-100"/>
     </g>
    </g>
    <g id="PathCollection_21">
     <defs>
      <path d="M 0 5 
C 1.326016 5 2.597899 4.473168 3.535534 3.535534 
C 4.473168 2.597899 5 1.326016 5 0 
C 5 -1.326016 4.473168 -2.597899 3.535534 -3.535534 
C 2.597899 -4.473168 1.326016 -5 0 -5 
C -1.326016 -5 -2.597899 -4.473168 -3.535534 -3.535534 
C -4.473168 -2.597899 -5 -1.326016 -5 0 
C -5 1.326016 -4.473168 2.597899 -3.535534 3.535534 
C -2.597899 4.473168 -1.326016 5 0 5 
z
" id="m83dd734bb3" style="stroke:#ffffff;"/>
     </defs>
     <g>
      <use style="fill:#637939;stroke:#ffffff;" x="543.15725" xlink:href="#m83dd734bb3" y="145.08"/>
     </g>
    </g>
    <g id="text_25">
     <!-- mullermatte -->
     <g transform="translate(561.15725 147.705)scale(0.1 -0.1)">
      <use xlink:href="#DejaVuSans-109"/>
      <use x="97.412109" xlink:href="#DejaVuSans-117"/>
      <use x="160.791016" xlink:href="#DejaVuSans-108"/>
      <use x="188.574219" xlink:href="#DejaVuSans-108"/>
      <use x="216.357422" xlink:href="#DejaVuSans-101"/>
      <use x="277.880859" xlink:href="#DejaVuSans-114"/>
      <use x="318.978516" xlink:href="#DejaVuSans-109"/>
      <use x="416.390625" xlink:href="#DejaVuSans-97"/>
      <use x="477.669922" xlink:href="#DejaVuSans-116"/>
      <use x="516.878906" xlink:href="#DejaVuSans-116"/>
      <use x="556.087891" xlink:href="#DejaVuSans-101"/>
     </g>
    </g>
    <g id="PathCollection_22">
     <defs>
      <path d="M 0 5 
C 1.326016 5 2.597899 4.473168 3.535534 3.535534 
C 4.473168 2.597899 5 1.326016 5 0 
C 5 -1.326016 4.473168 -2.597899 3.535534 -3.535534 
C 2.597899 -4.473168 1.326016 -5 0 -5 
C -1.326016 -5 -2.597899 -4.473168 -3.535534 -3.535534 
C -4.473168 -2.597899 -5 -1.326016 -5 0 
C -5 1.326016 -4.473168 2.597899 -3.535534 3.535534 
C -2.597899 4.473168 -1.326016 5 0 5 
z
" id="mb9cfba9380" style="stroke:#ffffff;"/>
     </defs>
     <g>
      <use style="fill:#8ca252;stroke:#ffffff;" x="543.15725" xlink:href="#mb9cfba9380" y="159.758125"/>
     </g>
    </g>
    <g id="text_26">
     <!-- plage-de-cheyres -->
     <g transform="translate(561.15725 162.383125)scale(0.1 -0.1)">
      <use xlink:href="#DejaVuSans-112"/>
      <use x="63.476562" xlink:href="#DejaVuSans-108"/>
      <use x="91.259766" xlink:href="#DejaVuSans-97"/>
      <use x="152.539062" xlink:href="#DejaVuSans-103"/>
      <use x="216.015625" xlink:href="#DejaVuSans-101"/>
      <use x="277.539062" xlink:href="#DejaVuSans-45"/>
      <use x="313.623047" xlink:href="#DejaVuSans-100"/>
      <use x="377.099609" xlink:href="#DejaVuSans-101"/>
      <use x="438.623047" xlink:href="#DejaVuSans-45"/>
      <use x="474.707031" xlink:href="#DejaVuSans-99"/>
      <use x="529.6875" xlink:href="#DejaVuSans-104"/>
      <use x="593.066406" xlink:href="#DejaVuSans-101"/>
      <use x="654.589844" xlink:href="#DejaVuSans-121"/>
      <use x="713.769531" xlink:href="#DejaVuSans-114"/>
      <use x="754.851562" xlink:href="#DejaVuSans-101"/>
      <use x="816.375" xlink:href="#DejaVuSans-115"/>
     </g>
    </g>
    <g id="PathCollection_23">
     <defs>
      <path d="M 0 5 
C 1.326016 5 2.597899 4.473168 3.535534 3.535534 
C 4.473168 2.597899 5 1.326016 5 0 
C 5 -1.326016 4.473168 -2.597899 3.535534 -3.535534 
C 2.597899 -4.473168 1.326016 -5 0 -5 
C -1.326016 -5 -2.597899 -4.473168 -3.535534 -3.535534 
C -4.473168 -2.597899 -5 -1.326016 -5 0 
C -5 1.326016 -4.473168 2.597899 -3.535534 3.535534 
C -2.597899 4.473168 -1.326016 5 0 5 
z
" id="m7000c2a641" style="stroke:#ffffff;"/>
     </defs>
     <g>
      <use style="fill:#b5cf6b;stroke:#ffffff;" x="543.15725" xlink:href="#m7000c2a641" y="174.43625"/>
     </g>
    </g>
    <g id="text_27">
     <!-- quai-maria-belgia -->
     <defs>
      <path d="M 14.796875 27.296875 
Q 14.796875 17.390625 18.875 11.75 
Q 22.953125 6.109375 30.078125 6.109375 
Q 37.203125 6.109375 41.296875 11.75 
Q 45.40625 17.390625 45.40625 27.296875 
Q 45.40625 37.203125 41.296875 42.84375 
Q 37.203125 48.484375 30.078125 48.484375 
Q 22.953125 48.484375 18.875 42.84375 
Q 14.796875 37.203125 14.796875 27.296875 
z
M 45.40625 8.203125 
Q 42.578125 3.328125 38.25 0.953125 
Q 33.9375 -1.421875 27.875 -1.421875 
Q 17.96875 -1.421875 11.734375 6.484375 
Q 5.515625 14.40625 5.515625 27.296875 
Q 5.515625 40.1875 11.734375 48.09375 
Q 17.96875 56 27.875 56 
Q 33.9375 56 38.25 53.625 
Q 42.578125 51.265625 45.40625 46.390625 
L 45.40625 54.6875 
L 54.390625 54.6875 
L 54.390625 -20.796875 
L 45.40625 -20.796875 
z
" id="DejaVuSans-113"/>
     </defs>
     <g transform="translate(561.15725 177.06125)scale(0.1 -0.1)">
      <use xlink:href="#DejaVuSans-113"/>
      <use x="63.476562" xlink:href="#DejaVuSans-117"/>
      <use x="126.855469" xlink:href="#DejaVuSans-97"/>
      <use x="188.134766" xlink:href="#DejaVuSans-105"/>
      <use x="215.917969" xlink:href="#DejaVuSans-45"/>
      <use x="252.001953" xlink:href="#DejaVuSans-109"/>
      <use x="349.414062" xlink:href="#DejaVuSans-97"/>
      <use x="410.693359" xlink:href="#DejaVuSans-114"/>
      <use x="451.806641" xlink:href="#DejaVuSans-105"/>
      <use x="479.589844" xlink:href="#DejaVuSans-97"/>
      <use x="540.869141" xlink:href="#DejaVuSans-45"/>
      <use x="576.953125" xlink:href="#DejaVuSans-98"/>
      <use x="640.429688" xlink:href="#DejaVuSans-101"/>
      <use x="701.953125" xlink:href="#DejaVuSans-108"/>
      <use x="729.736328" xlink:href="#DejaVuSans-103"/>
      <use x="793.212891" xlink:href="#DejaVuSans-105"/>
      <use x="820.996094" xlink:href="#DejaVuSans-97"/>
     </g>
    </g>
    <g id="PathCollection_24">
     <defs>
      <path d="M 0 5 
C 1.326016 5 2.597899 4.473168 3.535534 3.535534 
C 4.473168 2.597899 5 1.326016 5 0 
C 5 -1.326016 4.473168 -2.597899 3.535534 -3.535534 
C 2.597899 -4.473168 1.326016 -5 0 -5 
C -1.326016 -5 -2.597899 -4.473168 -3.535534 -3.535534 
C -4.473168 -2.597899 -5 -1.326016 -5 0 
C -5 1.326016 -4.473168 2.597899 -3.535534 3.535534 
C -2.597899 4.473168 -1.326016 5 0 5 
z
" id="m45dab835e7" style="stroke:#ffffff;"/>
     </defs>
     <g>
      <use style="fill:#cedb9c;stroke:#ffffff;" x="543.15725" xlink:href="#m45dab835e7" y="189.114375"/>
     </g>
    </g>
    <g id="text_28">
     <!-- rastplatz-stampf -->
     <g transform="translate(561.15725 191.739375)scale(0.1 -0.1)">
      <use xlink:href="#DejaVuSans-114"/>
      <use x="41.113281" xlink:href="#DejaVuSans-97"/>
      <use x="102.392578" xlink:href="#DejaVuSans-115"/>
      <use x="154.492188" xlink:href="#DejaVuSans-116"/>
      <use x="193.701172" xlink:href="#DejaVuSans-112"/>
      <use x="257.177734" xlink:href="#DejaVuSans-108"/>
      <use x="284.960938" xlink:href="#DejaVuSans-97"/>
      <use x="346.240234" xlink:href="#DejaVuSans-116"/>
      <use x="385.449219" xlink:href="#DejaVuSans-122"/>
      <use x="437.939453" xlink:href="#DejaVuSans-45"/>
      <use x="474.023438" xlink:href="#DejaVuSans-115"/>
      <use x="526.123047" xlink:href="#DejaVuSans-116"/>
      <use x="565.332031" xlink:href="#DejaVuSans-97"/>
      <use x="626.611328" xlink:href="#DejaVuSans-109"/>
      <use x="724.023438" xlink:href="#DejaVuSans-112"/>
      <use x="787.5" xlink:href="#DejaVuSans-102"/>
     </g>
    </g>
    <g id="PathCollection_25">
     <defs>
      <path d="M 0 5 
C 1.326016 5 2.597899 4.473168 3.535534 3.535534 
C 4.473168 2.597899 5 1.326016 5 0 
C 5 -1.326016 4.473168 -2.597899 3.535534 -3.535534 
C 2.597899 -4.473168 1.326016 -5 0 -5 
C -1.326016 -5 -2.597899 -4.473168 -3.535534 -3.535534 
C -4.473168 -2.597899 -5 -1.326016 -5 0 
C -5 1.326016 -4.473168 2.597899 -3.535534 3.535534 
C -2.597899 4.473168 -1.326016 5 0 5 
z
" id="m22f919b32b" style="stroke:#ffffff;"/>
     </defs>
     <g>
      <use style="fill:#8c6d31;stroke:#ffffff;" x="543.15725" xlink:href="#m22f919b32b" y="203.7925"/>
     </g>
    </g>
    <g id="text_29">
     <!-- strandbeiz -->
     <g transform="translate(561.15725 206.4175)scale(0.1 -0.1)">
      <use xlink:href="#DejaVuSans-115"/>
      <use x="52.099609" xlink:href="#DejaVuSans-116"/>
      <use x="91.308594" xlink:href="#DejaVuSans-114"/>
      <use x="132.421875" xlink:href="#DejaVuSans-97"/>
      <use x="193.701172" xlink:href="#DejaVuSans-110"/>
      <use x="257.080078" xlink:href="#DejaVuSans-100"/>
      <use x="320.556641" xlink:href="#DejaVuSans-98"/>
      <use x="384.033203" xlink:href="#DejaVuSans-101"/>
      <use x="445.556641" xlink:href="#DejaVuSans-105"/>
      <use x="473.339844" xlink:href="#DejaVuSans-122"/>
     </g>
    </g>
    <g id="PathCollection_26">
     <defs>
      <path d="M 0 5 
C 1.326016 5 2.597899 4.473168 3.535534 3.535534 
C 4.473168 2.597899 5 1.326016 5 0 
C 5 -1.326016 4.473168 -2.597899 3.535534 -3.535534 
C 2.597899 -4.473168 1.326016 -5 0 -5 
C -1.326016 -5 -2.597899 -4.473168 -3.535534 -3.535534 
C -4.473168 -2.597899 -5 -1.326016 -5 0 
C -5 1.326016 -4.473168 2.597899 -3.535534 3.535534 
C -2.597899 4.473168 -1.326016 5 0 5 
z
" id="md00e78ebbc" style="stroke:#ffffff;"/>
     </defs>
     <g>
      <use style="fill:#bd9e39;stroke:#ffffff;" x="543.15725" xlink:href="#md00e78ebbc" y="218.470625"/>
     </g>
    </g>
    <g id="text_30">
     <!-- thunersee_spiez_meierd_1 -->
     <g transform="translate(561.15725 221.095625)scale(0.1 -0.1)">
      <use xlink:href="#DejaVuSans-116"/>
      <use x="39.208984" xlink:href="#DejaVuSans-104"/>
      <use x="102.587891" xlink:href="#DejaVuSans-117"/>
      <use x="165.966797" xlink:href="#DejaVuSans-110"/>
      <use x="229.345703" xlink:href="#DejaVuSans-101"/>
      <use x="290.869141" xlink:href="#DejaVuSans-114"/>
      <use x="331.982422" xlink:href="#DejaVuSans-115"/>
      <use x="384.082031" xlink:href="#DejaVuSans-101"/>
      <use x="445.605469" xlink:href="#DejaVuSans-101"/>
      <use x="507.128906" xlink:href="#DejaVuSans-95"/>
      <use x="557.128906" xlink:href="#DejaVuSans-115"/>
      <use x="609.228516" xlink:href="#DejaVuSans-112"/>
      <use x="672.705078" xlink:href="#DejaVuSans-105"/>
      <use x="700.488281" xlink:href="#DejaVuSans-101"/>
      <use x="762.011719" xlink:href="#DejaVuSans-122"/>
      <use x="814.501953" xlink:href="#DejaVuSans-95"/>
      <use x="864.501953" xlink:href="#DejaVuSans-109"/>
      <use x="961.914062" xlink:href="#DejaVuSans-101"/>
      <use x="1023.4375" xlink:href="#DejaVuSans-105"/>
      <use x="1051.220703" xlink:href="#DejaVuSans-101"/>
      <use x="1112.744141" xlink:href="#DejaVuSans-114"/>
      <use x="1153.841797" xlink:href="#DejaVuSans-100"/>
      <use x="1217.318359" xlink:href="#DejaVuSans-95"/>
      <use x="1267.318359" xlink:href="#DejaVuSans-49"/>
     </g>
    </g>
    <g id="PathCollection_27">
     <defs>
      <path d="M 0 5 
C 1.326016 5 2.597899 4.473168 3.535534 3.535534 
C 4.473168 2.597899 5 1.326016 5 0 
C 5 -1.326016 4.473168 -2.597899 3.535534 -3.535534 
C 2.597899 -4.473168 1.326016 -5 0 -5 
C -1.326016 -5 -2.597899 -4.473168 -3.535534 -3.535534 
C -4.473168 -2.597899 -5 -1.326016 -5 0 
C -5 1.326016 -4.473168 2.597899 -3.535534 3.535534 
C -2.597899 4.473168 -1.326016 5 0 5 
z
" id="m3044016a2b" style="stroke:#ffffff;"/>
     </defs>
     <g>
      <use style="fill:#e7ba52;stroke:#ffffff;" x="543.15725" xlink:href="#m3044016a2b" y="233.426875"/>
     </g>
    </g>
    <g id="text_31">
     <!-- walensee_walenstadt_wysse -->
     <defs>
      <path d="M 4.203125 54.6875 
L 13.1875 54.6875 
L 24.421875 12.015625 
L 35.59375 54.6875 
L 46.1875 54.6875 
L 57.421875 12.015625 
L 68.609375 54.6875 
L 77.59375 54.6875 
L 63.28125 0 
L 52.6875 0 
L 40.921875 44.828125 
L 29.109375 0 
L 18.5 0 
z
" id="DejaVuSans-119"/>
     </defs>
     <g transform="translate(561.15725 236.051875)scale(0.1 -0.1)">
      <use xlink:href="#DejaVuSans-119"/>
      <use x="81.787109" xlink:href="#DejaVuSans-97"/>
      <use x="143.066406" xlink:href="#DejaVuSans-108"/>
      <use x="170.849609" xlink:href="#DejaVuSans-101"/>
      <use x="232.373047" xlink:href="#DejaVuSans-110"/>
      <use x="295.751953" xlink:href="#DejaVuSans-115"/>
      <use x="347.851562" xlink:href="#DejaVuSans-101"/>
      <use x="409.375" xlink:href="#DejaVuSans-101"/>
      <use x="470.898438" xlink:href="#DejaVuSans-95"/>
      <use x="520.898438" xlink:href="#DejaVuSans-119"/>
      <use x="602.685547" xlink:href="#DejaVuSans-97"/>
      <use x="663.964844" xlink:href="#DejaVuSans-108"/>
      <use x="691.748047" xlink:href="#DejaVuSans-101"/>
      <use x="753.271484" xlink:href="#DejaVuSans-110"/>
      <use x="816.650391" xlink:href="#DejaVuSans-115"/>
      <use x="868.75" xlink:href="#DejaVuSans-116"/>
      <use x="907.958984" xlink:href="#DejaVuSans-97"/>
      <use x="969.238281" xlink:href="#DejaVuSans-100"/>
      <use x="1032.714844" xlink:href="#DejaVuSans-116"/>
      <use x="1071.923828" xlink:href="#DejaVuSans-95"/>
      <use x="1121.923828" xlink:href="#DejaVuSans-119"/>
      <use x="1203.710938" xlink:href="#DejaVuSans-121"/>
      <use x="1262.890625" xlink:href="#DejaVuSans-115"/>
      <use x="1314.990234" xlink:href="#DejaVuSans-115"/>
      <use x="1367.089844" xlink:href="#DejaVuSans-101"/>
     </g>
    </g>
    <g id="PathCollection_28">
     <defs>
      <path d="M 0 5 
C 1.326016 5 2.597899 4.473168 3.535534 3.535534 
C 4.473168 2.597899 5 1.326016 5 0 
C 5 -1.326016 4.473168 -2.597899 3.535534 -3.535534 
C 2.597899 -4.473168 1.326016 -5 0 -5 
C -1.326016 -5 -2.597899 -4.473168 -3.535534 -3.535534 
C -4.473168 -2.597899 -5 -1.326016 -5 0 
C -5 1.326016 -4.473168 2.597899 -3.535534 3.535534 
C -2.597899 4.473168 -1.326016 5 0 5 
z
" id="m8630d2e7a2" style="stroke:#ffffff;"/>
     </defs>
     <g>
      <use style="fill:#e7cb94;stroke:#ffffff;" x="543.15725" xlink:href="#m8630d2e7a2" y="248.383125"/>
     </g>
    </g>
    <g id="text_32">
     <!-- zuerichsee_richterswil_benkoem_2 -->
     <g transform="translate(561.15725 251.008125)scale(0.1 -0.1)">
      <use xlink:href="#DejaVuSans-122"/>
      <use x="52.490234" xlink:href="#DejaVuSans-117"/>
      <use x="115.869141" xlink:href="#DejaVuSans-101"/>
      <use x="177.392578" xlink:href="#DejaVuSans-114"/>
      <use x="218.505859" xlink:href="#DejaVuSans-105"/>
      <use x="246.289062" xlink:href="#DejaVuSans-99"/>
      <use x="301.269531" xlink:href="#DejaVuSans-104"/>
      <use x="364.648438" xlink:href="#DejaVuSans-115"/>
      <use x="416.748047" xlink:href="#DejaVuSans-101"/>
      <use x="478.271484" xlink:href="#DejaVuSans-101"/>
      <use x="539.794922" xlink:href="#DejaVuSans-95"/>
      <use x="589.794922" xlink:href="#DejaVuSans-114"/>
      <use x="630.908203" xlink:href="#DejaVuSans-105"/>
      <use x="658.691406" xlink:href="#DejaVuSans-99"/>
      <use x="713.671875" xlink:href="#DejaVuSans-104"/>
      <use x="777.050781" xlink:href="#DejaVuSans-116"/>
      <use x="816.259766" xlink:href="#DejaVuSans-101"/>
      <use x="877.783203" xlink:href="#DejaVuSans-114"/>
      <use x="918.896484" xlink:href="#DejaVuSans-115"/>
      <use x="970.996094" xlink:href="#DejaVuSans-119"/>
      <use x="1052.783203" xlink:href="#DejaVuSans-105"/>
      <use x="1080.566406" xlink:href="#DejaVuSans-108"/>
      <use x="1108.349609" xlink:href="#DejaVuSans-95"/>
      <use x="1158.349609" xlink:href="#DejaVuSans-98"/>
      <use x="1221.826172" xlink:href="#DejaVuSans-101"/>
      <use x="1283.349609" xlink:href="#DejaVuSans-110"/>
      <use x="1346.728516" xlink:href="#DejaVuSans-107"/>
      <use x="1404.591797" xlink:href="#DejaVuSans-111"/>
      <use x="1465.773438" xlink:href="#DejaVuSans-101"/>
      <use x="1527.296875" xlink:href="#DejaVuSans-109"/>
      <use x="1624.708984" xlink:href="#DejaVuSans-95"/>
      <use x="1674.708984" xlink:href="#DejaVuSans-50"/>
     </g>
    </g>
    <g id="PathCollection_29">
     <defs>
      <path d="M 0 5 
C 1.326016 5 2.597899 4.473168 3.535534 3.535534 
C 4.473168 2.597899 5 1.326016 5 0 
C 5 -1.326016 4.473168 -2.597899 3.535534 -3.535534 
C 2.597899 -4.473168 1.326016 -5 0 -5 
C -1.326016 -5 -2.597899 -4.473168 -3.535534 -3.535534 
C -4.473168 -2.597899 -5 -1.326016 -5 0 
C -5 1.326016 -4.473168 2.597899 -3.535534 3.535534 
C -2.597899 4.473168 -1.326016 5 0 5 
z
" id="mabc6141413" style="stroke:#ffffff;"/>
     </defs>
     <g>
      <use style="fill:#843c39;stroke:#ffffff;" x="543.15725" xlink:href="#mabc6141413" y="263.339375"/>
     </g>
    </g>
    <g id="text_33">
     <!-- zurichsee_kusnachterhorn_thirkell-whitej -->
     <g transform="translate(561.15725 265.964375)scale(0.1 -0.1)">
      <use xlink:href="#DejaVuSans-122"/>
      <use x="52.490234" xlink:href="#DejaVuSans-117"/>
      <use x="115.869141" xlink:href="#DejaVuSans-114"/>
      <use x="156.982422" xlink:href="#DejaVuSans-105"/>
      <use x="184.765625" xlink:href="#DejaVuSans-99"/>
      <use x="239.746094" xlink:href="#DejaVuSans-104"/>
      <use x="303.125" xlink:href="#DejaVuSans-115"/>
      <use x="355.224609" xlink:href="#DejaVuSans-101"/>
      <use x="416.748047" xlink:href="#DejaVuSans-101"/>
      <use x="478.271484" xlink:href="#DejaVuSans-95"/>
      <use x="528.271484" xlink:href="#DejaVuSans-107"/>
      <use x="586.134766" xlink:href="#DejaVuSans-117"/>
      <use x="649.513672" xlink:href="#DejaVuSans-115"/>
      <use x="701.613281" xlink:href="#DejaVuSans-110"/>
      <use x="764.992188" xlink:href="#DejaVuSans-97"/>
      <use x="826.271484" xlink:href="#DejaVuSans-99"/>
      <use x="881.251953" xlink:href="#DejaVuSans-104"/>
      <use x="944.630859" xlink:href="#DejaVuSans-116"/>
      <use x="983.839844" xlink:href="#DejaVuSans-101"/>
      <use x="1045.363281" xlink:href="#DejaVuSans-114"/>
      <use x="1086.460938" xlink:href="#DejaVuSans-104"/>
      <use x="1149.839844" xlink:href="#DejaVuSans-111"/>
      <use x="1211.021484" xlink:href="#DejaVuSans-114"/>
      <use x="1252.119141" xlink:href="#DejaVuSans-110"/>
      <use x="1315.498047" xlink:href="#DejaVuSans-95"/>
      <use x="1365.498047" xlink:href="#DejaVuSans-116"/>
      <use x="1404.707031" xlink:href="#DejaVuSans-104"/>
      <use x="1468.085938" xlink:href="#DejaVuSans-105"/>
      <use x="1495.869141" xlink:href="#DejaVuSans-114"/>
      <use x="1536.982422" xlink:href="#DejaVuSans-107"/>
      <use x="1594.845703" xlink:href="#DejaVuSans-101"/>
      <use x="1656.369141" xlink:href="#DejaVuSans-108"/>
      <use x="1684.152344" xlink:href="#DejaVuSans-108"/>
      <use x="1711.935547" xlink:href="#DejaVuSans-45"/>
      <use x="1748.019531" xlink:href="#DejaVuSans-119"/>
      <use x="1829.806641" xlink:href="#DejaVuSans-104"/>
      <use x="1893.185547" xlink:href="#DejaVuSans-105"/>
      <use x="1920.96875" xlink:href="#DejaVuSans-116"/>
      <use x="1960.177734" xlink:href="#DejaVuSans-101"/>
      <use x="2021.701172" xlink:href="#DejaVuSans-106"/>
     </g>
    </g>
    <g id="PathCollection_30">
     <defs>
      <path d="M 0 5 
C 1.326016 5 2.597899 4.473168 3.535534 3.535534 
C 4.473168 2.597899 5 1.326016 5 0 
C 5 -1.326016 4.473168 -2.597899 3.535534 -3.535534 
C 2.597899 -4.473168 1.326016 -5 0 -5 
C -1.326016 -5 -2.597899 -4.473168 -3.535534 -3.535534 
C -4.473168 -2.597899 -5 -1.326016 -5 0 
C -5 1.326016 -4.473168 2.597899 -3.535534 3.535534 
C -2.597899 4.473168 -1.326016 5 0 5 
z
" id="m5eeb1b84f8" style="stroke:#ffffff;"/>
     </defs>
     <g>
      <use style="fill:#ad494a;stroke:#ffffff;" x="543.15725" xlink:href="#m5eeb1b84f8" y="278.295625"/>
     </g>
    </g>
    <g id="text_34">
     <!-- zurichsee_wollishofen_langendorfm -->
     <g transform="translate(561.15725 280.920625)scale(0.1 -0.1)">
      <use xlink:href="#DejaVuSans-122"/>
      <use x="52.490234" xlink:href="#DejaVuSans-117"/>
      <use x="115.869141" xlink:href="#DejaVuSans-114"/>
      <use x="156.982422" xlink:href="#DejaVuSans-105"/>
      <use x="184.765625" xlink:href="#DejaVuSans-99"/>
      <use x="239.746094" xlink:href="#DejaVuSans-104"/>
      <use x="303.125" xlink:href="#DejaVuSans-115"/>
      <use x="355.224609" xlink:href="#DejaVuSans-101"/>
      <use x="416.748047" xlink:href="#DejaVuSans-101"/>
      <use x="478.271484" xlink:href="#DejaVuSans-95"/>
      <use x="528.271484" xlink:href="#DejaVuSans-119"/>
      <use x="610.058594" xlink:href="#DejaVuSans-111"/>
      <use x="671.240234" xlink:href="#DejaVuSans-108"/>
      <use x="699.023438" xlink:href="#DejaVuSans-108"/>
      <use x="726.806641" xlink:href="#DejaVuSans-105"/>
      <use x="754.589844" xlink:href="#DejaVuSans-115"/>
      <use x="806.689453" xlink:href="#DejaVuSans-104"/>
      <use x="870.068359" xlink:href="#DejaVuSans-111"/>
      <use x="931.25" xlink:href="#DejaVuSans-102"/>
      <use x="966.455078" xlink:href="#DejaVuSans-101"/>
      <use x="1027.978516" xlink:href="#DejaVuSans-110"/>
      <use x="1091.357422" xlink:href="#DejaVuSans-95"/>
      <use x="1141.357422" xlink:href="#DejaVuSans-108"/>
      <use x="1169.140625" xlink:href="#DejaVuSans-97"/>
      <use x="1230.419922" xlink:href="#DejaVuSans-110"/>
      <use x="1293.798828" xlink:href="#DejaVuSans-103"/>
      <use x="1357.275391" xlink:href="#DejaVuSans-101"/>
      <use x="1418.798828" xlink:href="#DejaVuSans-110"/>
      <use x="1482.177734" xlink:href="#DejaVuSans-100"/>
      <use x="1545.654297" xlink:href="#DejaVuSans-111"/>
      <use x="1606.835938" xlink:href="#DejaVuSans-114"/>
      <use x="1647.949219" xlink:href="#DejaVuSans-102"/>
      <use x="1683.154297" xlink:href="#DejaVuSans-109"/>
     </g>
    </g>
   </g>
   <g id="legend_2">
    <g id="patch_8">
     <path d="M 373.329375 329.637812 
L 499.30125 329.637812 
Q 501.30125 329.637812 501.30125 327.637812 
L 501.30125 212.603437 
Q 501.30125 210.603437 499.30125 210.603437 
L 373.329375 210.603437 
Q 371.329375 210.603437 371.329375 212.603437 
L 371.329375 327.637812 
Q 371.329375 329.637812 373.329375 329.637812 
z
" style="fill:#ffffff;opacity:0.8;stroke:#cccccc;stroke-linejoin:miter;"/>
    </g>
    <g id="text_35">
     <!-- Pieces per meter -->
     <defs>
      <path d="M 19.671875 64.796875 
L 19.671875 37.40625 
L 32.078125 37.40625 
Q 38.96875 37.40625 42.71875 40.96875 
Q 46.484375 44.53125 46.484375 51.125 
Q 46.484375 57.671875 42.71875 61.234375 
Q 38.96875 64.796875 32.078125 64.796875 
z
M 9.8125 72.90625 
L 32.078125 72.90625 
Q 44.34375 72.90625 50.609375 67.359375 
Q 56.890625 61.8125 56.890625 51.125 
Q 56.890625 40.328125 50.609375 34.8125 
Q 44.34375 29.296875 32.078125 29.296875 
L 19.671875 29.296875 
L 19.671875 0 
L 9.8125 0 
z
" id="DejaVuSans-80"/>
     </defs>
     <g transform="translate(393.8825 238.201875)scale(0.1 -0.1)">
      <use xlink:href="#DejaVuSans-80"/>
      <use x="60.271484" xlink:href="#DejaVuSans-105"/>
      <use x="88.054688" xlink:href="#DejaVuSans-101"/>
      <use x="149.578125" xlink:href="#DejaVuSans-99"/>
      <use x="204.558594" xlink:href="#DejaVuSans-101"/>
      <use x="266.082031" xlink:href="#DejaVuSans-115"/>
      <use x="318.181641" xlink:href="#DejaVuSans-32"/>
      <use x="349.96875" xlink:href="#DejaVuSans-112"/>
      <use x="413.445312" xlink:href="#DejaVuSans-101"/>
      <use x="474.96875" xlink:href="#DejaVuSans-114"/>
      <use x="516.082031" xlink:href="#DejaVuSans-32"/>
      <use x="547.869141" xlink:href="#DejaVuSans-109"/>
      <use x="645.28125" xlink:href="#DejaVuSans-101"/>
      <use x="706.804688" xlink:href="#DejaVuSans-116"/>
      <use x="746.013672" xlink:href="#DejaVuSans-101"/>
      <use x="807.537109" xlink:href="#DejaVuSans-114"/>
     </g>
    </g>
    <g id="PathCollection_31">
     <defs>
      <path d="M 0 4.242641 
C 1.125161 4.242641 2.204391 3.795609 3 3 
C 3.795609 2.204391 4.242641 1.125161 4.242641 0 
C 4.242641 -1.125161 3.795609 -2.204391 3 -3 
C 2.204391 -3.795609 1.125161 -4.242641 0 -4.242641 
C -1.125161 -4.242641 -2.204391 -3.795609 -3 -3 
C -3.795609 -2.204391 -4.242641 -1.125161 -4.242641 0 
C -4.242641 1.125161 -3.795609 2.204391 -3 3 
C -2.204391 3.795609 -1.125161 4.242641 0 4.242641 
z
" id="m310c8f24fe" style="stroke:#0000ff;stroke-opacity:0.6;"/>
     </defs>
     <g>
      <use style="fill:#0000ff;fill-opacity:0.6;stroke:#0000ff;stroke-opacity:0.6;" x="401.329375" xlink:href="#m310c8f24fe" y="270.255"/>
     </g>
    </g>
    <g id="text_36">
     <!--  0.6pcs/m -->
     <defs>
      <path d="M 25.390625 72.90625 
L 33.6875 72.90625 
L 8.296875 -9.28125 
L 0 -9.28125 
z
" id="DejaVuSans-47"/>
     </defs>
     <g transform="translate(419.329375 272.88)scale(0.1 -0.1)">
      <use xlink:href="#DejaVuSans-32"/>
      <use x="31.787109" xlink:href="#DejaVuSans-48"/>
      <use x="95.410156" xlink:href="#DejaVuSans-46"/>
      <use x="127.197266" xlink:href="#DejaVuSans-54"/>
      <use x="190.820312" xlink:href="#DejaVuSans-112"/>
      <use x="254.296875" xlink:href="#DejaVuSans-99"/>
      <use x="309.277344" xlink:href="#DejaVuSans-115"/>
      <use x="361.376953" xlink:href="#DejaVuSans-47"/>
      <use x="395.068359" xlink:href="#DejaVuSans-109"/>
     </g>
    </g>
    <g id="PathCollection_32">
     <defs>
      <path d="M 0 17.722867 
C 4.700159 17.722867 9.208445 15.855474 12.531959 12.531959 
C 15.855474 9.208445 17.722867 4.700159 17.722867 0 
C 17.722867 -4.700159 15.855474 -9.208445 12.531959 -12.531959 
C 9.208445 -15.855474 4.700159 -17.722867 0 -17.722867 
C -4.700159 -17.722867 -9.208445 -15.855474 -12.531959 -12.531959 
C -15.855474 -9.208445 -17.722867 -4.700159 -17.722867 0 
C -17.722867 4.700159 -15.855474 9.208445 -12.531959 12.531959 
C -9.208445 15.855474 -4.700159 17.722867 0 17.722867 
z
" id="m56ac31f5aa" style="stroke:#0000ff;stroke-opacity:0.6;"/>
     </defs>
     <g>
      <use style="fill:#0000ff;fill-opacity:0.6;stroke:#0000ff;stroke-opacity:0.6;" x="401.329375" xlink:href="#m56ac31f5aa" y="304.933125"/>
     </g>
    </g>
    <g id="text_37">
     <!--  10.47pcs/m -->
     <defs>
      <path d="M 8.203125 72.90625 
L 55.078125 72.90625 
L 55.078125 68.703125 
L 28.609375 0 
L 18.3125 0 
L 43.21875 64.59375 
L 8.203125 64.59375 
z
" id="DejaVuSans-55"/>
     </defs>
     <g transform="translate(419.329375 307.558125)scale(0.1 -0.1)">
      <use xlink:href="#DejaVuSans-32"/>
      <use x="31.787109" xlink:href="#DejaVuSans-49"/>
      <use x="95.410156" xlink:href="#DejaVuSans-48"/>
      <use x="159.033203" xlink:href="#DejaVuSans-46"/>
      <use x="190.820312" xlink:href="#DejaVuSans-52"/>
      <use x="254.443359" xlink:href="#DejaVuSans-55"/>
      <use x="318.066406" xlink:href="#DejaVuSans-112"/>
      <use x="381.542969" xlink:href="#DejaVuSans-99"/>
      <use x="436.523438" xlink:href="#DejaVuSans-115"/>
      <use x="488.623047" xlink:href="#DejaVuSans-47"/>
      <use x="522.314453" xlink:href="#DejaVuSans-109"/>
     </g>
    </g>
   </g>
  </g>
  <g id="text_38">
   <!-- All locations and all surveys Jan-2020 to May-2020 -->
   <defs>
    <path d="M 34.1875 63.1875 
L 20.796875 26.90625 
L 47.609375 26.90625 
z
M 28.609375 72.90625 
L 39.796875 72.90625 
L 67.578125 0 
L 57.328125 0 
L 50.6875 18.703125 
L 17.828125 18.703125 
L 11.1875 0 
L 0.78125 0 
z
" id="DejaVuSans-65"/>
    <path d="M 9.8125 72.90625 
L 19.671875 72.90625 
L 19.671875 5.078125 
Q 19.671875 -8.109375 14.671875 -14.0625 
Q 9.671875 -20.015625 -1.421875 -20.015625 
L -5.171875 -20.015625 
L -5.171875 -11.71875 
L -2.09375 -11.71875 
Q 4.4375 -11.71875 7.125 -8.046875 
Q 9.8125 -4.390625 9.8125 5.078125 
z
" id="DejaVuSans-74"/>
    <path d="M 9.8125 72.90625 
L 24.515625 72.90625 
L 43.109375 23.296875 
L 61.8125 72.90625 
L 76.515625 72.90625 
L 76.515625 0 
L 66.890625 0 
L 66.890625 64.015625 
L 48.09375 14.015625 
L 38.1875 14.015625 
L 19.390625 64.015625 
L 19.390625 0 
L 9.8125 0 
z
" id="DejaVuSans-77"/>
   </defs>
   <g transform="translate(62.78125 17.837812)scale(0.14 -0.14)">
    <use xlink:href="#DejaVuSans-65"/>
    <use x="68.408203" xlink:href="#DejaVuSans-108"/>
    <use x="96.191406" xlink:href="#DejaVuSans-108"/>
    <use x="123.974609" xlink:href="#DejaVuSans-32"/>
    <use x="155.761719" xlink:href="#DejaVuSans-108"/>
    <use x="183.544922" xlink:href="#DejaVuSans-111"/>
    <use x="244.726562" xlink:href="#DejaVuSans-99"/>
    <use x="299.707031" xlink:href="#DejaVuSans-97"/>
    <use x="360.986328" xlink:href="#DejaVuSans-116"/>
    <use x="400.195312" xlink:href="#DejaVuSans-105"/>
    <use x="427.978516" xlink:href="#DejaVuSans-111"/>
    <use x="489.160156" xlink:href="#DejaVuSans-110"/>
    <use x="552.539062" xlink:href="#DejaVuSans-115"/>
    <use x="604.638672" xlink:href="#DejaVuSans-32"/>
    <use x="636.425781" xlink:href="#DejaVuSans-97"/>
    <use x="697.705078" xlink:href="#DejaVuSans-110"/>
    <use x="761.083984" xlink:href="#DejaVuSans-100"/>
    <use x="824.560547" xlink:href="#DejaVuSans-32"/>
    <use x="856.347656" xlink:href="#DejaVuSans-97"/>
    <use x="917.626953" xlink:href="#DejaVuSans-108"/>
    <use x="945.410156" xlink:href="#DejaVuSans-108"/>
    <use x="973.193359" xlink:href="#DejaVuSans-32"/>
    <use x="1004.980469" xlink:href="#DejaVuSans-115"/>
    <use x="1057.080078" xlink:href="#DejaVuSans-117"/>
    <use x="1120.458984" xlink:href="#DejaVuSans-114"/>
    <use x="1161.572266" xlink:href="#DejaVuSans-118"/>
    <use x="1220.751953" xlink:href="#DejaVuSans-101"/>
    <use x="1282.275391" xlink:href="#DejaVuSans-121"/>
    <use x="1341.455078" xlink:href="#DejaVuSans-115"/>
    <use x="1393.554688" xlink:href="#DejaVuSans-32"/>
    <use x="1425.341797" xlink:href="#DejaVuSans-74"/>
    <use x="1454.833984" xlink:href="#DejaVuSans-97"/>
    <use x="1516.113281" xlink:href="#DejaVuSans-110"/>
    <use x="1579.492188" xlink:href="#DejaVuSans-45"/>
    <use x="1615.576172" xlink:href="#DejaVuSans-50"/>
    <use x="1679.199219" xlink:href="#DejaVuSans-48"/>
    <use x="1742.822266" xlink:href="#DejaVuSans-50"/>
    <use x="1806.445312" xlink:href="#DejaVuSans-48"/>
    <use x="1870.068359" xlink:href="#DejaVuSans-32"/>
    <use x="1901.855469" xlink:href="#DejaVuSans-116"/>
    <use x="1941.064453" xlink:href="#DejaVuSans-111"/>
    <use x="2002.246094" xlink:href="#DejaVuSans-32"/>
    <use x="2034.033203" xlink:href="#DejaVuSans-77"/>
    <use x="2120.3125" xlink:href="#DejaVuSans-97"/>
    <use x="2181.591797" xlink:href="#DejaVuSans-121"/>
    <use x="2240.755859" xlink:href="#DejaVuSans-45"/>
    <use x="2276.839844" xlink:href="#DejaVuSans-50"/>
    <use x="2340.462891" xlink:href="#DejaVuSans-48"/>
    <use x="2404.085938" xlink:href="#DejaVuSans-50"/>
    <use x="2467.708984" xlink:href="#DejaVuSans-48"/>
   </g>
  </g>
 </g>
 <defs>
  <clipPath id="pfc282d9e77">
   <rect height="277.2" width="446.4" x="59.90125" y="57.437813"/>
  </clipPath>
 </defs>
</svg>
