<?xml version="1.0" encoding="utf-8" standalone="no"?>
<!DOCTYPE svg PUBLIC "-//W3C//DTD SVG 1.1//EN"
  "http://www.w3.org/Graphics/SVG/1.1/DTD/svg11.dtd">
<!-- Created with matplotlib (https://matplotlib.org/) -->
<svg height="383.61pt" version="1.1" viewBox="0 0 507.13875 383.61" width="507.13875pt" xmlns="http://www.w3.org/2000/svg" xmlns:xlink="http://www.w3.org/1999/xlink">
 <defs>
  <style type="text/css">
*{stroke-linecap:butt;stroke-linejoin:round;}
  </style>
 </defs>
 <g id="figure_1">
  <g id="patch_1">
   <path d="M 0 383.61 
L 507.13875 383.61 
L 507.13875 0 
L 0 0 
z
" style="fill:#ffffff;"/>
  </g>
  <g id="axes_1">
   <g id="patch_2">
    <path d="M 53.53875 333.118125 
L 499.93875 333.118125 
L 499.93875 55.918125 
L 53.53875 55.918125 
z
" style="fill:#ffffff;"/>
   </g>
   <g id="matplotlib.axis_1">
    <g id="xtick_1">
     <g id="line2d_1">
      <path clip-path="url(#p2780961a43)" d="M 119.792626 333.118125 
L 119.792626 55.918125 
" style="fill:none;stroke:#b0b0b0;stroke-linecap:square;stroke-width:0.8;"/>
     </g>
     <g id="line2d_2">
      <defs>
       <path d="M 0 0 
L 0 3.5 
" id="m89f4d774e4" style="stroke:#000000;stroke-width:0.8;"/>
      </defs>
      <g>
       <use style="stroke:#000000;stroke-width:0.8;" x="119.792626" xlink:href="#m89f4d774e4" y="333.118125"/>
      </g>
     </g>
     <g id="text_1">
      <!-- 50 -->
      <defs>
       <path d="M 10.796875 72.90625 
L 49.515625 72.90625 
L 49.515625 64.59375 
L 19.828125 64.59375 
L 19.828125 46.734375 
Q 21.96875 47.46875 24.109375 47.828125 
Q 26.265625 48.1875 28.421875 48.1875 
Q 40.625 48.1875 47.75 41.5 
Q 54.890625 34.8125 54.890625 23.390625 
Q 54.890625 11.625 47.5625 5.09375 
Q 40.234375 -1.421875 26.90625 -1.421875 
Q 22.3125 -1.421875 17.546875 -0.640625 
Q 12.796875 0.140625 7.71875 1.703125 
L 7.71875 11.625 
Q 12.109375 9.234375 16.796875 8.0625 
Q 21.484375 6.890625 26.703125 6.890625 
Q 35.15625 6.890625 40.078125 11.328125 
Q 45.015625 15.765625 45.015625 23.390625 
Q 45.015625 31 40.078125 35.4375 
Q 35.15625 39.890625 26.703125 39.890625 
Q 22.75 39.890625 18.8125 39.015625 
Q 14.890625 38.140625 10.796875 36.28125 
z
" id="DejaVuSans-53"/>
       <path d="M 31.78125 66.40625 
Q 24.171875 66.40625 20.328125 58.90625 
Q 16.5 51.421875 16.5 36.375 
Q 16.5 21.390625 20.328125 13.890625 
Q 24.171875 6.390625 31.78125 6.390625 
Q 39.453125 6.390625 43.28125 13.890625 
Q 47.125 21.390625 47.125 36.375 
Q 47.125 51.421875 43.28125 58.90625 
Q 39.453125 66.40625 31.78125 66.40625 
z
M 31.78125 74.21875 
Q 44.046875 74.21875 50.515625 64.515625 
Q 56.984375 54.828125 56.984375 36.375 
Q 56.984375 17.96875 50.515625 8.265625 
Q 44.046875 -1.421875 31.78125 -1.421875 
Q 19.53125 -1.421875 13.0625 8.265625 
Q 6.59375 17.96875 6.59375 36.375 
Q 6.59375 54.828125 13.0625 64.515625 
Q 19.53125 74.21875 31.78125 74.21875 
z
" id="DejaVuSans-48"/>
      </defs>
      <g transform="translate(113.430126 347.716562)scale(0.1 -0.1)">
       <use xlink:href="#DejaVuSans-53"/>
       <use x="63.623047" xlink:href="#DejaVuSans-48"/>
      </g>
     </g>
    </g>
    <g id="xtick_2">
     <g id="line2d_3">
      <path clip-path="url(#p2780961a43)" d="M 205.570396 333.118125 
L 205.570396 55.918125 
" style="fill:none;stroke:#b0b0b0;stroke-linecap:square;stroke-width:0.8;"/>
     </g>
     <g id="line2d_4">
      <g>
       <use style="stroke:#000000;stroke-width:0.8;" x="205.570396" xlink:href="#m89f4d774e4" y="333.118125"/>
      </g>
     </g>
     <g id="text_2">
      <!-- 100 -->
      <defs>
       <path d="M 12.40625 8.296875 
L 28.515625 8.296875 
L 28.515625 63.921875 
L 10.984375 60.40625 
L 10.984375 69.390625 
L 28.421875 72.90625 
L 38.28125 72.90625 
L 38.28125 8.296875 
L 54.390625 8.296875 
L 54.390625 0 
L 12.40625 0 
z
" id="DejaVuSans-49"/>
      </defs>
      <g transform="translate(196.026646 347.716562)scale(0.1 -0.1)">
       <use xlink:href="#DejaVuSans-49"/>
       <use x="63.623047" xlink:href="#DejaVuSans-48"/>
       <use x="127.246094" xlink:href="#DejaVuSans-48"/>
      </g>
     </g>
    </g>
    <g id="xtick_3">
     <g id="line2d_5">
      <path clip-path="url(#p2780961a43)" d="M 291.348166 333.118125 
L 291.348166 55.918125 
" style="fill:none;stroke:#b0b0b0;stroke-linecap:square;stroke-width:0.8;"/>
     </g>
     <g id="line2d_6">
      <g>
       <use style="stroke:#000000;stroke-width:0.8;" x="291.348166" xlink:href="#m89f4d774e4" y="333.118125"/>
      </g>
     </g>
     <g id="text_3">
      <!-- 150 -->
      <g transform="translate(281.804416 347.716562)scale(0.1 -0.1)">
       <use xlink:href="#DejaVuSans-49"/>
       <use x="63.623047" xlink:href="#DejaVuSans-53"/>
       <use x="127.246094" xlink:href="#DejaVuSans-48"/>
      </g>
     </g>
    </g>
    <g id="xtick_4">
     <g id="line2d_7">
      <path clip-path="url(#p2780961a43)" d="M 377.125936 333.118125 
L 377.125936 55.918125 
" style="fill:none;stroke:#b0b0b0;stroke-linecap:square;stroke-width:0.8;"/>
     </g>
     <g id="line2d_8">
      <g>
       <use style="stroke:#000000;stroke-width:0.8;" x="377.125936" xlink:href="#m89f4d774e4" y="333.118125"/>
      </g>
     </g>
     <g id="text_4">
      <!-- 200 -->
      <defs>
       <path d="M 19.1875 8.296875 
L 53.609375 8.296875 
L 53.609375 0 
L 7.328125 0 
L 7.328125 8.296875 
Q 12.9375 14.109375 22.625 23.890625 
Q 32.328125 33.6875 34.8125 36.53125 
Q 39.546875 41.84375 41.421875 45.53125 
Q 43.3125 49.21875 43.3125 52.78125 
Q 43.3125 58.59375 39.234375 62.25 
Q 35.15625 65.921875 28.609375 65.921875 
Q 23.96875 65.921875 18.8125 64.3125 
Q 13.671875 62.703125 7.8125 59.421875 
L 7.8125 69.390625 
Q 13.765625 71.78125 18.9375 73 
Q 24.125 74.21875 28.421875 74.21875 
Q 39.75 74.21875 46.484375 68.546875 
Q 53.21875 62.890625 53.21875 53.421875 
Q 53.21875 48.921875 51.53125 44.890625 
Q 49.859375 40.875 45.40625 35.40625 
Q 44.1875 33.984375 37.640625 27.21875 
Q 31.109375 20.453125 19.1875 8.296875 
z
" id="DejaVuSans-50"/>
      </defs>
      <g transform="translate(367.582186 347.716562)scale(0.1 -0.1)">
       <use xlink:href="#DejaVuSans-50"/>
       <use x="63.623047" xlink:href="#DejaVuSans-48"/>
       <use x="127.246094" xlink:href="#DejaVuSans-48"/>
      </g>
     </g>
    </g>
    <g id="xtick_5">
     <g id="line2d_9">
      <path clip-path="url(#p2780961a43)" d="M 462.903706 333.118125 
L 462.903706 55.918125 
" style="fill:none;stroke:#b0b0b0;stroke-linecap:square;stroke-width:0.8;"/>
     </g>
     <g id="line2d_10">
      <g>
       <use style="stroke:#000000;stroke-width:0.8;" x="462.903706" xlink:href="#m89f4d774e4" y="333.118125"/>
      </g>
     </g>
     <g id="text_5">
      <!-- 250 -->
      <g transform="translate(453.359956 347.716562)scale(0.1 -0.1)">
       <use xlink:href="#DejaVuSans-50"/>
       <use x="63.623047" xlink:href="#DejaVuSans-53"/>
       <use x="127.246094" xlink:href="#DejaVuSans-48"/>
      </g>
     </g>
    </g>
    <g id="text_6">
     <!-- Total number of objects reported per survey -->
     <defs>
      <path d="M -0.296875 72.90625 
L 61.375 72.90625 
L 61.375 64.59375 
L 35.5 64.59375 
L 35.5 0 
L 25.59375 0 
L 25.59375 64.59375 
L -0.296875 64.59375 
z
" id="DejaVuSans-84"/>
      <path d="M 30.609375 48.390625 
Q 23.390625 48.390625 19.1875 42.75 
Q 14.984375 37.109375 14.984375 27.296875 
Q 14.984375 17.484375 19.15625 11.84375 
Q 23.34375 6.203125 30.609375 6.203125 
Q 37.796875 6.203125 41.984375 11.859375 
Q 46.1875 17.53125 46.1875 27.296875 
Q 46.1875 37.015625 41.984375 42.703125 
Q 37.796875 48.390625 30.609375 48.390625 
z
M 30.609375 56 
Q 42.328125 56 49.015625 48.375 
Q 55.71875 40.765625 55.71875 27.296875 
Q 55.71875 13.875 49.015625 6.21875 
Q 42.328125 -1.421875 30.609375 -1.421875 
Q 18.84375 -1.421875 12.171875 6.21875 
Q 5.515625 13.875 5.515625 27.296875 
Q 5.515625 40.765625 12.171875 48.375 
Q 18.84375 56 30.609375 56 
z
" id="DejaVuSans-111"/>
      <path d="M 18.3125 70.21875 
L 18.3125 54.6875 
L 36.8125 54.6875 
L 36.8125 47.703125 
L 18.3125 47.703125 
L 18.3125 18.015625 
Q 18.3125 11.328125 20.140625 9.421875 
Q 21.96875 7.515625 27.59375 7.515625 
L 36.8125 7.515625 
L 36.8125 0 
L 27.59375 0 
Q 17.1875 0 13.234375 3.875 
Q 9.28125 7.765625 9.28125 18.015625 
L 9.28125 47.703125 
L 2.6875 47.703125 
L 2.6875 54.6875 
L 9.28125 54.6875 
L 9.28125 70.21875 
z
" id="DejaVuSans-116"/>
      <path d="M 34.28125 27.484375 
Q 23.390625 27.484375 19.1875 25 
Q 14.984375 22.515625 14.984375 16.5 
Q 14.984375 11.71875 18.140625 8.90625 
Q 21.296875 6.109375 26.703125 6.109375 
Q 34.1875 6.109375 38.703125 11.40625 
Q 43.21875 16.703125 43.21875 25.484375 
L 43.21875 27.484375 
z
M 52.203125 31.203125 
L 52.203125 0 
L 43.21875 0 
L 43.21875 8.296875 
Q 40.140625 3.328125 35.546875 0.953125 
Q 30.953125 -1.421875 24.3125 -1.421875 
Q 15.921875 -1.421875 10.953125 3.296875 
Q 6 8.015625 6 15.921875 
Q 6 25.140625 12.171875 29.828125 
Q 18.359375 34.515625 30.609375 34.515625 
L 43.21875 34.515625 
L 43.21875 35.40625 
Q 43.21875 41.609375 39.140625 45 
Q 35.0625 48.390625 27.6875 48.390625 
Q 23 48.390625 18.546875 47.265625 
Q 14.109375 46.140625 10.015625 43.890625 
L 10.015625 52.203125 
Q 14.9375 54.109375 19.578125 55.046875 
Q 24.21875 56 28.609375 56 
Q 40.484375 56 46.34375 49.84375 
Q 52.203125 43.703125 52.203125 31.203125 
z
" id="DejaVuSans-97"/>
      <path d="M 9.421875 75.984375 
L 18.40625 75.984375 
L 18.40625 0 
L 9.421875 0 
z
" id="DejaVuSans-108"/>
      <path id="DejaVuSans-32"/>
      <path d="M 54.890625 33.015625 
L 54.890625 0 
L 45.90625 0 
L 45.90625 32.71875 
Q 45.90625 40.484375 42.875 44.328125 
Q 39.84375 48.1875 33.796875 48.1875 
Q 26.515625 48.1875 22.3125 43.546875 
Q 18.109375 38.921875 18.109375 30.90625 
L 18.109375 0 
L 9.078125 0 
L 9.078125 54.6875 
L 18.109375 54.6875 
L 18.109375 46.1875 
Q 21.34375 51.125 25.703125 53.5625 
Q 30.078125 56 35.796875 56 
Q 45.21875 56 50.046875 50.171875 
Q 54.890625 44.34375 54.890625 33.015625 
z
" id="DejaVuSans-110"/>
      <path d="M 8.5 21.578125 
L 8.5 54.6875 
L 17.484375 54.6875 
L 17.484375 21.921875 
Q 17.484375 14.15625 20.5 10.265625 
Q 23.53125 6.390625 29.59375 6.390625 
Q 36.859375 6.390625 41.078125 11.03125 
Q 45.3125 15.671875 45.3125 23.6875 
L 45.3125 54.6875 
L 54.296875 54.6875 
L 54.296875 0 
L 45.3125 0 
L 45.3125 8.40625 
Q 42.046875 3.421875 37.71875 1 
Q 33.40625 -1.421875 27.6875 -1.421875 
Q 18.265625 -1.421875 13.375 4.4375 
Q 8.5 10.296875 8.5 21.578125 
z
M 31.109375 56 
z
" id="DejaVuSans-117"/>
      <path d="M 52 44.1875 
Q 55.375 50.25 60.0625 53.125 
Q 64.75 56 71.09375 56 
Q 79.640625 56 84.28125 50.015625 
Q 88.921875 44.046875 88.921875 33.015625 
L 88.921875 0 
L 79.890625 0 
L 79.890625 32.71875 
Q 79.890625 40.578125 77.09375 44.375 
Q 74.3125 48.1875 68.609375 48.1875 
Q 61.625 48.1875 57.5625 43.546875 
Q 53.515625 38.921875 53.515625 30.90625 
L 53.515625 0 
L 44.484375 0 
L 44.484375 32.71875 
Q 44.484375 40.625 41.703125 44.40625 
Q 38.921875 48.1875 33.109375 48.1875 
Q 26.21875 48.1875 22.15625 43.53125 
Q 18.109375 38.875 18.109375 30.90625 
L 18.109375 0 
L 9.078125 0 
L 9.078125 54.6875 
L 18.109375 54.6875 
L 18.109375 46.1875 
Q 21.1875 51.21875 25.484375 53.609375 
Q 29.78125 56 35.6875 56 
Q 41.65625 56 45.828125 52.96875 
Q 50 49.953125 52 44.1875 
z
" id="DejaVuSans-109"/>
      <path d="M 48.6875 27.296875 
Q 48.6875 37.203125 44.609375 42.84375 
Q 40.53125 48.484375 33.40625 48.484375 
Q 26.265625 48.484375 22.1875 42.84375 
Q 18.109375 37.203125 18.109375 27.296875 
Q 18.109375 17.390625 22.1875 11.75 
Q 26.265625 6.109375 33.40625 6.109375 
Q 40.53125 6.109375 44.609375 11.75 
Q 48.6875 17.390625 48.6875 27.296875 
z
M 18.109375 46.390625 
Q 20.953125 51.265625 25.265625 53.625 
Q 29.59375 56 35.59375 56 
Q 45.5625 56 51.78125 48.09375 
Q 58.015625 40.1875 58.015625 27.296875 
Q 58.015625 14.40625 51.78125 6.484375 
Q 45.5625 -1.421875 35.59375 -1.421875 
Q 29.59375 -1.421875 25.265625 0.953125 
Q 20.953125 3.328125 18.109375 8.203125 
L 18.109375 0 
L 9.078125 0 
L 9.078125 75.984375 
L 18.109375 75.984375 
z
" id="DejaVuSans-98"/>
      <path d="M 56.203125 29.59375 
L 56.203125 25.203125 
L 14.890625 25.203125 
Q 15.484375 15.921875 20.484375 11.0625 
Q 25.484375 6.203125 34.421875 6.203125 
Q 39.59375 6.203125 44.453125 7.46875 
Q 49.3125 8.734375 54.109375 11.28125 
L 54.109375 2.78125 
Q 49.265625 0.734375 44.1875 -0.34375 
Q 39.109375 -1.421875 33.890625 -1.421875 
Q 20.796875 -1.421875 13.15625 6.1875 
Q 5.515625 13.8125 5.515625 26.8125 
Q 5.515625 40.234375 12.765625 48.109375 
Q 20.015625 56 32.328125 56 
Q 43.359375 56 49.78125 48.890625 
Q 56.203125 41.796875 56.203125 29.59375 
z
M 47.21875 32.234375 
Q 47.125 39.59375 43.09375 43.984375 
Q 39.0625 48.390625 32.421875 48.390625 
Q 24.90625 48.390625 20.390625 44.140625 
Q 15.875 39.890625 15.1875 32.171875 
z
" id="DejaVuSans-101"/>
      <path d="M 41.109375 46.296875 
Q 39.59375 47.171875 37.8125 47.578125 
Q 36.03125 48 33.890625 48 
Q 26.265625 48 22.1875 43.046875 
Q 18.109375 38.09375 18.109375 28.8125 
L 18.109375 0 
L 9.078125 0 
L 9.078125 54.6875 
L 18.109375 54.6875 
L 18.109375 46.1875 
Q 20.953125 51.171875 25.484375 53.578125 
Q 30.03125 56 36.53125 56 
Q 37.453125 56 38.578125 55.875 
Q 39.703125 55.765625 41.0625 55.515625 
z
" id="DejaVuSans-114"/>
      <path d="M 37.109375 75.984375 
L 37.109375 68.5 
L 28.515625 68.5 
Q 23.6875 68.5 21.796875 66.546875 
Q 19.921875 64.59375 19.921875 59.515625 
L 19.921875 54.6875 
L 34.71875 54.6875 
L 34.71875 47.703125 
L 19.921875 47.703125 
L 19.921875 0 
L 10.890625 0 
L 10.890625 47.703125 
L 2.296875 47.703125 
L 2.296875 54.6875 
L 10.890625 54.6875 
L 10.890625 58.5 
Q 10.890625 67.625 15.140625 71.796875 
Q 19.390625 75.984375 28.609375 75.984375 
z
" id="DejaVuSans-102"/>
      <path d="M 9.421875 54.6875 
L 18.40625 54.6875 
L 18.40625 -0.984375 
Q 18.40625 -11.421875 14.421875 -16.109375 
Q 10.453125 -20.796875 1.609375 -20.796875 
L -1.8125 -20.796875 
L -1.8125 -13.1875 
L 0.59375 -13.1875 
Q 5.71875 -13.1875 7.5625 -10.8125 
Q 9.421875 -8.453125 9.421875 -0.984375 
z
M 9.421875 75.984375 
L 18.40625 75.984375 
L 18.40625 64.59375 
L 9.421875 64.59375 
z
" id="DejaVuSans-106"/>
      <path d="M 48.78125 52.59375 
L 48.78125 44.1875 
Q 44.96875 46.296875 41.140625 47.34375 
Q 37.3125 48.390625 33.40625 48.390625 
Q 24.65625 48.390625 19.8125 42.84375 
Q 14.984375 37.3125 14.984375 27.296875 
Q 14.984375 17.28125 19.8125 11.734375 
Q 24.65625 6.203125 33.40625 6.203125 
Q 37.3125 6.203125 41.140625 7.25 
Q 44.96875 8.296875 48.78125 10.40625 
L 48.78125 2.09375 
Q 45.015625 0.34375 40.984375 -0.53125 
Q 36.96875 -1.421875 32.421875 -1.421875 
Q 20.0625 -1.421875 12.78125 6.34375 
Q 5.515625 14.109375 5.515625 27.296875 
Q 5.515625 40.671875 12.859375 48.328125 
Q 20.21875 56 33.015625 56 
Q 37.15625 56 41.109375 55.140625 
Q 45.0625 54.296875 48.78125 52.59375 
z
" id="DejaVuSans-99"/>
      <path d="M 44.28125 53.078125 
L 44.28125 44.578125 
Q 40.484375 46.53125 36.375 47.5 
Q 32.28125 48.484375 27.875 48.484375 
Q 21.1875 48.484375 17.84375 46.4375 
Q 14.5 44.390625 14.5 40.28125 
Q 14.5 37.15625 16.890625 35.375 
Q 19.28125 33.59375 26.515625 31.984375 
L 29.59375 31.296875 
Q 39.15625 29.25 43.1875 25.515625 
Q 47.21875 21.78125 47.21875 15.09375 
Q 47.21875 7.46875 41.1875 3.015625 
Q 35.15625 -1.421875 24.609375 -1.421875 
Q 20.21875 -1.421875 15.453125 -0.5625 
Q 10.6875 0.296875 5.421875 2 
L 5.421875 11.28125 
Q 10.40625 8.6875 15.234375 7.390625 
Q 20.0625 6.109375 24.8125 6.109375 
Q 31.15625 6.109375 34.5625 8.28125 
Q 37.984375 10.453125 37.984375 14.40625 
Q 37.984375 18.0625 35.515625 20.015625 
Q 33.0625 21.96875 24.703125 23.78125 
L 21.578125 24.515625 
Q 13.234375 26.265625 9.515625 29.90625 
Q 5.8125 33.546875 5.8125 39.890625 
Q 5.8125 47.609375 11.28125 51.796875 
Q 16.75 56 26.8125 56 
Q 31.78125 56 36.171875 55.265625 
Q 40.578125 54.546875 44.28125 53.078125 
z
" id="DejaVuSans-115"/>
      <path d="M 18.109375 8.203125 
L 18.109375 -20.796875 
L 9.078125 -20.796875 
L 9.078125 54.6875 
L 18.109375 54.6875 
L 18.109375 46.390625 
Q 20.953125 51.265625 25.265625 53.625 
Q 29.59375 56 35.59375 56 
Q 45.5625 56 51.78125 48.09375 
Q 58.015625 40.1875 58.015625 27.296875 
Q 58.015625 14.40625 51.78125 6.484375 
Q 45.5625 -1.421875 35.59375 -1.421875 
Q 29.59375 -1.421875 25.265625 0.953125 
Q 20.953125 3.328125 18.109375 8.203125 
z
M 48.6875 27.296875 
Q 48.6875 37.203125 44.609375 42.84375 
Q 40.53125 48.484375 33.40625 48.484375 
Q 26.265625 48.484375 22.1875 42.84375 
Q 18.109375 37.203125 18.109375 27.296875 
Q 18.109375 17.390625 22.1875 11.75 
Q 26.265625 6.109375 33.40625 6.109375 
Q 40.53125 6.109375 44.609375 11.75 
Q 48.6875 17.390625 48.6875 27.296875 
z
" id="DejaVuSans-112"/>
      <path d="M 45.40625 46.390625 
L 45.40625 75.984375 
L 54.390625 75.984375 
L 54.390625 0 
L 45.40625 0 
L 45.40625 8.203125 
Q 42.578125 3.328125 38.25 0.953125 
Q 33.9375 -1.421875 27.875 -1.421875 
Q 17.96875 -1.421875 11.734375 6.484375 
Q 5.515625 14.40625 5.515625 27.296875 
Q 5.515625 40.1875 11.734375 48.09375 
Q 17.96875 56 27.875 56 
Q 33.9375 56 38.25 53.625 
Q 42.578125 51.265625 45.40625 46.390625 
z
M 14.796875 27.296875 
Q 14.796875 17.390625 18.875 11.75 
Q 22.953125 6.109375 30.078125 6.109375 
Q 37.203125 6.109375 41.296875 11.75 
Q 45.40625 17.390625 45.40625 27.296875 
Q 45.40625 37.203125 41.296875 42.84375 
Q 37.203125 48.484375 30.078125 48.484375 
Q 22.953125 48.484375 18.875 42.84375 
Q 14.796875 37.203125 14.796875 27.296875 
z
" id="DejaVuSans-100"/>
      <path d="M 2.984375 54.6875 
L 12.5 54.6875 
L 29.59375 8.796875 
L 46.6875 54.6875 
L 56.203125 54.6875 
L 35.6875 0 
L 23.484375 0 
z
" id="DejaVuSans-118"/>
      <path d="M 32.171875 -5.078125 
Q 28.375 -14.84375 24.75 -17.8125 
Q 21.140625 -20.796875 15.09375 -20.796875 
L 7.90625 -20.796875 
L 7.90625 -13.28125 
L 13.1875 -13.28125 
Q 16.890625 -13.28125 18.9375 -11.515625 
Q 21 -9.765625 23.484375 -3.21875 
L 25.09375 0.875 
L 2.984375 54.6875 
L 12.5 54.6875 
L 29.59375 11.921875 
L 46.6875 54.6875 
L 56.203125 54.6875 
z
" id="DejaVuSans-121"/>
     </defs>
     <g transform="translate(53.53875 373.914375)scale(0.12 -0.12)">
      <use xlink:href="#DejaVuSans-84"/>
      <use x="60.818359" xlink:href="#DejaVuSans-111"/>
      <use x="122" xlink:href="#DejaVuSans-116"/>
      <use x="161.208984" xlink:href="#DejaVuSans-97"/>
      <use x="222.488281" xlink:href="#DejaVuSans-108"/>
      <use x="250.271484" xlink:href="#DejaVuSans-32"/>
      <use x="282.058594" xlink:href="#DejaVuSans-110"/>
      <use x="345.4375" xlink:href="#DejaVuSans-117"/>
      <use x="408.816406" xlink:href="#DejaVuSans-109"/>
      <use x="506.228516" xlink:href="#DejaVuSans-98"/>
      <use x="569.705078" xlink:href="#DejaVuSans-101"/>
      <use x="631.228516" xlink:href="#DejaVuSans-114"/>
      <use x="672.341797" xlink:href="#DejaVuSans-32"/>
      <use x="704.128906" xlink:href="#DejaVuSans-111"/>
      <use x="765.310547" xlink:href="#DejaVuSans-102"/>
      <use x="800.515625" xlink:href="#DejaVuSans-32"/>
      <use x="832.302734" xlink:href="#DejaVuSans-111"/>
      <use x="893.484375" xlink:href="#DejaVuSans-98"/>
      <use x="956.960938" xlink:href="#DejaVuSans-106"/>
      <use x="984.744141" xlink:href="#DejaVuSans-101"/>
      <use x="1046.267578" xlink:href="#DejaVuSans-99"/>
      <use x="1101.248047" xlink:href="#DejaVuSans-116"/>
      <use x="1140.457031" xlink:href="#DejaVuSans-115"/>
      <use x="1192.556641" xlink:href="#DejaVuSans-32"/>
      <use x="1224.34375" xlink:href="#DejaVuSans-114"/>
      <use x="1265.425781" xlink:href="#DejaVuSans-101"/>
      <use x="1326.949219" xlink:href="#DejaVuSans-112"/>
      <use x="1390.425781" xlink:href="#DejaVuSans-111"/>
      <use x="1451.607422" xlink:href="#DejaVuSans-114"/>
      <use x="1492.720703" xlink:href="#DejaVuSans-116"/>
      <use x="1531.929688" xlink:href="#DejaVuSans-101"/>
      <use x="1593.453125" xlink:href="#DejaVuSans-100"/>
      <use x="1656.929688" xlink:href="#DejaVuSans-32"/>
      <use x="1688.716797" xlink:href="#DejaVuSans-112"/>
      <use x="1752.193359" xlink:href="#DejaVuSans-101"/>
      <use x="1813.716797" xlink:href="#DejaVuSans-114"/>
      <use x="1854.830078" xlink:href="#DejaVuSans-32"/>
      <use x="1886.617188" xlink:href="#DejaVuSans-115"/>
      <use x="1938.716797" xlink:href="#DejaVuSans-117"/>
      <use x="2002.095703" xlink:href="#DejaVuSans-114"/>
      <use x="2043.208984" xlink:href="#DejaVuSans-118"/>
      <use x="2102.388672" xlink:href="#DejaVuSans-101"/>
      <use x="2163.912109" xlink:href="#DejaVuSans-121"/>
     </g>
    </g>
   </g>
   <g id="matplotlib.axis_2">
    <g id="ytick_1">
     <g id="line2d_11">
      <path clip-path="url(#p2780961a43)" d="M 53.53875 297.83544 
L 499.93875 297.83544 
" style="fill:none;stroke:#b0b0b0;stroke-linecap:square;stroke-width:0.8;"/>
     </g>
     <g id="line2d_12">
      <defs>
       <path d="M 0 0 
L -3.5 0 
" id="m994240ba40" style="stroke:#000000;stroke-width:0.8;"/>
      </defs>
      <g>
       <use style="stroke:#000000;stroke-width:0.8;" x="53.53875" xlink:href="#m994240ba40" y="297.83544"/>
      </g>
     </g>
     <g id="text_7">
      <!-- 10 -->
      <g transform="translate(33.81375 301.634658)scale(0.1 -0.1)">
       <use xlink:href="#DejaVuSans-49"/>
       <use x="63.623047" xlink:href="#DejaVuSans-48"/>
      </g>
     </g>
    </g>
    <g id="ytick_2">
     <g id="line2d_13">
      <path clip-path="url(#p2780961a43)" d="M 53.53875 248.960218 
L 499.93875 248.960218 
" style="fill:none;stroke:#b0b0b0;stroke-linecap:square;stroke-width:0.8;"/>
     </g>
     <g id="line2d_14">
      <g>
       <use style="stroke:#000000;stroke-width:0.8;" x="53.53875" xlink:href="#m994240ba40" y="248.960218"/>
      </g>
     </g>
     <g id="text_8">
      <!-- 15 -->
      <g transform="translate(33.81375 252.759437)scale(0.1 -0.1)">
       <use xlink:href="#DejaVuSans-49"/>
       <use x="63.623047" xlink:href="#DejaVuSans-53"/>
      </g>
     </g>
    </g>
    <g id="ytick_3">
     <g id="line2d_15">
      <path clip-path="url(#p2780961a43)" d="M 53.53875 200.084997 
L 499.93875 200.084997 
" style="fill:none;stroke:#b0b0b0;stroke-linecap:square;stroke-width:0.8;"/>
     </g>
     <g id="line2d_16">
      <g>
       <use style="stroke:#000000;stroke-width:0.8;" x="53.53875" xlink:href="#m994240ba40" y="200.084997"/>
      </g>
     </g>
     <g id="text_9">
      <!-- 20 -->
      <g transform="translate(33.81375 203.884216)scale(0.1 -0.1)">
       <use xlink:href="#DejaVuSans-50"/>
       <use x="63.623047" xlink:href="#DejaVuSans-48"/>
      </g>
     </g>
    </g>
    <g id="ytick_4">
     <g id="line2d_17">
      <path clip-path="url(#p2780961a43)" d="M 53.53875 151.209776 
L 499.93875 151.209776 
" style="fill:none;stroke:#b0b0b0;stroke-linecap:square;stroke-width:0.8;"/>
     </g>
     <g id="line2d_18">
      <g>
       <use style="stroke:#000000;stroke-width:0.8;" x="53.53875" xlink:href="#m994240ba40" y="151.209776"/>
      </g>
     </g>
     <g id="text_10">
      <!-- 25 -->
      <g transform="translate(33.81375 155.008994)scale(0.1 -0.1)">
       <use xlink:href="#DejaVuSans-50"/>
       <use x="63.623047" xlink:href="#DejaVuSans-53"/>
      </g>
     </g>
    </g>
    <g id="ytick_5">
     <g id="line2d_19">
      <path clip-path="url(#p2780961a43)" d="M 53.53875 102.334554 
L 499.93875 102.334554 
" style="fill:none;stroke:#b0b0b0;stroke-linecap:square;stroke-width:0.8;"/>
     </g>
     <g id="line2d_20">
      <g>
       <use style="stroke:#000000;stroke-width:0.8;" x="53.53875" xlink:href="#m994240ba40" y="102.334554"/>
      </g>
     </g>
     <g id="text_11">
      <!-- 30 -->
      <defs>
       <path d="M 40.578125 39.3125 
Q 47.65625 37.796875 51.625 33 
Q 55.609375 28.21875 55.609375 21.1875 
Q 55.609375 10.40625 48.1875 4.484375 
Q 40.765625 -1.421875 27.09375 -1.421875 
Q 22.515625 -1.421875 17.65625 -0.515625 
Q 12.796875 0.390625 7.625 2.203125 
L 7.625 11.71875 
Q 11.71875 9.328125 16.59375 8.109375 
Q 21.484375 6.890625 26.8125 6.890625 
Q 36.078125 6.890625 40.9375 10.546875 
Q 45.796875 14.203125 45.796875 21.1875 
Q 45.796875 27.640625 41.28125 31.265625 
Q 36.765625 34.90625 28.71875 34.90625 
L 20.21875 34.90625 
L 20.21875 43.015625 
L 29.109375 43.015625 
Q 36.375 43.015625 40.234375 45.921875 
Q 44.09375 48.828125 44.09375 54.296875 
Q 44.09375 59.90625 40.109375 62.90625 
Q 36.140625 65.921875 28.71875 65.921875 
Q 24.65625 65.921875 20.015625 65.03125 
Q 15.375 64.15625 9.8125 62.3125 
L 9.8125 71.09375 
Q 15.4375 72.65625 20.34375 73.4375 
Q 25.25 74.21875 29.59375 74.21875 
Q 40.828125 74.21875 47.359375 69.109375 
Q 53.90625 64.015625 53.90625 55.328125 
Q 53.90625 49.265625 50.4375 45.09375 
Q 46.96875 40.921875 40.578125 39.3125 
z
" id="DejaVuSans-51"/>
      </defs>
      <g transform="translate(33.81375 106.133773)scale(0.1 -0.1)">
       <use xlink:href="#DejaVuSans-51"/>
       <use x="63.623047" xlink:href="#DejaVuSans-48"/>
      </g>
     </g>
    </g>
    <g id="text_12">
     <!-- Number of categories -->
     <defs>
      <path d="M 9.8125 72.90625 
L 23.09375 72.90625 
L 55.421875 11.921875 
L 55.421875 72.90625 
L 64.984375 72.90625 
L 64.984375 0 
L 51.703125 0 
L 19.390625 60.984375 
L 19.390625 0 
L 9.8125 0 
z
" id="DejaVuSans-78"/>
      <path d="M 45.40625 27.984375 
Q 45.40625 37.75 41.375 43.109375 
Q 37.359375 48.484375 30.078125 48.484375 
Q 22.859375 48.484375 18.828125 43.109375 
Q 14.796875 37.75 14.796875 27.984375 
Q 14.796875 18.265625 18.828125 12.890625 
Q 22.859375 7.515625 30.078125 7.515625 
Q 37.359375 7.515625 41.375 12.890625 
Q 45.40625 18.265625 45.40625 27.984375 
z
M 54.390625 6.78125 
Q 54.390625 -7.171875 48.1875 -13.984375 
Q 42 -20.796875 29.203125 -20.796875 
Q 24.46875 -20.796875 20.265625 -20.09375 
Q 16.0625 -19.390625 12.109375 -17.921875 
L 12.109375 -9.1875 
Q 16.0625 -11.328125 19.921875 -12.34375 
Q 23.78125 -13.375 27.78125 -13.375 
Q 36.625 -13.375 41.015625 -8.765625 
Q 45.40625 -4.15625 45.40625 5.171875 
L 45.40625 9.625 
Q 42.625 4.78125 38.28125 2.390625 
Q 33.9375 0 27.875 0 
Q 17.828125 0 11.671875 7.65625 
Q 5.515625 15.328125 5.515625 27.984375 
Q 5.515625 40.671875 11.671875 48.328125 
Q 17.828125 56 27.875 56 
Q 33.9375 56 38.28125 53.609375 
Q 42.625 51.21875 45.40625 46.390625 
L 45.40625 54.6875 
L 54.390625 54.6875 
z
" id="DejaVuSans-103"/>
      <path d="M 9.421875 54.6875 
L 18.40625 54.6875 
L 18.40625 0 
L 9.421875 0 
z
M 9.421875 75.984375 
L 18.40625 75.984375 
L 18.40625 64.59375 
L 9.421875 64.59375 
z
" id="DejaVuSans-105"/>
     </defs>
     <g transform="translate(16.318125 259.669687)rotate(-90)scale(0.12 -0.12)">
      <use xlink:href="#DejaVuSans-78"/>
      <use x="74.804688" xlink:href="#DejaVuSans-117"/>
      <use x="138.183594" xlink:href="#DejaVuSans-109"/>
      <use x="235.595703" xlink:href="#DejaVuSans-98"/>
      <use x="299.072266" xlink:href="#DejaVuSans-101"/>
      <use x="360.595703" xlink:href="#DejaVuSans-114"/>
      <use x="401.708984" xlink:href="#DejaVuSans-32"/>
      <use x="433.496094" xlink:href="#DejaVuSans-111"/>
      <use x="494.677734" xlink:href="#DejaVuSans-102"/>
      <use x="529.882812" xlink:href="#DejaVuSans-32"/>
      <use x="561.669922" xlink:href="#DejaVuSans-99"/>
      <use x="616.650391" xlink:href="#DejaVuSans-97"/>
      <use x="677.929688" xlink:href="#DejaVuSans-116"/>
      <use x="717.138672" xlink:href="#DejaVuSans-101"/>
      <use x="778.662109" xlink:href="#DejaVuSans-103"/>
      <use x="842.138672" xlink:href="#DejaVuSans-111"/>
      <use x="903.320312" xlink:href="#DejaVuSans-114"/>
      <use x="944.433594" xlink:href="#DejaVuSans-105"/>
      <use x="972.216797" xlink:href="#DejaVuSans-101"/>
      <use x="1033.740234" xlink:href="#DejaVuSans-115"/>
     </g>
    </g>
   </g>
   <g id="PathCollection_1">
    <defs>
     <path d="M 0 11.440061 
C 3.03394 11.440061 5.944026 10.234664 8.089345 8.089345 
C 10.234664 5.944026 11.440061 3.03394 11.440061 0 
C 11.440061 -3.03394 10.234664 -5.944026 8.089345 -8.089345 
C 5.944026 -10.234664 3.03394 -11.440061 0 -11.440061 
C -3.03394 -11.440061 -5.944026 -10.234664 -8.089345 -8.089345 
C -10.234664 -5.944026 -11.440061 -3.03394 -11.440061 0 
C -11.440061 3.03394 -10.234664 5.944026 -8.089345 8.089345 
C -5.944026 10.234664 -3.03394 11.440061 0 11.440061 
z
" id="m3c83b220c1" style="stroke:#ffffff;"/>
    </defs>
    <g clip-path="url(#p2780961a43)">
     <use style="fill:#393b79;stroke:#ffffff;" x="250.174837" xlink:href="#m3c83b220c1" y="151.209776"/>
    </g>
   </g>
   <g id="PathCollection_2">
    <defs>
     <path d="M 0 3.409545 
C 0.904222 3.409545 1.771531 3.050294 2.410913 2.410913 
C 3.050294 1.771531 3.409545 0.904222 3.409545 0 
C 3.409545 -0.904222 3.050294 -1.771531 2.410913 -2.410913 
C 1.771531 -3.050294 0.904222 -3.409545 0 -3.409545 
C -0.904222 -3.409545 -1.771531 -3.050294 -2.410913 -2.410913 
C -3.050294 -1.771531 -3.409545 -0.904222 -3.409545 0 
C -3.409545 0.904222 -3.050294 1.771531 -2.410913 2.410913 
C -1.771531 3.050294 -0.904222 3.409545 0 3.409545 
z
" id="m8b66840f48" style="stroke:#ffffff;"/>
    </defs>
    <g clip-path="url(#p2780961a43)">
     <use style="fill:#5254a3;stroke:#ffffff;" x="92.34374" xlink:href="#m8b66840f48" y="248.960218"/>
    </g>
   </g>
   <g id="PathCollection_3">
    <path clip-path="url(#p2780961a43)" d="M 136.94818 251.698831 
C 137.674469 251.698831 138.371108 251.410274 138.884672 250.89671 
C 139.398236 250.383146 139.686793 249.686507 139.686793 248.960218 
C 139.686793 248.23393 139.398236 247.53729 138.884672 247.023727 
C 138.371108 246.510163 137.674469 246.221606 136.94818 246.221606 
C 136.221892 246.221606 135.525252 246.510163 135.011689 247.023727 
C 134.498125 247.53729 134.209567 248.23393 134.209567 248.960218 
C 134.209567 249.686507 134.498125 250.383146 135.011689 250.89671 
C 135.525252 251.410274 136.221892 251.698831 136.94818 251.698831 
z
" style="fill:#6b6ecf;stroke:#ffffff;"/>
    <path clip-path="url(#p2780961a43)" d="M 159.2504 222.836648 
C 160.099465 222.836648 160.913868 222.499311 161.514247 221.898932 
C 162.114626 221.298553 162.451963 220.48415 162.451963 219.635086 
C 162.451963 218.786021 162.114626 217.971618 161.514247 217.371239 
C 160.913868 216.77086 160.099465 216.433523 159.2504 216.433523 
C 158.401336 216.433523 157.586933 216.77086 156.986554 217.371239 
C 156.386175 217.971618 156.048838 218.786021 156.048838 219.635086 
C 156.048838 220.48415 156.386175 221.298553 156.986554 221.898932 
C 157.586933 222.499311 158.401336 222.836648 159.2504 222.836648 
z
" style="fill:#6b6ecf;stroke:#ffffff;"/>
   </g>
   <g id="PathCollection_4">
    <defs>
     <path d="M 0 4.330127 
C 1.148363 4.330127 2.249847 3.873878 3.061862 3.061862 
C 3.873878 2.249847 4.330127 1.148363 4.330127 0 
C 4.330127 -1.148363 3.873878 -2.249847 3.061862 -3.061862 
C 2.249847 -3.873878 1.148363 -4.330127 0 -4.330127 
C -1.148363 -4.330127 -2.249847 -3.873878 -3.061862 -3.061862 
C -3.873878 -2.249847 -4.330127 -1.148363 -4.330127 0 
C -4.330127 1.148363 -3.873878 2.249847 -3.061862 3.061862 
C -2.249847 3.873878 -1.148363 4.330127 0 4.330127 
z
" id="mf61a7acb2f" style="stroke:#ffffff;"/>
    </defs>
    <g clip-path="url(#p2780961a43)">
     <use style="fill:#9c9ede;stroke:#ffffff;" x="111.214849" xlink:href="#mf61a7acb2f" y="229.41013"/>
    </g>
   </g>
   <g id="PathCollection_5">
    <defs>
     <path d="M 0 4.83477 
C 1.282196 4.83477 2.512049 4.325348 3.418699 3.418699 
C 4.325348 2.512049 4.83477 1.282196 4.83477 0 
C 4.83477 -1.282196 4.325348 -2.512049 3.418699 -3.418699 
C 2.512049 -4.325348 1.282196 -4.83477 0 -4.83477 
C -1.282196 -4.83477 -2.512049 -4.325348 -3.418699 -3.418699 
C -4.325348 -2.512049 -4.83477 -1.282196 -4.83477 0 
C -4.83477 1.282196 -4.325348 2.512049 -3.418699 3.418699 
C -2.512049 4.325348 -1.282196 4.83477 0 4.83477 
z
" id="m4ac1e7c4fc" style="stroke:#ffffff;"/>
    </defs>
    <g clip-path="url(#p2780961a43)">
     <use style="fill:#637939;stroke:#ffffff;" x="190.130398" xlink:href="#m4ac1e7c4fc" y="151.209776"/>
    </g>
   </g>
   <g id="PathCollection_6">
    <path clip-path="url(#p2780961a43)" d="M 111.214849 310.589578 
C 112.004914 310.589578 112.762726 310.275682 113.321387 309.717021 
C 113.880047 309.158361 114.193943 308.400549 114.193943 307.610484 
C 114.193943 306.820419 113.880047 306.062607 113.321387 305.503947 
C 112.762726 304.945286 112.004914 304.63139 111.214849 304.63139 
C 110.424784 304.63139 109.666972 304.945286 109.108312 305.503947 
C 108.549652 306.062607 108.235755 306.820419 108.235755 307.610484 
C 108.235755 308.400549 108.549652 309.158361 109.108312 309.717021 
C 109.666972 310.275682 110.424784 310.589578 111.214849 310.589578 
z
" style="fill:#8ca252;stroke:#ffffff;"/>
    <path clip-path="url(#p2780961a43)" d="M 119.792626 242.463893 
C 120.662153 242.463893 121.496183 242.118427 122.111031 241.503579 
C 122.725879 240.888731 123.071346 240.054701 123.071346 239.185174 
C 123.071346 238.315648 122.725879 237.481618 122.111031 236.866769 
C 121.496183 236.251921 120.662153 235.906455 119.792626 235.906455 
C 118.9231 235.906455 118.08907 236.251921 117.474222 236.866769 
C 116.859374 237.481618 116.513907 238.315648 116.513907 239.185174 
C 116.513907 240.054701 116.859374 240.888731 117.474222 241.503579 
C 118.08907 242.118427 118.9231 242.463893 119.792626 242.463893 
z
" style="fill:#8ca252;stroke:#ffffff;"/>
   </g>
   <g id="PathCollection_7">
    <path clip-path="url(#p2780961a43)" d="M 383.988158 79.964635 
C 385.832702 79.964635 387.601947 79.23179 388.906237 77.9275 
C 390.210526 76.623211 390.943372 74.853966 390.943372 73.009421 
C 390.943372 71.164877 390.210526 69.395632 388.906237 68.091343 
C 387.601947 66.787053 385.832702 66.054208 383.988158 66.054208 
C 382.143613 66.054208 380.374369 66.787053 379.070079 68.091343 
C 377.765789 69.395632 377.032944 71.164877 377.032944 73.009421 
C 377.032944 74.853966 377.765789 76.623211 379.070079 77.9275 
C 380.374369 79.23179 382.143613 79.964635 383.988158 79.964635 
z
" style="fill:#b5cf6b;stroke:#ffffff;"/>
    <path clip-path="url(#p2780961a43)" d="M 476.628149 100.321597 
C 478.686679 100.321597 480.661174 99.503735 482.116774 98.048135 
C 483.572374 96.592534 484.390237 94.61804 484.390237 92.55951 
C 484.390237 90.50098 483.572374 88.526486 482.116774 87.070885 
C 480.661174 85.615285 478.686679 84.797423 476.628149 84.797423 
C 474.56962 84.797423 472.595125 85.615285 471.139525 87.070885 
C 469.683924 88.526486 468.866062 90.50098 468.866062 92.55951 
C 468.866062 94.61804 469.683924 96.592534 471.139525 98.048135 
C 472.595125 99.503735 474.56962 100.321597 476.628149 100.321597 
z
" style="fill:#b5cf6b;stroke:#ffffff;"/>
   </g>
   <g id="PathCollection_8">
    <defs>
     <path d="M 0 5.17204 
C 1.371641 5.17204 2.687288 4.627081 3.657185 3.657185 
C 4.627081 2.687288 5.17204 1.371641 5.17204 0 
C 5.17204 -1.371641 4.627081 -2.687288 3.657185 -3.657185 
C 2.687288 -4.627081 1.371641 -5.17204 0 -5.17204 
C -1.371641 -5.17204 -2.687288 -4.627081 -3.657185 -3.657185 
C -4.627081 -2.687288 -5.17204 -1.371641 -5.17204 0 
C -5.17204 1.371641 -4.627081 2.687288 -3.657185 3.657185 
C -2.687288 4.627081 -1.371641 5.17204 0 5.17204 
z
" id="mcc707178dc" style="stroke:#ffffff;"/>
    </defs>
    <g clip-path="url(#p2780961a43)">
     <use style="fill:#cedb9c;stroke:#ffffff;" x="135.232625" xlink:href="#mcc707178dc" y="258.735263"/>
    </g>
   </g>
   <g id="PathCollection_9">
    <path clip-path="url(#p2780961a43)" d="M 196.992619 178.465382 
C 199.036146 178.465382 200.996251 177.65348 202.441243 176.208488 
C 203.886235 174.763496 204.698137 172.803391 204.698137 170.759864 
C 204.698137 168.716337 203.886235 166.756232 202.441243 165.311241 
C 200.996251 163.866249 199.036146 163.054347 196.992619 163.054347 
C 194.949092 163.054347 192.988987 163.866249 191.543996 165.311241 
C 190.099004 166.756232 189.287102 168.716337 189.287102 170.759864 
C 189.287102 172.803391 190.099004 174.763496 191.543996 176.208488 
C 192.988987 177.65348 194.949092 178.465382 196.992619 178.465382 
z
" style="fill:#8c6d31;stroke:#ffffff;"/>
    <path clip-path="url(#p2780961a43)" d="M 76.903741 320.606553 
C 77.757967 320.606553 78.577321 320.267165 79.18135 319.663137 
C 79.785378 319.059108 80.124766 318.239754 80.124766 317.385528 
C 80.124766 316.531302 79.785378 315.711949 79.18135 315.10792 
C 78.577321 314.503891 77.757967 314.164504 76.903741 314.164504 
C 76.049516 314.164504 75.230162 314.503891 74.626133 315.10792 
C 74.022104 315.711949 73.682717 316.531302 73.682717 317.385528 
C 73.682717 318.239754 74.022104 319.059108 74.626133 319.663137 
C 75.230162 320.267165 76.049516 320.606553 76.903741 320.606553 
z
" style="fill:#8c6d31;stroke:#ffffff;"/>
   </g>
   <g id="PathCollection_10">
    <path clip-path="url(#p2780961a43)" d="M 179.837065 116.262911 
C 180.938536 116.262911 181.995043 115.825291 182.7739 115.046434 
C 183.552758 114.267576 183.990377 113.21107 183.990377 112.109599 
C 183.990377 111.008127 183.552758 109.951621 182.7739 109.172764 
C 181.995043 108.393906 180.938536 107.956287 179.837065 107.956287 
C 178.735594 107.956287 177.679088 108.393906 176.90023 109.172764 
C 176.121372 109.951621 175.683753 111.008127 175.683753 112.109599 
C 175.683753 113.21107 176.121372 114.267576 176.90023 115.046434 
C 177.679088 115.825291 178.735594 116.262911 179.837065 116.262911 
z
" style="fill:#bd9e39;stroke:#ffffff;"/>
    <path clip-path="url(#p2780961a43)" d="M 275.908168 138.062811 
C 277.606296 138.062811 279.235102 137.388138 280.43586 136.18738 
C 281.636618 134.986622 282.311292 133.357816 282.311292 131.659687 
C 282.311292 129.961559 281.636618 128.332753 280.43586 127.131995 
C 279.235102 125.931236 277.606296 125.256563 275.908168 125.256563 
C 274.210039 125.256563 272.581233 125.931236 271.380475 127.131995 
C 270.179717 128.332753 269.505043 129.961559 269.505043 131.659687 
C 269.505043 133.357816 270.179717 134.986622 271.380475 136.18738 
C 272.581233 137.388138 274.210039 138.062811 275.908168 138.062811 
z
" style="fill:#bd9e39;stroke:#ffffff;"/>
   </g>
   <g id="patch_3">
    <path d="M 53.53875 333.118125 
L 53.53875 55.918125 
" style="fill:none;stroke:#000000;stroke-linecap:square;stroke-linejoin:miter;stroke-width:0.8;"/>
   </g>
   <g id="patch_4">
    <path d="M 499.93875 333.118125 
L 499.93875 55.918125 
" style="fill:none;stroke:#000000;stroke-linecap:square;stroke-linejoin:miter;stroke-width:0.8;"/>
   </g>
   <g id="patch_5">
    <path d="M 53.53875 333.118125 
L 499.93875 333.118125 
" style="fill:none;stroke:#000000;stroke-linecap:square;stroke-linejoin:miter;stroke-width:0.8;"/>
   </g>
   <g id="patch_6">
    <path d="M 53.53875 55.918125 
L 499.93875 55.918125 
" style="fill:none;stroke:#000000;stroke-linecap:square;stroke-linejoin:miter;stroke-width:0.8;"/>
   </g>
   <g id="text_13">
    <!-- Total number of objects and categories reported per survey. -->
    <defs>
     <path d="M 10.6875 12.40625 
L 21 12.40625 
L 21 0 
L 10.6875 0 
z
" id="DejaVuSans-46"/>
    </defs>
    <g transform="translate(53.53875 40.918125)scale(0.12 -0.12)">
     <use xlink:href="#DejaVuSans-84"/>
     <use x="60.818359" xlink:href="#DejaVuSans-111"/>
     <use x="122" xlink:href="#DejaVuSans-116"/>
     <use x="161.208984" xlink:href="#DejaVuSans-97"/>
     <use x="222.488281" xlink:href="#DejaVuSans-108"/>
     <use x="250.271484" xlink:href="#DejaVuSans-32"/>
     <use x="282.058594" xlink:href="#DejaVuSans-110"/>
     <use x="345.4375" xlink:href="#DejaVuSans-117"/>
     <use x="408.816406" xlink:href="#DejaVuSans-109"/>
     <use x="506.228516" xlink:href="#DejaVuSans-98"/>
     <use x="569.705078" xlink:href="#DejaVuSans-101"/>
     <use x="631.228516" xlink:href="#DejaVuSans-114"/>
     <use x="672.341797" xlink:href="#DejaVuSans-32"/>
     <use x="704.128906" xlink:href="#DejaVuSans-111"/>
     <use x="765.310547" xlink:href="#DejaVuSans-102"/>
     <use x="800.515625" xlink:href="#DejaVuSans-32"/>
     <use x="832.302734" xlink:href="#DejaVuSans-111"/>
     <use x="893.484375" xlink:href="#DejaVuSans-98"/>
     <use x="956.960938" xlink:href="#DejaVuSans-106"/>
     <use x="984.744141" xlink:href="#DejaVuSans-101"/>
     <use x="1046.267578" xlink:href="#DejaVuSans-99"/>
     <use x="1101.248047" xlink:href="#DejaVuSans-116"/>
     <use x="1140.457031" xlink:href="#DejaVuSans-115"/>
     <use x="1192.556641" xlink:href="#DejaVuSans-32"/>
     <use x="1224.34375" xlink:href="#DejaVuSans-97"/>
     <use x="1285.623047" xlink:href="#DejaVuSans-110"/>
     <use x="1349.001953" xlink:href="#DejaVuSans-100"/>
     <use x="1412.478516" xlink:href="#DejaVuSans-32"/>
     <use x="1444.265625" xlink:href="#DejaVuSans-99"/>
     <use x="1499.246094" xlink:href="#DejaVuSans-97"/>
     <use x="1560.525391" xlink:href="#DejaVuSans-116"/>
     <use x="1599.734375" xlink:href="#DejaVuSans-101"/>
     <use x="1661.257812" xlink:href="#DejaVuSans-103"/>
     <use x="1724.734375" xlink:href="#DejaVuSans-111"/>
     <use x="1785.916016" xlink:href="#DejaVuSans-114"/>
     <use x="1827.029297" xlink:href="#DejaVuSans-105"/>
     <use x="1854.8125" xlink:href="#DejaVuSans-101"/>
     <use x="1916.335938" xlink:href="#DejaVuSans-115"/>
     <use x="1968.435547" xlink:href="#DejaVuSans-32"/>
     <use x="2000.222656" xlink:href="#DejaVuSans-114"/>
     <use x="2041.304688" xlink:href="#DejaVuSans-101"/>
     <use x="2102.828125" xlink:href="#DejaVuSans-112"/>
     <use x="2166.304688" xlink:href="#DejaVuSans-111"/>
     <use x="2227.486328" xlink:href="#DejaVuSans-114"/>
     <use x="2268.599609" xlink:href="#DejaVuSans-116"/>
     <use x="2307.808594" xlink:href="#DejaVuSans-101"/>
     <use x="2369.332031" xlink:href="#DejaVuSans-100"/>
     <use x="2432.808594" xlink:href="#DejaVuSans-32"/>
     <use x="2464.595703" xlink:href="#DejaVuSans-112"/>
     <use x="2528.072266" xlink:href="#DejaVuSans-101"/>
     <use x="2589.595703" xlink:href="#DejaVuSans-114"/>
     <use x="2630.708984" xlink:href="#DejaVuSans-32"/>
     <use x="2662.496094" xlink:href="#DejaVuSans-115"/>
     <use x="2714.595703" xlink:href="#DejaVuSans-117"/>
     <use x="2777.974609" xlink:href="#DejaVuSans-114"/>
     <use x="2819.087891" xlink:href="#DejaVuSans-118"/>
     <use x="2878.267578" xlink:href="#DejaVuSans-101"/>
     <use x="2939.791016" xlink:href="#DejaVuSans-121"/>
     <use x="2998.751953" xlink:href="#DejaVuSans-46"/>
    </g>
   </g>
  </g>
  <g id="text_14">
   <!-- All locations and all surveys Jan-2020 to Apr-2020 -->
   <defs>
    <path d="M 34.1875 63.1875 
L 20.796875 26.90625 
L 47.609375 26.90625 
z
M 28.609375 72.90625 
L 39.796875 72.90625 
L 67.578125 0 
L 57.328125 0 
L 50.6875 18.703125 
L 17.828125 18.703125 
L 11.1875 0 
L 0.78125 0 
z
" id="DejaVuSans-65"/>
    <path d="M 9.8125 72.90625 
L 19.671875 72.90625 
L 19.671875 5.078125 
Q 19.671875 -8.109375 14.671875 -14.0625 
Q 9.671875 -20.015625 -1.421875 -20.015625 
L -5.171875 -20.015625 
L -5.171875 -11.71875 
L -2.09375 -11.71875 
Q 4.4375 -11.71875 7.125 -8.046875 
Q 9.8125 -4.390625 9.8125 5.078125 
z
" id="DejaVuSans-74"/>
    <path d="M 4.890625 31.390625 
L 31.203125 31.390625 
L 31.203125 23.390625 
L 4.890625 23.390625 
z
" id="DejaVuSans-45"/>
   </defs>
   <g transform="translate(56.41875 16.318125)scale(0.12 -0.12)">
    <use xlink:href="#DejaVuSans-65"/>
    <use x="68.408203" xlink:href="#DejaVuSans-108"/>
    <use x="96.191406" xlink:href="#DejaVuSans-108"/>
    <use x="123.974609" xlink:href="#DejaVuSans-32"/>
    <use x="155.761719" xlink:href="#DejaVuSans-108"/>
    <use x="183.544922" xlink:href="#DejaVuSans-111"/>
    <use x="244.726562" xlink:href="#DejaVuSans-99"/>
    <use x="299.707031" xlink:href="#DejaVuSans-97"/>
    <use x="360.986328" xlink:href="#DejaVuSans-116"/>
    <use x="400.195312" xlink:href="#DejaVuSans-105"/>
    <use x="427.978516" xlink:href="#DejaVuSans-111"/>
    <use x="489.160156" xlink:href="#DejaVuSans-110"/>
    <use x="552.539062" xlink:href="#DejaVuSans-115"/>
    <use x="604.638672" xlink:href="#DejaVuSans-32"/>
    <use x="636.425781" xlink:href="#DejaVuSans-97"/>
    <use x="697.705078" xlink:href="#DejaVuSans-110"/>
    <use x="761.083984" xlink:href="#DejaVuSans-100"/>
    <use x="824.560547" xlink:href="#DejaVuSans-32"/>
    <use x="856.347656" xlink:href="#DejaVuSans-97"/>
    <use x="917.626953" xlink:href="#DejaVuSans-108"/>
    <use x="945.410156" xlink:href="#DejaVuSans-108"/>
    <use x="973.193359" xlink:href="#DejaVuSans-32"/>
    <use x="1004.980469" xlink:href="#DejaVuSans-115"/>
    <use x="1057.080078" xlink:href="#DejaVuSans-117"/>
    <use x="1120.458984" xlink:href="#DejaVuSans-114"/>
    <use x="1161.572266" xlink:href="#DejaVuSans-118"/>
    <use x="1220.751953" xlink:href="#DejaVuSans-101"/>
    <use x="1282.275391" xlink:href="#DejaVuSans-121"/>
    <use x="1341.455078" xlink:href="#DejaVuSans-115"/>
    <use x="1393.554688" xlink:href="#DejaVuSans-32"/>
    <use x="1425.341797" xlink:href="#DejaVuSans-74"/>
    <use x="1454.833984" xlink:href="#DejaVuSans-97"/>
    <use x="1516.113281" xlink:href="#DejaVuSans-110"/>
    <use x="1579.492188" xlink:href="#DejaVuSans-45"/>
    <use x="1615.576172" xlink:href="#DejaVuSans-50"/>
    <use x="1679.199219" xlink:href="#DejaVuSans-48"/>
    <use x="1742.822266" xlink:href="#DejaVuSans-50"/>
    <use x="1806.445312" xlink:href="#DejaVuSans-48"/>
    <use x="1870.068359" xlink:href="#DejaVuSans-32"/>
    <use x="1901.855469" xlink:href="#DejaVuSans-116"/>
    <use x="1941.064453" xlink:href="#DejaVuSans-111"/>
    <use x="2002.246094" xlink:href="#DejaVuSans-32"/>
    <use x="2034.033203" xlink:href="#DejaVuSans-65"/>
    <use x="2102.441406" xlink:href="#DejaVuSans-112"/>
    <use x="2165.917969" xlink:href="#DejaVuSans-114"/>
    <use x="2206.9375" xlink:href="#DejaVuSans-45"/>
    <use x="2243.021484" xlink:href="#DejaVuSans-50"/>
    <use x="2306.644531" xlink:href="#DejaVuSans-48"/>
    <use x="2370.267578" xlink:href="#DejaVuSans-50"/>
    <use x="2433.890625" xlink:href="#DejaVuSans-48"/>
   </g>
  </g>
 </g>
 <defs>
  <clipPath id="p2780961a43">
   <rect height="277.2" width="446.4" x="53.53875" y="55.918125"/>
  </clipPath>
 </defs>
</svg>
